M48
;DRILL file {KiCad 4.0.7} date 06/18/21 00:56:20
;FORMAT={-:-/ absolute / inch / decimal}
FMAT,2
INCH,TZ
T1C0.030
T2C0.039
%
G90
G05
M72
T1
X4.8228Y-4.7835
X5.2165Y-4.7835
X5.2166Y-4.5277
X5.2953Y-4.5277
X5.4528Y-4.5277
X5.5709Y-4.5866
X5.689Y-4.5277
X5.7678Y-4.5277
X5.8465Y-4.5277
X5.9252Y-4.5277
X6.0433Y-4.6063
X6.2402Y-4.5277
X6.3976Y-4.7835
X6.3977Y-4.5277
X6.4764Y-4.5277
X6.8701Y-4.7835
T2
X4.8425Y-3.8976
X4.8425Y-3.9976
X4.8425Y-4.0976
X4.8425Y-4.1976
X5.3543Y-4.7638
X5.4543Y-4.7638
X5.5543Y-4.7638
X5.6543Y-4.7638
X5.7543Y-4.7638
X5.8543Y-4.7638
X5.9543Y-4.7638
X6.0543Y-4.7638
X6.1543Y-4.7638
X6.2543Y-4.7638
X6.8504Y-3.8976
X6.8504Y-3.9976
X6.8504Y-4.0976
X6.8504Y-4.1976
T0
M30
