%TF.GenerationSoftware,KiCad,Pcbnew,4.0.7*%
%TF.CreationDate,2021-06-18T00:55:45+09:00*%
%TF.ProjectId,NuTube_Conversion_Board,4E75547562655F436F6E76657273696F,rev?*%
%TF.FileFunction,Copper,L1,Top,Signal*%
%FSLAX46Y46*%
G04 Gerber Fmt 4.6, Leading zero omitted, Abs format (unit mm)*
G04 Created by KiCad (PCBNEW 4.0.7) date 06/18/21 00:55:45*
%MOMM*%
%LPD*%
G01*
G04 APERTURE LIST*
%ADD10C,0.100000*%
%ADD11C,0.150000*%
%ADD12C,0.762000*%
%ADD13R,1.700000X1.700000*%
%ADD14O,1.700000X1.700000*%
%ADD15C,1.524000*%
%ADD16C,1.600000*%
%ADD17C,0.500000*%
G04 APERTURE END LIST*
D10*
D11*
X176000000Y-97000000D02*
X176000000Y-123000000D01*
X121000000Y-97000000D02*
X121000000Y-123000000D01*
X176000000Y-123000000D02*
X121000000Y-123000000D01*
X121000000Y-97000000D02*
X176000000Y-97000000D01*
D12*
X132500000Y-121500000D03*
X162500000Y-121500000D03*
X153500000Y-117000000D03*
X141500000Y-116500000D03*
X174500000Y-121500000D03*
D13*
X123000000Y-99000000D03*
D14*
X123000000Y-101540000D03*
X123000000Y-104080000D03*
X123000000Y-106620000D03*
D13*
X136000000Y-121000000D03*
D14*
X138540000Y-121000000D03*
X141080000Y-121000000D03*
X143620000Y-121000000D03*
X146160000Y-121000000D03*
X148700000Y-121000000D03*
X151240000Y-121000000D03*
X153780000Y-121000000D03*
X156320000Y-121000000D03*
X158860000Y-121000000D03*
D13*
X174000000Y-99000000D03*
D14*
X174000000Y-101540000D03*
X174000000Y-104080000D03*
X174000000Y-106620000D03*
D15*
X148501100Y-115003600D03*
X150501100Y-115003600D03*
X158501100Y-115003600D03*
X162501100Y-115003600D03*
X164501100Y-115003600D03*
X132501100Y-115003600D03*
X134501100Y-115003600D03*
X138501100Y-115003600D03*
X144501100Y-115003600D03*
X146501100Y-115003600D03*
D12*
X122500000Y-121500000D03*
D16*
X141080000Y-121000000D02*
X141080000Y-119080000D01*
X138501100Y-116501100D02*
X138501100Y-115003600D01*
X141080000Y-119080000D02*
X138501100Y-116501100D01*
X143620000Y-121000000D02*
X143620000Y-115884700D01*
X143620000Y-115884700D02*
X144501100Y-115003600D01*
X151240000Y-121000000D02*
X151240000Y-115742500D01*
X151240000Y-115742500D02*
X150501100Y-115003600D01*
X153780000Y-121000000D02*
X153780000Y-119724700D01*
X153780000Y-119724700D02*
X158501100Y-115003600D01*
D17*
G36*
X165750000Y-115103554D02*
X165750000Y-115896446D01*
X159896446Y-121750000D01*
X156103554Y-121750000D01*
X155750000Y-121396446D01*
X155750000Y-120603554D01*
X162103554Y-114250000D01*
X164896446Y-114250000D01*
X165750000Y-115103554D01*
X165750000Y-115103554D01*
G37*
X165750000Y-115103554D02*
X165750000Y-115896446D01*
X159896446Y-121750000D01*
X156103554Y-121750000D01*
X155750000Y-121396446D01*
X155750000Y-120603554D01*
X162103554Y-114250000D01*
X164896446Y-114250000D01*
X165750000Y-115103554D01*
G36*
X135750000Y-115103554D02*
X135750000Y-117000000D01*
X135769696Y-117097264D01*
X135823223Y-117176777D01*
X139250000Y-120603554D01*
X139250000Y-121396446D01*
X138896446Y-121750000D01*
X135103554Y-121750000D01*
X131250000Y-117896446D01*
X131250000Y-115103554D01*
X132103554Y-114250000D01*
X134896446Y-114250000D01*
X135750000Y-115103554D01*
X135750000Y-115103554D01*
G37*
X135750000Y-115103554D02*
X135750000Y-117000000D01*
X135769696Y-117097264D01*
X135823223Y-117176777D01*
X139250000Y-120603554D01*
X139250000Y-121396446D01*
X138896446Y-121750000D01*
X135103554Y-121750000D01*
X131250000Y-117896446D01*
X131250000Y-115103554D01*
X132103554Y-114250000D01*
X134896446Y-114250000D01*
X135750000Y-115103554D01*
G36*
X175075000Y-98428554D02*
X175075000Y-121571446D01*
X174571446Y-122075000D01*
X161127082Y-122075000D01*
X166601041Y-116601041D01*
X166783032Y-116330698D01*
X166850000Y-116000000D01*
X166850000Y-115000000D01*
X166787526Y-114680151D01*
X166601041Y-114398959D01*
X165601041Y-113398959D01*
X165330698Y-113216968D01*
X165000000Y-113150000D01*
X162000000Y-113150000D01*
X161680151Y-113212474D01*
X161398959Y-113398959D01*
X160113379Y-114684539D01*
X160113379Y-114684360D01*
X160063669Y-114564053D01*
X160025502Y-114372172D01*
X159917760Y-114210925D01*
X159868484Y-114091668D01*
X159776516Y-113999539D01*
X159667826Y-113836874D01*
X159506581Y-113729133D01*
X159415417Y-113637810D01*
X159295196Y-113587890D01*
X159132528Y-113479198D01*
X158942324Y-113441364D01*
X158823153Y-113391880D01*
X158692977Y-113391767D01*
X158501100Y-113353600D01*
X158310897Y-113391433D01*
X158181860Y-113391321D01*
X158061552Y-113441031D01*
X157869673Y-113479198D01*
X157708427Y-113586939D01*
X157589168Y-113636216D01*
X157497039Y-113728185D01*
X157334374Y-113836874D01*
X152890000Y-118281248D01*
X152890000Y-115742500D01*
X152764401Y-115111072D01*
X152406726Y-114575774D01*
X151667826Y-113836874D01*
X151506582Y-113729135D01*
X151415417Y-113637810D01*
X151295192Y-113587888D01*
X151132527Y-113479199D01*
X150942328Y-113441366D01*
X150823153Y-113391880D01*
X150692976Y-113391767D01*
X150501100Y-113353600D01*
X150310899Y-113391433D01*
X150181860Y-113391321D01*
X150061549Y-113441032D01*
X149869673Y-113479199D01*
X149708430Y-113586938D01*
X149589168Y-113636216D01*
X149497038Y-113728186D01*
X149334374Y-113836874D01*
X149226635Y-113998118D01*
X149135310Y-114089283D01*
X149085388Y-114209508D01*
X148976699Y-114372173D01*
X148938866Y-114562372D01*
X148889380Y-114681547D01*
X148889267Y-114811724D01*
X148851100Y-115003600D01*
X148888933Y-115193801D01*
X148888821Y-115322840D01*
X148938532Y-115443151D01*
X148976699Y-115635027D01*
X149084438Y-115796270D01*
X149133716Y-115915532D01*
X149225686Y-116007662D01*
X149334374Y-116170326D01*
X149590000Y-116425952D01*
X149590000Y-120715328D01*
X149540000Y-120966695D01*
X149540000Y-121033305D01*
X149669405Y-121683867D01*
X149930751Y-122075000D01*
X144929249Y-122075000D01*
X145190595Y-121683867D01*
X145320000Y-121033305D01*
X145320000Y-120966695D01*
X145270000Y-120715328D01*
X145270000Y-116568152D01*
X145667826Y-116170326D01*
X145775566Y-116009082D01*
X145866890Y-115917917D01*
X145916811Y-115797695D01*
X146025502Y-115635027D01*
X146063335Y-115444825D01*
X146112820Y-115325653D01*
X146112933Y-115195477D01*
X146151100Y-115003600D01*
X146113267Y-114813397D01*
X146113379Y-114684360D01*
X146063669Y-114564053D01*
X146025502Y-114372172D01*
X145917760Y-114210925D01*
X145868484Y-114091668D01*
X145776516Y-113999539D01*
X145667826Y-113836874D01*
X145506581Y-113729133D01*
X145415417Y-113637810D01*
X145295196Y-113587890D01*
X145132528Y-113479198D01*
X144942324Y-113441364D01*
X144823153Y-113391880D01*
X144692977Y-113391767D01*
X144501100Y-113353600D01*
X144310897Y-113391433D01*
X144181860Y-113391321D01*
X144061552Y-113441031D01*
X143869673Y-113479198D01*
X143708427Y-113586939D01*
X143589168Y-113636216D01*
X143497039Y-113728185D01*
X143334374Y-113836874D01*
X142453274Y-114717974D01*
X142095599Y-115253272D01*
X141970000Y-115884700D01*
X141970000Y-117636548D01*
X140151100Y-115817648D01*
X140151100Y-115003600D01*
X140113267Y-114813398D01*
X140113379Y-114684360D01*
X140063668Y-114564050D01*
X140025501Y-114372172D01*
X139917761Y-114210928D01*
X139868484Y-114091668D01*
X139776515Y-113999538D01*
X139667826Y-113836874D01*
X139506582Y-113729134D01*
X139415417Y-113637810D01*
X139295194Y-113587889D01*
X139132528Y-113479199D01*
X138942328Y-113441366D01*
X138823153Y-113391880D01*
X138692976Y-113391767D01*
X138501100Y-113353600D01*
X138310898Y-113391433D01*
X138181860Y-113391321D01*
X138061550Y-113441032D01*
X137869672Y-113479199D01*
X137708428Y-113586939D01*
X137589168Y-113636216D01*
X137497038Y-113728185D01*
X137334374Y-113836874D01*
X137226634Y-113998118D01*
X137135310Y-114089283D01*
X137085389Y-114209506D01*
X137058332Y-114250000D01*
X136500000Y-114250000D01*
X136459670Y-114257588D01*
X135601041Y-113398959D01*
X135330698Y-113216968D01*
X135000000Y-113150000D01*
X132000000Y-113150000D01*
X131680151Y-113212474D01*
X131398959Y-113398959D01*
X130398959Y-114398959D01*
X130216968Y-114669302D01*
X130150000Y-115000000D01*
X130150000Y-118000000D01*
X130212474Y-118319849D01*
X130398959Y-118601041D01*
X133872918Y-122075000D01*
X122428554Y-122075000D01*
X121925000Y-121571446D01*
X121925000Y-98428554D01*
X122428554Y-97925000D01*
X174571446Y-97925000D01*
X175075000Y-98428554D01*
X175075000Y-98428554D01*
G37*
X175075000Y-98428554D02*
X175075000Y-121571446D01*
X174571446Y-122075000D01*
X161127082Y-122075000D01*
X166601041Y-116601041D01*
X166783032Y-116330698D01*
X166850000Y-116000000D01*
X166850000Y-115000000D01*
X166787526Y-114680151D01*
X166601041Y-114398959D01*
X165601041Y-113398959D01*
X165330698Y-113216968D01*
X165000000Y-113150000D01*
X162000000Y-113150000D01*
X161680151Y-113212474D01*
X161398959Y-113398959D01*
X160113379Y-114684539D01*
X160113379Y-114684360D01*
X160063669Y-114564053D01*
X160025502Y-114372172D01*
X159917760Y-114210925D01*
X159868484Y-114091668D01*
X159776516Y-113999539D01*
X159667826Y-113836874D01*
X159506581Y-113729133D01*
X159415417Y-113637810D01*
X159295196Y-113587890D01*
X159132528Y-113479198D01*
X158942324Y-113441364D01*
X158823153Y-113391880D01*
X158692977Y-113391767D01*
X158501100Y-113353600D01*
X158310897Y-113391433D01*
X158181860Y-113391321D01*
X158061552Y-113441031D01*
X157869673Y-113479198D01*
X157708427Y-113586939D01*
X157589168Y-113636216D01*
X157497039Y-113728185D01*
X157334374Y-113836874D01*
X152890000Y-118281248D01*
X152890000Y-115742500D01*
X152764401Y-115111072D01*
X152406726Y-114575774D01*
X151667826Y-113836874D01*
X151506582Y-113729135D01*
X151415417Y-113637810D01*
X151295192Y-113587888D01*
X151132527Y-113479199D01*
X150942328Y-113441366D01*
X150823153Y-113391880D01*
X150692976Y-113391767D01*
X150501100Y-113353600D01*
X150310899Y-113391433D01*
X150181860Y-113391321D01*
X150061549Y-113441032D01*
X149869673Y-113479199D01*
X149708430Y-113586938D01*
X149589168Y-113636216D01*
X149497038Y-113728186D01*
X149334374Y-113836874D01*
X149226635Y-113998118D01*
X149135310Y-114089283D01*
X149085388Y-114209508D01*
X148976699Y-114372173D01*
X148938866Y-114562372D01*
X148889380Y-114681547D01*
X148889267Y-114811724D01*
X148851100Y-115003600D01*
X148888933Y-115193801D01*
X148888821Y-115322840D01*
X148938532Y-115443151D01*
X148976699Y-115635027D01*
X149084438Y-115796270D01*
X149133716Y-115915532D01*
X149225686Y-116007662D01*
X149334374Y-116170326D01*
X149590000Y-116425952D01*
X149590000Y-120715328D01*
X149540000Y-120966695D01*
X149540000Y-121033305D01*
X149669405Y-121683867D01*
X149930751Y-122075000D01*
X144929249Y-122075000D01*
X145190595Y-121683867D01*
X145320000Y-121033305D01*
X145320000Y-120966695D01*
X145270000Y-120715328D01*
X145270000Y-116568152D01*
X145667826Y-116170326D01*
X145775566Y-116009082D01*
X145866890Y-115917917D01*
X145916811Y-115797695D01*
X146025502Y-115635027D01*
X146063335Y-115444825D01*
X146112820Y-115325653D01*
X146112933Y-115195477D01*
X146151100Y-115003600D01*
X146113267Y-114813397D01*
X146113379Y-114684360D01*
X146063669Y-114564053D01*
X146025502Y-114372172D01*
X145917760Y-114210925D01*
X145868484Y-114091668D01*
X145776516Y-113999539D01*
X145667826Y-113836874D01*
X145506581Y-113729133D01*
X145415417Y-113637810D01*
X145295196Y-113587890D01*
X145132528Y-113479198D01*
X144942324Y-113441364D01*
X144823153Y-113391880D01*
X144692977Y-113391767D01*
X144501100Y-113353600D01*
X144310897Y-113391433D01*
X144181860Y-113391321D01*
X144061552Y-113441031D01*
X143869673Y-113479198D01*
X143708427Y-113586939D01*
X143589168Y-113636216D01*
X143497039Y-113728185D01*
X143334374Y-113836874D01*
X142453274Y-114717974D01*
X142095599Y-115253272D01*
X141970000Y-115884700D01*
X141970000Y-117636548D01*
X140151100Y-115817648D01*
X140151100Y-115003600D01*
X140113267Y-114813398D01*
X140113379Y-114684360D01*
X140063668Y-114564050D01*
X140025501Y-114372172D01*
X139917761Y-114210928D01*
X139868484Y-114091668D01*
X139776515Y-113999538D01*
X139667826Y-113836874D01*
X139506582Y-113729134D01*
X139415417Y-113637810D01*
X139295194Y-113587889D01*
X139132528Y-113479199D01*
X138942328Y-113441366D01*
X138823153Y-113391880D01*
X138692976Y-113391767D01*
X138501100Y-113353600D01*
X138310898Y-113391433D01*
X138181860Y-113391321D01*
X138061550Y-113441032D01*
X137869672Y-113479199D01*
X137708428Y-113586939D01*
X137589168Y-113636216D01*
X137497038Y-113728185D01*
X137334374Y-113836874D01*
X137226634Y-113998118D01*
X137135310Y-114089283D01*
X137085389Y-114209506D01*
X137058332Y-114250000D01*
X136500000Y-114250000D01*
X136459670Y-114257588D01*
X135601041Y-113398959D01*
X135330698Y-113216968D01*
X135000000Y-113150000D01*
X132000000Y-113150000D01*
X131680151Y-113212474D01*
X131398959Y-113398959D01*
X130398959Y-114398959D01*
X130216968Y-114669302D01*
X130150000Y-115000000D01*
X130150000Y-118000000D01*
X130212474Y-118319849D01*
X130398959Y-118601041D01*
X133872918Y-122075000D01*
X122428554Y-122075000D01*
X121925000Y-121571446D01*
X121925000Y-98428554D01*
X122428554Y-97925000D01*
X174571446Y-97925000D01*
X175075000Y-98428554D01*
M02*
