%TF.GenerationSoftware,KiCad,Pcbnew,4.0.7*%
%TF.CreationDate,2021-06-18T00:55:45+09:00*%
%TF.ProjectId,NuTube_Conversion_Board,4E75547562655F436F6E76657273696F,rev?*%
%TF.FileFunction,Soldermask,Bot*%
%FSLAX46Y46*%
G04 Gerber Fmt 4.6, Leading zero omitted, Abs format (unit mm)*
G04 Created by KiCad (PCBNEW 4.0.7) date 06/18/21 00:55:45*
%MOMM*%
%LPD*%
G01*
G04 APERTURE LIST*
%ADD10C,0.100000*%
%ADD11C,0.150000*%
%ADD12C,1.162000*%
%ADD13R,2.100000X2.100000*%
%ADD14O,2.100000X2.100000*%
%ADD15C,1.924000*%
G04 APERTURE END LIST*
D10*
D11*
X176000000Y-97000000D02*
X176000000Y-123000000D01*
X121000000Y-97000000D02*
X121000000Y-123000000D01*
X176000000Y-123000000D02*
X121000000Y-123000000D01*
X121000000Y-97000000D02*
X176000000Y-97000000D01*
D12*
X132500000Y-121500000D03*
X162500000Y-121500000D03*
X153500000Y-117000000D03*
X141500000Y-116500000D03*
X174500000Y-121500000D03*
D13*
X123000000Y-99000000D03*
D14*
X123000000Y-101540000D03*
X123000000Y-104080000D03*
X123000000Y-106620000D03*
D13*
X136000000Y-121000000D03*
D14*
X138540000Y-121000000D03*
X141080000Y-121000000D03*
X143620000Y-121000000D03*
X146160000Y-121000000D03*
X148700000Y-121000000D03*
X151240000Y-121000000D03*
X153780000Y-121000000D03*
X156320000Y-121000000D03*
X158860000Y-121000000D03*
D13*
X174000000Y-99000000D03*
D14*
X174000000Y-101540000D03*
X174000000Y-104080000D03*
X174000000Y-106620000D03*
D15*
X148501100Y-115003600D03*
X150501100Y-115003600D03*
X158501100Y-115003600D03*
X162501100Y-115003600D03*
X164501100Y-115003600D03*
X132501100Y-115003600D03*
X134501100Y-115003600D03*
X138501100Y-115003600D03*
X144501100Y-115003600D03*
X146501100Y-115003600D03*
D12*
X122500000Y-121500000D03*
M02*
