%TF.GenerationSoftware,KiCad,Pcbnew,4.0.7*%
%TF.CreationDate,2021-06-18T00:55:45+09:00*%
%TF.ProjectId,NuTube_Conversion_Board,4E75547562655F436F6E76657273696F,rev?*%
%TF.FileFunction,Copper,L2,Bot,Signal*%
%FSLAX46Y46*%
G04 Gerber Fmt 4.6, Leading zero omitted, Abs format (unit mm)*
G04 Created by KiCad (PCBNEW 4.0.7) date 06/18/21 00:55:45*
%MOMM*%
%LPD*%
G01*
G04 APERTURE LIST*
%ADD10C,0.100000*%
%ADD11C,0.150000*%
%ADD12C,0.762000*%
%ADD13R,1.700000X1.700000*%
%ADD14O,1.700000X1.700000*%
%ADD15C,1.524000*%
%ADD16C,0.500000*%
G04 APERTURE END LIST*
D10*
D11*
X176000000Y-97000000D02*
X176000000Y-123000000D01*
X121000000Y-97000000D02*
X121000000Y-123000000D01*
X176000000Y-123000000D02*
X121000000Y-123000000D01*
X121000000Y-97000000D02*
X176000000Y-97000000D01*
D12*
X132500000Y-121500000D03*
X162500000Y-121500000D03*
X153500000Y-117000000D03*
X141500000Y-116500000D03*
X174500000Y-121500000D03*
D13*
X123000000Y-99000000D03*
D14*
X123000000Y-101540000D03*
X123000000Y-104080000D03*
X123000000Y-106620000D03*
D13*
X136000000Y-121000000D03*
D14*
X138540000Y-121000000D03*
X141080000Y-121000000D03*
X143620000Y-121000000D03*
X146160000Y-121000000D03*
X148700000Y-121000000D03*
X151240000Y-121000000D03*
X153780000Y-121000000D03*
X156320000Y-121000000D03*
X158860000Y-121000000D03*
D13*
X174000000Y-99000000D03*
D14*
X174000000Y-101540000D03*
X174000000Y-104080000D03*
X174000000Y-106620000D03*
D15*
X148501100Y-115003600D03*
X150501100Y-115003600D03*
X158501100Y-115003600D03*
X162501100Y-115003600D03*
X164501100Y-115003600D03*
X132501100Y-115003600D03*
X134501100Y-115003600D03*
X138501100Y-115003600D03*
X144501100Y-115003600D03*
X146501100Y-115003600D03*
D12*
X122500000Y-121500000D03*
D16*
G36*
X175075000Y-98428554D02*
X175075000Y-121571446D01*
X174571446Y-122075000D01*
X160169249Y-122075000D01*
X160430595Y-121683867D01*
X160560000Y-121033305D01*
X160560000Y-120966695D01*
X160430595Y-120316133D01*
X160062082Y-119764613D01*
X159510562Y-119396100D01*
X158860000Y-119266695D01*
X158209438Y-119396100D01*
X157657918Y-119764613D01*
X157590000Y-119866260D01*
X157522082Y-119764613D01*
X156970562Y-119396100D01*
X156320000Y-119266695D01*
X155669438Y-119396100D01*
X155117918Y-119764613D01*
X155050000Y-119866260D01*
X154982082Y-119764613D01*
X154430562Y-119396100D01*
X153780000Y-119266695D01*
X153129438Y-119396100D01*
X152577918Y-119764613D01*
X152510000Y-119866260D01*
X152442082Y-119764613D01*
X151890562Y-119396100D01*
X151240000Y-119266695D01*
X150589438Y-119396100D01*
X150037918Y-119764613D01*
X149669405Y-120316133D01*
X149540000Y-120966695D01*
X149540000Y-121033305D01*
X149669405Y-121683867D01*
X149930751Y-122075000D01*
X144929249Y-122075000D01*
X145190595Y-121683867D01*
X145320000Y-121033305D01*
X145320000Y-120966695D01*
X145190595Y-120316133D01*
X144822082Y-119764613D01*
X144270562Y-119396100D01*
X143620000Y-119266695D01*
X142969438Y-119396100D01*
X142417918Y-119764613D01*
X142350000Y-119866260D01*
X142282082Y-119764613D01*
X141730562Y-119396100D01*
X141080000Y-119266695D01*
X140429438Y-119396100D01*
X139877918Y-119764613D01*
X139810000Y-119866260D01*
X139742082Y-119764613D01*
X139190562Y-119396100D01*
X138540000Y-119266695D01*
X137889438Y-119396100D01*
X137529648Y-119636504D01*
X137471223Y-119545709D01*
X137187176Y-119351628D01*
X136850000Y-119283348D01*
X135150000Y-119283348D01*
X134835009Y-119342618D01*
X134545709Y-119528777D01*
X134351628Y-119812824D01*
X134283348Y-120150000D01*
X134283348Y-121850000D01*
X134325685Y-122075000D01*
X122428554Y-122075000D01*
X121925000Y-121571446D01*
X121925000Y-115322840D01*
X130888821Y-115322840D01*
X131133716Y-115915532D01*
X131586783Y-116369390D01*
X132179047Y-116615320D01*
X132820340Y-116615879D01*
X133413032Y-116370984D01*
X133500856Y-116283313D01*
X133586783Y-116369390D01*
X134179047Y-116615320D01*
X134820340Y-116615879D01*
X135413032Y-116370984D01*
X135866890Y-115917917D01*
X136112820Y-115325653D01*
X136112822Y-115322840D01*
X136888821Y-115322840D01*
X137133716Y-115915532D01*
X137586783Y-116369390D01*
X138179047Y-116615320D01*
X138820340Y-116615879D01*
X139413032Y-116370984D01*
X139866890Y-115917917D01*
X140112820Y-115325653D01*
X140112822Y-115322840D01*
X142888821Y-115322840D01*
X143133716Y-115915532D01*
X143586783Y-116369390D01*
X144179047Y-116615320D01*
X144820340Y-116615879D01*
X145413032Y-116370984D01*
X145866890Y-115917917D01*
X146112820Y-115325653D01*
X146112822Y-115322840D01*
X148888821Y-115322840D01*
X149133716Y-115915532D01*
X149586783Y-116369390D01*
X150179047Y-116615320D01*
X150820340Y-116615879D01*
X151413032Y-116370984D01*
X151866890Y-115917917D01*
X152112820Y-115325653D01*
X152112822Y-115322840D01*
X156888821Y-115322840D01*
X157133716Y-115915532D01*
X157586783Y-116369390D01*
X158179047Y-116615320D01*
X158820340Y-116615879D01*
X159413032Y-116370984D01*
X159866890Y-115917917D01*
X160112820Y-115325653D01*
X160112822Y-115322840D01*
X160888821Y-115322840D01*
X161133716Y-115915532D01*
X161586783Y-116369390D01*
X162179047Y-116615320D01*
X162820340Y-116615879D01*
X163413032Y-116370984D01*
X163500856Y-116283313D01*
X163586783Y-116369390D01*
X164179047Y-116615320D01*
X164820340Y-116615879D01*
X165413032Y-116370984D01*
X165866890Y-115917917D01*
X166112820Y-115325653D01*
X166113379Y-114684360D01*
X165868484Y-114091668D01*
X165415417Y-113637810D01*
X164823153Y-113391880D01*
X164181860Y-113391321D01*
X163589168Y-113636216D01*
X163501344Y-113723887D01*
X163415417Y-113637810D01*
X162823153Y-113391880D01*
X162181860Y-113391321D01*
X161589168Y-113636216D01*
X161135310Y-114089283D01*
X160889380Y-114681547D01*
X160888821Y-115322840D01*
X160112822Y-115322840D01*
X160113379Y-114684360D01*
X159868484Y-114091668D01*
X159415417Y-113637810D01*
X158823153Y-113391880D01*
X158181860Y-113391321D01*
X157589168Y-113636216D01*
X157135310Y-114089283D01*
X156889380Y-114681547D01*
X156888821Y-115322840D01*
X152112822Y-115322840D01*
X152113379Y-114684360D01*
X151868484Y-114091668D01*
X151415417Y-113637810D01*
X150823153Y-113391880D01*
X150181860Y-113391321D01*
X149589168Y-113636216D01*
X149135310Y-114089283D01*
X148889380Y-114681547D01*
X148888821Y-115322840D01*
X146112822Y-115322840D01*
X146113379Y-114684360D01*
X145868484Y-114091668D01*
X145415417Y-113637810D01*
X144823153Y-113391880D01*
X144181860Y-113391321D01*
X143589168Y-113636216D01*
X143135310Y-114089283D01*
X142889380Y-114681547D01*
X142888821Y-115322840D01*
X140112822Y-115322840D01*
X140113379Y-114684360D01*
X139868484Y-114091668D01*
X139415417Y-113637810D01*
X138823153Y-113391880D01*
X138181860Y-113391321D01*
X137589168Y-113636216D01*
X137135310Y-114089283D01*
X136889380Y-114681547D01*
X136888821Y-115322840D01*
X136112822Y-115322840D01*
X136113379Y-114684360D01*
X135868484Y-114091668D01*
X135415417Y-113637810D01*
X134823153Y-113391880D01*
X134181860Y-113391321D01*
X133589168Y-113636216D01*
X133501344Y-113723887D01*
X133415417Y-113637810D01*
X132823153Y-113391880D01*
X132181860Y-113391321D01*
X131589168Y-113636216D01*
X131135310Y-114089283D01*
X130889380Y-114681547D01*
X130888821Y-115322840D01*
X121925000Y-115322840D01*
X121925000Y-98428554D01*
X122428554Y-97925000D01*
X174571446Y-97925000D01*
X175075000Y-98428554D01*
X175075000Y-98428554D01*
G37*
X175075000Y-98428554D02*
X175075000Y-121571446D01*
X174571446Y-122075000D01*
X160169249Y-122075000D01*
X160430595Y-121683867D01*
X160560000Y-121033305D01*
X160560000Y-120966695D01*
X160430595Y-120316133D01*
X160062082Y-119764613D01*
X159510562Y-119396100D01*
X158860000Y-119266695D01*
X158209438Y-119396100D01*
X157657918Y-119764613D01*
X157590000Y-119866260D01*
X157522082Y-119764613D01*
X156970562Y-119396100D01*
X156320000Y-119266695D01*
X155669438Y-119396100D01*
X155117918Y-119764613D01*
X155050000Y-119866260D01*
X154982082Y-119764613D01*
X154430562Y-119396100D01*
X153780000Y-119266695D01*
X153129438Y-119396100D01*
X152577918Y-119764613D01*
X152510000Y-119866260D01*
X152442082Y-119764613D01*
X151890562Y-119396100D01*
X151240000Y-119266695D01*
X150589438Y-119396100D01*
X150037918Y-119764613D01*
X149669405Y-120316133D01*
X149540000Y-120966695D01*
X149540000Y-121033305D01*
X149669405Y-121683867D01*
X149930751Y-122075000D01*
X144929249Y-122075000D01*
X145190595Y-121683867D01*
X145320000Y-121033305D01*
X145320000Y-120966695D01*
X145190595Y-120316133D01*
X144822082Y-119764613D01*
X144270562Y-119396100D01*
X143620000Y-119266695D01*
X142969438Y-119396100D01*
X142417918Y-119764613D01*
X142350000Y-119866260D01*
X142282082Y-119764613D01*
X141730562Y-119396100D01*
X141080000Y-119266695D01*
X140429438Y-119396100D01*
X139877918Y-119764613D01*
X139810000Y-119866260D01*
X139742082Y-119764613D01*
X139190562Y-119396100D01*
X138540000Y-119266695D01*
X137889438Y-119396100D01*
X137529648Y-119636504D01*
X137471223Y-119545709D01*
X137187176Y-119351628D01*
X136850000Y-119283348D01*
X135150000Y-119283348D01*
X134835009Y-119342618D01*
X134545709Y-119528777D01*
X134351628Y-119812824D01*
X134283348Y-120150000D01*
X134283348Y-121850000D01*
X134325685Y-122075000D01*
X122428554Y-122075000D01*
X121925000Y-121571446D01*
X121925000Y-115322840D01*
X130888821Y-115322840D01*
X131133716Y-115915532D01*
X131586783Y-116369390D01*
X132179047Y-116615320D01*
X132820340Y-116615879D01*
X133413032Y-116370984D01*
X133500856Y-116283313D01*
X133586783Y-116369390D01*
X134179047Y-116615320D01*
X134820340Y-116615879D01*
X135413032Y-116370984D01*
X135866890Y-115917917D01*
X136112820Y-115325653D01*
X136112822Y-115322840D01*
X136888821Y-115322840D01*
X137133716Y-115915532D01*
X137586783Y-116369390D01*
X138179047Y-116615320D01*
X138820340Y-116615879D01*
X139413032Y-116370984D01*
X139866890Y-115917917D01*
X140112820Y-115325653D01*
X140112822Y-115322840D01*
X142888821Y-115322840D01*
X143133716Y-115915532D01*
X143586783Y-116369390D01*
X144179047Y-116615320D01*
X144820340Y-116615879D01*
X145413032Y-116370984D01*
X145866890Y-115917917D01*
X146112820Y-115325653D01*
X146112822Y-115322840D01*
X148888821Y-115322840D01*
X149133716Y-115915532D01*
X149586783Y-116369390D01*
X150179047Y-116615320D01*
X150820340Y-116615879D01*
X151413032Y-116370984D01*
X151866890Y-115917917D01*
X152112820Y-115325653D01*
X152112822Y-115322840D01*
X156888821Y-115322840D01*
X157133716Y-115915532D01*
X157586783Y-116369390D01*
X158179047Y-116615320D01*
X158820340Y-116615879D01*
X159413032Y-116370984D01*
X159866890Y-115917917D01*
X160112820Y-115325653D01*
X160112822Y-115322840D01*
X160888821Y-115322840D01*
X161133716Y-115915532D01*
X161586783Y-116369390D01*
X162179047Y-116615320D01*
X162820340Y-116615879D01*
X163413032Y-116370984D01*
X163500856Y-116283313D01*
X163586783Y-116369390D01*
X164179047Y-116615320D01*
X164820340Y-116615879D01*
X165413032Y-116370984D01*
X165866890Y-115917917D01*
X166112820Y-115325653D01*
X166113379Y-114684360D01*
X165868484Y-114091668D01*
X165415417Y-113637810D01*
X164823153Y-113391880D01*
X164181860Y-113391321D01*
X163589168Y-113636216D01*
X163501344Y-113723887D01*
X163415417Y-113637810D01*
X162823153Y-113391880D01*
X162181860Y-113391321D01*
X161589168Y-113636216D01*
X161135310Y-114089283D01*
X160889380Y-114681547D01*
X160888821Y-115322840D01*
X160112822Y-115322840D01*
X160113379Y-114684360D01*
X159868484Y-114091668D01*
X159415417Y-113637810D01*
X158823153Y-113391880D01*
X158181860Y-113391321D01*
X157589168Y-113636216D01*
X157135310Y-114089283D01*
X156889380Y-114681547D01*
X156888821Y-115322840D01*
X152112822Y-115322840D01*
X152113379Y-114684360D01*
X151868484Y-114091668D01*
X151415417Y-113637810D01*
X150823153Y-113391880D01*
X150181860Y-113391321D01*
X149589168Y-113636216D01*
X149135310Y-114089283D01*
X148889380Y-114681547D01*
X148888821Y-115322840D01*
X146112822Y-115322840D01*
X146113379Y-114684360D01*
X145868484Y-114091668D01*
X145415417Y-113637810D01*
X144823153Y-113391880D01*
X144181860Y-113391321D01*
X143589168Y-113636216D01*
X143135310Y-114089283D01*
X142889380Y-114681547D01*
X142888821Y-115322840D01*
X140112822Y-115322840D01*
X140113379Y-114684360D01*
X139868484Y-114091668D01*
X139415417Y-113637810D01*
X138823153Y-113391880D01*
X138181860Y-113391321D01*
X137589168Y-113636216D01*
X137135310Y-114089283D01*
X136889380Y-114681547D01*
X136888821Y-115322840D01*
X136112822Y-115322840D01*
X136113379Y-114684360D01*
X135868484Y-114091668D01*
X135415417Y-113637810D01*
X134823153Y-113391880D01*
X134181860Y-113391321D01*
X133589168Y-113636216D01*
X133501344Y-113723887D01*
X133415417Y-113637810D01*
X132823153Y-113391880D01*
X132181860Y-113391321D01*
X131589168Y-113636216D01*
X131135310Y-114089283D01*
X130889380Y-114681547D01*
X130888821Y-115322840D01*
X121925000Y-115322840D01*
X121925000Y-98428554D01*
X122428554Y-97925000D01*
X174571446Y-97925000D01*
X175075000Y-98428554D01*
M02*
