G04 #@! TF.FileFunction,Copper,L1,Top,Signal*
%FSLAX46Y46*%
G04 Gerber Fmt 4.6, Leading zero omitted, Abs format (unit mm)*
G04 Created by KiCad (PCBNEW 4.0.7) date 05/17/21 03:00:34*
%MOMM*%
%LPD*%
G01*
G04 APERTURE LIST*
%ADD10C,0.100000*%
%ADD11C,0.770000*%
%ADD12R,0.750000X1.200000*%
%ADD13R,1.200000X0.750000*%
%ADD14R,1.600000X1.600000*%
%ADD15C,1.600000*%
%ADD16R,2.400000X2.400000*%
%ADD17C,2.400000*%
%ADD18R,2.200000X2.200000*%
%ADD19O,2.200000X2.200000*%
%ADD20C,2.000000*%
%ADD21O,1.400000X0.900000*%
%ADD22R,4.500000X0.900000*%
%ADD23O,2.000000X1.000000*%
%ADD24O,1.600000X1.600000*%
%ADD25C,1.524000*%
%ADD26O,1.524000X3.048000*%
%ADD27R,3.200000X1.400000*%
%ADD28R,3.800000X2.000000*%
%ADD29R,1.500000X2.000000*%
%ADD30R,1.600000X2.400000*%
%ADD31O,1.600000X2.400000*%
%ADD32C,3.200000*%
%ADD33C,2.400000*%
%ADD34C,1.600000*%
%ADD35C,3.200000*%
%ADD36C,0.500000*%
G04 APERTURE END LIST*
D10*
D11*
X213000000Y-29000000D03*
X207000000Y-35000000D03*
X166000000Y-116000000D03*
X169000000Y-111000000D03*
X137000000Y-106000000D03*
X137000000Y-115000000D03*
X131000000Y-118000000D03*
X111000000Y-118000000D03*
X67000000Y-105000000D03*
X95000000Y-87000000D03*
X91000000Y-87000000D03*
X101000000Y-54000000D03*
X94000000Y-54000000D03*
X67000000Y-67000000D03*
X58000000Y-29000000D03*
X117000000Y-41000000D03*
X124000000Y-41000000D03*
X143000000Y-41000000D03*
X171000000Y-29000000D03*
X171000000Y-54000000D03*
X94000000Y-75000000D03*
X87000000Y-71000000D03*
X87000000Y-63000000D03*
X87000000Y-59000000D03*
X91000000Y-63000000D03*
X91000000Y-59000000D03*
X91000000Y-67000000D03*
X87000000Y-67000000D03*
X79000000Y-67000000D03*
X75000000Y-67000000D03*
X83000000Y-67000000D03*
X83000000Y-59000000D03*
X83000000Y-63000000D03*
X75000000Y-59000000D03*
X79000000Y-59000000D03*
X79000000Y-63000000D03*
X75000000Y-63000000D03*
X75000000Y-75000000D03*
X79000000Y-75000000D03*
X71000000Y-75000000D03*
X59000000Y-75000000D03*
X59000000Y-72000000D03*
X79000000Y-71000000D03*
X67000000Y-72000000D03*
X71000000Y-71000000D03*
X75000000Y-71000000D03*
X67000000Y-75000000D03*
X63000000Y-72000000D03*
X63000000Y-75000000D03*
X83000000Y-75000000D03*
X83000000Y-71000000D03*
X83000000Y-87000000D03*
X83000000Y-79000000D03*
X83000000Y-83000000D03*
X63000000Y-83000000D03*
X63000000Y-79000000D03*
X63000000Y-87000000D03*
X67000000Y-83000000D03*
X75000000Y-87000000D03*
X67000000Y-87000000D03*
X75000000Y-79000000D03*
X71000000Y-79000000D03*
X67000000Y-79000000D03*
X79000000Y-79000000D03*
X79000000Y-87000000D03*
X59000000Y-79000000D03*
X59000000Y-87000000D03*
X59000000Y-83000000D03*
X71000000Y-83000000D03*
X79000000Y-83000000D03*
X75000000Y-83000000D03*
X59000000Y-100000000D03*
X59000000Y-104000000D03*
X67000000Y-100000000D03*
X63000000Y-104000000D03*
X63000000Y-100000000D03*
X75000000Y-105000000D03*
X79000000Y-105000000D03*
X83000000Y-105000000D03*
X83000000Y-108000000D03*
X83000000Y-116000000D03*
X83000000Y-112000000D03*
X63000000Y-108000000D03*
X63000000Y-112000000D03*
X67000000Y-108000000D03*
X67000000Y-112000000D03*
X59000000Y-112000000D03*
X59000000Y-108000000D03*
X71000000Y-108000000D03*
X71000000Y-112000000D03*
X79000000Y-112000000D03*
X79000000Y-108000000D03*
X75000000Y-112000000D03*
X75000000Y-108000000D03*
X91000000Y-113000000D03*
X91000000Y-105000000D03*
X99000000Y-105000000D03*
X103000000Y-105000000D03*
X95000000Y-105000000D03*
X99000000Y-116000000D03*
X99000000Y-112000000D03*
X95000000Y-116000000D03*
X95000000Y-120000000D03*
X91000000Y-120000000D03*
X87000000Y-120000000D03*
X83000000Y-120000000D03*
X75000000Y-116000000D03*
X75000000Y-120000000D03*
X79000000Y-116000000D03*
X79000000Y-120000000D03*
X71000000Y-120000000D03*
X71000000Y-116000000D03*
X59000000Y-116000000D03*
X59000000Y-120000000D03*
X67000000Y-120000000D03*
X67000000Y-116000000D03*
X63000000Y-120000000D03*
X63000000Y-116000000D03*
X63000000Y-124000000D03*
X63000000Y-128000000D03*
X67000000Y-124000000D03*
X67000000Y-128000000D03*
X59000000Y-128000000D03*
X59000000Y-124000000D03*
X87000000Y-124000000D03*
X91000000Y-124000000D03*
X83000000Y-124000000D03*
X71000000Y-124000000D03*
X71000000Y-128000000D03*
X91000000Y-128000000D03*
X79000000Y-128000000D03*
X83000000Y-128000000D03*
X87000000Y-128000000D03*
X79000000Y-124000000D03*
X75000000Y-128000000D03*
X95000000Y-128000000D03*
X95000000Y-124000000D03*
X75000000Y-124000000D03*
X107000000Y-128000000D03*
X99000000Y-128000000D03*
X99000000Y-124000000D03*
X207000000Y-104000000D03*
X207000000Y-92000000D03*
X199000000Y-92000000D03*
X199000000Y-96000000D03*
X203000000Y-96000000D03*
X203000000Y-92000000D03*
X199000000Y-100000000D03*
X203000000Y-104000000D03*
X199000000Y-104000000D03*
X191000000Y-104000000D03*
X195000000Y-104000000D03*
X191000000Y-100000000D03*
X195000000Y-100000000D03*
X195000000Y-92000000D03*
X195000000Y-96000000D03*
X191000000Y-96000000D03*
X191000000Y-92000000D03*
X187000000Y-87000000D03*
X183000000Y-87000000D03*
X179000000Y-92000000D03*
X179000000Y-96000000D03*
X183000000Y-92000000D03*
X183000000Y-96000000D03*
X187000000Y-96000000D03*
X187000000Y-92000000D03*
X187000000Y-100000000D03*
X187000000Y-108000000D03*
X187000000Y-112000000D03*
X187000000Y-104000000D03*
X183000000Y-104000000D03*
X183000000Y-100000000D03*
X179000000Y-104000000D03*
X179000000Y-100000000D03*
X175000000Y-112000000D03*
X175000000Y-116000000D03*
X183000000Y-116000000D03*
X183000000Y-112000000D03*
X179000000Y-116000000D03*
X179000000Y-112000000D03*
X183000000Y-108000000D03*
X158000000Y-106000000D03*
X166000000Y-101000000D03*
X166000000Y-106000000D03*
X161000000Y-113000000D03*
X163000000Y-120000000D03*
X159000000Y-120000000D03*
X187000000Y-120000000D03*
X175000000Y-120000000D03*
X183000000Y-120000000D03*
X179000000Y-120000000D03*
X171000000Y-120000000D03*
X167000000Y-120000000D03*
X213000000Y-95000000D03*
X213000000Y-103000000D03*
X211000000Y-112000000D03*
X207000000Y-112000000D03*
X203000000Y-112000000D03*
X191000000Y-116000000D03*
X195000000Y-116000000D03*
X195000000Y-120000000D03*
X191000000Y-120000000D03*
X199000000Y-120000000D03*
X199000000Y-116000000D03*
X207000000Y-120000000D03*
X203000000Y-120000000D03*
X203000000Y-116000000D03*
X207000000Y-116000000D03*
X207000000Y-124000000D03*
X211000000Y-124000000D03*
X203000000Y-124000000D03*
X211000000Y-128000000D03*
X203000000Y-128000000D03*
X207000000Y-128000000D03*
X211000000Y-120000000D03*
X211000000Y-116000000D03*
X167000000Y-124000000D03*
X167000000Y-128000000D03*
X171000000Y-128000000D03*
X171000000Y-124000000D03*
X179000000Y-124000000D03*
X199000000Y-124000000D03*
X199000000Y-128000000D03*
X179000000Y-128000000D03*
X183000000Y-124000000D03*
X191000000Y-128000000D03*
X187000000Y-128000000D03*
X183000000Y-128000000D03*
X195000000Y-128000000D03*
X175000000Y-128000000D03*
X175000000Y-124000000D03*
X187000000Y-124000000D03*
X195000000Y-124000000D03*
X191000000Y-124000000D03*
X155000000Y-124000000D03*
X159000000Y-124000000D03*
X151000000Y-124000000D03*
X139000000Y-124000000D03*
X139000000Y-128000000D03*
X159000000Y-128000000D03*
X147000000Y-128000000D03*
X151000000Y-128000000D03*
X155000000Y-128000000D03*
X147000000Y-124000000D03*
X143000000Y-128000000D03*
X163000000Y-128000000D03*
X163000000Y-124000000D03*
X143000000Y-124000000D03*
X115000000Y-124000000D03*
X135000000Y-124000000D03*
X135000000Y-128000000D03*
X115000000Y-128000000D03*
X119000000Y-124000000D03*
X127000000Y-128000000D03*
X123000000Y-128000000D03*
X119000000Y-128000000D03*
X131000000Y-128000000D03*
X111000000Y-128000000D03*
X111000000Y-124000000D03*
X123000000Y-124000000D03*
X131000000Y-124000000D03*
X127000000Y-124000000D03*
X146000000Y-117000000D03*
X151000000Y-117000000D03*
X145000000Y-104000000D03*
X151000000Y-88000000D03*
X145000000Y-90000000D03*
X155000000Y-97000000D03*
X151000000Y-97000000D03*
X155000000Y-101000000D03*
X151000000Y-101000000D03*
X151000000Y-93000000D03*
X155000000Y-93000000D03*
X139000000Y-99000000D03*
X143000000Y-99000000D03*
X147000000Y-99000000D03*
X107000000Y-96000000D03*
X111000000Y-96000000D03*
X103000000Y-96000000D03*
X171000000Y-85000000D03*
X183000000Y-83000000D03*
X187000000Y-83000000D03*
X175000000Y-79000000D03*
X179000000Y-79000000D03*
X183000000Y-79000000D03*
X203000000Y-83000000D03*
X199000000Y-83000000D03*
X207000000Y-83000000D03*
X195000000Y-83000000D03*
X211000000Y-83000000D03*
X203000000Y-75000000D03*
X199000000Y-75000000D03*
X207000000Y-75000000D03*
X195000000Y-75000000D03*
X211000000Y-75000000D03*
X191000000Y-75000000D03*
X211000000Y-79000000D03*
X195000000Y-79000000D03*
X207000000Y-79000000D03*
X199000000Y-79000000D03*
X203000000Y-79000000D03*
X191000000Y-59000000D03*
X183000000Y-55000000D03*
X179000000Y-55000000D03*
X183000000Y-39000000D03*
X187000000Y-51000000D03*
X183000000Y-51000000D03*
X179000000Y-51000000D03*
X187000000Y-43000000D03*
X187000000Y-47000000D03*
X183000000Y-47000000D03*
X183000000Y-43000000D03*
X179000000Y-43000000D03*
X179000000Y-47000000D03*
X183000000Y-31000000D03*
X179000000Y-31000000D03*
X191000000Y-35000000D03*
X211000000Y-43000000D03*
X211000000Y-39000000D03*
X211000000Y-47000000D03*
X195000000Y-47000000D03*
X195000000Y-39000000D03*
X195000000Y-43000000D03*
X207000000Y-43000000D03*
X207000000Y-47000000D03*
X207000000Y-39000000D03*
X199000000Y-43000000D03*
X199000000Y-47000000D03*
X199000000Y-39000000D03*
X203000000Y-39000000D03*
X203000000Y-47000000D03*
X203000000Y-43000000D03*
X211000000Y-35000000D03*
X211000000Y-55000000D03*
X211000000Y-51000000D03*
X211000000Y-59000000D03*
X195000000Y-59000000D03*
X195000000Y-51000000D03*
X195000000Y-55000000D03*
X207000000Y-55000000D03*
X207000000Y-59000000D03*
X207000000Y-51000000D03*
X199000000Y-55000000D03*
X199000000Y-59000000D03*
X199000000Y-51000000D03*
X203000000Y-51000000D03*
X203000000Y-59000000D03*
X203000000Y-55000000D03*
X203000000Y-67000000D03*
X203000000Y-71000000D03*
X203000000Y-63000000D03*
X199000000Y-63000000D03*
X199000000Y-71000000D03*
X199000000Y-67000000D03*
X207000000Y-63000000D03*
X207000000Y-71000000D03*
X207000000Y-67000000D03*
X195000000Y-67000000D03*
X195000000Y-63000000D03*
X195000000Y-71000000D03*
X211000000Y-71000000D03*
X211000000Y-63000000D03*
X211000000Y-67000000D03*
X187000000Y-67000000D03*
X187000000Y-71000000D03*
X187000000Y-63000000D03*
X183000000Y-63000000D03*
X183000000Y-71000000D03*
X183000000Y-67000000D03*
X191000000Y-63000000D03*
X191000000Y-71000000D03*
X191000000Y-67000000D03*
X179000000Y-67000000D03*
X179000000Y-63000000D03*
X179000000Y-71000000D03*
X163000000Y-71000000D03*
X163000000Y-63000000D03*
X163000000Y-67000000D03*
X175000000Y-67000000D03*
X175000000Y-71000000D03*
X175000000Y-63000000D03*
X167000000Y-67000000D03*
X167000000Y-71000000D03*
X167000000Y-63000000D03*
X171000000Y-63000000D03*
X171000000Y-71000000D03*
X171000000Y-67000000D03*
X151000000Y-67000000D03*
X151000000Y-71000000D03*
X151000000Y-63000000D03*
X147000000Y-63000000D03*
X147000000Y-71000000D03*
X147000000Y-67000000D03*
X155000000Y-63000000D03*
X155000000Y-71000000D03*
X155000000Y-67000000D03*
X143000000Y-67000000D03*
X143000000Y-63000000D03*
X135000000Y-67000000D03*
X135000000Y-71000000D03*
X135000000Y-63000000D03*
X139000000Y-63000000D03*
X143000000Y-71000000D03*
X139000000Y-67000000D03*
X127000000Y-67000000D03*
X127000000Y-71000000D03*
X127000000Y-63000000D03*
X131000000Y-63000000D03*
X131000000Y-71000000D03*
X131000000Y-67000000D03*
X111000000Y-67000000D03*
X111000000Y-71000000D03*
X111000000Y-63000000D03*
X107000000Y-63000000D03*
X107000000Y-71000000D03*
X107000000Y-67000000D03*
X119000000Y-67000000D03*
X123000000Y-71000000D03*
X119000000Y-71000000D03*
X119000000Y-63000000D03*
X115000000Y-63000000D03*
X115000000Y-71000000D03*
X115000000Y-67000000D03*
X123000000Y-63000000D03*
X123000000Y-67000000D03*
X127000000Y-109000000D03*
X127000000Y-113000000D03*
X123000000Y-83000000D03*
X123000000Y-79000000D03*
X115000000Y-83000000D03*
X115000000Y-87000000D03*
X115000000Y-79000000D03*
X119000000Y-79000000D03*
X127000000Y-79000000D03*
X119000000Y-87000000D03*
X123000000Y-87000000D03*
X127000000Y-83000000D03*
X119000000Y-83000000D03*
X107000000Y-83000000D03*
X107000000Y-87000000D03*
X107000000Y-79000000D03*
X111000000Y-79000000D03*
X111000000Y-87000000D03*
X111000000Y-83000000D03*
X107000000Y-109000000D03*
X107000000Y-105000000D03*
X107000000Y-113000000D03*
X111000000Y-109000000D03*
X115000000Y-109000000D03*
X119000000Y-109000000D03*
X119000000Y-113000000D03*
X115000000Y-113000000D03*
X111000000Y-113000000D03*
X119000000Y-105000000D03*
X115000000Y-105000000D03*
X111000000Y-105000000D03*
X123000000Y-105000000D03*
X123000000Y-113000000D03*
X123000000Y-109000000D03*
X83000000Y-100000000D03*
X83000000Y-92000000D03*
X87000000Y-96000000D03*
X87000000Y-92000000D03*
X87000000Y-100000000D03*
X91000000Y-96000000D03*
X91000000Y-100000000D03*
X91000000Y-92000000D03*
X147000000Y-95000000D03*
X111000000Y-100000000D03*
X111000000Y-92000000D03*
X99000000Y-92000000D03*
X103000000Y-92000000D03*
X107000000Y-92000000D03*
X99000000Y-100000000D03*
X103000000Y-100000000D03*
X107000000Y-100000000D03*
X143000000Y-95000000D03*
X139000000Y-95000000D03*
X99000000Y-96000000D03*
X163000000Y-84000000D03*
X163000000Y-75000000D03*
X163000000Y-79000000D03*
X167000000Y-88000000D03*
X163000000Y-88000000D03*
X163000000Y-94000000D03*
X147000000Y-79000000D03*
X156000000Y-79000000D03*
X152000000Y-79000000D03*
X127000000Y-96000000D03*
X127000000Y-100000000D03*
X127000000Y-92000000D03*
X75000000Y-100000000D03*
X119000000Y-96000000D03*
X123000000Y-96000000D03*
X123000000Y-100000000D03*
X119000000Y-100000000D03*
X123000000Y-92000000D03*
X119000000Y-92000000D03*
X115000000Y-92000000D03*
X95000000Y-100000000D03*
X115000000Y-100000000D03*
X95000000Y-92000000D03*
X75000000Y-92000000D03*
X115000000Y-96000000D03*
X95000000Y-96000000D03*
X83000000Y-96000000D03*
X79000000Y-96000000D03*
X73000000Y-96000000D03*
X98000000Y-74000000D03*
X90000000Y-79000000D03*
X98000000Y-79000000D03*
X98000000Y-62000000D03*
X94000000Y-59000000D03*
D12*
X108000000Y-121050000D03*
X108000000Y-122950000D03*
D13*
X92950000Y-71000000D03*
X91050000Y-71000000D03*
D14*
X81500000Y-89500000D03*
D15*
X79000000Y-89500000D03*
D14*
X81500000Y-102500000D03*
D15*
X79000000Y-102500000D03*
D14*
X101000000Y-84000000D03*
D15*
X103500000Y-84000000D03*
D14*
X101000000Y-108000000D03*
D15*
X103500000Y-108000000D03*
D14*
X86500000Y-77000000D03*
D15*
X86500000Y-74500000D03*
D14*
X86500000Y-115000000D03*
D15*
X86500000Y-117500000D03*
D14*
X140000000Y-119500000D03*
D15*
X140000000Y-122000000D03*
D14*
X135000000Y-112000000D03*
D15*
X135000000Y-109500000D03*
D13*
X142550000Y-115000000D03*
X144450000Y-115000000D03*
X142550000Y-79000000D03*
X144450000Y-79000000D03*
D14*
X135000000Y-80000000D03*
D15*
X135000000Y-82500000D03*
D14*
X140000000Y-74500000D03*
D15*
X140000000Y-72000000D03*
D14*
X133500000Y-101500000D03*
D15*
X136000000Y-101500000D03*
D14*
X133500000Y-92500000D03*
D15*
X136000000Y-92500000D03*
D16*
X191000000Y-107000000D03*
D17*
X198500000Y-107000000D03*
D16*
X191000000Y-87000000D03*
D17*
X198500000Y-87000000D03*
D14*
X160000000Y-98000000D03*
D15*
X160000000Y-100500000D03*
D12*
X166000000Y-96550000D03*
X166000000Y-98450000D03*
D18*
X120500000Y-32500000D03*
D19*
X112880000Y-32500000D03*
D20*
X59500000Y-36000000D03*
X59500000Y-49000000D03*
D21*
X58000000Y-60450000D03*
D22*
X63900000Y-65300000D03*
X63900000Y-62700000D03*
D21*
X58000000Y-67550000D03*
D23*
X58800000Y-93500000D03*
X62500000Y-93500000D03*
X66300000Y-93500000D03*
X67000000Y-98300000D03*
X212200000Y-99500000D03*
X208500000Y-99500000D03*
X204700000Y-99500000D03*
X204000000Y-94700000D03*
D15*
X86500000Y-89500000D03*
D24*
X86500000Y-81880000D03*
D15*
X86500000Y-102500000D03*
D24*
X86500000Y-110120000D03*
D15*
X101000000Y-76000000D03*
D24*
X108620000Y-76000000D03*
D15*
X101000000Y-116000000D03*
D24*
X108620000Y-116000000D03*
D15*
X142500000Y-111500000D03*
D24*
X142500000Y-103880000D03*
D15*
X142500000Y-82500000D03*
D24*
X142500000Y-90120000D03*
D15*
X148500000Y-111500000D03*
D24*
X148500000Y-103880000D03*
D15*
X154500000Y-103500000D03*
D24*
X154500000Y-111120000D03*
D15*
X148500000Y-82500000D03*
D24*
X148500000Y-90120000D03*
D15*
X154500000Y-90500000D03*
D24*
X154500000Y-82880000D03*
D15*
X171500000Y-108500000D03*
D24*
X179120000Y-108500000D03*
D15*
X174000000Y-85500000D03*
D24*
X181620000Y-85500000D03*
D15*
X171500000Y-113500000D03*
D24*
X163880000Y-113500000D03*
D15*
X174000000Y-81000000D03*
D24*
X166380000Y-81000000D03*
D15*
X205000000Y-107000000D03*
D24*
X212620000Y-107000000D03*
D15*
X205000000Y-87000000D03*
D24*
X212620000Y-87000000D03*
D25*
X71000000Y-92000000D03*
X71000000Y-89500000D03*
X71000000Y-87000000D03*
X71000000Y-100000000D03*
X71000000Y-102500000D03*
X71000000Y-105000000D03*
X94000000Y-79000000D03*
X94000000Y-81500000D03*
X94000000Y-84000000D03*
X94000000Y-113000000D03*
X94000000Y-110500000D03*
X94000000Y-108000000D03*
D26*
X135540000Y-32500000D03*
X130460000Y-32500000D03*
D27*
X146990000Y-33690000D03*
X146900000Y-41310000D03*
X169010000Y-33690000D03*
X169010000Y-36230000D03*
X168922000Y-38770000D03*
X169010000Y-41310000D03*
D25*
X178000000Y-32500000D03*
X175500000Y-35000000D03*
X178000000Y-37500000D03*
X175500000Y-40000000D03*
X180500000Y-40000000D03*
X180500000Y-35000000D03*
D28*
X98000000Y-64850000D03*
D29*
X98000000Y-71150000D03*
X100300000Y-71150000D03*
X95700000Y-71150000D03*
D28*
X103000000Y-127150000D03*
D29*
X103000000Y-120850000D03*
X100700000Y-120850000D03*
X105300000Y-120850000D03*
D25*
X130000000Y-96000000D03*
X130000000Y-94000000D03*
X130000000Y-86000000D03*
X130000000Y-82000000D03*
X130000000Y-80000000D03*
X130000000Y-112000000D03*
X130000000Y-110000000D03*
X130000000Y-106000000D03*
X130000000Y-100000000D03*
X130000000Y-98000000D03*
D30*
X169210000Y-100810000D03*
D31*
X176830000Y-93190000D03*
X171750000Y-100810000D03*
X174290000Y-93190000D03*
X174290000Y-100810000D03*
X171750000Y-93190000D03*
X176830000Y-100810000D03*
X169210000Y-93190000D03*
D32*
X120000000Y-47000000D03*
D33*
X148500000Y-111500000D02*
X148500000Y-119500000D01*
X140000000Y-74500000D02*
X159500000Y-74500000D01*
X159500000Y-74500000D02*
X160000000Y-75000000D01*
X142500000Y-82500000D02*
X148500000Y-82500000D01*
D34*
X108000000Y-121050000D02*
X109950000Y-121050000D01*
D33*
X138500000Y-119500000D02*
X137000000Y-121000000D01*
X137000000Y-121000000D02*
X110000000Y-121000000D01*
X138500000Y-119500000D02*
X140000000Y-119500000D01*
D34*
X109950000Y-121050000D02*
X110000000Y-121000000D01*
X92950000Y-71000000D02*
X92950000Y-63050000D01*
D33*
X97000000Y-59000000D02*
X160000000Y-59000000D01*
D34*
X92950000Y-63050000D02*
X97000000Y-59000000D01*
D33*
X160000000Y-98000000D02*
X162000000Y-98000000D01*
X153500000Y-119500000D02*
X148000000Y-119500000D01*
X148000000Y-119500000D02*
X140000000Y-119500000D01*
X158000000Y-115000000D02*
X153500000Y-119500000D01*
X158000000Y-112000000D02*
X158000000Y-115000000D01*
X163000000Y-107000000D02*
X158000000Y-112000000D01*
X163000000Y-99000000D02*
X163000000Y-107000000D01*
X162000000Y-98000000D02*
X163000000Y-99000000D01*
X160000000Y-98000000D02*
X160000000Y-75000000D01*
X160000000Y-75000000D02*
X160000000Y-59000000D01*
X180500000Y-35000000D02*
X185000000Y-35000000D01*
X183000000Y-59000000D02*
X160000000Y-59000000D01*
X190000000Y-52000000D02*
X183000000Y-59000000D01*
X190000000Y-40000000D02*
X190000000Y-52000000D01*
X185000000Y-35000000D02*
X190000000Y-40000000D01*
D34*
X169210000Y-93190000D02*
X166810000Y-93190000D01*
X166000000Y-94000000D02*
X166000000Y-96550000D01*
X166810000Y-93190000D02*
X166000000Y-94000000D01*
X166000000Y-96550000D02*
X161450000Y-96550000D01*
X161450000Y-96550000D02*
X160000000Y-98000000D01*
X142500000Y-82500000D02*
X142500000Y-79050000D01*
X142500000Y-79050000D02*
X140000000Y-76550000D01*
X140000000Y-76550000D02*
X140000000Y-74500000D01*
X142500000Y-111500000D02*
X142500000Y-114950000D01*
X142500000Y-114950000D02*
X140000000Y-117450000D01*
X140000000Y-117450000D02*
X140000000Y-119500000D01*
X108050000Y-121000000D02*
X105450000Y-121000000D01*
X105450000Y-121000000D02*
X105300000Y-120850000D01*
X92950000Y-71000000D02*
X95550000Y-71000000D01*
X95550000Y-71000000D02*
X95700000Y-71150000D01*
X86500000Y-102500000D02*
X126500000Y-102500000D01*
X126500000Y-102500000D02*
X130000000Y-106000000D01*
X81500000Y-102500000D02*
X86500000Y-102500000D01*
X71000000Y-89500000D02*
X79000000Y-89500000D01*
X86500000Y-89500000D02*
X126500000Y-89500000D01*
X126500000Y-89500000D02*
X130000000Y-86000000D01*
X81500000Y-89500000D02*
X86500000Y-89500000D01*
X71000000Y-102500000D02*
X79000000Y-102500000D01*
X101000000Y-76000000D02*
X101000000Y-71850000D01*
X101000000Y-71850000D02*
X100300000Y-71150000D01*
X101000000Y-76000000D02*
X101000000Y-84000000D01*
X94000000Y-84000000D02*
X101000000Y-84000000D01*
X101000000Y-116000000D02*
X101000000Y-120550000D01*
X101000000Y-120550000D02*
X100700000Y-120850000D01*
X94000000Y-108000000D02*
X101000000Y-108000000D01*
X101000000Y-108000000D02*
X101000000Y-116000000D01*
X94000000Y-81500000D02*
X86880000Y-81500000D01*
X86880000Y-81500000D02*
X86500000Y-81880000D01*
X86500000Y-81880000D02*
X86500000Y-77000000D01*
X94000000Y-110500000D02*
X86880000Y-110500000D01*
X86880000Y-110500000D02*
X86500000Y-110120000D01*
X86500000Y-110120000D02*
X86500000Y-115000000D01*
X135000000Y-112000000D02*
X130000000Y-112000000D01*
X108620000Y-116000000D02*
X131000000Y-116000000D01*
X131000000Y-116000000D02*
X135000000Y-112000000D01*
X135000000Y-80000000D02*
X130000000Y-80000000D01*
X108620000Y-76000000D02*
X131000000Y-76000000D01*
X131000000Y-76000000D02*
X135000000Y-80000000D01*
X133500000Y-101500000D02*
X133500000Y-103500000D01*
X133880000Y-103880000D02*
X142500000Y-103880000D01*
X133500000Y-103500000D02*
X133880000Y-103880000D01*
X133500000Y-101500000D02*
X131500000Y-101500000D01*
X131500000Y-101500000D02*
X130000000Y-100000000D01*
X154500000Y-103500000D02*
X148880000Y-103500000D01*
X148880000Y-103500000D02*
X148500000Y-103880000D01*
X136000000Y-101500000D02*
X146120000Y-101500000D01*
X146120000Y-101500000D02*
X148500000Y-103880000D01*
X133500000Y-92500000D02*
X133500000Y-90500000D01*
X133880000Y-90120000D02*
X142500000Y-90120000D01*
X133500000Y-90500000D02*
X133880000Y-90120000D01*
X133500000Y-92500000D02*
X131500000Y-92500000D01*
X131500000Y-92500000D02*
X130000000Y-94000000D01*
X154500000Y-90500000D02*
X148880000Y-90500000D01*
X148880000Y-90500000D02*
X148500000Y-90120000D01*
X136000000Y-92500000D02*
X146120000Y-92500000D01*
X146120000Y-92500000D02*
X148500000Y-90120000D01*
X169210000Y-100810000D02*
X169210000Y-107790000D01*
X169210000Y-107790000D02*
X163880000Y-113120000D01*
X163880000Y-113120000D02*
X163880000Y-113500000D01*
X163880000Y-113500000D02*
X163880000Y-116880000D01*
X191000000Y-112000000D02*
X191000000Y-107000000D01*
X185000000Y-118000000D02*
X191000000Y-112000000D01*
X165000000Y-118000000D02*
X185000000Y-118000000D01*
X163880000Y-116880000D02*
X165000000Y-118000000D01*
X198500000Y-107000000D02*
X205000000Y-107000000D01*
X166380000Y-81000000D02*
X166380000Y-83380000D01*
X171750000Y-88750000D02*
X171750000Y-93190000D01*
X166380000Y-83380000D02*
X171750000Y-88750000D01*
X171730000Y-93170000D02*
X171750000Y-93190000D01*
X191000000Y-87000000D02*
X191000000Y-82000000D01*
X191000000Y-82000000D02*
X185000000Y-76000000D01*
X185000000Y-76000000D02*
X168000000Y-76000000D01*
X168000000Y-76000000D02*
X166380000Y-77620000D01*
X166380000Y-77620000D02*
X166380000Y-81000000D01*
X198500000Y-87000000D02*
X205000000Y-87000000D01*
D35*
X63900000Y-62700000D02*
X63900000Y-58100000D01*
X117000000Y-50000000D02*
X120000000Y-47000000D01*
X72000000Y-50000000D02*
X117000000Y-50000000D01*
X63900000Y-58100000D02*
X72000000Y-50000000D01*
X130460000Y-32500000D02*
X120500000Y-32500000D01*
X112880000Y-32500000D02*
X63000000Y-32500000D01*
X63000000Y-32500000D02*
X59500000Y-36000000D01*
X58000000Y-60450000D02*
X58000000Y-50500000D01*
X58000000Y-50500000D02*
X59500000Y-49000000D01*
D34*
X71000000Y-92000000D02*
X70000000Y-92000000D01*
X65000000Y-91000000D02*
X62500000Y-93500000D01*
X69000000Y-91000000D02*
X65000000Y-91000000D01*
X70000000Y-92000000D02*
X69000000Y-91000000D01*
X66300000Y-93500000D02*
X66500000Y-93500000D01*
X66500000Y-93500000D02*
X71000000Y-98000000D01*
X71000000Y-98000000D02*
X71000000Y-100000000D01*
X212620000Y-107000000D02*
X212620000Y-105620000D01*
X208500000Y-101500000D02*
X208500000Y-99500000D01*
X212620000Y-105620000D02*
X208500000Y-101500000D01*
X212620000Y-87000000D02*
X212620000Y-91580000D01*
X212620000Y-91580000D02*
X204700000Y-99500000D01*
X171500000Y-108500000D02*
X171500000Y-113500000D01*
X171730000Y-101445000D02*
X171730000Y-108270000D01*
X171730000Y-108270000D02*
X171500000Y-108500000D01*
X174290000Y-93190000D02*
X174290000Y-85790000D01*
X174290000Y-85790000D02*
X174000000Y-85500000D01*
X174000000Y-85500000D02*
X174000000Y-81000000D01*
X174270000Y-85770000D02*
X174000000Y-85500000D01*
D35*
X135540000Y-32500000D02*
X145800000Y-32500000D01*
X145800000Y-32500000D02*
X146990000Y-33690000D01*
D34*
X169010000Y-33690000D02*
X174190000Y-33690000D01*
X174190000Y-33690000D02*
X175500000Y-35000000D01*
X169010000Y-41310000D02*
X174190000Y-41310000D01*
X174190000Y-41310000D02*
X175500000Y-40000000D01*
D36*
G36*
X172750000Y-29103554D02*
X172750000Y-32040000D01*
X169010000Y-32040000D01*
X168590982Y-32123348D01*
X167410000Y-32123348D01*
X167095009Y-32182618D01*
X166805709Y-32368777D01*
X166611628Y-32652824D01*
X166543348Y-32990000D01*
X166543348Y-34390000D01*
X166602618Y-34704991D01*
X166768651Y-34963014D01*
X166611628Y-35192824D01*
X166543348Y-35530000D01*
X166543348Y-36930000D01*
X166602618Y-37244991D01*
X166729053Y-37441477D01*
X166717709Y-37448777D01*
X166523628Y-37732824D01*
X166455348Y-38070000D01*
X166455348Y-39470000D01*
X166514618Y-39784991D01*
X166700777Y-40074291D01*
X166732479Y-40095952D01*
X166611628Y-40272824D01*
X166543348Y-40610000D01*
X166543348Y-42010000D01*
X166602618Y-42324991D01*
X166788777Y-42614291D01*
X167072824Y-42808372D01*
X167410000Y-42876652D01*
X168590982Y-42876652D01*
X169010000Y-42960000D01*
X172750000Y-42960000D01*
X172750000Y-53896446D01*
X170896446Y-55750000D01*
X99073249Y-55750000D01*
X99491071Y-55332906D01*
X99849591Y-54469495D01*
X99850407Y-53534607D01*
X99493395Y-52670571D01*
X99273208Y-52450000D01*
X116999995Y-52450000D01*
X117000000Y-52450001D01*
X117937575Y-52263505D01*
X118732412Y-51732412D01*
X121731759Y-48733064D01*
X122075798Y-48389625D01*
X122449573Y-47489473D01*
X122450000Y-47000003D01*
X122450001Y-47000000D01*
X122450000Y-46999997D01*
X122450424Y-46514803D01*
X122078220Y-45614000D01*
X121389625Y-44924202D01*
X120489473Y-44550427D01*
X120000003Y-44550000D01*
X120000000Y-44549999D01*
X119999997Y-44550000D01*
X119514803Y-44549576D01*
X118614000Y-44921780D01*
X117924202Y-45610375D01*
X117923776Y-45611401D01*
X115985176Y-47550000D01*
X72000005Y-47550000D01*
X72000000Y-47549999D01*
X71062425Y-47736495D01*
X70267588Y-48267588D01*
X62167588Y-56367588D01*
X61636495Y-57162425D01*
X61449999Y-58100000D01*
X61450000Y-58100005D01*
X61450000Y-61420981D01*
X61335009Y-61442618D01*
X61045709Y-61628777D01*
X60851628Y-61912824D01*
X60783348Y-62250000D01*
X60783348Y-63150000D01*
X60842618Y-63464991D01*
X61028777Y-63754291D01*
X61312824Y-63948372D01*
X61650000Y-64016652D01*
X61889786Y-64016652D01*
X62167588Y-64432412D01*
X62962426Y-64963505D01*
X63900000Y-65150000D01*
X64837574Y-64963505D01*
X65632412Y-64432412D01*
X65910214Y-64016652D01*
X66150000Y-64016652D01*
X66464991Y-63957382D01*
X66754291Y-63771223D01*
X66948372Y-63487176D01*
X67016652Y-63150000D01*
X67016652Y-62250000D01*
X66957382Y-61935009D01*
X66771223Y-61645709D01*
X66487176Y-61451628D01*
X66350000Y-61423849D01*
X66350000Y-59114824D01*
X73014824Y-52450000D01*
X95726402Y-52450000D01*
X95508929Y-52667094D01*
X95150409Y-53530505D01*
X95149593Y-54465393D01*
X95506605Y-55329429D01*
X95926443Y-55750000D01*
X73000000Y-55750000D01*
X72902736Y-55769696D01*
X72823223Y-55823223D01*
X68823223Y-59823223D01*
X68768375Y-59905927D01*
X68750000Y-60000000D01*
X68750000Y-66896446D01*
X66896446Y-68750000D01*
X58103554Y-68750000D01*
X56925000Y-67571446D01*
X56925000Y-36000000D01*
X57049999Y-36000000D01*
X57236495Y-36937575D01*
X57767588Y-37732412D01*
X58562425Y-38263505D01*
X59500000Y-38450001D01*
X60437575Y-38263505D01*
X61232412Y-37732412D01*
X64014823Y-34950000D01*
X112880000Y-34950000D01*
X113817574Y-34763505D01*
X114612412Y-34232412D01*
X115143505Y-33437574D01*
X115330000Y-32500000D01*
X118050000Y-32500000D01*
X118236495Y-33437574D01*
X118767588Y-34232412D01*
X119562426Y-34763505D01*
X120500000Y-34950000D01*
X130460000Y-34950000D01*
X131397574Y-34763505D01*
X132192412Y-34232412D01*
X132723505Y-33437574D01*
X132910000Y-32500000D01*
X133090000Y-32500000D01*
X133276495Y-33437574D01*
X133807588Y-34232412D01*
X134602426Y-34763505D01*
X135540000Y-34950000D01*
X144740277Y-34950000D01*
X144768777Y-34994291D01*
X144960392Y-35125216D01*
X145257588Y-35422412D01*
X146052425Y-35953505D01*
X146990000Y-36140000D01*
X147927575Y-35953505D01*
X148722412Y-35422412D01*
X148868139Y-35204316D01*
X148904991Y-35197382D01*
X149194291Y-35011223D01*
X149388372Y-34727176D01*
X149456652Y-34390000D01*
X149456652Y-32990000D01*
X149397382Y-32675009D01*
X149211223Y-32385709D01*
X148927176Y-32191628D01*
X148871221Y-32180297D01*
X148722412Y-31957588D01*
X147532412Y-30767588D01*
X146737575Y-30236495D01*
X145800000Y-30049999D01*
X145799995Y-30050000D01*
X135540000Y-30050000D01*
X134602426Y-30236495D01*
X133807588Y-30767588D01*
X133276495Y-31562426D01*
X133090000Y-32500000D01*
X132910000Y-32500000D01*
X132723505Y-31562426D01*
X132192412Y-30767588D01*
X131397574Y-30236495D01*
X130460000Y-30050000D01*
X120500000Y-30050000D01*
X119562426Y-30236495D01*
X118767588Y-30767588D01*
X118236495Y-31562426D01*
X118050000Y-32500000D01*
X115330000Y-32500000D01*
X115143505Y-31562426D01*
X114612412Y-30767588D01*
X113817574Y-30236495D01*
X112880000Y-30050000D01*
X63000000Y-30050000D01*
X62062426Y-30236495D01*
X61267588Y-30767588D01*
X61267586Y-30767591D01*
X57767588Y-34267588D01*
X57236495Y-35062425D01*
X57049999Y-36000000D01*
X56925000Y-36000000D01*
X56925000Y-28428554D01*
X57428554Y-27925000D01*
X171571446Y-27925000D01*
X172750000Y-29103554D01*
X172750000Y-29103554D01*
G37*
X172750000Y-29103554D02*
X172750000Y-32040000D01*
X169010000Y-32040000D01*
X168590982Y-32123348D01*
X167410000Y-32123348D01*
X167095009Y-32182618D01*
X166805709Y-32368777D01*
X166611628Y-32652824D01*
X166543348Y-32990000D01*
X166543348Y-34390000D01*
X166602618Y-34704991D01*
X166768651Y-34963014D01*
X166611628Y-35192824D01*
X166543348Y-35530000D01*
X166543348Y-36930000D01*
X166602618Y-37244991D01*
X166729053Y-37441477D01*
X166717709Y-37448777D01*
X166523628Y-37732824D01*
X166455348Y-38070000D01*
X166455348Y-39470000D01*
X166514618Y-39784991D01*
X166700777Y-40074291D01*
X166732479Y-40095952D01*
X166611628Y-40272824D01*
X166543348Y-40610000D01*
X166543348Y-42010000D01*
X166602618Y-42324991D01*
X166788777Y-42614291D01*
X167072824Y-42808372D01*
X167410000Y-42876652D01*
X168590982Y-42876652D01*
X169010000Y-42960000D01*
X172750000Y-42960000D01*
X172750000Y-53896446D01*
X170896446Y-55750000D01*
X99073249Y-55750000D01*
X99491071Y-55332906D01*
X99849591Y-54469495D01*
X99850407Y-53534607D01*
X99493395Y-52670571D01*
X99273208Y-52450000D01*
X116999995Y-52450000D01*
X117000000Y-52450001D01*
X117937575Y-52263505D01*
X118732412Y-51732412D01*
X121731759Y-48733064D01*
X122075798Y-48389625D01*
X122449573Y-47489473D01*
X122450000Y-47000003D01*
X122450001Y-47000000D01*
X122450000Y-46999997D01*
X122450424Y-46514803D01*
X122078220Y-45614000D01*
X121389625Y-44924202D01*
X120489473Y-44550427D01*
X120000003Y-44550000D01*
X120000000Y-44549999D01*
X119999997Y-44550000D01*
X119514803Y-44549576D01*
X118614000Y-44921780D01*
X117924202Y-45610375D01*
X117923776Y-45611401D01*
X115985176Y-47550000D01*
X72000005Y-47550000D01*
X72000000Y-47549999D01*
X71062425Y-47736495D01*
X70267588Y-48267588D01*
X62167588Y-56367588D01*
X61636495Y-57162425D01*
X61449999Y-58100000D01*
X61450000Y-58100005D01*
X61450000Y-61420981D01*
X61335009Y-61442618D01*
X61045709Y-61628777D01*
X60851628Y-61912824D01*
X60783348Y-62250000D01*
X60783348Y-63150000D01*
X60842618Y-63464991D01*
X61028777Y-63754291D01*
X61312824Y-63948372D01*
X61650000Y-64016652D01*
X61889786Y-64016652D01*
X62167588Y-64432412D01*
X62962426Y-64963505D01*
X63900000Y-65150000D01*
X64837574Y-64963505D01*
X65632412Y-64432412D01*
X65910214Y-64016652D01*
X66150000Y-64016652D01*
X66464991Y-63957382D01*
X66754291Y-63771223D01*
X66948372Y-63487176D01*
X67016652Y-63150000D01*
X67016652Y-62250000D01*
X66957382Y-61935009D01*
X66771223Y-61645709D01*
X66487176Y-61451628D01*
X66350000Y-61423849D01*
X66350000Y-59114824D01*
X73014824Y-52450000D01*
X95726402Y-52450000D01*
X95508929Y-52667094D01*
X95150409Y-53530505D01*
X95149593Y-54465393D01*
X95506605Y-55329429D01*
X95926443Y-55750000D01*
X73000000Y-55750000D01*
X72902736Y-55769696D01*
X72823223Y-55823223D01*
X68823223Y-59823223D01*
X68768375Y-59905927D01*
X68750000Y-60000000D01*
X68750000Y-66896446D01*
X66896446Y-68750000D01*
X58103554Y-68750000D01*
X56925000Y-67571446D01*
X56925000Y-36000000D01*
X57049999Y-36000000D01*
X57236495Y-36937575D01*
X57767588Y-37732412D01*
X58562425Y-38263505D01*
X59500000Y-38450001D01*
X60437575Y-38263505D01*
X61232412Y-37732412D01*
X64014823Y-34950000D01*
X112880000Y-34950000D01*
X113817574Y-34763505D01*
X114612412Y-34232412D01*
X115143505Y-33437574D01*
X115330000Y-32500000D01*
X118050000Y-32500000D01*
X118236495Y-33437574D01*
X118767588Y-34232412D01*
X119562426Y-34763505D01*
X120500000Y-34950000D01*
X130460000Y-34950000D01*
X131397574Y-34763505D01*
X132192412Y-34232412D01*
X132723505Y-33437574D01*
X132910000Y-32500000D01*
X133090000Y-32500000D01*
X133276495Y-33437574D01*
X133807588Y-34232412D01*
X134602426Y-34763505D01*
X135540000Y-34950000D01*
X144740277Y-34950000D01*
X144768777Y-34994291D01*
X144960392Y-35125216D01*
X145257588Y-35422412D01*
X146052425Y-35953505D01*
X146990000Y-36140000D01*
X147927575Y-35953505D01*
X148722412Y-35422412D01*
X148868139Y-35204316D01*
X148904991Y-35197382D01*
X149194291Y-35011223D01*
X149388372Y-34727176D01*
X149456652Y-34390000D01*
X149456652Y-32990000D01*
X149397382Y-32675009D01*
X149211223Y-32385709D01*
X148927176Y-32191628D01*
X148871221Y-32180297D01*
X148722412Y-31957588D01*
X147532412Y-30767588D01*
X146737575Y-30236495D01*
X145800000Y-30049999D01*
X145799995Y-30050000D01*
X135540000Y-30050000D01*
X134602426Y-30236495D01*
X133807588Y-30767588D01*
X133276495Y-31562426D01*
X133090000Y-32500000D01*
X132910000Y-32500000D01*
X132723505Y-31562426D01*
X132192412Y-30767588D01*
X131397574Y-30236495D01*
X130460000Y-30050000D01*
X120500000Y-30050000D01*
X119562426Y-30236495D01*
X118767588Y-30767588D01*
X118236495Y-31562426D01*
X118050000Y-32500000D01*
X115330000Y-32500000D01*
X115143505Y-31562426D01*
X114612412Y-30767588D01*
X113817574Y-30236495D01*
X112880000Y-30050000D01*
X63000000Y-30050000D01*
X62062426Y-30236495D01*
X61267588Y-30767588D01*
X61267586Y-30767591D01*
X57767588Y-34267588D01*
X57236495Y-35062425D01*
X57049999Y-36000000D01*
X56925000Y-36000000D01*
X56925000Y-28428554D01*
X57428554Y-27925000D01*
X171571446Y-27925000D01*
X172750000Y-29103554D01*
G36*
X214075000Y-28428554D02*
X214075000Y-86216328D01*
X213819051Y-85833274D01*
X213283753Y-85475599D01*
X212652325Y-85350000D01*
X212587675Y-85350000D01*
X211956247Y-85475599D01*
X211420949Y-85833274D01*
X211063274Y-86368572D01*
X210937675Y-87000000D01*
X210970000Y-87162509D01*
X210970000Y-90896548D01*
X203546633Y-98319915D01*
X203209162Y-98545406D01*
X202916519Y-98983377D01*
X202813756Y-99500000D01*
X202916519Y-100016623D01*
X203209162Y-100454594D01*
X203647133Y-100747237D01*
X203656580Y-100749116D01*
X204068573Y-101024401D01*
X204700000Y-101150000D01*
X205331427Y-101024401D01*
X205743420Y-100749116D01*
X205752867Y-100747237D01*
X206190838Y-100454594D01*
X206416329Y-100117123D01*
X206683388Y-99850064D01*
X206716519Y-100016623D01*
X206850000Y-100216391D01*
X206850000Y-101500000D01*
X206975599Y-102131428D01*
X207266353Y-102566571D01*
X207333274Y-102666726D01*
X210970000Y-106303452D01*
X210970000Y-106837491D01*
X210937675Y-107000000D01*
X211063274Y-107631428D01*
X211420949Y-108166726D01*
X211956247Y-108524401D01*
X212587675Y-108650000D01*
X212652325Y-108650000D01*
X213283753Y-108524401D01*
X213819051Y-108166726D01*
X214075000Y-107783672D01*
X214075000Y-128571446D01*
X213571446Y-129075000D01*
X57428554Y-129075000D01*
X56925000Y-128571446D01*
X56925000Y-114200000D01*
X84833348Y-114200000D01*
X84833348Y-115800000D01*
X84892618Y-116114991D01*
X85078777Y-116404291D01*
X85362824Y-116598372D01*
X85700000Y-116666652D01*
X87300000Y-116666652D01*
X87614991Y-116607382D01*
X87904291Y-116421223D01*
X88098372Y-116137176D01*
X88166652Y-115800000D01*
X88166652Y-114200000D01*
X88150000Y-114111503D01*
X88150000Y-112150000D01*
X94000000Y-112150000D01*
X94190202Y-112112167D01*
X94319240Y-112112279D01*
X94439550Y-112062568D01*
X94631428Y-112024401D01*
X94792672Y-111916661D01*
X94911932Y-111867384D01*
X95004062Y-111775415D01*
X95166726Y-111666726D01*
X95274466Y-111505482D01*
X95365790Y-111414317D01*
X95415711Y-111294094D01*
X95524401Y-111131428D01*
X95562234Y-110941228D01*
X95611720Y-110822053D01*
X95611833Y-110691876D01*
X95650000Y-110500000D01*
X95612167Y-110309798D01*
X95612279Y-110180760D01*
X95562568Y-110060450D01*
X95524401Y-109868572D01*
X95416661Y-109707328D01*
X95392974Y-109650000D01*
X99350000Y-109650000D01*
X99350000Y-115999708D01*
X99349715Y-116326765D01*
X99350000Y-116327455D01*
X99350000Y-119226016D01*
X99345709Y-119228777D01*
X99151628Y-119512824D01*
X99083348Y-119850000D01*
X99083348Y-120682349D01*
X99050000Y-120850000D01*
X99083348Y-121017651D01*
X99083348Y-121850000D01*
X99142618Y-122164991D01*
X99328777Y-122454291D01*
X99612824Y-122648372D01*
X99950000Y-122716652D01*
X101450000Y-122716652D01*
X101764991Y-122657382D01*
X102054291Y-122471223D01*
X102248372Y-122187176D01*
X102316652Y-121850000D01*
X102316652Y-121492346D01*
X102382396Y-121393953D01*
X102524401Y-121181428D01*
X102650000Y-120550000D01*
X102650000Y-116000000D01*
X106937675Y-116000000D01*
X107063274Y-116631428D01*
X107420949Y-117166726D01*
X107956247Y-117524401D01*
X108587675Y-117650000D01*
X131000000Y-117650000D01*
X131631428Y-117524401D01*
X132166726Y-117166726D01*
X135666800Y-113666652D01*
X135800000Y-113666652D01*
X136114991Y-113607382D01*
X136404291Y-113421223D01*
X136598372Y-113137176D01*
X136666652Y-112800000D01*
X136666652Y-111200000D01*
X136607382Y-110885009D01*
X136421223Y-110595709D01*
X136137176Y-110401628D01*
X135800000Y-110333348D01*
X134200000Y-110333348D01*
X134111503Y-110350000D01*
X130000000Y-110350000D01*
X129809798Y-110387833D01*
X129680760Y-110387721D01*
X129560450Y-110437432D01*
X129368572Y-110475599D01*
X129207328Y-110583339D01*
X129088068Y-110632616D01*
X128995938Y-110724585D01*
X128833274Y-110833274D01*
X128725534Y-110994518D01*
X128634210Y-111085683D01*
X128584289Y-111205906D01*
X128475599Y-111368572D01*
X128437766Y-111558772D01*
X128388280Y-111677947D01*
X128388167Y-111808124D01*
X128350000Y-112000000D01*
X128387833Y-112190202D01*
X128387721Y-112319240D01*
X128437432Y-112439550D01*
X128475599Y-112631428D01*
X128583339Y-112792672D01*
X128632616Y-112911932D01*
X128724585Y-113004062D01*
X128833274Y-113166726D01*
X128994518Y-113274466D01*
X129085683Y-113365790D01*
X129205906Y-113415711D01*
X129368572Y-113524401D01*
X129558772Y-113562234D01*
X129677947Y-113611720D01*
X129808124Y-113611833D01*
X130000000Y-113650000D01*
X131016548Y-113650000D01*
X130316548Y-114350000D01*
X108587675Y-114350000D01*
X107956247Y-114475599D01*
X107420949Y-114833274D01*
X107063274Y-115368572D01*
X106937675Y-116000000D01*
X102650000Y-116000000D01*
X102650285Y-115673235D01*
X102650000Y-115672545D01*
X102650000Y-108882230D01*
X102666652Y-108800000D01*
X102666652Y-107200000D01*
X102607382Y-106885009D01*
X102421223Y-106595709D01*
X102137176Y-106401628D01*
X101800000Y-106333348D01*
X100200000Y-106333348D01*
X100111503Y-106350000D01*
X94000000Y-106350000D01*
X93809798Y-106387833D01*
X93680760Y-106387721D01*
X93560450Y-106437432D01*
X93368572Y-106475599D01*
X93207328Y-106583339D01*
X93088068Y-106632616D01*
X92995938Y-106724585D01*
X92833274Y-106833274D01*
X92725534Y-106994518D01*
X92634210Y-107085683D01*
X92584289Y-107205906D01*
X92475599Y-107368572D01*
X92437766Y-107558772D01*
X92388280Y-107677947D01*
X92388167Y-107808124D01*
X92350000Y-108000000D01*
X92387833Y-108190202D01*
X92387721Y-108319240D01*
X92437432Y-108439550D01*
X92475599Y-108631428D01*
X92583339Y-108792672D01*
X92607026Y-108850000D01*
X87560543Y-108850000D01*
X87131428Y-108563274D01*
X86500000Y-108437675D01*
X85868572Y-108563274D01*
X85333274Y-108920949D01*
X84975599Y-109456247D01*
X84850000Y-110087675D01*
X84850000Y-114117770D01*
X84833348Y-114200000D01*
X56925000Y-114200000D01*
X56925000Y-93500000D01*
X60613756Y-93500000D01*
X60716519Y-94016623D01*
X61009162Y-94454594D01*
X61447133Y-94747237D01*
X61456580Y-94749116D01*
X61868573Y-95024401D01*
X62500000Y-95150000D01*
X63131427Y-95024401D01*
X63543420Y-94749116D01*
X63552867Y-94747237D01*
X63990838Y-94454594D01*
X64216329Y-94117123D01*
X64483388Y-93850064D01*
X64516519Y-94016623D01*
X64809162Y-94454594D01*
X65247133Y-94747237D01*
X65256579Y-94749116D01*
X65668572Y-95024401D01*
X65696505Y-95029957D01*
X69350000Y-98683452D01*
X69350000Y-100000000D01*
X69387833Y-100190202D01*
X69387721Y-100319240D01*
X69437432Y-100439550D01*
X69475599Y-100631428D01*
X69583339Y-100792672D01*
X69632616Y-100911932D01*
X69724585Y-101004062D01*
X69833274Y-101166726D01*
X69957902Y-101250000D01*
X69833274Y-101333274D01*
X69725534Y-101494518D01*
X69634210Y-101585683D01*
X69584289Y-101705906D01*
X69475599Y-101868572D01*
X69437766Y-102058772D01*
X69388280Y-102177947D01*
X69388167Y-102308124D01*
X69350000Y-102500000D01*
X69387833Y-102690202D01*
X69387721Y-102819240D01*
X69437432Y-102939550D01*
X69475599Y-103131428D01*
X69583339Y-103292672D01*
X69632616Y-103411932D01*
X69724585Y-103504062D01*
X69833274Y-103666726D01*
X69994518Y-103774466D01*
X70085683Y-103865790D01*
X70205906Y-103915711D01*
X70368572Y-104024401D01*
X70558772Y-104062234D01*
X70677947Y-104111720D01*
X70808124Y-104111833D01*
X71000000Y-104150000D01*
X78999708Y-104150000D01*
X79326765Y-104150285D01*
X79933429Y-103899617D01*
X80020097Y-103813100D01*
X80078777Y-103904291D01*
X80362824Y-104098372D01*
X80700000Y-104166652D01*
X82300000Y-104166652D01*
X82388497Y-104150000D01*
X86499708Y-104150000D01*
X86826765Y-104150285D01*
X86827455Y-104150000D01*
X125816548Y-104150000D01*
X128833273Y-107166726D01*
X128994520Y-107274467D01*
X129085683Y-107365790D01*
X129205906Y-107415711D01*
X129368572Y-107524401D01*
X129558771Y-107562234D01*
X129677947Y-107611720D01*
X129808128Y-107611833D01*
X130000000Y-107649999D01*
X130190198Y-107612167D01*
X130319240Y-107612279D01*
X130439552Y-107562567D01*
X130631427Y-107524401D01*
X130792670Y-107416662D01*
X130911932Y-107367384D01*
X131004062Y-107275414D01*
X131166726Y-107166726D01*
X131274465Y-107005482D01*
X131365790Y-106914317D01*
X131415712Y-106794092D01*
X131524401Y-106631427D01*
X131562233Y-106441230D01*
X131611720Y-106322053D01*
X131611833Y-106191872D01*
X131649999Y-106000000D01*
X131612167Y-105809802D01*
X131612279Y-105680760D01*
X131562567Y-105560448D01*
X131524401Y-105368572D01*
X131416661Y-105207327D01*
X131367384Y-105088068D01*
X131275416Y-104995940D01*
X131166726Y-104833273D01*
X127666726Y-101333274D01*
X127542340Y-101250162D01*
X127131428Y-100975599D01*
X126500000Y-100850000D01*
X86500292Y-100850000D01*
X86173235Y-100849715D01*
X86172545Y-100850000D01*
X82382230Y-100850000D01*
X82300000Y-100833348D01*
X80700000Y-100833348D01*
X80385009Y-100892618D01*
X80095709Y-101078777D01*
X80021334Y-101187628D01*
X79935870Y-101102014D01*
X79329645Y-100850287D01*
X78673235Y-100849715D01*
X78672545Y-100850000D01*
X72392497Y-100850000D01*
X72415711Y-100794094D01*
X72524401Y-100631428D01*
X72562234Y-100441228D01*
X72611720Y-100322053D01*
X72611833Y-100191876D01*
X72650000Y-100000000D01*
X128350000Y-100000000D01*
X128387833Y-100190201D01*
X128387721Y-100319240D01*
X128437432Y-100439551D01*
X128475599Y-100631427D01*
X128583338Y-100792670D01*
X128632616Y-100911932D01*
X128724586Y-101004062D01*
X128833274Y-101166726D01*
X130333274Y-102666726D01*
X130868572Y-103024401D01*
X131500000Y-103150000D01*
X131850000Y-103150000D01*
X131850000Y-103500000D01*
X131975599Y-104131428D01*
X132333274Y-104666726D01*
X132713274Y-105046726D01*
X133248572Y-105404401D01*
X133880000Y-105530000D01*
X142337491Y-105530000D01*
X142500000Y-105562325D01*
X143131428Y-105436726D01*
X143666726Y-105079051D01*
X144024401Y-104543753D01*
X144150000Y-103912325D01*
X144150000Y-103847675D01*
X144024401Y-103216247D01*
X143980136Y-103150000D01*
X145436548Y-103150000D01*
X147268182Y-104981634D01*
X147333274Y-105079051D01*
X147868572Y-105436726D01*
X148500000Y-105562325D01*
X149131428Y-105436726D01*
X149560543Y-105150000D01*
X154499708Y-105150000D01*
X154826765Y-105150285D01*
X155433429Y-104899617D01*
X155897986Y-104435870D01*
X156149713Y-103829645D01*
X156150285Y-103173235D01*
X155899617Y-102566571D01*
X155435870Y-102102014D01*
X154829645Y-101850287D01*
X154173235Y-101849715D01*
X154172545Y-101850000D01*
X148880000Y-101850000D01*
X148816152Y-101862700D01*
X147286726Y-100333274D01*
X147055198Y-100178572D01*
X146751428Y-99975599D01*
X146120000Y-99850000D01*
X136000292Y-99850000D01*
X135673235Y-99849715D01*
X135066571Y-100100383D01*
X134979903Y-100186900D01*
X134921223Y-100095709D01*
X134637176Y-99901628D01*
X134300000Y-99833348D01*
X132700000Y-99833348D01*
X132611503Y-99850000D01*
X132183452Y-99850000D01*
X131166726Y-98833274D01*
X131005482Y-98725535D01*
X130914317Y-98634210D01*
X130794092Y-98584288D01*
X130631427Y-98475599D01*
X130441228Y-98437766D01*
X130322053Y-98388280D01*
X130191876Y-98388167D01*
X130000000Y-98350000D01*
X129809799Y-98387833D01*
X129680760Y-98387721D01*
X129560449Y-98437432D01*
X129368573Y-98475599D01*
X129207330Y-98583338D01*
X129088068Y-98632616D01*
X128995938Y-98724586D01*
X128833274Y-98833274D01*
X128725535Y-98994518D01*
X128634210Y-99085683D01*
X128584288Y-99205908D01*
X128475599Y-99368573D01*
X128437766Y-99558772D01*
X128388280Y-99677947D01*
X128388167Y-99808124D01*
X128350000Y-100000000D01*
X72650000Y-100000000D01*
X72650000Y-98000000D01*
X72524401Y-97368572D01*
X72166726Y-96833274D01*
X69333452Y-94000000D01*
X128350000Y-94000000D01*
X128387833Y-94190201D01*
X128387721Y-94319240D01*
X128437432Y-94439551D01*
X128475599Y-94631427D01*
X128583338Y-94792670D01*
X128632616Y-94911932D01*
X128724586Y-95004062D01*
X128833274Y-95166726D01*
X128994518Y-95274465D01*
X129085683Y-95365790D01*
X129205908Y-95415712D01*
X129368573Y-95524401D01*
X129558772Y-95562234D01*
X129677947Y-95611720D01*
X129808124Y-95611833D01*
X130000000Y-95650000D01*
X130190201Y-95612167D01*
X130319240Y-95612279D01*
X130439551Y-95562568D01*
X130631427Y-95524401D01*
X130792670Y-95416662D01*
X130911932Y-95367384D01*
X131004062Y-95275414D01*
X131166726Y-95166726D01*
X132183452Y-94150000D01*
X132617770Y-94150000D01*
X132700000Y-94166652D01*
X134300000Y-94166652D01*
X134614991Y-94107382D01*
X134904291Y-93921223D01*
X134978666Y-93812372D01*
X135064130Y-93897986D01*
X135670355Y-94149713D01*
X136326765Y-94150285D01*
X136327455Y-94150000D01*
X146120000Y-94150000D01*
X146751428Y-94024401D01*
X147286726Y-93666726D01*
X148816152Y-92137300D01*
X148880000Y-92150000D01*
X154499708Y-92150000D01*
X154826765Y-92150285D01*
X155433429Y-91899617D01*
X155897986Y-91435870D01*
X156149713Y-90829645D01*
X156150285Y-90173235D01*
X155899617Y-89566571D01*
X155435870Y-89102014D01*
X154829645Y-88850287D01*
X154173235Y-88849715D01*
X154172545Y-88850000D01*
X149560543Y-88850000D01*
X149131428Y-88563274D01*
X148500000Y-88437675D01*
X147868572Y-88563274D01*
X147333274Y-88920949D01*
X147268182Y-89018366D01*
X145436548Y-90850000D01*
X143980136Y-90850000D01*
X144024401Y-90783753D01*
X144150000Y-90152325D01*
X144150000Y-90087675D01*
X144024401Y-89456247D01*
X143666726Y-88920949D01*
X143131428Y-88563274D01*
X142500000Y-88437675D01*
X142337491Y-88470000D01*
X133880000Y-88470000D01*
X133248572Y-88595599D01*
X132840038Y-88868573D01*
X132713274Y-88953274D01*
X132333274Y-89333274D01*
X131975599Y-89868572D01*
X131850000Y-90500000D01*
X131850000Y-90850000D01*
X131500000Y-90850000D01*
X130868572Y-90975599D01*
X130333274Y-91333274D01*
X128833274Y-92833274D01*
X128725535Y-92994518D01*
X128634210Y-93085683D01*
X128584288Y-93205908D01*
X128475599Y-93368573D01*
X128437766Y-93558772D01*
X128388280Y-93677947D01*
X128388167Y-93808124D01*
X128350000Y-94000000D01*
X69333452Y-94000000D01*
X67983452Y-92650000D01*
X68316548Y-92650000D01*
X68833274Y-93166726D01*
X69368573Y-93524402D01*
X70000000Y-93650000D01*
X71000000Y-93650000D01*
X71190202Y-93612167D01*
X71319240Y-93612279D01*
X71439550Y-93562568D01*
X71631428Y-93524401D01*
X71792672Y-93416661D01*
X71911932Y-93367384D01*
X72004062Y-93275415D01*
X72166726Y-93166726D01*
X72274466Y-93005482D01*
X72365790Y-92914317D01*
X72415711Y-92794094D01*
X72524401Y-92631428D01*
X72562234Y-92441228D01*
X72611720Y-92322053D01*
X72611833Y-92191876D01*
X72650000Y-92000000D01*
X72612167Y-91809798D01*
X72612279Y-91680760D01*
X72562568Y-91560450D01*
X72524401Y-91368572D01*
X72416661Y-91207328D01*
X72392974Y-91150000D01*
X78999708Y-91150000D01*
X79326765Y-91150285D01*
X79933429Y-90899617D01*
X80020097Y-90813100D01*
X80078777Y-90904291D01*
X80362824Y-91098372D01*
X80700000Y-91166652D01*
X82300000Y-91166652D01*
X82388497Y-91150000D01*
X86499708Y-91150000D01*
X86826765Y-91150285D01*
X86827455Y-91150000D01*
X126500000Y-91150000D01*
X127131428Y-91024401D01*
X127666726Y-90666726D01*
X131166726Y-87166727D01*
X131274467Y-87005480D01*
X131365790Y-86914317D01*
X131415711Y-86794094D01*
X131524401Y-86631428D01*
X131562234Y-86441229D01*
X131611720Y-86322053D01*
X131611833Y-86191872D01*
X131649999Y-86000000D01*
X131612167Y-85809802D01*
X131612279Y-85680760D01*
X131562567Y-85560448D01*
X131524401Y-85368573D01*
X131416662Y-85207330D01*
X131367384Y-85088068D01*
X131275414Y-84995938D01*
X131166726Y-84833274D01*
X131005482Y-84725535D01*
X130914317Y-84634210D01*
X130794092Y-84584288D01*
X130631427Y-84475599D01*
X130441230Y-84437767D01*
X130322053Y-84388280D01*
X130191872Y-84388167D01*
X130000000Y-84350001D01*
X129809802Y-84387833D01*
X129680760Y-84387721D01*
X129560448Y-84437433D01*
X129368572Y-84475599D01*
X129207327Y-84583339D01*
X129088068Y-84632616D01*
X128995940Y-84724584D01*
X128833273Y-84833274D01*
X125816548Y-87850000D01*
X86500292Y-87850000D01*
X86173235Y-87849715D01*
X86172545Y-87850000D01*
X82382230Y-87850000D01*
X82300000Y-87833348D01*
X80700000Y-87833348D01*
X80385009Y-87892618D01*
X80095709Y-88078777D01*
X80021334Y-88187628D01*
X79935870Y-88102014D01*
X79329645Y-87850287D01*
X78673235Y-87849715D01*
X78672545Y-87850000D01*
X71000000Y-87850000D01*
X70809798Y-87887833D01*
X70680760Y-87887721D01*
X70560450Y-87937432D01*
X70368572Y-87975599D01*
X70207328Y-88083339D01*
X70088068Y-88132616D01*
X69995938Y-88224585D01*
X69833274Y-88333274D01*
X69725534Y-88494518D01*
X69634210Y-88585683D01*
X69584289Y-88705906D01*
X69475599Y-88868572D01*
X69437766Y-89058772D01*
X69388280Y-89177947D01*
X69388167Y-89308124D01*
X69365380Y-89422679D01*
X69000000Y-89350000D01*
X65000000Y-89350000D01*
X64368572Y-89475599D01*
X63854277Y-89819240D01*
X63833274Y-89833274D01*
X61346633Y-92319915D01*
X61009162Y-92545406D01*
X60716519Y-92983377D01*
X60613756Y-93500000D01*
X56925000Y-93500000D01*
X56925000Y-76200000D01*
X84833348Y-76200000D01*
X84833348Y-77800000D01*
X84850000Y-77888497D01*
X84850000Y-81912325D01*
X84975599Y-82543753D01*
X85333274Y-83079051D01*
X85868572Y-83436726D01*
X86500000Y-83562325D01*
X87131428Y-83436726D01*
X87560543Y-83150000D01*
X92607503Y-83150000D01*
X92584289Y-83205906D01*
X92475599Y-83368572D01*
X92437766Y-83558772D01*
X92388280Y-83677947D01*
X92388167Y-83808124D01*
X92350000Y-84000000D01*
X92387833Y-84190202D01*
X92387721Y-84319240D01*
X92437432Y-84439550D01*
X92475599Y-84631428D01*
X92583339Y-84792672D01*
X92632616Y-84911932D01*
X92724585Y-85004062D01*
X92833274Y-85166726D01*
X92994518Y-85274466D01*
X93085683Y-85365790D01*
X93205906Y-85415711D01*
X93368572Y-85524401D01*
X93558772Y-85562234D01*
X93677947Y-85611720D01*
X93808124Y-85611833D01*
X94000000Y-85650000D01*
X100117770Y-85650000D01*
X100200000Y-85666652D01*
X101800000Y-85666652D01*
X102114991Y-85607382D01*
X102404291Y-85421223D01*
X102598372Y-85137176D01*
X102666652Y-84800000D01*
X102666652Y-83200000D01*
X102650000Y-83111503D01*
X102650000Y-76000000D01*
X106937675Y-76000000D01*
X107063274Y-76631428D01*
X107420949Y-77166726D01*
X107956247Y-77524401D01*
X108587675Y-77650000D01*
X130316548Y-77650000D01*
X131016548Y-78350000D01*
X130000000Y-78350000D01*
X129809798Y-78387833D01*
X129680760Y-78387721D01*
X129560450Y-78437432D01*
X129368572Y-78475599D01*
X129207328Y-78583339D01*
X129088068Y-78632616D01*
X128995938Y-78724585D01*
X128833274Y-78833274D01*
X128725534Y-78994518D01*
X128634210Y-79085683D01*
X128584289Y-79205906D01*
X128475599Y-79368572D01*
X128437766Y-79558772D01*
X128388280Y-79677947D01*
X128388167Y-79808124D01*
X128350000Y-80000000D01*
X128387833Y-80190202D01*
X128387721Y-80319240D01*
X128437432Y-80439550D01*
X128475599Y-80631428D01*
X128583339Y-80792672D01*
X128632616Y-80911932D01*
X128724585Y-81004062D01*
X128833274Y-81166726D01*
X128994518Y-81274466D01*
X129085683Y-81365790D01*
X129205906Y-81415711D01*
X129368572Y-81524401D01*
X129558772Y-81562234D01*
X129677947Y-81611720D01*
X129808124Y-81611833D01*
X130000000Y-81650000D01*
X134117770Y-81650000D01*
X134200000Y-81666652D01*
X135800000Y-81666652D01*
X136114991Y-81607382D01*
X136404291Y-81421223D01*
X136598372Y-81137176D01*
X136666652Y-80800000D01*
X136666652Y-79200000D01*
X136607382Y-78885009D01*
X136421223Y-78595709D01*
X136137176Y-78401628D01*
X135800000Y-78333348D01*
X135666800Y-78333348D01*
X132166726Y-74833274D01*
X131818180Y-74600383D01*
X131631428Y-74475599D01*
X131000000Y-74350000D01*
X108587675Y-74350000D01*
X107956247Y-74475599D01*
X107420949Y-74833274D01*
X107063274Y-75368572D01*
X106937675Y-76000000D01*
X102650000Y-76000000D01*
X102650285Y-75673235D01*
X102650000Y-75672545D01*
X102650000Y-71850000D01*
X102524401Y-71218572D01*
X102378356Y-71000000D01*
X102166726Y-70683273D01*
X101916652Y-70433199D01*
X101916652Y-70150000D01*
X101857382Y-69835009D01*
X101671223Y-69545709D01*
X101387176Y-69351628D01*
X101050000Y-69283348D01*
X99550000Y-69283348D01*
X99235009Y-69342618D01*
X98945709Y-69528777D01*
X98751628Y-69812824D01*
X98683348Y-70150000D01*
X98683348Y-70982349D01*
X98650000Y-71150000D01*
X98683348Y-71317651D01*
X98683348Y-72150000D01*
X98742618Y-72464991D01*
X98928777Y-72754291D01*
X99212824Y-72948372D01*
X99350000Y-72976151D01*
X99350000Y-75999708D01*
X99349715Y-76326765D01*
X99350000Y-76327455D01*
X99350000Y-82350000D01*
X95392497Y-82350000D01*
X95415711Y-82294094D01*
X95524401Y-82131428D01*
X95562234Y-81941228D01*
X95611720Y-81822053D01*
X95611833Y-81691876D01*
X95650000Y-81500000D01*
X95612167Y-81309798D01*
X95612279Y-81180760D01*
X95562568Y-81060450D01*
X95524401Y-80868572D01*
X95416661Y-80707328D01*
X95367384Y-80588068D01*
X95275415Y-80495938D01*
X95166726Y-80333274D01*
X95005482Y-80225534D01*
X94914317Y-80134210D01*
X94794094Y-80084289D01*
X94631428Y-79975599D01*
X94441228Y-79937766D01*
X94322053Y-79888280D01*
X94191876Y-79888167D01*
X94000000Y-79850000D01*
X88150000Y-79850000D01*
X88150000Y-77882230D01*
X88166652Y-77800000D01*
X88166652Y-76200000D01*
X88107382Y-75885009D01*
X87921223Y-75595709D01*
X87637176Y-75401628D01*
X87300000Y-75333348D01*
X85700000Y-75333348D01*
X85385009Y-75392618D01*
X85095709Y-75578777D01*
X84901628Y-75862824D01*
X84833348Y-76200000D01*
X56925000Y-76200000D01*
X56925000Y-72428554D01*
X58103554Y-71250000D01*
X68000000Y-71250000D01*
X68097264Y-71230304D01*
X68176777Y-71176777D01*
X71176777Y-68176777D01*
X71231625Y-68094073D01*
X71250000Y-68000000D01*
X71250000Y-61103554D01*
X74103554Y-58250000D01*
X95099184Y-58250000D01*
X95020382Y-58646166D01*
X91783274Y-61883274D01*
X91425599Y-62418572D01*
X91300000Y-63050000D01*
X91300000Y-71000000D01*
X91425599Y-71631428D01*
X91783274Y-72166726D01*
X92318572Y-72524401D01*
X92950000Y-72650000D01*
X94261668Y-72650000D01*
X94328777Y-72754291D01*
X94612824Y-72948372D01*
X94950000Y-73016652D01*
X96450000Y-73016652D01*
X96764991Y-72957382D01*
X97054291Y-72771223D01*
X97248372Y-72487176D01*
X97316652Y-72150000D01*
X97316652Y-71317651D01*
X97350000Y-71150000D01*
X97316652Y-70982349D01*
X97316652Y-70150000D01*
X97257382Y-69835009D01*
X97071223Y-69545709D01*
X96787176Y-69351628D01*
X96450000Y-69283348D01*
X94950000Y-69283348D01*
X94635009Y-69342618D01*
X94623537Y-69350000D01*
X94600000Y-69350000D01*
X94600000Y-63733452D01*
X97283452Y-61050000D01*
X157950000Y-61050000D01*
X157950000Y-72450000D01*
X140000000Y-72450000D01*
X139215499Y-72606047D01*
X138550431Y-73050431D01*
X138106047Y-73715499D01*
X137950000Y-74500000D01*
X138106047Y-75284501D01*
X138350000Y-75649603D01*
X138350000Y-76550000D01*
X138475599Y-77181428D01*
X138705567Y-77525599D01*
X138833274Y-77716726D01*
X140850000Y-79733452D01*
X140850000Y-81350397D01*
X140606047Y-81715499D01*
X140450000Y-82500000D01*
X140606047Y-83284501D01*
X141050431Y-83949569D01*
X141715499Y-84393953D01*
X142500000Y-84550000D01*
X148500000Y-84550000D01*
X149284501Y-84393953D01*
X149949569Y-83949569D01*
X150393953Y-83284501D01*
X150550000Y-82500000D01*
X150393953Y-81715499D01*
X149949569Y-81050431D01*
X149284501Y-80606047D01*
X148500000Y-80450000D01*
X144150000Y-80450000D01*
X144150000Y-79050000D01*
X144024401Y-78418572D01*
X143959546Y-78321510D01*
X143957382Y-78310009D01*
X143771223Y-78020709D01*
X143747917Y-78004785D01*
X143666726Y-77883274D01*
X142333452Y-76550000D01*
X157950000Y-76550000D01*
X157950000Y-98000000D01*
X158106047Y-98784501D01*
X158550431Y-99449569D01*
X159215499Y-99893953D01*
X160000000Y-100050000D01*
X160950000Y-100050000D01*
X160950000Y-106150862D01*
X156550431Y-110550431D01*
X156106047Y-111215499D01*
X155950000Y-112000000D01*
X155950000Y-114150862D01*
X152650862Y-117450000D01*
X150550000Y-117450000D01*
X150550000Y-111500000D01*
X150393953Y-110715499D01*
X149949569Y-110050431D01*
X149284501Y-109606047D01*
X148500000Y-109450000D01*
X147715499Y-109606047D01*
X147050431Y-110050431D01*
X146606047Y-110715499D01*
X146450000Y-111500000D01*
X146450000Y-117450000D01*
X142333452Y-117450000D01*
X143666726Y-116116726D01*
X143741928Y-116004179D01*
X143754291Y-115996223D01*
X143948372Y-115712176D01*
X143953301Y-115687837D01*
X144024401Y-115581428D01*
X144150000Y-114950000D01*
X144150000Y-111500000D01*
X144150285Y-111173235D01*
X143899617Y-110566571D01*
X143435870Y-110102014D01*
X142829645Y-109850287D01*
X142173235Y-109849715D01*
X141566571Y-110100383D01*
X141102014Y-110564130D01*
X140850287Y-111170355D01*
X140849715Y-111826765D01*
X140850000Y-111827455D01*
X140850000Y-114266548D01*
X138833274Y-116283274D01*
X138475599Y-116818572D01*
X138350000Y-117450000D01*
X138350000Y-117479837D01*
X137715499Y-117606047D01*
X137050431Y-118050431D01*
X136150862Y-118950000D01*
X110000000Y-118950000D01*
X109215499Y-119106047D01*
X108775567Y-119400000D01*
X108301367Y-119400000D01*
X108050000Y-119350000D01*
X106738332Y-119350000D01*
X106671223Y-119245709D01*
X106387176Y-119051628D01*
X106050000Y-118983348D01*
X104550000Y-118983348D01*
X104235009Y-119042618D01*
X103945709Y-119228777D01*
X103751628Y-119512824D01*
X103683348Y-119850000D01*
X103683348Y-120682349D01*
X103650000Y-120850000D01*
X103683348Y-121017651D01*
X103683348Y-121850000D01*
X103742618Y-122164991D01*
X103928777Y-122454291D01*
X104212824Y-122648372D01*
X104550000Y-122716652D01*
X106050000Y-122716652D01*
X106364991Y-122657382D01*
X106376463Y-122650000D01*
X107748633Y-122650000D01*
X108000000Y-122700000D01*
X108925228Y-122700000D01*
X109215499Y-122893953D01*
X110000000Y-123050000D01*
X137000000Y-123050000D01*
X137784501Y-122893953D01*
X138449569Y-122449569D01*
X139349138Y-121550000D01*
X153500000Y-121550000D01*
X154284501Y-121393953D01*
X154949569Y-120949569D01*
X159449569Y-116449569D01*
X159893953Y-115784501D01*
X160050000Y-115000000D01*
X160050000Y-113500000D01*
X162197675Y-113500000D01*
X162230000Y-113662509D01*
X162230000Y-116880000D01*
X162355599Y-117511428D01*
X162610302Y-117892618D01*
X162713274Y-118046726D01*
X163833274Y-119166726D01*
X164368572Y-119524401D01*
X165000000Y-119650000D01*
X185000000Y-119650000D01*
X185631428Y-119524401D01*
X186166726Y-119166726D01*
X192166726Y-113166726D01*
X192524401Y-112631428D01*
X192537787Y-112564130D01*
X192650000Y-112000000D01*
X192650000Y-108920506D01*
X192804291Y-108821223D01*
X192998372Y-108537176D01*
X193066652Y-108200000D01*
X193066652Y-107405981D01*
X196449645Y-107405981D01*
X196761081Y-108159715D01*
X197337252Y-108736892D01*
X198090441Y-109049643D01*
X198905981Y-109050355D01*
X199659715Y-108738919D01*
X199748789Y-108650000D01*
X204999708Y-108650000D01*
X205326765Y-108650285D01*
X205933429Y-108399617D01*
X206397986Y-107935870D01*
X206649713Y-107329645D01*
X206650285Y-106673235D01*
X206399617Y-106066571D01*
X205935870Y-105602014D01*
X205329645Y-105350287D01*
X204673235Y-105349715D01*
X204672545Y-105350000D01*
X199749489Y-105350000D01*
X199662748Y-105263108D01*
X198909559Y-104950357D01*
X198094019Y-104949645D01*
X197340285Y-105261081D01*
X196763108Y-105837252D01*
X196450357Y-106590441D01*
X196449645Y-107405981D01*
X193066652Y-107405981D01*
X193066652Y-105800000D01*
X193007382Y-105485009D01*
X192821223Y-105195709D01*
X192537176Y-105001628D01*
X192200000Y-104933348D01*
X189800000Y-104933348D01*
X189485009Y-104992618D01*
X189195709Y-105178777D01*
X189001628Y-105462824D01*
X188933348Y-105800000D01*
X188933348Y-108200000D01*
X188992618Y-108514991D01*
X189178777Y-108804291D01*
X189350000Y-108921283D01*
X189350000Y-111316548D01*
X184316548Y-116350000D01*
X165683452Y-116350000D01*
X165530000Y-116196548D01*
X165530000Y-113803452D01*
X169850000Y-109483452D01*
X169850000Y-113499708D01*
X169849715Y-113826765D01*
X170100383Y-114433429D01*
X170564130Y-114897986D01*
X171170355Y-115149713D01*
X171826765Y-115150285D01*
X172433429Y-114899617D01*
X172897986Y-114435870D01*
X173149713Y-113829645D01*
X173150285Y-113173235D01*
X173150000Y-113172545D01*
X173150000Y-109057675D01*
X173254401Y-108901428D01*
X173380000Y-108270000D01*
X173380000Y-102588427D01*
X173658572Y-102774563D01*
X174290000Y-102900162D01*
X174921428Y-102774563D01*
X175456726Y-102416888D01*
X175814401Y-101881590D01*
X175940000Y-101250162D01*
X175940000Y-100369838D01*
X175814401Y-99738410D01*
X175456726Y-99203112D01*
X174921428Y-98845437D01*
X174290000Y-98719838D01*
X173658572Y-98845437D01*
X173123274Y-99203112D01*
X173020000Y-99357672D01*
X172916726Y-99203112D01*
X172381428Y-98845437D01*
X171750000Y-98719838D01*
X171118572Y-98845437D01*
X170705637Y-99121352D01*
X170631223Y-99005709D01*
X170347176Y-98811628D01*
X170010000Y-98743348D01*
X168410000Y-98743348D01*
X168095009Y-98802618D01*
X167805709Y-98988777D01*
X167611628Y-99272824D01*
X167543348Y-99610000D01*
X167543348Y-102010000D01*
X167560000Y-102098497D01*
X167560000Y-107106548D01*
X162713274Y-111953274D01*
X162355599Y-112488572D01*
X162230000Y-113120000D01*
X162230000Y-113337491D01*
X162197675Y-113500000D01*
X160050000Y-113500000D01*
X160050000Y-112849138D01*
X164449569Y-108449569D01*
X164893953Y-107784501D01*
X165050000Y-107000000D01*
X165050000Y-99000000D01*
X164893953Y-98215499D01*
X164883597Y-98200000D01*
X166000000Y-98200000D01*
X166631428Y-98074401D01*
X167166726Y-97716726D01*
X167524401Y-97181428D01*
X167650000Y-96550000D01*
X167650000Y-94840000D01*
X168107796Y-94840000D01*
X168578572Y-95154563D01*
X169210000Y-95280162D01*
X169841428Y-95154563D01*
X170376726Y-94796888D01*
X170480000Y-94642328D01*
X170583274Y-94796888D01*
X171118572Y-95154563D01*
X171750000Y-95280162D01*
X172381428Y-95154563D01*
X172916726Y-94796888D01*
X173020000Y-94642328D01*
X173123274Y-94796888D01*
X173658572Y-95154563D01*
X174290000Y-95280162D01*
X174921428Y-95154563D01*
X175456726Y-94796888D01*
X175560000Y-94642328D01*
X175663274Y-94796888D01*
X176198572Y-95154563D01*
X176830000Y-95280162D01*
X177461428Y-95154563D01*
X177996726Y-94796888D01*
X178354401Y-94261590D01*
X178480000Y-93630162D01*
X178480000Y-92749838D01*
X178354401Y-92118410D01*
X177996726Y-91583112D01*
X177461428Y-91225437D01*
X176830000Y-91099838D01*
X176198572Y-91225437D01*
X175940000Y-91398209D01*
X175940000Y-85790000D01*
X175814401Y-85158572D01*
X175650000Y-84912529D01*
X175650000Y-81000000D01*
X175650285Y-80673235D01*
X175399617Y-80066571D01*
X174935870Y-79602014D01*
X174329645Y-79350287D01*
X173673235Y-79349715D01*
X173066571Y-79600383D01*
X172602014Y-80064130D01*
X172350287Y-80670355D01*
X172349715Y-81326765D01*
X172350000Y-81327455D01*
X172350000Y-85499708D01*
X172349715Y-85826765D01*
X172600383Y-86433429D01*
X172640000Y-86473115D01*
X172640000Y-87306548D01*
X168030000Y-82696548D01*
X168030000Y-81162509D01*
X168062325Y-81000000D01*
X168030000Y-80837491D01*
X168030000Y-78303452D01*
X168683452Y-77650000D01*
X184316548Y-77650000D01*
X189350000Y-82683452D01*
X189350000Y-85079494D01*
X189195709Y-85178777D01*
X189001628Y-85462824D01*
X188933348Y-85800000D01*
X188933348Y-88200000D01*
X188992618Y-88514991D01*
X189178777Y-88804291D01*
X189462824Y-88998372D01*
X189800000Y-89066652D01*
X192200000Y-89066652D01*
X192514991Y-89007382D01*
X192804291Y-88821223D01*
X192998372Y-88537176D01*
X193066652Y-88200000D01*
X193066652Y-87405981D01*
X196449645Y-87405981D01*
X196761081Y-88159715D01*
X197337252Y-88736892D01*
X198090441Y-89049643D01*
X198905981Y-89050355D01*
X199659715Y-88738919D01*
X199748789Y-88650000D01*
X204999708Y-88650000D01*
X205326765Y-88650285D01*
X205933429Y-88399617D01*
X206397986Y-87935870D01*
X206649713Y-87329645D01*
X206650285Y-86673235D01*
X206399617Y-86066571D01*
X205935870Y-85602014D01*
X205329645Y-85350287D01*
X204673235Y-85349715D01*
X204672545Y-85350000D01*
X199749489Y-85350000D01*
X199662748Y-85263108D01*
X198909559Y-84950357D01*
X198094019Y-84949645D01*
X197340285Y-85261081D01*
X196763108Y-85837252D01*
X196450357Y-86590441D01*
X196449645Y-87405981D01*
X193066652Y-87405981D01*
X193066652Y-85800000D01*
X193007382Y-85485009D01*
X192821223Y-85195709D01*
X192650000Y-85078717D01*
X192650000Y-82000000D01*
X192524401Y-81368572D01*
X192166726Y-80833274D01*
X186166726Y-74833274D01*
X185818180Y-74600383D01*
X185631428Y-74475599D01*
X185000000Y-74350000D01*
X168000000Y-74350000D01*
X167368572Y-74475599D01*
X167181820Y-74600383D01*
X166833274Y-74833274D01*
X165213274Y-76453274D01*
X164855599Y-76988572D01*
X164730000Y-77620000D01*
X164730000Y-80837491D01*
X164697675Y-81000000D01*
X164730000Y-81162509D01*
X164730000Y-83380000D01*
X164855599Y-84011428D01*
X165213274Y-84546726D01*
X170100000Y-89433452D01*
X170100000Y-91398209D01*
X169841428Y-91225437D01*
X169210000Y-91099838D01*
X168578572Y-91225437D01*
X168107796Y-91540000D01*
X166810000Y-91540000D01*
X166178572Y-91665599D01*
X165830781Y-91897986D01*
X165643274Y-92023274D01*
X164833274Y-92833274D01*
X164475599Y-93368572D01*
X164350000Y-94000000D01*
X164350000Y-94900000D01*
X162050000Y-94900000D01*
X162050000Y-61050000D01*
X183000000Y-61050000D01*
X183784501Y-60893953D01*
X184449569Y-60449569D01*
X191449569Y-53449569D01*
X191893953Y-52784501D01*
X192050000Y-52000000D01*
X192050000Y-40000000D01*
X191893953Y-39215499D01*
X191449569Y-38550431D01*
X186449569Y-33550431D01*
X185784501Y-33106047D01*
X185000000Y-32950000D01*
X180500000Y-32950000D01*
X179715499Y-33106047D01*
X179050431Y-33550431D01*
X178606047Y-34215499D01*
X178450000Y-35000000D01*
X178606047Y-35784501D01*
X179050431Y-36449569D01*
X179715499Y-36893953D01*
X180500000Y-37050000D01*
X184150862Y-37050000D01*
X187950000Y-40849138D01*
X187950000Y-51150862D01*
X182150862Y-56950000D01*
X175403554Y-56950000D01*
X176176777Y-56176777D01*
X176231625Y-56094073D01*
X176250000Y-56000000D01*
X176250000Y-41583452D01*
X176666726Y-41166726D01*
X176774465Y-41005482D01*
X176865790Y-40914317D01*
X176915712Y-40794092D01*
X177024401Y-40631427D01*
X177062234Y-40441228D01*
X177111720Y-40322053D01*
X177111833Y-40191876D01*
X177150000Y-40000000D01*
X177112167Y-39809799D01*
X177112279Y-39680760D01*
X177062568Y-39560449D01*
X177024401Y-39368573D01*
X176916662Y-39207330D01*
X176867384Y-39088068D01*
X176775414Y-38995938D01*
X176666726Y-38833274D01*
X176505482Y-38725535D01*
X176414317Y-38634210D01*
X176294092Y-38584288D01*
X176250000Y-38554827D01*
X176250000Y-36445173D01*
X176292670Y-36416662D01*
X176411932Y-36367384D01*
X176504062Y-36275414D01*
X176666726Y-36166726D01*
X176774465Y-36005482D01*
X176865790Y-35914317D01*
X176915712Y-35794092D01*
X177024401Y-35631427D01*
X177062234Y-35441228D01*
X177111720Y-35322053D01*
X177111833Y-35191876D01*
X177150000Y-35000000D01*
X177112167Y-34809799D01*
X177112279Y-34680760D01*
X177062568Y-34560449D01*
X177024401Y-34368573D01*
X176916662Y-34207330D01*
X176867384Y-34088068D01*
X176775414Y-33995938D01*
X176666726Y-33833274D01*
X176250000Y-33416548D01*
X176250000Y-29103554D01*
X177428554Y-27925000D01*
X213571446Y-27925000D01*
X214075000Y-28428554D01*
X214075000Y-28428554D01*
G37*
X214075000Y-28428554D02*
X214075000Y-86216328D01*
X213819051Y-85833274D01*
X213283753Y-85475599D01*
X212652325Y-85350000D01*
X212587675Y-85350000D01*
X211956247Y-85475599D01*
X211420949Y-85833274D01*
X211063274Y-86368572D01*
X210937675Y-87000000D01*
X210970000Y-87162509D01*
X210970000Y-90896548D01*
X203546633Y-98319915D01*
X203209162Y-98545406D01*
X202916519Y-98983377D01*
X202813756Y-99500000D01*
X202916519Y-100016623D01*
X203209162Y-100454594D01*
X203647133Y-100747237D01*
X203656580Y-100749116D01*
X204068573Y-101024401D01*
X204700000Y-101150000D01*
X205331427Y-101024401D01*
X205743420Y-100749116D01*
X205752867Y-100747237D01*
X206190838Y-100454594D01*
X206416329Y-100117123D01*
X206683388Y-99850064D01*
X206716519Y-100016623D01*
X206850000Y-100216391D01*
X206850000Y-101500000D01*
X206975599Y-102131428D01*
X207266353Y-102566571D01*
X207333274Y-102666726D01*
X210970000Y-106303452D01*
X210970000Y-106837491D01*
X210937675Y-107000000D01*
X211063274Y-107631428D01*
X211420949Y-108166726D01*
X211956247Y-108524401D01*
X212587675Y-108650000D01*
X212652325Y-108650000D01*
X213283753Y-108524401D01*
X213819051Y-108166726D01*
X214075000Y-107783672D01*
X214075000Y-128571446D01*
X213571446Y-129075000D01*
X57428554Y-129075000D01*
X56925000Y-128571446D01*
X56925000Y-114200000D01*
X84833348Y-114200000D01*
X84833348Y-115800000D01*
X84892618Y-116114991D01*
X85078777Y-116404291D01*
X85362824Y-116598372D01*
X85700000Y-116666652D01*
X87300000Y-116666652D01*
X87614991Y-116607382D01*
X87904291Y-116421223D01*
X88098372Y-116137176D01*
X88166652Y-115800000D01*
X88166652Y-114200000D01*
X88150000Y-114111503D01*
X88150000Y-112150000D01*
X94000000Y-112150000D01*
X94190202Y-112112167D01*
X94319240Y-112112279D01*
X94439550Y-112062568D01*
X94631428Y-112024401D01*
X94792672Y-111916661D01*
X94911932Y-111867384D01*
X95004062Y-111775415D01*
X95166726Y-111666726D01*
X95274466Y-111505482D01*
X95365790Y-111414317D01*
X95415711Y-111294094D01*
X95524401Y-111131428D01*
X95562234Y-110941228D01*
X95611720Y-110822053D01*
X95611833Y-110691876D01*
X95650000Y-110500000D01*
X95612167Y-110309798D01*
X95612279Y-110180760D01*
X95562568Y-110060450D01*
X95524401Y-109868572D01*
X95416661Y-109707328D01*
X95392974Y-109650000D01*
X99350000Y-109650000D01*
X99350000Y-115999708D01*
X99349715Y-116326765D01*
X99350000Y-116327455D01*
X99350000Y-119226016D01*
X99345709Y-119228777D01*
X99151628Y-119512824D01*
X99083348Y-119850000D01*
X99083348Y-120682349D01*
X99050000Y-120850000D01*
X99083348Y-121017651D01*
X99083348Y-121850000D01*
X99142618Y-122164991D01*
X99328777Y-122454291D01*
X99612824Y-122648372D01*
X99950000Y-122716652D01*
X101450000Y-122716652D01*
X101764991Y-122657382D01*
X102054291Y-122471223D01*
X102248372Y-122187176D01*
X102316652Y-121850000D01*
X102316652Y-121492346D01*
X102382396Y-121393953D01*
X102524401Y-121181428D01*
X102650000Y-120550000D01*
X102650000Y-116000000D01*
X106937675Y-116000000D01*
X107063274Y-116631428D01*
X107420949Y-117166726D01*
X107956247Y-117524401D01*
X108587675Y-117650000D01*
X131000000Y-117650000D01*
X131631428Y-117524401D01*
X132166726Y-117166726D01*
X135666800Y-113666652D01*
X135800000Y-113666652D01*
X136114991Y-113607382D01*
X136404291Y-113421223D01*
X136598372Y-113137176D01*
X136666652Y-112800000D01*
X136666652Y-111200000D01*
X136607382Y-110885009D01*
X136421223Y-110595709D01*
X136137176Y-110401628D01*
X135800000Y-110333348D01*
X134200000Y-110333348D01*
X134111503Y-110350000D01*
X130000000Y-110350000D01*
X129809798Y-110387833D01*
X129680760Y-110387721D01*
X129560450Y-110437432D01*
X129368572Y-110475599D01*
X129207328Y-110583339D01*
X129088068Y-110632616D01*
X128995938Y-110724585D01*
X128833274Y-110833274D01*
X128725534Y-110994518D01*
X128634210Y-111085683D01*
X128584289Y-111205906D01*
X128475599Y-111368572D01*
X128437766Y-111558772D01*
X128388280Y-111677947D01*
X128388167Y-111808124D01*
X128350000Y-112000000D01*
X128387833Y-112190202D01*
X128387721Y-112319240D01*
X128437432Y-112439550D01*
X128475599Y-112631428D01*
X128583339Y-112792672D01*
X128632616Y-112911932D01*
X128724585Y-113004062D01*
X128833274Y-113166726D01*
X128994518Y-113274466D01*
X129085683Y-113365790D01*
X129205906Y-113415711D01*
X129368572Y-113524401D01*
X129558772Y-113562234D01*
X129677947Y-113611720D01*
X129808124Y-113611833D01*
X130000000Y-113650000D01*
X131016548Y-113650000D01*
X130316548Y-114350000D01*
X108587675Y-114350000D01*
X107956247Y-114475599D01*
X107420949Y-114833274D01*
X107063274Y-115368572D01*
X106937675Y-116000000D01*
X102650000Y-116000000D01*
X102650285Y-115673235D01*
X102650000Y-115672545D01*
X102650000Y-108882230D01*
X102666652Y-108800000D01*
X102666652Y-107200000D01*
X102607382Y-106885009D01*
X102421223Y-106595709D01*
X102137176Y-106401628D01*
X101800000Y-106333348D01*
X100200000Y-106333348D01*
X100111503Y-106350000D01*
X94000000Y-106350000D01*
X93809798Y-106387833D01*
X93680760Y-106387721D01*
X93560450Y-106437432D01*
X93368572Y-106475599D01*
X93207328Y-106583339D01*
X93088068Y-106632616D01*
X92995938Y-106724585D01*
X92833274Y-106833274D01*
X92725534Y-106994518D01*
X92634210Y-107085683D01*
X92584289Y-107205906D01*
X92475599Y-107368572D01*
X92437766Y-107558772D01*
X92388280Y-107677947D01*
X92388167Y-107808124D01*
X92350000Y-108000000D01*
X92387833Y-108190202D01*
X92387721Y-108319240D01*
X92437432Y-108439550D01*
X92475599Y-108631428D01*
X92583339Y-108792672D01*
X92607026Y-108850000D01*
X87560543Y-108850000D01*
X87131428Y-108563274D01*
X86500000Y-108437675D01*
X85868572Y-108563274D01*
X85333274Y-108920949D01*
X84975599Y-109456247D01*
X84850000Y-110087675D01*
X84850000Y-114117770D01*
X84833348Y-114200000D01*
X56925000Y-114200000D01*
X56925000Y-93500000D01*
X60613756Y-93500000D01*
X60716519Y-94016623D01*
X61009162Y-94454594D01*
X61447133Y-94747237D01*
X61456580Y-94749116D01*
X61868573Y-95024401D01*
X62500000Y-95150000D01*
X63131427Y-95024401D01*
X63543420Y-94749116D01*
X63552867Y-94747237D01*
X63990838Y-94454594D01*
X64216329Y-94117123D01*
X64483388Y-93850064D01*
X64516519Y-94016623D01*
X64809162Y-94454594D01*
X65247133Y-94747237D01*
X65256579Y-94749116D01*
X65668572Y-95024401D01*
X65696505Y-95029957D01*
X69350000Y-98683452D01*
X69350000Y-100000000D01*
X69387833Y-100190202D01*
X69387721Y-100319240D01*
X69437432Y-100439550D01*
X69475599Y-100631428D01*
X69583339Y-100792672D01*
X69632616Y-100911932D01*
X69724585Y-101004062D01*
X69833274Y-101166726D01*
X69957902Y-101250000D01*
X69833274Y-101333274D01*
X69725534Y-101494518D01*
X69634210Y-101585683D01*
X69584289Y-101705906D01*
X69475599Y-101868572D01*
X69437766Y-102058772D01*
X69388280Y-102177947D01*
X69388167Y-102308124D01*
X69350000Y-102500000D01*
X69387833Y-102690202D01*
X69387721Y-102819240D01*
X69437432Y-102939550D01*
X69475599Y-103131428D01*
X69583339Y-103292672D01*
X69632616Y-103411932D01*
X69724585Y-103504062D01*
X69833274Y-103666726D01*
X69994518Y-103774466D01*
X70085683Y-103865790D01*
X70205906Y-103915711D01*
X70368572Y-104024401D01*
X70558772Y-104062234D01*
X70677947Y-104111720D01*
X70808124Y-104111833D01*
X71000000Y-104150000D01*
X78999708Y-104150000D01*
X79326765Y-104150285D01*
X79933429Y-103899617D01*
X80020097Y-103813100D01*
X80078777Y-103904291D01*
X80362824Y-104098372D01*
X80700000Y-104166652D01*
X82300000Y-104166652D01*
X82388497Y-104150000D01*
X86499708Y-104150000D01*
X86826765Y-104150285D01*
X86827455Y-104150000D01*
X125816548Y-104150000D01*
X128833273Y-107166726D01*
X128994520Y-107274467D01*
X129085683Y-107365790D01*
X129205906Y-107415711D01*
X129368572Y-107524401D01*
X129558771Y-107562234D01*
X129677947Y-107611720D01*
X129808128Y-107611833D01*
X130000000Y-107649999D01*
X130190198Y-107612167D01*
X130319240Y-107612279D01*
X130439552Y-107562567D01*
X130631427Y-107524401D01*
X130792670Y-107416662D01*
X130911932Y-107367384D01*
X131004062Y-107275414D01*
X131166726Y-107166726D01*
X131274465Y-107005482D01*
X131365790Y-106914317D01*
X131415712Y-106794092D01*
X131524401Y-106631427D01*
X131562233Y-106441230D01*
X131611720Y-106322053D01*
X131611833Y-106191872D01*
X131649999Y-106000000D01*
X131612167Y-105809802D01*
X131612279Y-105680760D01*
X131562567Y-105560448D01*
X131524401Y-105368572D01*
X131416661Y-105207327D01*
X131367384Y-105088068D01*
X131275416Y-104995940D01*
X131166726Y-104833273D01*
X127666726Y-101333274D01*
X127542340Y-101250162D01*
X127131428Y-100975599D01*
X126500000Y-100850000D01*
X86500292Y-100850000D01*
X86173235Y-100849715D01*
X86172545Y-100850000D01*
X82382230Y-100850000D01*
X82300000Y-100833348D01*
X80700000Y-100833348D01*
X80385009Y-100892618D01*
X80095709Y-101078777D01*
X80021334Y-101187628D01*
X79935870Y-101102014D01*
X79329645Y-100850287D01*
X78673235Y-100849715D01*
X78672545Y-100850000D01*
X72392497Y-100850000D01*
X72415711Y-100794094D01*
X72524401Y-100631428D01*
X72562234Y-100441228D01*
X72611720Y-100322053D01*
X72611833Y-100191876D01*
X72650000Y-100000000D01*
X128350000Y-100000000D01*
X128387833Y-100190201D01*
X128387721Y-100319240D01*
X128437432Y-100439551D01*
X128475599Y-100631427D01*
X128583338Y-100792670D01*
X128632616Y-100911932D01*
X128724586Y-101004062D01*
X128833274Y-101166726D01*
X130333274Y-102666726D01*
X130868572Y-103024401D01*
X131500000Y-103150000D01*
X131850000Y-103150000D01*
X131850000Y-103500000D01*
X131975599Y-104131428D01*
X132333274Y-104666726D01*
X132713274Y-105046726D01*
X133248572Y-105404401D01*
X133880000Y-105530000D01*
X142337491Y-105530000D01*
X142500000Y-105562325D01*
X143131428Y-105436726D01*
X143666726Y-105079051D01*
X144024401Y-104543753D01*
X144150000Y-103912325D01*
X144150000Y-103847675D01*
X144024401Y-103216247D01*
X143980136Y-103150000D01*
X145436548Y-103150000D01*
X147268182Y-104981634D01*
X147333274Y-105079051D01*
X147868572Y-105436726D01*
X148500000Y-105562325D01*
X149131428Y-105436726D01*
X149560543Y-105150000D01*
X154499708Y-105150000D01*
X154826765Y-105150285D01*
X155433429Y-104899617D01*
X155897986Y-104435870D01*
X156149713Y-103829645D01*
X156150285Y-103173235D01*
X155899617Y-102566571D01*
X155435870Y-102102014D01*
X154829645Y-101850287D01*
X154173235Y-101849715D01*
X154172545Y-101850000D01*
X148880000Y-101850000D01*
X148816152Y-101862700D01*
X147286726Y-100333274D01*
X147055198Y-100178572D01*
X146751428Y-99975599D01*
X146120000Y-99850000D01*
X136000292Y-99850000D01*
X135673235Y-99849715D01*
X135066571Y-100100383D01*
X134979903Y-100186900D01*
X134921223Y-100095709D01*
X134637176Y-99901628D01*
X134300000Y-99833348D01*
X132700000Y-99833348D01*
X132611503Y-99850000D01*
X132183452Y-99850000D01*
X131166726Y-98833274D01*
X131005482Y-98725535D01*
X130914317Y-98634210D01*
X130794092Y-98584288D01*
X130631427Y-98475599D01*
X130441228Y-98437766D01*
X130322053Y-98388280D01*
X130191876Y-98388167D01*
X130000000Y-98350000D01*
X129809799Y-98387833D01*
X129680760Y-98387721D01*
X129560449Y-98437432D01*
X129368573Y-98475599D01*
X129207330Y-98583338D01*
X129088068Y-98632616D01*
X128995938Y-98724586D01*
X128833274Y-98833274D01*
X128725535Y-98994518D01*
X128634210Y-99085683D01*
X128584288Y-99205908D01*
X128475599Y-99368573D01*
X128437766Y-99558772D01*
X128388280Y-99677947D01*
X128388167Y-99808124D01*
X128350000Y-100000000D01*
X72650000Y-100000000D01*
X72650000Y-98000000D01*
X72524401Y-97368572D01*
X72166726Y-96833274D01*
X69333452Y-94000000D01*
X128350000Y-94000000D01*
X128387833Y-94190201D01*
X128387721Y-94319240D01*
X128437432Y-94439551D01*
X128475599Y-94631427D01*
X128583338Y-94792670D01*
X128632616Y-94911932D01*
X128724586Y-95004062D01*
X128833274Y-95166726D01*
X128994518Y-95274465D01*
X129085683Y-95365790D01*
X129205908Y-95415712D01*
X129368573Y-95524401D01*
X129558772Y-95562234D01*
X129677947Y-95611720D01*
X129808124Y-95611833D01*
X130000000Y-95650000D01*
X130190201Y-95612167D01*
X130319240Y-95612279D01*
X130439551Y-95562568D01*
X130631427Y-95524401D01*
X130792670Y-95416662D01*
X130911932Y-95367384D01*
X131004062Y-95275414D01*
X131166726Y-95166726D01*
X132183452Y-94150000D01*
X132617770Y-94150000D01*
X132700000Y-94166652D01*
X134300000Y-94166652D01*
X134614991Y-94107382D01*
X134904291Y-93921223D01*
X134978666Y-93812372D01*
X135064130Y-93897986D01*
X135670355Y-94149713D01*
X136326765Y-94150285D01*
X136327455Y-94150000D01*
X146120000Y-94150000D01*
X146751428Y-94024401D01*
X147286726Y-93666726D01*
X148816152Y-92137300D01*
X148880000Y-92150000D01*
X154499708Y-92150000D01*
X154826765Y-92150285D01*
X155433429Y-91899617D01*
X155897986Y-91435870D01*
X156149713Y-90829645D01*
X156150285Y-90173235D01*
X155899617Y-89566571D01*
X155435870Y-89102014D01*
X154829645Y-88850287D01*
X154173235Y-88849715D01*
X154172545Y-88850000D01*
X149560543Y-88850000D01*
X149131428Y-88563274D01*
X148500000Y-88437675D01*
X147868572Y-88563274D01*
X147333274Y-88920949D01*
X147268182Y-89018366D01*
X145436548Y-90850000D01*
X143980136Y-90850000D01*
X144024401Y-90783753D01*
X144150000Y-90152325D01*
X144150000Y-90087675D01*
X144024401Y-89456247D01*
X143666726Y-88920949D01*
X143131428Y-88563274D01*
X142500000Y-88437675D01*
X142337491Y-88470000D01*
X133880000Y-88470000D01*
X133248572Y-88595599D01*
X132840038Y-88868573D01*
X132713274Y-88953274D01*
X132333274Y-89333274D01*
X131975599Y-89868572D01*
X131850000Y-90500000D01*
X131850000Y-90850000D01*
X131500000Y-90850000D01*
X130868572Y-90975599D01*
X130333274Y-91333274D01*
X128833274Y-92833274D01*
X128725535Y-92994518D01*
X128634210Y-93085683D01*
X128584288Y-93205908D01*
X128475599Y-93368573D01*
X128437766Y-93558772D01*
X128388280Y-93677947D01*
X128388167Y-93808124D01*
X128350000Y-94000000D01*
X69333452Y-94000000D01*
X67983452Y-92650000D01*
X68316548Y-92650000D01*
X68833274Y-93166726D01*
X69368573Y-93524402D01*
X70000000Y-93650000D01*
X71000000Y-93650000D01*
X71190202Y-93612167D01*
X71319240Y-93612279D01*
X71439550Y-93562568D01*
X71631428Y-93524401D01*
X71792672Y-93416661D01*
X71911932Y-93367384D01*
X72004062Y-93275415D01*
X72166726Y-93166726D01*
X72274466Y-93005482D01*
X72365790Y-92914317D01*
X72415711Y-92794094D01*
X72524401Y-92631428D01*
X72562234Y-92441228D01*
X72611720Y-92322053D01*
X72611833Y-92191876D01*
X72650000Y-92000000D01*
X72612167Y-91809798D01*
X72612279Y-91680760D01*
X72562568Y-91560450D01*
X72524401Y-91368572D01*
X72416661Y-91207328D01*
X72392974Y-91150000D01*
X78999708Y-91150000D01*
X79326765Y-91150285D01*
X79933429Y-90899617D01*
X80020097Y-90813100D01*
X80078777Y-90904291D01*
X80362824Y-91098372D01*
X80700000Y-91166652D01*
X82300000Y-91166652D01*
X82388497Y-91150000D01*
X86499708Y-91150000D01*
X86826765Y-91150285D01*
X86827455Y-91150000D01*
X126500000Y-91150000D01*
X127131428Y-91024401D01*
X127666726Y-90666726D01*
X131166726Y-87166727D01*
X131274467Y-87005480D01*
X131365790Y-86914317D01*
X131415711Y-86794094D01*
X131524401Y-86631428D01*
X131562234Y-86441229D01*
X131611720Y-86322053D01*
X131611833Y-86191872D01*
X131649999Y-86000000D01*
X131612167Y-85809802D01*
X131612279Y-85680760D01*
X131562567Y-85560448D01*
X131524401Y-85368573D01*
X131416662Y-85207330D01*
X131367384Y-85088068D01*
X131275414Y-84995938D01*
X131166726Y-84833274D01*
X131005482Y-84725535D01*
X130914317Y-84634210D01*
X130794092Y-84584288D01*
X130631427Y-84475599D01*
X130441230Y-84437767D01*
X130322053Y-84388280D01*
X130191872Y-84388167D01*
X130000000Y-84350001D01*
X129809802Y-84387833D01*
X129680760Y-84387721D01*
X129560448Y-84437433D01*
X129368572Y-84475599D01*
X129207327Y-84583339D01*
X129088068Y-84632616D01*
X128995940Y-84724584D01*
X128833273Y-84833274D01*
X125816548Y-87850000D01*
X86500292Y-87850000D01*
X86173235Y-87849715D01*
X86172545Y-87850000D01*
X82382230Y-87850000D01*
X82300000Y-87833348D01*
X80700000Y-87833348D01*
X80385009Y-87892618D01*
X80095709Y-88078777D01*
X80021334Y-88187628D01*
X79935870Y-88102014D01*
X79329645Y-87850287D01*
X78673235Y-87849715D01*
X78672545Y-87850000D01*
X71000000Y-87850000D01*
X70809798Y-87887833D01*
X70680760Y-87887721D01*
X70560450Y-87937432D01*
X70368572Y-87975599D01*
X70207328Y-88083339D01*
X70088068Y-88132616D01*
X69995938Y-88224585D01*
X69833274Y-88333274D01*
X69725534Y-88494518D01*
X69634210Y-88585683D01*
X69584289Y-88705906D01*
X69475599Y-88868572D01*
X69437766Y-89058772D01*
X69388280Y-89177947D01*
X69388167Y-89308124D01*
X69365380Y-89422679D01*
X69000000Y-89350000D01*
X65000000Y-89350000D01*
X64368572Y-89475599D01*
X63854277Y-89819240D01*
X63833274Y-89833274D01*
X61346633Y-92319915D01*
X61009162Y-92545406D01*
X60716519Y-92983377D01*
X60613756Y-93500000D01*
X56925000Y-93500000D01*
X56925000Y-76200000D01*
X84833348Y-76200000D01*
X84833348Y-77800000D01*
X84850000Y-77888497D01*
X84850000Y-81912325D01*
X84975599Y-82543753D01*
X85333274Y-83079051D01*
X85868572Y-83436726D01*
X86500000Y-83562325D01*
X87131428Y-83436726D01*
X87560543Y-83150000D01*
X92607503Y-83150000D01*
X92584289Y-83205906D01*
X92475599Y-83368572D01*
X92437766Y-83558772D01*
X92388280Y-83677947D01*
X92388167Y-83808124D01*
X92350000Y-84000000D01*
X92387833Y-84190202D01*
X92387721Y-84319240D01*
X92437432Y-84439550D01*
X92475599Y-84631428D01*
X92583339Y-84792672D01*
X92632616Y-84911932D01*
X92724585Y-85004062D01*
X92833274Y-85166726D01*
X92994518Y-85274466D01*
X93085683Y-85365790D01*
X93205906Y-85415711D01*
X93368572Y-85524401D01*
X93558772Y-85562234D01*
X93677947Y-85611720D01*
X93808124Y-85611833D01*
X94000000Y-85650000D01*
X100117770Y-85650000D01*
X100200000Y-85666652D01*
X101800000Y-85666652D01*
X102114991Y-85607382D01*
X102404291Y-85421223D01*
X102598372Y-85137176D01*
X102666652Y-84800000D01*
X102666652Y-83200000D01*
X102650000Y-83111503D01*
X102650000Y-76000000D01*
X106937675Y-76000000D01*
X107063274Y-76631428D01*
X107420949Y-77166726D01*
X107956247Y-77524401D01*
X108587675Y-77650000D01*
X130316548Y-77650000D01*
X131016548Y-78350000D01*
X130000000Y-78350000D01*
X129809798Y-78387833D01*
X129680760Y-78387721D01*
X129560450Y-78437432D01*
X129368572Y-78475599D01*
X129207328Y-78583339D01*
X129088068Y-78632616D01*
X128995938Y-78724585D01*
X128833274Y-78833274D01*
X128725534Y-78994518D01*
X128634210Y-79085683D01*
X128584289Y-79205906D01*
X128475599Y-79368572D01*
X128437766Y-79558772D01*
X128388280Y-79677947D01*
X128388167Y-79808124D01*
X128350000Y-80000000D01*
X128387833Y-80190202D01*
X128387721Y-80319240D01*
X128437432Y-80439550D01*
X128475599Y-80631428D01*
X128583339Y-80792672D01*
X128632616Y-80911932D01*
X128724585Y-81004062D01*
X128833274Y-81166726D01*
X128994518Y-81274466D01*
X129085683Y-81365790D01*
X129205906Y-81415711D01*
X129368572Y-81524401D01*
X129558772Y-81562234D01*
X129677947Y-81611720D01*
X129808124Y-81611833D01*
X130000000Y-81650000D01*
X134117770Y-81650000D01*
X134200000Y-81666652D01*
X135800000Y-81666652D01*
X136114991Y-81607382D01*
X136404291Y-81421223D01*
X136598372Y-81137176D01*
X136666652Y-80800000D01*
X136666652Y-79200000D01*
X136607382Y-78885009D01*
X136421223Y-78595709D01*
X136137176Y-78401628D01*
X135800000Y-78333348D01*
X135666800Y-78333348D01*
X132166726Y-74833274D01*
X131818180Y-74600383D01*
X131631428Y-74475599D01*
X131000000Y-74350000D01*
X108587675Y-74350000D01*
X107956247Y-74475599D01*
X107420949Y-74833274D01*
X107063274Y-75368572D01*
X106937675Y-76000000D01*
X102650000Y-76000000D01*
X102650285Y-75673235D01*
X102650000Y-75672545D01*
X102650000Y-71850000D01*
X102524401Y-71218572D01*
X102378356Y-71000000D01*
X102166726Y-70683273D01*
X101916652Y-70433199D01*
X101916652Y-70150000D01*
X101857382Y-69835009D01*
X101671223Y-69545709D01*
X101387176Y-69351628D01*
X101050000Y-69283348D01*
X99550000Y-69283348D01*
X99235009Y-69342618D01*
X98945709Y-69528777D01*
X98751628Y-69812824D01*
X98683348Y-70150000D01*
X98683348Y-70982349D01*
X98650000Y-71150000D01*
X98683348Y-71317651D01*
X98683348Y-72150000D01*
X98742618Y-72464991D01*
X98928777Y-72754291D01*
X99212824Y-72948372D01*
X99350000Y-72976151D01*
X99350000Y-75999708D01*
X99349715Y-76326765D01*
X99350000Y-76327455D01*
X99350000Y-82350000D01*
X95392497Y-82350000D01*
X95415711Y-82294094D01*
X95524401Y-82131428D01*
X95562234Y-81941228D01*
X95611720Y-81822053D01*
X95611833Y-81691876D01*
X95650000Y-81500000D01*
X95612167Y-81309798D01*
X95612279Y-81180760D01*
X95562568Y-81060450D01*
X95524401Y-80868572D01*
X95416661Y-80707328D01*
X95367384Y-80588068D01*
X95275415Y-80495938D01*
X95166726Y-80333274D01*
X95005482Y-80225534D01*
X94914317Y-80134210D01*
X94794094Y-80084289D01*
X94631428Y-79975599D01*
X94441228Y-79937766D01*
X94322053Y-79888280D01*
X94191876Y-79888167D01*
X94000000Y-79850000D01*
X88150000Y-79850000D01*
X88150000Y-77882230D01*
X88166652Y-77800000D01*
X88166652Y-76200000D01*
X88107382Y-75885009D01*
X87921223Y-75595709D01*
X87637176Y-75401628D01*
X87300000Y-75333348D01*
X85700000Y-75333348D01*
X85385009Y-75392618D01*
X85095709Y-75578777D01*
X84901628Y-75862824D01*
X84833348Y-76200000D01*
X56925000Y-76200000D01*
X56925000Y-72428554D01*
X58103554Y-71250000D01*
X68000000Y-71250000D01*
X68097264Y-71230304D01*
X68176777Y-71176777D01*
X71176777Y-68176777D01*
X71231625Y-68094073D01*
X71250000Y-68000000D01*
X71250000Y-61103554D01*
X74103554Y-58250000D01*
X95099184Y-58250000D01*
X95020382Y-58646166D01*
X91783274Y-61883274D01*
X91425599Y-62418572D01*
X91300000Y-63050000D01*
X91300000Y-71000000D01*
X91425599Y-71631428D01*
X91783274Y-72166726D01*
X92318572Y-72524401D01*
X92950000Y-72650000D01*
X94261668Y-72650000D01*
X94328777Y-72754291D01*
X94612824Y-72948372D01*
X94950000Y-73016652D01*
X96450000Y-73016652D01*
X96764991Y-72957382D01*
X97054291Y-72771223D01*
X97248372Y-72487176D01*
X97316652Y-72150000D01*
X97316652Y-71317651D01*
X97350000Y-71150000D01*
X97316652Y-70982349D01*
X97316652Y-70150000D01*
X97257382Y-69835009D01*
X97071223Y-69545709D01*
X96787176Y-69351628D01*
X96450000Y-69283348D01*
X94950000Y-69283348D01*
X94635009Y-69342618D01*
X94623537Y-69350000D01*
X94600000Y-69350000D01*
X94600000Y-63733452D01*
X97283452Y-61050000D01*
X157950000Y-61050000D01*
X157950000Y-72450000D01*
X140000000Y-72450000D01*
X139215499Y-72606047D01*
X138550431Y-73050431D01*
X138106047Y-73715499D01*
X137950000Y-74500000D01*
X138106047Y-75284501D01*
X138350000Y-75649603D01*
X138350000Y-76550000D01*
X138475599Y-77181428D01*
X138705567Y-77525599D01*
X138833274Y-77716726D01*
X140850000Y-79733452D01*
X140850000Y-81350397D01*
X140606047Y-81715499D01*
X140450000Y-82500000D01*
X140606047Y-83284501D01*
X141050431Y-83949569D01*
X141715499Y-84393953D01*
X142500000Y-84550000D01*
X148500000Y-84550000D01*
X149284501Y-84393953D01*
X149949569Y-83949569D01*
X150393953Y-83284501D01*
X150550000Y-82500000D01*
X150393953Y-81715499D01*
X149949569Y-81050431D01*
X149284501Y-80606047D01*
X148500000Y-80450000D01*
X144150000Y-80450000D01*
X144150000Y-79050000D01*
X144024401Y-78418572D01*
X143959546Y-78321510D01*
X143957382Y-78310009D01*
X143771223Y-78020709D01*
X143747917Y-78004785D01*
X143666726Y-77883274D01*
X142333452Y-76550000D01*
X157950000Y-76550000D01*
X157950000Y-98000000D01*
X158106047Y-98784501D01*
X158550431Y-99449569D01*
X159215499Y-99893953D01*
X160000000Y-100050000D01*
X160950000Y-100050000D01*
X160950000Y-106150862D01*
X156550431Y-110550431D01*
X156106047Y-111215499D01*
X155950000Y-112000000D01*
X155950000Y-114150862D01*
X152650862Y-117450000D01*
X150550000Y-117450000D01*
X150550000Y-111500000D01*
X150393953Y-110715499D01*
X149949569Y-110050431D01*
X149284501Y-109606047D01*
X148500000Y-109450000D01*
X147715499Y-109606047D01*
X147050431Y-110050431D01*
X146606047Y-110715499D01*
X146450000Y-111500000D01*
X146450000Y-117450000D01*
X142333452Y-117450000D01*
X143666726Y-116116726D01*
X143741928Y-116004179D01*
X143754291Y-115996223D01*
X143948372Y-115712176D01*
X143953301Y-115687837D01*
X144024401Y-115581428D01*
X144150000Y-114950000D01*
X144150000Y-111500000D01*
X144150285Y-111173235D01*
X143899617Y-110566571D01*
X143435870Y-110102014D01*
X142829645Y-109850287D01*
X142173235Y-109849715D01*
X141566571Y-110100383D01*
X141102014Y-110564130D01*
X140850287Y-111170355D01*
X140849715Y-111826765D01*
X140850000Y-111827455D01*
X140850000Y-114266548D01*
X138833274Y-116283274D01*
X138475599Y-116818572D01*
X138350000Y-117450000D01*
X138350000Y-117479837D01*
X137715499Y-117606047D01*
X137050431Y-118050431D01*
X136150862Y-118950000D01*
X110000000Y-118950000D01*
X109215499Y-119106047D01*
X108775567Y-119400000D01*
X108301367Y-119400000D01*
X108050000Y-119350000D01*
X106738332Y-119350000D01*
X106671223Y-119245709D01*
X106387176Y-119051628D01*
X106050000Y-118983348D01*
X104550000Y-118983348D01*
X104235009Y-119042618D01*
X103945709Y-119228777D01*
X103751628Y-119512824D01*
X103683348Y-119850000D01*
X103683348Y-120682349D01*
X103650000Y-120850000D01*
X103683348Y-121017651D01*
X103683348Y-121850000D01*
X103742618Y-122164991D01*
X103928777Y-122454291D01*
X104212824Y-122648372D01*
X104550000Y-122716652D01*
X106050000Y-122716652D01*
X106364991Y-122657382D01*
X106376463Y-122650000D01*
X107748633Y-122650000D01*
X108000000Y-122700000D01*
X108925228Y-122700000D01*
X109215499Y-122893953D01*
X110000000Y-123050000D01*
X137000000Y-123050000D01*
X137784501Y-122893953D01*
X138449569Y-122449569D01*
X139349138Y-121550000D01*
X153500000Y-121550000D01*
X154284501Y-121393953D01*
X154949569Y-120949569D01*
X159449569Y-116449569D01*
X159893953Y-115784501D01*
X160050000Y-115000000D01*
X160050000Y-113500000D01*
X162197675Y-113500000D01*
X162230000Y-113662509D01*
X162230000Y-116880000D01*
X162355599Y-117511428D01*
X162610302Y-117892618D01*
X162713274Y-118046726D01*
X163833274Y-119166726D01*
X164368572Y-119524401D01*
X165000000Y-119650000D01*
X185000000Y-119650000D01*
X185631428Y-119524401D01*
X186166726Y-119166726D01*
X192166726Y-113166726D01*
X192524401Y-112631428D01*
X192537787Y-112564130D01*
X192650000Y-112000000D01*
X192650000Y-108920506D01*
X192804291Y-108821223D01*
X192998372Y-108537176D01*
X193066652Y-108200000D01*
X193066652Y-107405981D01*
X196449645Y-107405981D01*
X196761081Y-108159715D01*
X197337252Y-108736892D01*
X198090441Y-109049643D01*
X198905981Y-109050355D01*
X199659715Y-108738919D01*
X199748789Y-108650000D01*
X204999708Y-108650000D01*
X205326765Y-108650285D01*
X205933429Y-108399617D01*
X206397986Y-107935870D01*
X206649713Y-107329645D01*
X206650285Y-106673235D01*
X206399617Y-106066571D01*
X205935870Y-105602014D01*
X205329645Y-105350287D01*
X204673235Y-105349715D01*
X204672545Y-105350000D01*
X199749489Y-105350000D01*
X199662748Y-105263108D01*
X198909559Y-104950357D01*
X198094019Y-104949645D01*
X197340285Y-105261081D01*
X196763108Y-105837252D01*
X196450357Y-106590441D01*
X196449645Y-107405981D01*
X193066652Y-107405981D01*
X193066652Y-105800000D01*
X193007382Y-105485009D01*
X192821223Y-105195709D01*
X192537176Y-105001628D01*
X192200000Y-104933348D01*
X189800000Y-104933348D01*
X189485009Y-104992618D01*
X189195709Y-105178777D01*
X189001628Y-105462824D01*
X188933348Y-105800000D01*
X188933348Y-108200000D01*
X188992618Y-108514991D01*
X189178777Y-108804291D01*
X189350000Y-108921283D01*
X189350000Y-111316548D01*
X184316548Y-116350000D01*
X165683452Y-116350000D01*
X165530000Y-116196548D01*
X165530000Y-113803452D01*
X169850000Y-109483452D01*
X169850000Y-113499708D01*
X169849715Y-113826765D01*
X170100383Y-114433429D01*
X170564130Y-114897986D01*
X171170355Y-115149713D01*
X171826765Y-115150285D01*
X172433429Y-114899617D01*
X172897986Y-114435870D01*
X173149713Y-113829645D01*
X173150285Y-113173235D01*
X173150000Y-113172545D01*
X173150000Y-109057675D01*
X173254401Y-108901428D01*
X173380000Y-108270000D01*
X173380000Y-102588427D01*
X173658572Y-102774563D01*
X174290000Y-102900162D01*
X174921428Y-102774563D01*
X175456726Y-102416888D01*
X175814401Y-101881590D01*
X175940000Y-101250162D01*
X175940000Y-100369838D01*
X175814401Y-99738410D01*
X175456726Y-99203112D01*
X174921428Y-98845437D01*
X174290000Y-98719838D01*
X173658572Y-98845437D01*
X173123274Y-99203112D01*
X173020000Y-99357672D01*
X172916726Y-99203112D01*
X172381428Y-98845437D01*
X171750000Y-98719838D01*
X171118572Y-98845437D01*
X170705637Y-99121352D01*
X170631223Y-99005709D01*
X170347176Y-98811628D01*
X170010000Y-98743348D01*
X168410000Y-98743348D01*
X168095009Y-98802618D01*
X167805709Y-98988777D01*
X167611628Y-99272824D01*
X167543348Y-99610000D01*
X167543348Y-102010000D01*
X167560000Y-102098497D01*
X167560000Y-107106548D01*
X162713274Y-111953274D01*
X162355599Y-112488572D01*
X162230000Y-113120000D01*
X162230000Y-113337491D01*
X162197675Y-113500000D01*
X160050000Y-113500000D01*
X160050000Y-112849138D01*
X164449569Y-108449569D01*
X164893953Y-107784501D01*
X165050000Y-107000000D01*
X165050000Y-99000000D01*
X164893953Y-98215499D01*
X164883597Y-98200000D01*
X166000000Y-98200000D01*
X166631428Y-98074401D01*
X167166726Y-97716726D01*
X167524401Y-97181428D01*
X167650000Y-96550000D01*
X167650000Y-94840000D01*
X168107796Y-94840000D01*
X168578572Y-95154563D01*
X169210000Y-95280162D01*
X169841428Y-95154563D01*
X170376726Y-94796888D01*
X170480000Y-94642328D01*
X170583274Y-94796888D01*
X171118572Y-95154563D01*
X171750000Y-95280162D01*
X172381428Y-95154563D01*
X172916726Y-94796888D01*
X173020000Y-94642328D01*
X173123274Y-94796888D01*
X173658572Y-95154563D01*
X174290000Y-95280162D01*
X174921428Y-95154563D01*
X175456726Y-94796888D01*
X175560000Y-94642328D01*
X175663274Y-94796888D01*
X176198572Y-95154563D01*
X176830000Y-95280162D01*
X177461428Y-95154563D01*
X177996726Y-94796888D01*
X178354401Y-94261590D01*
X178480000Y-93630162D01*
X178480000Y-92749838D01*
X178354401Y-92118410D01*
X177996726Y-91583112D01*
X177461428Y-91225437D01*
X176830000Y-91099838D01*
X176198572Y-91225437D01*
X175940000Y-91398209D01*
X175940000Y-85790000D01*
X175814401Y-85158572D01*
X175650000Y-84912529D01*
X175650000Y-81000000D01*
X175650285Y-80673235D01*
X175399617Y-80066571D01*
X174935870Y-79602014D01*
X174329645Y-79350287D01*
X173673235Y-79349715D01*
X173066571Y-79600383D01*
X172602014Y-80064130D01*
X172350287Y-80670355D01*
X172349715Y-81326765D01*
X172350000Y-81327455D01*
X172350000Y-85499708D01*
X172349715Y-85826765D01*
X172600383Y-86433429D01*
X172640000Y-86473115D01*
X172640000Y-87306548D01*
X168030000Y-82696548D01*
X168030000Y-81162509D01*
X168062325Y-81000000D01*
X168030000Y-80837491D01*
X168030000Y-78303452D01*
X168683452Y-77650000D01*
X184316548Y-77650000D01*
X189350000Y-82683452D01*
X189350000Y-85079494D01*
X189195709Y-85178777D01*
X189001628Y-85462824D01*
X188933348Y-85800000D01*
X188933348Y-88200000D01*
X188992618Y-88514991D01*
X189178777Y-88804291D01*
X189462824Y-88998372D01*
X189800000Y-89066652D01*
X192200000Y-89066652D01*
X192514991Y-89007382D01*
X192804291Y-88821223D01*
X192998372Y-88537176D01*
X193066652Y-88200000D01*
X193066652Y-87405981D01*
X196449645Y-87405981D01*
X196761081Y-88159715D01*
X197337252Y-88736892D01*
X198090441Y-89049643D01*
X198905981Y-89050355D01*
X199659715Y-88738919D01*
X199748789Y-88650000D01*
X204999708Y-88650000D01*
X205326765Y-88650285D01*
X205933429Y-88399617D01*
X206397986Y-87935870D01*
X206649713Y-87329645D01*
X206650285Y-86673235D01*
X206399617Y-86066571D01*
X205935870Y-85602014D01*
X205329645Y-85350287D01*
X204673235Y-85349715D01*
X204672545Y-85350000D01*
X199749489Y-85350000D01*
X199662748Y-85263108D01*
X198909559Y-84950357D01*
X198094019Y-84949645D01*
X197340285Y-85261081D01*
X196763108Y-85837252D01*
X196450357Y-86590441D01*
X196449645Y-87405981D01*
X193066652Y-87405981D01*
X193066652Y-85800000D01*
X193007382Y-85485009D01*
X192821223Y-85195709D01*
X192650000Y-85078717D01*
X192650000Y-82000000D01*
X192524401Y-81368572D01*
X192166726Y-80833274D01*
X186166726Y-74833274D01*
X185818180Y-74600383D01*
X185631428Y-74475599D01*
X185000000Y-74350000D01*
X168000000Y-74350000D01*
X167368572Y-74475599D01*
X167181820Y-74600383D01*
X166833274Y-74833274D01*
X165213274Y-76453274D01*
X164855599Y-76988572D01*
X164730000Y-77620000D01*
X164730000Y-80837491D01*
X164697675Y-81000000D01*
X164730000Y-81162509D01*
X164730000Y-83380000D01*
X164855599Y-84011428D01*
X165213274Y-84546726D01*
X170100000Y-89433452D01*
X170100000Y-91398209D01*
X169841428Y-91225437D01*
X169210000Y-91099838D01*
X168578572Y-91225437D01*
X168107796Y-91540000D01*
X166810000Y-91540000D01*
X166178572Y-91665599D01*
X165830781Y-91897986D01*
X165643274Y-92023274D01*
X164833274Y-92833274D01*
X164475599Y-93368572D01*
X164350000Y-94000000D01*
X164350000Y-94900000D01*
X162050000Y-94900000D01*
X162050000Y-61050000D01*
X183000000Y-61050000D01*
X183784501Y-60893953D01*
X184449569Y-60449569D01*
X191449569Y-53449569D01*
X191893953Y-52784501D01*
X192050000Y-52000000D01*
X192050000Y-40000000D01*
X191893953Y-39215499D01*
X191449569Y-38550431D01*
X186449569Y-33550431D01*
X185784501Y-33106047D01*
X185000000Y-32950000D01*
X180500000Y-32950000D01*
X179715499Y-33106047D01*
X179050431Y-33550431D01*
X178606047Y-34215499D01*
X178450000Y-35000000D01*
X178606047Y-35784501D01*
X179050431Y-36449569D01*
X179715499Y-36893953D01*
X180500000Y-37050000D01*
X184150862Y-37050000D01*
X187950000Y-40849138D01*
X187950000Y-51150862D01*
X182150862Y-56950000D01*
X175403554Y-56950000D01*
X176176777Y-56176777D01*
X176231625Y-56094073D01*
X176250000Y-56000000D01*
X176250000Y-41583452D01*
X176666726Y-41166726D01*
X176774465Y-41005482D01*
X176865790Y-40914317D01*
X176915712Y-40794092D01*
X177024401Y-40631427D01*
X177062234Y-40441228D01*
X177111720Y-40322053D01*
X177111833Y-40191876D01*
X177150000Y-40000000D01*
X177112167Y-39809799D01*
X177112279Y-39680760D01*
X177062568Y-39560449D01*
X177024401Y-39368573D01*
X176916662Y-39207330D01*
X176867384Y-39088068D01*
X176775414Y-38995938D01*
X176666726Y-38833274D01*
X176505482Y-38725535D01*
X176414317Y-38634210D01*
X176294092Y-38584288D01*
X176250000Y-38554827D01*
X176250000Y-36445173D01*
X176292670Y-36416662D01*
X176411932Y-36367384D01*
X176504062Y-36275414D01*
X176666726Y-36166726D01*
X176774465Y-36005482D01*
X176865790Y-35914317D01*
X176915712Y-35794092D01*
X177024401Y-35631427D01*
X177062234Y-35441228D01*
X177111720Y-35322053D01*
X177111833Y-35191876D01*
X177150000Y-35000000D01*
X177112167Y-34809799D01*
X177112279Y-34680760D01*
X177062568Y-34560449D01*
X177024401Y-34368573D01*
X176916662Y-34207330D01*
X176867384Y-34088068D01*
X176775414Y-33995938D01*
X176666726Y-33833274D01*
X176250000Y-33416548D01*
X176250000Y-29103554D01*
X177428554Y-27925000D01*
X213571446Y-27925000D01*
X214075000Y-28428554D01*
G36*
X214075000Y-104884706D02*
X213786726Y-104453274D01*
X210150000Y-100816548D01*
X210150000Y-100216391D01*
X210283481Y-100016623D01*
X210386244Y-99500000D01*
X210283481Y-98983377D01*
X209990838Y-98545406D01*
X209552867Y-98252763D01*
X209543421Y-98250884D01*
X209131428Y-97975599D01*
X208653015Y-97880437D01*
X213786726Y-92746726D01*
X214075000Y-92315294D01*
X214075000Y-104884706D01*
X214075000Y-104884706D01*
G37*
X214075000Y-104884706D02*
X213786726Y-104453274D01*
X210150000Y-100816548D01*
X210150000Y-100216391D01*
X210283481Y-100016623D01*
X210386244Y-99500000D01*
X210283481Y-98983377D01*
X209990838Y-98545406D01*
X209552867Y-98252763D01*
X209543421Y-98250884D01*
X209131428Y-97975599D01*
X208653015Y-97880437D01*
X213786726Y-92746726D01*
X214075000Y-92315294D01*
X214075000Y-104884706D01*
M02*
