G04 #@! TF.FileFunction,Soldermask,Top*
%FSLAX46Y46*%
G04 Gerber Fmt 4.6, Leading zero omitted, Abs format (unit mm)*
G04 Created by KiCad (PCBNEW 4.0.7) date 05/17/21 03:00:34*
%MOMM*%
%LPD*%
G01*
G04 APERTURE LIST*
%ADD10C,0.100000*%
%ADD11C,1.170000*%
%ADD12R,1.150000X1.600000*%
%ADD13R,1.600000X1.150000*%
%ADD14R,2.000000X2.000000*%
%ADD15C,2.000000*%
%ADD16R,2.800000X2.800000*%
%ADD17C,2.800000*%
%ADD18R,2.600000X2.600000*%
%ADD19O,2.600000X2.600000*%
%ADD20C,2.400000*%
%ADD21C,3.400000*%
%ADD22O,1.800000X1.300000*%
%ADD23R,4.900000X1.300000*%
%ADD24O,2.400000X1.400000*%
%ADD25O,2.000000X2.000000*%
%ADD26C,1.924000*%
%ADD27O,1.924000X3.448000*%
%ADD28R,3.600000X1.800000*%
%ADD29R,4.200000X2.400000*%
%ADD30R,1.900000X2.400000*%
%ADD31R,2.000000X2.800000*%
%ADD32O,2.000000X2.800000*%
G04 APERTURE END LIST*
D10*
D11*
X213000000Y-29000000D03*
X207000000Y-35000000D03*
X166000000Y-116000000D03*
X169000000Y-111000000D03*
X137000000Y-106000000D03*
X137000000Y-115000000D03*
X131000000Y-118000000D03*
X111000000Y-118000000D03*
X67000000Y-105000000D03*
X95000000Y-87000000D03*
X91000000Y-87000000D03*
X101000000Y-54000000D03*
X94000000Y-54000000D03*
X67000000Y-67000000D03*
X58000000Y-29000000D03*
X117000000Y-41000000D03*
X124000000Y-41000000D03*
X143000000Y-41000000D03*
X171000000Y-29000000D03*
X171000000Y-54000000D03*
X94000000Y-75000000D03*
X87000000Y-71000000D03*
X87000000Y-63000000D03*
X87000000Y-59000000D03*
X91000000Y-63000000D03*
X91000000Y-59000000D03*
X91000000Y-67000000D03*
X87000000Y-67000000D03*
X79000000Y-67000000D03*
X75000000Y-67000000D03*
X83000000Y-67000000D03*
X83000000Y-59000000D03*
X83000000Y-63000000D03*
X75000000Y-59000000D03*
X79000000Y-59000000D03*
X79000000Y-63000000D03*
X75000000Y-63000000D03*
X75000000Y-75000000D03*
X79000000Y-75000000D03*
X71000000Y-75000000D03*
X59000000Y-75000000D03*
X59000000Y-72000000D03*
X79000000Y-71000000D03*
X67000000Y-72000000D03*
X71000000Y-71000000D03*
X75000000Y-71000000D03*
X67000000Y-75000000D03*
X63000000Y-72000000D03*
X63000000Y-75000000D03*
X83000000Y-75000000D03*
X83000000Y-71000000D03*
X83000000Y-87000000D03*
X83000000Y-79000000D03*
X83000000Y-83000000D03*
X63000000Y-83000000D03*
X63000000Y-79000000D03*
X63000000Y-87000000D03*
X67000000Y-83000000D03*
X75000000Y-87000000D03*
X67000000Y-87000000D03*
X75000000Y-79000000D03*
X71000000Y-79000000D03*
X67000000Y-79000000D03*
X79000000Y-79000000D03*
X79000000Y-87000000D03*
X59000000Y-79000000D03*
X59000000Y-87000000D03*
X59000000Y-83000000D03*
X71000000Y-83000000D03*
X79000000Y-83000000D03*
X75000000Y-83000000D03*
X59000000Y-100000000D03*
X59000000Y-104000000D03*
X67000000Y-100000000D03*
X63000000Y-104000000D03*
X63000000Y-100000000D03*
X75000000Y-105000000D03*
X79000000Y-105000000D03*
X83000000Y-105000000D03*
X83000000Y-108000000D03*
X83000000Y-116000000D03*
X83000000Y-112000000D03*
X63000000Y-108000000D03*
X63000000Y-112000000D03*
X67000000Y-108000000D03*
X67000000Y-112000000D03*
X59000000Y-112000000D03*
X59000000Y-108000000D03*
X71000000Y-108000000D03*
X71000000Y-112000000D03*
X79000000Y-112000000D03*
X79000000Y-108000000D03*
X75000000Y-112000000D03*
X75000000Y-108000000D03*
X91000000Y-113000000D03*
X91000000Y-105000000D03*
X99000000Y-105000000D03*
X103000000Y-105000000D03*
X95000000Y-105000000D03*
X99000000Y-116000000D03*
X99000000Y-112000000D03*
X95000000Y-116000000D03*
X95000000Y-120000000D03*
X91000000Y-120000000D03*
X87000000Y-120000000D03*
X83000000Y-120000000D03*
X75000000Y-116000000D03*
X75000000Y-120000000D03*
X79000000Y-116000000D03*
X79000000Y-120000000D03*
X71000000Y-120000000D03*
X71000000Y-116000000D03*
X59000000Y-116000000D03*
X59000000Y-120000000D03*
X67000000Y-120000000D03*
X67000000Y-116000000D03*
X63000000Y-120000000D03*
X63000000Y-116000000D03*
X63000000Y-124000000D03*
X63000000Y-128000000D03*
X67000000Y-124000000D03*
X67000000Y-128000000D03*
X59000000Y-128000000D03*
X59000000Y-124000000D03*
X87000000Y-124000000D03*
X91000000Y-124000000D03*
X83000000Y-124000000D03*
X71000000Y-124000000D03*
X71000000Y-128000000D03*
X91000000Y-128000000D03*
X79000000Y-128000000D03*
X83000000Y-128000000D03*
X87000000Y-128000000D03*
X79000000Y-124000000D03*
X75000000Y-128000000D03*
X95000000Y-128000000D03*
X95000000Y-124000000D03*
X75000000Y-124000000D03*
X107000000Y-128000000D03*
X99000000Y-128000000D03*
X99000000Y-124000000D03*
X207000000Y-104000000D03*
X207000000Y-92000000D03*
X199000000Y-92000000D03*
X199000000Y-96000000D03*
X203000000Y-96000000D03*
X203000000Y-92000000D03*
X199000000Y-100000000D03*
X203000000Y-104000000D03*
X199000000Y-104000000D03*
X191000000Y-104000000D03*
X195000000Y-104000000D03*
X191000000Y-100000000D03*
X195000000Y-100000000D03*
X195000000Y-92000000D03*
X195000000Y-96000000D03*
X191000000Y-96000000D03*
X191000000Y-92000000D03*
X187000000Y-87000000D03*
X183000000Y-87000000D03*
X179000000Y-92000000D03*
X179000000Y-96000000D03*
X183000000Y-92000000D03*
X183000000Y-96000000D03*
X187000000Y-96000000D03*
X187000000Y-92000000D03*
X187000000Y-100000000D03*
X187000000Y-108000000D03*
X187000000Y-112000000D03*
X187000000Y-104000000D03*
X183000000Y-104000000D03*
X183000000Y-100000000D03*
X179000000Y-104000000D03*
X179000000Y-100000000D03*
X175000000Y-112000000D03*
X175000000Y-116000000D03*
X183000000Y-116000000D03*
X183000000Y-112000000D03*
X179000000Y-116000000D03*
X179000000Y-112000000D03*
X183000000Y-108000000D03*
X158000000Y-106000000D03*
X166000000Y-101000000D03*
X166000000Y-106000000D03*
X161000000Y-113000000D03*
X163000000Y-120000000D03*
X159000000Y-120000000D03*
X187000000Y-120000000D03*
X175000000Y-120000000D03*
X183000000Y-120000000D03*
X179000000Y-120000000D03*
X171000000Y-120000000D03*
X167000000Y-120000000D03*
X213000000Y-95000000D03*
X213000000Y-103000000D03*
X211000000Y-112000000D03*
X207000000Y-112000000D03*
X203000000Y-112000000D03*
X191000000Y-116000000D03*
X195000000Y-116000000D03*
X195000000Y-120000000D03*
X191000000Y-120000000D03*
X199000000Y-120000000D03*
X199000000Y-116000000D03*
X207000000Y-120000000D03*
X203000000Y-120000000D03*
X203000000Y-116000000D03*
X207000000Y-116000000D03*
X207000000Y-124000000D03*
X211000000Y-124000000D03*
X203000000Y-124000000D03*
X211000000Y-128000000D03*
X203000000Y-128000000D03*
X207000000Y-128000000D03*
X211000000Y-120000000D03*
X211000000Y-116000000D03*
X167000000Y-124000000D03*
X167000000Y-128000000D03*
X171000000Y-128000000D03*
X171000000Y-124000000D03*
X179000000Y-124000000D03*
X199000000Y-124000000D03*
X199000000Y-128000000D03*
X179000000Y-128000000D03*
X183000000Y-124000000D03*
X191000000Y-128000000D03*
X187000000Y-128000000D03*
X183000000Y-128000000D03*
X195000000Y-128000000D03*
X175000000Y-128000000D03*
X175000000Y-124000000D03*
X187000000Y-124000000D03*
X195000000Y-124000000D03*
X191000000Y-124000000D03*
X155000000Y-124000000D03*
X159000000Y-124000000D03*
X151000000Y-124000000D03*
X139000000Y-124000000D03*
X139000000Y-128000000D03*
X159000000Y-128000000D03*
X147000000Y-128000000D03*
X151000000Y-128000000D03*
X155000000Y-128000000D03*
X147000000Y-124000000D03*
X143000000Y-128000000D03*
X163000000Y-128000000D03*
X163000000Y-124000000D03*
X143000000Y-124000000D03*
X115000000Y-124000000D03*
X135000000Y-124000000D03*
X135000000Y-128000000D03*
X115000000Y-128000000D03*
X119000000Y-124000000D03*
X127000000Y-128000000D03*
X123000000Y-128000000D03*
X119000000Y-128000000D03*
X131000000Y-128000000D03*
X111000000Y-128000000D03*
X111000000Y-124000000D03*
X123000000Y-124000000D03*
X131000000Y-124000000D03*
X127000000Y-124000000D03*
X146000000Y-117000000D03*
X151000000Y-117000000D03*
X145000000Y-104000000D03*
X151000000Y-88000000D03*
X145000000Y-90000000D03*
X155000000Y-97000000D03*
X151000000Y-97000000D03*
X155000000Y-101000000D03*
X151000000Y-101000000D03*
X151000000Y-93000000D03*
X155000000Y-93000000D03*
X139000000Y-99000000D03*
X143000000Y-99000000D03*
X147000000Y-99000000D03*
X107000000Y-96000000D03*
X111000000Y-96000000D03*
X103000000Y-96000000D03*
X171000000Y-85000000D03*
X183000000Y-83000000D03*
X187000000Y-83000000D03*
X175000000Y-79000000D03*
X179000000Y-79000000D03*
X183000000Y-79000000D03*
X203000000Y-83000000D03*
X199000000Y-83000000D03*
X207000000Y-83000000D03*
X195000000Y-83000000D03*
X211000000Y-83000000D03*
X203000000Y-75000000D03*
X199000000Y-75000000D03*
X207000000Y-75000000D03*
X195000000Y-75000000D03*
X211000000Y-75000000D03*
X191000000Y-75000000D03*
X211000000Y-79000000D03*
X195000000Y-79000000D03*
X207000000Y-79000000D03*
X199000000Y-79000000D03*
X203000000Y-79000000D03*
X191000000Y-59000000D03*
X183000000Y-55000000D03*
X179000000Y-55000000D03*
X183000000Y-39000000D03*
X187000000Y-51000000D03*
X183000000Y-51000000D03*
X179000000Y-51000000D03*
X187000000Y-43000000D03*
X187000000Y-47000000D03*
X183000000Y-47000000D03*
X183000000Y-43000000D03*
X179000000Y-43000000D03*
X179000000Y-47000000D03*
X183000000Y-31000000D03*
X179000000Y-31000000D03*
X191000000Y-35000000D03*
X211000000Y-43000000D03*
X211000000Y-39000000D03*
X211000000Y-47000000D03*
X195000000Y-47000000D03*
X195000000Y-39000000D03*
X195000000Y-43000000D03*
X207000000Y-43000000D03*
X207000000Y-47000000D03*
X207000000Y-39000000D03*
X199000000Y-43000000D03*
X199000000Y-47000000D03*
X199000000Y-39000000D03*
X203000000Y-39000000D03*
X203000000Y-47000000D03*
X203000000Y-43000000D03*
X211000000Y-35000000D03*
X211000000Y-55000000D03*
X211000000Y-51000000D03*
X211000000Y-59000000D03*
X195000000Y-59000000D03*
X195000000Y-51000000D03*
X195000000Y-55000000D03*
X207000000Y-55000000D03*
X207000000Y-59000000D03*
X207000000Y-51000000D03*
X199000000Y-55000000D03*
X199000000Y-59000000D03*
X199000000Y-51000000D03*
X203000000Y-51000000D03*
X203000000Y-59000000D03*
X203000000Y-55000000D03*
X203000000Y-67000000D03*
X203000000Y-71000000D03*
X203000000Y-63000000D03*
X199000000Y-63000000D03*
X199000000Y-71000000D03*
X199000000Y-67000000D03*
X207000000Y-63000000D03*
X207000000Y-71000000D03*
X207000000Y-67000000D03*
X195000000Y-67000000D03*
X195000000Y-63000000D03*
X195000000Y-71000000D03*
X211000000Y-71000000D03*
X211000000Y-63000000D03*
X211000000Y-67000000D03*
X187000000Y-67000000D03*
X187000000Y-71000000D03*
X187000000Y-63000000D03*
X183000000Y-63000000D03*
X183000000Y-71000000D03*
X183000000Y-67000000D03*
X191000000Y-63000000D03*
X191000000Y-71000000D03*
X191000000Y-67000000D03*
X179000000Y-67000000D03*
X179000000Y-63000000D03*
X179000000Y-71000000D03*
X163000000Y-71000000D03*
X163000000Y-63000000D03*
X163000000Y-67000000D03*
X175000000Y-67000000D03*
X175000000Y-71000000D03*
X175000000Y-63000000D03*
X167000000Y-67000000D03*
X167000000Y-71000000D03*
X167000000Y-63000000D03*
X171000000Y-63000000D03*
X171000000Y-71000000D03*
X171000000Y-67000000D03*
X151000000Y-67000000D03*
X151000000Y-71000000D03*
X151000000Y-63000000D03*
X147000000Y-63000000D03*
X147000000Y-71000000D03*
X147000000Y-67000000D03*
X155000000Y-63000000D03*
X155000000Y-71000000D03*
X155000000Y-67000000D03*
X143000000Y-67000000D03*
X143000000Y-63000000D03*
X135000000Y-67000000D03*
X135000000Y-71000000D03*
X135000000Y-63000000D03*
X139000000Y-63000000D03*
X143000000Y-71000000D03*
X139000000Y-67000000D03*
X127000000Y-67000000D03*
X127000000Y-71000000D03*
X127000000Y-63000000D03*
X131000000Y-63000000D03*
X131000000Y-71000000D03*
X131000000Y-67000000D03*
X111000000Y-67000000D03*
X111000000Y-71000000D03*
X111000000Y-63000000D03*
X107000000Y-63000000D03*
X107000000Y-71000000D03*
X107000000Y-67000000D03*
X119000000Y-67000000D03*
X123000000Y-71000000D03*
X119000000Y-71000000D03*
X119000000Y-63000000D03*
X115000000Y-63000000D03*
X115000000Y-71000000D03*
X115000000Y-67000000D03*
X123000000Y-63000000D03*
X123000000Y-67000000D03*
X127000000Y-109000000D03*
X127000000Y-113000000D03*
X123000000Y-83000000D03*
X123000000Y-79000000D03*
X115000000Y-83000000D03*
X115000000Y-87000000D03*
X115000000Y-79000000D03*
X119000000Y-79000000D03*
X127000000Y-79000000D03*
X119000000Y-87000000D03*
X123000000Y-87000000D03*
X127000000Y-83000000D03*
X119000000Y-83000000D03*
X107000000Y-83000000D03*
X107000000Y-87000000D03*
X107000000Y-79000000D03*
X111000000Y-79000000D03*
X111000000Y-87000000D03*
X111000000Y-83000000D03*
X107000000Y-109000000D03*
X107000000Y-105000000D03*
X107000000Y-113000000D03*
X111000000Y-109000000D03*
X115000000Y-109000000D03*
X119000000Y-109000000D03*
X119000000Y-113000000D03*
X115000000Y-113000000D03*
X111000000Y-113000000D03*
X119000000Y-105000000D03*
X115000000Y-105000000D03*
X111000000Y-105000000D03*
X123000000Y-105000000D03*
X123000000Y-113000000D03*
X123000000Y-109000000D03*
X83000000Y-100000000D03*
X83000000Y-92000000D03*
X87000000Y-96000000D03*
X87000000Y-92000000D03*
X87000000Y-100000000D03*
X91000000Y-96000000D03*
X91000000Y-100000000D03*
X91000000Y-92000000D03*
X147000000Y-95000000D03*
X111000000Y-100000000D03*
X111000000Y-92000000D03*
X99000000Y-92000000D03*
X103000000Y-92000000D03*
X107000000Y-92000000D03*
X99000000Y-100000000D03*
X103000000Y-100000000D03*
X107000000Y-100000000D03*
X143000000Y-95000000D03*
X139000000Y-95000000D03*
X99000000Y-96000000D03*
X163000000Y-84000000D03*
X163000000Y-75000000D03*
X163000000Y-79000000D03*
X167000000Y-88000000D03*
X163000000Y-88000000D03*
X163000000Y-94000000D03*
X147000000Y-79000000D03*
X156000000Y-79000000D03*
X152000000Y-79000000D03*
X127000000Y-96000000D03*
X127000000Y-100000000D03*
X127000000Y-92000000D03*
X75000000Y-100000000D03*
X119000000Y-96000000D03*
X123000000Y-96000000D03*
X123000000Y-100000000D03*
X119000000Y-100000000D03*
X123000000Y-92000000D03*
X119000000Y-92000000D03*
X115000000Y-92000000D03*
X95000000Y-100000000D03*
X115000000Y-100000000D03*
X95000000Y-92000000D03*
X75000000Y-92000000D03*
X115000000Y-96000000D03*
X95000000Y-96000000D03*
X83000000Y-96000000D03*
X79000000Y-96000000D03*
X73000000Y-96000000D03*
X98000000Y-74000000D03*
X90000000Y-79000000D03*
X98000000Y-79000000D03*
X98000000Y-62000000D03*
X94000000Y-59000000D03*
D12*
X108000000Y-121050000D03*
X108000000Y-122950000D03*
D13*
X92950000Y-71000000D03*
X91050000Y-71000000D03*
D14*
X81500000Y-89500000D03*
D15*
X79000000Y-89500000D03*
D14*
X81500000Y-102500000D03*
D15*
X79000000Y-102500000D03*
D14*
X101000000Y-84000000D03*
D15*
X103500000Y-84000000D03*
D14*
X101000000Y-108000000D03*
D15*
X103500000Y-108000000D03*
D14*
X86500000Y-77000000D03*
D15*
X86500000Y-74500000D03*
D14*
X86500000Y-115000000D03*
D15*
X86500000Y-117500000D03*
D14*
X140000000Y-119500000D03*
D15*
X140000000Y-122000000D03*
D14*
X135000000Y-112000000D03*
D15*
X135000000Y-109500000D03*
D13*
X142550000Y-115000000D03*
X144450000Y-115000000D03*
X142550000Y-79000000D03*
X144450000Y-79000000D03*
D14*
X135000000Y-80000000D03*
D15*
X135000000Y-82500000D03*
D14*
X140000000Y-74500000D03*
D15*
X140000000Y-72000000D03*
D14*
X133500000Y-101500000D03*
D15*
X136000000Y-101500000D03*
D14*
X133500000Y-92500000D03*
D15*
X136000000Y-92500000D03*
D16*
X191000000Y-107000000D03*
D17*
X198500000Y-107000000D03*
D16*
X191000000Y-87000000D03*
D17*
X198500000Y-87000000D03*
D14*
X160000000Y-98000000D03*
D15*
X160000000Y-100500000D03*
D12*
X166000000Y-96550000D03*
X166000000Y-98450000D03*
D18*
X120500000Y-32500000D03*
D19*
X112880000Y-32500000D03*
D20*
X59500000Y-36000000D03*
X59500000Y-49000000D03*
D21*
X97500000Y-54000000D03*
D22*
X58000000Y-60450000D03*
D23*
X63900000Y-65300000D03*
X63900000Y-62700000D03*
D22*
X58000000Y-67550000D03*
D24*
X58800000Y-93500000D03*
X62500000Y-93500000D03*
X66300000Y-93500000D03*
X67000000Y-98300000D03*
X212200000Y-99500000D03*
X208500000Y-99500000D03*
X204700000Y-99500000D03*
X204000000Y-94700000D03*
D15*
X86500000Y-89500000D03*
D25*
X86500000Y-81880000D03*
D15*
X86500000Y-102500000D03*
D25*
X86500000Y-110120000D03*
D15*
X101000000Y-76000000D03*
D25*
X108620000Y-76000000D03*
D15*
X101000000Y-116000000D03*
D25*
X108620000Y-116000000D03*
D15*
X142500000Y-111500000D03*
D25*
X142500000Y-103880000D03*
D15*
X142500000Y-82500000D03*
D25*
X142500000Y-90120000D03*
D15*
X148500000Y-111500000D03*
D25*
X148500000Y-103880000D03*
D15*
X154500000Y-103500000D03*
D25*
X154500000Y-111120000D03*
D15*
X148500000Y-82500000D03*
D25*
X148500000Y-90120000D03*
D15*
X154500000Y-90500000D03*
D25*
X154500000Y-82880000D03*
D15*
X171500000Y-108500000D03*
D25*
X179120000Y-108500000D03*
D15*
X174000000Y-85500000D03*
D25*
X181620000Y-85500000D03*
D15*
X171500000Y-113500000D03*
D25*
X163880000Y-113500000D03*
D15*
X174000000Y-81000000D03*
D25*
X166380000Y-81000000D03*
D15*
X205000000Y-107000000D03*
D25*
X212620000Y-107000000D03*
D15*
X205000000Y-87000000D03*
D25*
X212620000Y-87000000D03*
D26*
X71000000Y-92000000D03*
X71000000Y-89500000D03*
X71000000Y-87000000D03*
X71000000Y-100000000D03*
X71000000Y-102500000D03*
X71000000Y-105000000D03*
X94000000Y-79000000D03*
X94000000Y-81500000D03*
X94000000Y-84000000D03*
X94000000Y-113000000D03*
X94000000Y-110500000D03*
X94000000Y-108000000D03*
D27*
X135540000Y-32500000D03*
X130460000Y-32500000D03*
D28*
X146990000Y-33690000D03*
X146900000Y-41310000D03*
X169010000Y-33690000D03*
X169010000Y-36230000D03*
X168922000Y-38770000D03*
X169010000Y-41310000D03*
D26*
X178000000Y-32500000D03*
X175500000Y-35000000D03*
X178000000Y-37500000D03*
X175500000Y-40000000D03*
X180500000Y-40000000D03*
X180500000Y-35000000D03*
D29*
X98000000Y-64850000D03*
D30*
X98000000Y-71150000D03*
X100300000Y-71150000D03*
X95700000Y-71150000D03*
D29*
X103000000Y-127150000D03*
D30*
X103000000Y-120850000D03*
X100700000Y-120850000D03*
X105300000Y-120850000D03*
D26*
X130000000Y-96000000D03*
X130000000Y-94000000D03*
X130000000Y-86000000D03*
X130000000Y-82000000D03*
X130000000Y-80000000D03*
X130000000Y-112000000D03*
X130000000Y-110000000D03*
X130000000Y-106000000D03*
X130000000Y-100000000D03*
X130000000Y-98000000D03*
D31*
X169210000Y-100810000D03*
D32*
X176830000Y-93190000D03*
X171750000Y-100810000D03*
X174290000Y-93190000D03*
X174290000Y-100810000D03*
X171750000Y-93190000D03*
X176830000Y-100810000D03*
X169210000Y-93190000D03*
M02*
