M48
;DRILL file {KiCad 4.0.7} date 05/17/21 03:00:59
;FORMAT={-:-/ absolute / metric / decimal}
FMAT,2
METRIC,TZ
T1C0.500
T2C0.600
T3C0.762
T4C0.800
T5C1.000
T6C1.100
T7C1.200
T8C2.000
%
G90
G05
M71
T3
X58.Y-29.
X59.Y-72.
X59.Y-75.
X59.Y-79.
X59.Y-83.
X59.Y-87.
X59.Y-100.
X59.Y-104.
X59.Y-108.
X59.Y-112.
X59.Y-116.
X59.Y-120.
X59.Y-124.
X59.Y-128.
X63.Y-72.
X63.Y-75.
X63.Y-79.
X63.Y-83.
X63.Y-87.
X63.Y-100.
X63.Y-104.
X63.Y-108.
X63.Y-112.
X63.Y-116.
X63.Y-120.
X63.Y-124.
X63.Y-128.
X67.Y-67.
X67.Y-72.
X67.Y-75.
X67.Y-79.
X67.Y-83.
X67.Y-87.
X67.Y-100.
X67.Y-105.
X67.Y-108.
X67.Y-112.
X67.Y-116.
X67.Y-120.
X67.Y-124.
X67.Y-128.
X71.Y-71.
X71.Y-75.
X71.Y-79.
X71.Y-83.
X71.Y-87.
X71.Y-89.5
X71.Y-92.
X71.Y-100.
X71.Y-102.5
X71.Y-105.
X71.Y-108.
X71.Y-112.
X71.Y-116.
X71.Y-120.
X71.Y-124.
X71.Y-128.
X73.Y-96.
X75.Y-59.
X75.Y-63.
X75.Y-67.
X75.Y-71.
X75.Y-75.
X75.Y-79.
X75.Y-83.
X75.Y-87.
X75.Y-92.
X75.Y-100.
X75.Y-105.
X75.Y-108.
X75.Y-112.
X75.Y-116.
X75.Y-120.
X75.Y-124.
X75.Y-128.
X79.Y-59.
X79.Y-63.
X79.Y-67.
X79.Y-71.
X79.Y-75.
X79.Y-79.
X79.Y-83.
X79.Y-87.
X79.Y-96.
X79.Y-105.
X79.Y-108.
X79.Y-112.
X79.Y-116.
X79.Y-120.
X79.Y-124.
X79.Y-128.
X83.Y-59.
X83.Y-63.
X83.Y-67.
X83.Y-71.
X83.Y-75.
X83.Y-79.
X83.Y-83.
X83.Y-87.
X83.Y-92.
X83.Y-96.
X83.Y-100.
X83.Y-105.
X83.Y-108.
X83.Y-112.
X83.Y-116.
X83.Y-120.
X83.Y-124.
X83.Y-128.
X87.Y-59.
X87.Y-63.
X87.Y-67.
X87.Y-71.
X87.Y-92.
X87.Y-96.
X87.Y-100.
X87.Y-120.
X87.Y-124.
X87.Y-128.
X90.Y-79.
X91.Y-59.
X91.Y-63.
X91.Y-67.
X91.Y-87.
X91.Y-92.
X91.Y-96.
X91.Y-100.
X91.Y-105.
X91.Y-113.
X91.Y-120.
X91.Y-124.
X91.Y-128.
X94.Y-54.
X94.Y-59.
X94.Y-75.
X94.Y-79.
X94.Y-81.5
X94.Y-84.
X94.Y-108.
X94.Y-110.5
X94.Y-113.
X95.Y-87.
X95.Y-92.
X95.Y-96.
X95.Y-100.
X95.Y-105.
X95.Y-116.
X95.Y-120.
X95.Y-124.
X95.Y-128.
X98.Y-62.
X98.Y-74.
X98.Y-79.
X99.Y-92.
X99.Y-96.
X99.Y-100.
X99.Y-105.
X99.Y-112.
X99.Y-116.
X99.Y-124.
X99.Y-128.
X101.Y-54.
X103.Y-92.
X103.Y-96.
X103.Y-100.
X103.Y-105.
X107.Y-63.
X107.Y-67.
X107.Y-71.
X107.Y-79.
X107.Y-83.
X107.Y-87.
X107.Y-92.
X107.Y-96.
X107.Y-100.
X107.Y-105.
X107.Y-109.
X107.Y-113.
X107.Y-128.
X111.Y-63.
X111.Y-67.
X111.Y-71.
X111.Y-79.
X111.Y-83.
X111.Y-87.
X111.Y-92.
X111.Y-96.
X111.Y-100.
X111.Y-105.
X111.Y-109.
X111.Y-113.
X111.Y-118.
X111.Y-124.
X111.Y-128.
X115.Y-63.
X115.Y-67.
X115.Y-71.
X115.Y-79.
X115.Y-83.
X115.Y-87.
X115.Y-92.
X115.Y-96.
X115.Y-100.
X115.Y-105.
X115.Y-109.
X115.Y-113.
X115.Y-124.
X115.Y-128.
X117.Y-41.
X119.Y-63.
X119.Y-67.
X119.Y-71.
X119.Y-79.
X119.Y-83.
X119.Y-87.
X119.Y-92.
X119.Y-96.
X119.Y-100.
X119.Y-105.
X119.Y-109.
X119.Y-113.
X119.Y-124.
X119.Y-128.
X123.Y-63.
X123.Y-67.
X123.Y-71.
X123.Y-79.
X123.Y-83.
X123.Y-87.
X123.Y-92.
X123.Y-96.
X123.Y-100.
X123.Y-105.
X123.Y-109.
X123.Y-113.
X123.Y-124.
X123.Y-128.
X124.Y-41.
X127.Y-63.
X127.Y-67.
X127.Y-71.
X127.Y-79.
X127.Y-83.
X127.Y-92.
X127.Y-96.
X127.Y-100.
X127.Y-109.
X127.Y-113.
X127.Y-124.
X127.Y-128.
X130.Y-80.
X130.Y-82.
X130.Y-86.
X130.Y-94.
X130.Y-96.
X130.Y-98.
X130.Y-100.
X130.Y-106.
X130.Y-110.
X130.Y-112.
X131.Y-63.
X131.Y-67.
X131.Y-71.
X131.Y-118.
X131.Y-124.
X131.Y-128.
X135.Y-63.
X135.Y-67.
X135.Y-71.
X135.Y-124.
X135.Y-128.
X137.Y-106.
X137.Y-115.
X139.Y-63.
X139.Y-67.
X139.Y-95.
X139.Y-99.
X139.Y-124.
X139.Y-128.
X143.Y-41.
X143.Y-63.
X143.Y-67.
X143.Y-71.
X143.Y-95.
X143.Y-99.
X143.Y-124.
X143.Y-128.
X145.Y-90.
X145.Y-104.
X146.Y-117.
X147.Y-63.
X147.Y-67.
X147.Y-71.
X147.Y-79.
X147.Y-95.
X147.Y-99.
X147.Y-124.
X147.Y-128.
X151.Y-63.
X151.Y-67.
X151.Y-71.
X151.Y-88.
X151.Y-93.
X151.Y-97.
X151.Y-101.
X151.Y-117.
X151.Y-124.
X151.Y-128.
X152.Y-79.
X155.Y-63.
X155.Y-67.
X155.Y-71.
X155.Y-93.
X155.Y-97.
X155.Y-101.
X155.Y-124.
X155.Y-128.
X156.Y-79.
X158.Y-106.
X159.Y-120.
X159.Y-124.
X159.Y-128.
X161.Y-113.
X163.Y-63.
X163.Y-67.
X163.Y-71.
X163.Y-75.
X163.Y-79.
X163.Y-84.
X163.Y-88.
X163.Y-94.
X163.Y-120.
X163.Y-124.
X163.Y-128.
X166.Y-101.
X166.Y-106.
X166.Y-116.
X167.Y-63.
X167.Y-67.
X167.Y-71.
X167.Y-88.
X167.Y-120.
X167.Y-124.
X167.Y-128.
X169.Y-111.
X171.Y-29.
X171.Y-54.
X171.Y-63.
X171.Y-67.
X171.Y-71.
X171.Y-85.
X171.Y-120.
X171.Y-124.
X171.Y-128.
X175.Y-63.
X175.Y-67.
X175.Y-71.
X175.Y-79.
X175.Y-112.
X175.Y-116.
X175.Y-120.
X175.Y-124.
X175.Y-128.
X175.5Y-35.
X175.5Y-40.
X178.Y-32.5
X178.Y-37.5
X179.Y-31.
X179.Y-43.
X179.Y-47.
X179.Y-51.
X179.Y-55.
X179.Y-63.
X179.Y-67.
X179.Y-71.
X179.Y-79.
X179.Y-92.
X179.Y-96.
X179.Y-100.
X179.Y-104.
X179.Y-112.
X179.Y-116.
X179.Y-120.
X179.Y-124.
X179.Y-128.
X180.5Y-35.
X180.5Y-40.
X183.Y-31.
X183.Y-39.
X183.Y-43.
X183.Y-47.
X183.Y-51.
X183.Y-55.
X183.Y-63.
X183.Y-67.
X183.Y-71.
X183.Y-79.
X183.Y-83.
X183.Y-87.
X183.Y-92.
X183.Y-96.
X183.Y-100.
X183.Y-104.
X183.Y-108.
X183.Y-112.
X183.Y-116.
X183.Y-120.
X183.Y-124.
X183.Y-128.
X187.Y-43.
X187.Y-47.
X187.Y-51.
X187.Y-63.
X187.Y-67.
X187.Y-71.
X187.Y-83.
X187.Y-87.
X187.Y-92.
X187.Y-96.
X187.Y-100.
X187.Y-104.
X187.Y-108.
X187.Y-112.
X187.Y-120.
X187.Y-124.
X187.Y-128.
X191.Y-35.
X191.Y-59.
X191.Y-63.
X191.Y-67.
X191.Y-71.
X191.Y-75.
X191.Y-92.
X191.Y-96.
X191.Y-100.
X191.Y-104.
X191.Y-116.
X191.Y-120.
X191.Y-124.
X191.Y-128.
X195.Y-39.
X195.Y-43.
X195.Y-47.
X195.Y-51.
X195.Y-55.
X195.Y-59.
X195.Y-63.
X195.Y-67.
X195.Y-71.
X195.Y-75.
X195.Y-79.
X195.Y-83.
X195.Y-92.
X195.Y-96.
X195.Y-100.
X195.Y-104.
X195.Y-116.
X195.Y-120.
X195.Y-124.
X195.Y-128.
X199.Y-39.
X199.Y-43.
X199.Y-47.
X199.Y-51.
X199.Y-55.
X199.Y-59.
X199.Y-63.
X199.Y-67.
X199.Y-71.
X199.Y-75.
X199.Y-79.
X199.Y-83.
X199.Y-92.
X199.Y-96.
X199.Y-100.
X199.Y-104.
X199.Y-116.
X199.Y-120.
X199.Y-124.
X199.Y-128.
X203.Y-39.
X203.Y-43.
X203.Y-47.
X203.Y-51.
X203.Y-55.
X203.Y-59.
X203.Y-63.
X203.Y-67.
X203.Y-71.
X203.Y-75.
X203.Y-79.
X203.Y-83.
X203.Y-92.
X203.Y-96.
X203.Y-104.
X203.Y-112.
X203.Y-116.
X203.Y-120.
X203.Y-124.
X203.Y-128.
X207.Y-35.
X207.Y-39.
X207.Y-43.
X207.Y-47.
X207.Y-51.
X207.Y-55.
X207.Y-59.
X207.Y-63.
X207.Y-67.
X207.Y-71.
X207.Y-75.
X207.Y-79.
X207.Y-83.
X207.Y-92.
X207.Y-104.
X207.Y-112.
X207.Y-116.
X207.Y-120.
X207.Y-124.
X207.Y-128.
X211.Y-35.
X211.Y-39.
X211.Y-43.
X211.Y-47.
X211.Y-51.
X211.Y-55.
X211.Y-59.
X211.Y-63.
X211.Y-67.
X211.Y-71.
X211.Y-75.
X211.Y-79.
X211.Y-83.
X211.Y-112.
X211.Y-116.
X211.Y-120.
X211.Y-124.
X211.Y-128.
X213.Y-29.
X213.Y-95.
X213.Y-103.
T4
X79.Y-89.5
X79.Y-102.5
X81.5Y-89.5
X81.5Y-102.5
X86.5Y-74.5
X86.5Y-77.
X86.5Y-81.88
X86.5Y-89.5
X86.5Y-102.5
X86.5Y-110.12
X86.5Y-115.
X86.5Y-117.5
X101.Y-76.
X101.Y-84.
X101.Y-108.
X101.Y-116.
X103.5Y-84.
X103.5Y-108.
X108.62Y-76.
X108.62Y-116.
X133.5Y-92.5
X133.5Y-101.5
X135.Y-80.
X135.Y-82.5
X135.Y-109.5
X135.Y-112.
X136.Y-92.5
X136.Y-101.5
X140.Y-72.
X140.Y-74.5
X140.Y-119.5
X140.Y-122.
X142.5Y-82.5
X142.5Y-90.12
X142.5Y-103.88
X142.5Y-111.5
X148.5Y-82.5
X148.5Y-90.12
X148.5Y-103.88
X148.5Y-111.5
X154.5Y-82.88
X154.5Y-90.5
X154.5Y-103.5
X154.5Y-111.12
X160.Y-98.
X160.Y-100.5
X163.88Y-113.5
X166.38Y-81.
X169.21Y-93.19
X169.21Y-100.81
X171.5Y-108.5
X171.5Y-113.5
X171.75Y-93.19
X171.75Y-100.81
X174.Y-81.
X174.Y-85.5
X174.29Y-93.19
X174.29Y-100.81
X176.83Y-93.19
X176.83Y-100.81
X179.12Y-108.5
X181.62Y-85.5
X205.Y-87.
X205.Y-107.
X212.62Y-87.
X212.62Y-107.
T5
X59.5Y-36.
X59.5Y-49.
T6
X112.88Y-32.5
X120.5Y-32.5
T7
X191.Y-87.
X191.Y-107.
X198.5Y-87.
X198.5Y-107.
T8
X120.Y-47.
T1
X58.3Y-93.5G85X59.3Y-93.5
G05
X62.Y-93.5G85X63.Y-93.5
G05
X65.8Y-93.5G85X66.8Y-93.5
G05
X66.5Y-98.3G85X67.5Y-98.3
G05
X204.5Y-94.7G85X203.5Y-94.7
G05
X205.2Y-99.5G85X204.2Y-99.5
G05
X209.Y-99.5G85X208.Y-99.5
G05
X212.7Y-99.5G85X211.7Y-99.5
G05
T2
X58.25Y-60.45G85X57.75Y-60.45
G05
X58.25Y-67.55G85X57.75Y-67.55
G05
T3
X130.46Y-31.981G85X130.46Y-33.019
G05
X135.54Y-31.981G85X135.54Y-33.019
G05
T0
M30
