G04 #@! TF.FileFunction,Copper,L2,Bot,Signal*
%FSLAX46Y46*%
G04 Gerber Fmt 4.6, Leading zero omitted, Abs format (unit mm)*
G04 Created by KiCad (PCBNEW 4.0.7) date 05/17/21 03:00:34*
%MOMM*%
%LPD*%
G01*
G04 APERTURE LIST*
%ADD10C,0.100000*%
%ADD11C,0.770000*%
%ADD12R,1.600000X1.600000*%
%ADD13C,1.600000*%
%ADD14R,2.400000X2.400000*%
%ADD15C,2.400000*%
%ADD16R,2.200000X2.200000*%
%ADD17O,2.200000X2.200000*%
%ADD18C,2.000000*%
%ADD19O,1.400000X0.900000*%
%ADD20O,2.000000X1.000000*%
%ADD21O,1.600000X1.600000*%
%ADD22C,1.524000*%
%ADD23O,1.524000X3.048000*%
%ADD24R,1.600000X2.400000*%
%ADD25O,1.600000X2.400000*%
%ADD26C,3.200000*%
%ADD27C,1.600000*%
%ADD28C,3.200000*%
%ADD29C,0.500000*%
G04 APERTURE END LIST*
D10*
D11*
X213000000Y-29000000D03*
X207000000Y-35000000D03*
X166000000Y-116000000D03*
X169000000Y-111000000D03*
X137000000Y-106000000D03*
X137000000Y-115000000D03*
X131000000Y-118000000D03*
X111000000Y-118000000D03*
X67000000Y-105000000D03*
X95000000Y-87000000D03*
X91000000Y-87000000D03*
X101000000Y-54000000D03*
X94000000Y-54000000D03*
X67000000Y-67000000D03*
X58000000Y-29000000D03*
X117000000Y-41000000D03*
X124000000Y-41000000D03*
X143000000Y-41000000D03*
X171000000Y-29000000D03*
X171000000Y-54000000D03*
X94000000Y-75000000D03*
X87000000Y-71000000D03*
X87000000Y-63000000D03*
X87000000Y-59000000D03*
X91000000Y-63000000D03*
X91000000Y-59000000D03*
X91000000Y-67000000D03*
X87000000Y-67000000D03*
X79000000Y-67000000D03*
X75000000Y-67000000D03*
X83000000Y-67000000D03*
X83000000Y-59000000D03*
X83000000Y-63000000D03*
X75000000Y-59000000D03*
X79000000Y-59000000D03*
X79000000Y-63000000D03*
X75000000Y-63000000D03*
X75000000Y-75000000D03*
X79000000Y-75000000D03*
X71000000Y-75000000D03*
X59000000Y-75000000D03*
X59000000Y-72000000D03*
X79000000Y-71000000D03*
X67000000Y-72000000D03*
X71000000Y-71000000D03*
X75000000Y-71000000D03*
X67000000Y-75000000D03*
X63000000Y-72000000D03*
X63000000Y-75000000D03*
X83000000Y-75000000D03*
X83000000Y-71000000D03*
X83000000Y-87000000D03*
X83000000Y-79000000D03*
X83000000Y-83000000D03*
X63000000Y-83000000D03*
X63000000Y-79000000D03*
X63000000Y-87000000D03*
X67000000Y-83000000D03*
X75000000Y-87000000D03*
X67000000Y-87000000D03*
X75000000Y-79000000D03*
X71000000Y-79000000D03*
X67000000Y-79000000D03*
X79000000Y-79000000D03*
X79000000Y-87000000D03*
X59000000Y-79000000D03*
X59000000Y-87000000D03*
X59000000Y-83000000D03*
X71000000Y-83000000D03*
X79000000Y-83000000D03*
X75000000Y-83000000D03*
X59000000Y-100000000D03*
X59000000Y-104000000D03*
X67000000Y-100000000D03*
X63000000Y-104000000D03*
X63000000Y-100000000D03*
X75000000Y-105000000D03*
X79000000Y-105000000D03*
X83000000Y-105000000D03*
X83000000Y-108000000D03*
X83000000Y-116000000D03*
X83000000Y-112000000D03*
X63000000Y-108000000D03*
X63000000Y-112000000D03*
X67000000Y-108000000D03*
X67000000Y-112000000D03*
X59000000Y-112000000D03*
X59000000Y-108000000D03*
X71000000Y-108000000D03*
X71000000Y-112000000D03*
X79000000Y-112000000D03*
X79000000Y-108000000D03*
X75000000Y-112000000D03*
X75000000Y-108000000D03*
X91000000Y-113000000D03*
X91000000Y-105000000D03*
X99000000Y-105000000D03*
X103000000Y-105000000D03*
X95000000Y-105000000D03*
X99000000Y-116000000D03*
X99000000Y-112000000D03*
X95000000Y-116000000D03*
X95000000Y-120000000D03*
X91000000Y-120000000D03*
X87000000Y-120000000D03*
X83000000Y-120000000D03*
X75000000Y-116000000D03*
X75000000Y-120000000D03*
X79000000Y-116000000D03*
X79000000Y-120000000D03*
X71000000Y-120000000D03*
X71000000Y-116000000D03*
X59000000Y-116000000D03*
X59000000Y-120000000D03*
X67000000Y-120000000D03*
X67000000Y-116000000D03*
X63000000Y-120000000D03*
X63000000Y-116000000D03*
X63000000Y-124000000D03*
X63000000Y-128000000D03*
X67000000Y-124000000D03*
X67000000Y-128000000D03*
X59000000Y-128000000D03*
X59000000Y-124000000D03*
X87000000Y-124000000D03*
X91000000Y-124000000D03*
X83000000Y-124000000D03*
X71000000Y-124000000D03*
X71000000Y-128000000D03*
X91000000Y-128000000D03*
X79000000Y-128000000D03*
X83000000Y-128000000D03*
X87000000Y-128000000D03*
X79000000Y-124000000D03*
X75000000Y-128000000D03*
X95000000Y-128000000D03*
X95000000Y-124000000D03*
X75000000Y-124000000D03*
X107000000Y-128000000D03*
X99000000Y-128000000D03*
X99000000Y-124000000D03*
X207000000Y-104000000D03*
X207000000Y-92000000D03*
X199000000Y-92000000D03*
X199000000Y-96000000D03*
X203000000Y-96000000D03*
X203000000Y-92000000D03*
X199000000Y-100000000D03*
X203000000Y-104000000D03*
X199000000Y-104000000D03*
X191000000Y-104000000D03*
X195000000Y-104000000D03*
X191000000Y-100000000D03*
X195000000Y-100000000D03*
X195000000Y-92000000D03*
X195000000Y-96000000D03*
X191000000Y-96000000D03*
X191000000Y-92000000D03*
X187000000Y-87000000D03*
X183000000Y-87000000D03*
X179000000Y-92000000D03*
X179000000Y-96000000D03*
X183000000Y-92000000D03*
X183000000Y-96000000D03*
X187000000Y-96000000D03*
X187000000Y-92000000D03*
X187000000Y-100000000D03*
X187000000Y-108000000D03*
X187000000Y-112000000D03*
X187000000Y-104000000D03*
X183000000Y-104000000D03*
X183000000Y-100000000D03*
X179000000Y-104000000D03*
X179000000Y-100000000D03*
X175000000Y-112000000D03*
X175000000Y-116000000D03*
X183000000Y-116000000D03*
X183000000Y-112000000D03*
X179000000Y-116000000D03*
X179000000Y-112000000D03*
X183000000Y-108000000D03*
X158000000Y-106000000D03*
X166000000Y-101000000D03*
X166000000Y-106000000D03*
X161000000Y-113000000D03*
X163000000Y-120000000D03*
X159000000Y-120000000D03*
X187000000Y-120000000D03*
X175000000Y-120000000D03*
X183000000Y-120000000D03*
X179000000Y-120000000D03*
X171000000Y-120000000D03*
X167000000Y-120000000D03*
X213000000Y-95000000D03*
X213000000Y-103000000D03*
X211000000Y-112000000D03*
X207000000Y-112000000D03*
X203000000Y-112000000D03*
X191000000Y-116000000D03*
X195000000Y-116000000D03*
X195000000Y-120000000D03*
X191000000Y-120000000D03*
X199000000Y-120000000D03*
X199000000Y-116000000D03*
X207000000Y-120000000D03*
X203000000Y-120000000D03*
X203000000Y-116000000D03*
X207000000Y-116000000D03*
X207000000Y-124000000D03*
X211000000Y-124000000D03*
X203000000Y-124000000D03*
X211000000Y-128000000D03*
X203000000Y-128000000D03*
X207000000Y-128000000D03*
X211000000Y-120000000D03*
X211000000Y-116000000D03*
X167000000Y-124000000D03*
X167000000Y-128000000D03*
X171000000Y-128000000D03*
X171000000Y-124000000D03*
X179000000Y-124000000D03*
X199000000Y-124000000D03*
X199000000Y-128000000D03*
X179000000Y-128000000D03*
X183000000Y-124000000D03*
X191000000Y-128000000D03*
X187000000Y-128000000D03*
X183000000Y-128000000D03*
X195000000Y-128000000D03*
X175000000Y-128000000D03*
X175000000Y-124000000D03*
X187000000Y-124000000D03*
X195000000Y-124000000D03*
X191000000Y-124000000D03*
X155000000Y-124000000D03*
X159000000Y-124000000D03*
X151000000Y-124000000D03*
X139000000Y-124000000D03*
X139000000Y-128000000D03*
X159000000Y-128000000D03*
X147000000Y-128000000D03*
X151000000Y-128000000D03*
X155000000Y-128000000D03*
X147000000Y-124000000D03*
X143000000Y-128000000D03*
X163000000Y-128000000D03*
X163000000Y-124000000D03*
X143000000Y-124000000D03*
X115000000Y-124000000D03*
X135000000Y-124000000D03*
X135000000Y-128000000D03*
X115000000Y-128000000D03*
X119000000Y-124000000D03*
X127000000Y-128000000D03*
X123000000Y-128000000D03*
X119000000Y-128000000D03*
X131000000Y-128000000D03*
X111000000Y-128000000D03*
X111000000Y-124000000D03*
X123000000Y-124000000D03*
X131000000Y-124000000D03*
X127000000Y-124000000D03*
X146000000Y-117000000D03*
X151000000Y-117000000D03*
X145000000Y-104000000D03*
X151000000Y-88000000D03*
X145000000Y-90000000D03*
X155000000Y-97000000D03*
X151000000Y-97000000D03*
X155000000Y-101000000D03*
X151000000Y-101000000D03*
X151000000Y-93000000D03*
X155000000Y-93000000D03*
X139000000Y-99000000D03*
X143000000Y-99000000D03*
X147000000Y-99000000D03*
X107000000Y-96000000D03*
X111000000Y-96000000D03*
X103000000Y-96000000D03*
X171000000Y-85000000D03*
X183000000Y-83000000D03*
X187000000Y-83000000D03*
X175000000Y-79000000D03*
X179000000Y-79000000D03*
X183000000Y-79000000D03*
X203000000Y-83000000D03*
X199000000Y-83000000D03*
X207000000Y-83000000D03*
X195000000Y-83000000D03*
X211000000Y-83000000D03*
X203000000Y-75000000D03*
X199000000Y-75000000D03*
X207000000Y-75000000D03*
X195000000Y-75000000D03*
X211000000Y-75000000D03*
X191000000Y-75000000D03*
X211000000Y-79000000D03*
X195000000Y-79000000D03*
X207000000Y-79000000D03*
X199000000Y-79000000D03*
X203000000Y-79000000D03*
X191000000Y-59000000D03*
X183000000Y-55000000D03*
X179000000Y-55000000D03*
X183000000Y-39000000D03*
X187000000Y-51000000D03*
X183000000Y-51000000D03*
X179000000Y-51000000D03*
X187000000Y-43000000D03*
X187000000Y-47000000D03*
X183000000Y-47000000D03*
X183000000Y-43000000D03*
X179000000Y-43000000D03*
X179000000Y-47000000D03*
X183000000Y-31000000D03*
X179000000Y-31000000D03*
X191000000Y-35000000D03*
X211000000Y-43000000D03*
X211000000Y-39000000D03*
X211000000Y-47000000D03*
X195000000Y-47000000D03*
X195000000Y-39000000D03*
X195000000Y-43000000D03*
X207000000Y-43000000D03*
X207000000Y-47000000D03*
X207000000Y-39000000D03*
X199000000Y-43000000D03*
X199000000Y-47000000D03*
X199000000Y-39000000D03*
X203000000Y-39000000D03*
X203000000Y-47000000D03*
X203000000Y-43000000D03*
X211000000Y-35000000D03*
X211000000Y-55000000D03*
X211000000Y-51000000D03*
X211000000Y-59000000D03*
X195000000Y-59000000D03*
X195000000Y-51000000D03*
X195000000Y-55000000D03*
X207000000Y-55000000D03*
X207000000Y-59000000D03*
X207000000Y-51000000D03*
X199000000Y-55000000D03*
X199000000Y-59000000D03*
X199000000Y-51000000D03*
X203000000Y-51000000D03*
X203000000Y-59000000D03*
X203000000Y-55000000D03*
X203000000Y-67000000D03*
X203000000Y-71000000D03*
X203000000Y-63000000D03*
X199000000Y-63000000D03*
X199000000Y-71000000D03*
X199000000Y-67000000D03*
X207000000Y-63000000D03*
X207000000Y-71000000D03*
X207000000Y-67000000D03*
X195000000Y-67000000D03*
X195000000Y-63000000D03*
X195000000Y-71000000D03*
X211000000Y-71000000D03*
X211000000Y-63000000D03*
X211000000Y-67000000D03*
X187000000Y-67000000D03*
X187000000Y-71000000D03*
X187000000Y-63000000D03*
X183000000Y-63000000D03*
X183000000Y-71000000D03*
X183000000Y-67000000D03*
X191000000Y-63000000D03*
X191000000Y-71000000D03*
X191000000Y-67000000D03*
X179000000Y-67000000D03*
X179000000Y-63000000D03*
X179000000Y-71000000D03*
X163000000Y-71000000D03*
X163000000Y-63000000D03*
X163000000Y-67000000D03*
X175000000Y-67000000D03*
X175000000Y-71000000D03*
X175000000Y-63000000D03*
X167000000Y-67000000D03*
X167000000Y-71000000D03*
X167000000Y-63000000D03*
X171000000Y-63000000D03*
X171000000Y-71000000D03*
X171000000Y-67000000D03*
X151000000Y-67000000D03*
X151000000Y-71000000D03*
X151000000Y-63000000D03*
X147000000Y-63000000D03*
X147000000Y-71000000D03*
X147000000Y-67000000D03*
X155000000Y-63000000D03*
X155000000Y-71000000D03*
X155000000Y-67000000D03*
X143000000Y-67000000D03*
X143000000Y-63000000D03*
X135000000Y-67000000D03*
X135000000Y-71000000D03*
X135000000Y-63000000D03*
X139000000Y-63000000D03*
X143000000Y-71000000D03*
X139000000Y-67000000D03*
X127000000Y-67000000D03*
X127000000Y-71000000D03*
X127000000Y-63000000D03*
X131000000Y-63000000D03*
X131000000Y-71000000D03*
X131000000Y-67000000D03*
X111000000Y-67000000D03*
X111000000Y-71000000D03*
X111000000Y-63000000D03*
X107000000Y-63000000D03*
X107000000Y-71000000D03*
X107000000Y-67000000D03*
X119000000Y-67000000D03*
X123000000Y-71000000D03*
X119000000Y-71000000D03*
X119000000Y-63000000D03*
X115000000Y-63000000D03*
X115000000Y-71000000D03*
X115000000Y-67000000D03*
X123000000Y-63000000D03*
X123000000Y-67000000D03*
X127000000Y-109000000D03*
X127000000Y-113000000D03*
X123000000Y-83000000D03*
X123000000Y-79000000D03*
X115000000Y-83000000D03*
X115000000Y-87000000D03*
X115000000Y-79000000D03*
X119000000Y-79000000D03*
X127000000Y-79000000D03*
X119000000Y-87000000D03*
X123000000Y-87000000D03*
X127000000Y-83000000D03*
X119000000Y-83000000D03*
X107000000Y-83000000D03*
X107000000Y-87000000D03*
X107000000Y-79000000D03*
X111000000Y-79000000D03*
X111000000Y-87000000D03*
X111000000Y-83000000D03*
X107000000Y-109000000D03*
X107000000Y-105000000D03*
X107000000Y-113000000D03*
X111000000Y-109000000D03*
X115000000Y-109000000D03*
X119000000Y-109000000D03*
X119000000Y-113000000D03*
X115000000Y-113000000D03*
X111000000Y-113000000D03*
X119000000Y-105000000D03*
X115000000Y-105000000D03*
X111000000Y-105000000D03*
X123000000Y-105000000D03*
X123000000Y-113000000D03*
X123000000Y-109000000D03*
X83000000Y-100000000D03*
X83000000Y-92000000D03*
X87000000Y-96000000D03*
X87000000Y-92000000D03*
X87000000Y-100000000D03*
X91000000Y-96000000D03*
X91000000Y-100000000D03*
X91000000Y-92000000D03*
X147000000Y-95000000D03*
X111000000Y-100000000D03*
X111000000Y-92000000D03*
X99000000Y-92000000D03*
X103000000Y-92000000D03*
X107000000Y-92000000D03*
X99000000Y-100000000D03*
X103000000Y-100000000D03*
X107000000Y-100000000D03*
X143000000Y-95000000D03*
X139000000Y-95000000D03*
X99000000Y-96000000D03*
X163000000Y-84000000D03*
X163000000Y-75000000D03*
X163000000Y-79000000D03*
X167000000Y-88000000D03*
X163000000Y-88000000D03*
X163000000Y-94000000D03*
X147000000Y-79000000D03*
X156000000Y-79000000D03*
X152000000Y-79000000D03*
X127000000Y-96000000D03*
X127000000Y-100000000D03*
X127000000Y-92000000D03*
X75000000Y-100000000D03*
X119000000Y-96000000D03*
X123000000Y-96000000D03*
X123000000Y-100000000D03*
X119000000Y-100000000D03*
X123000000Y-92000000D03*
X119000000Y-92000000D03*
X115000000Y-92000000D03*
X95000000Y-100000000D03*
X115000000Y-100000000D03*
X95000000Y-92000000D03*
X75000000Y-92000000D03*
X115000000Y-96000000D03*
X95000000Y-96000000D03*
X83000000Y-96000000D03*
X79000000Y-96000000D03*
X73000000Y-96000000D03*
X98000000Y-74000000D03*
X90000000Y-79000000D03*
X98000000Y-79000000D03*
X98000000Y-62000000D03*
X94000000Y-59000000D03*
D12*
X81500000Y-89500000D03*
D13*
X79000000Y-89500000D03*
D12*
X81500000Y-102500000D03*
D13*
X79000000Y-102500000D03*
D12*
X101000000Y-84000000D03*
D13*
X103500000Y-84000000D03*
D12*
X101000000Y-108000000D03*
D13*
X103500000Y-108000000D03*
D12*
X86500000Y-77000000D03*
D13*
X86500000Y-74500000D03*
D12*
X86500000Y-115000000D03*
D13*
X86500000Y-117500000D03*
D12*
X140000000Y-119500000D03*
D13*
X140000000Y-122000000D03*
D12*
X135000000Y-112000000D03*
D13*
X135000000Y-109500000D03*
D12*
X135000000Y-80000000D03*
D13*
X135000000Y-82500000D03*
D12*
X140000000Y-74500000D03*
D13*
X140000000Y-72000000D03*
D12*
X133500000Y-101500000D03*
D13*
X136000000Y-101500000D03*
D12*
X133500000Y-92500000D03*
D13*
X136000000Y-92500000D03*
D14*
X191000000Y-107000000D03*
D15*
X198500000Y-107000000D03*
D14*
X191000000Y-87000000D03*
D15*
X198500000Y-87000000D03*
D12*
X160000000Y-98000000D03*
D13*
X160000000Y-100500000D03*
D16*
X120500000Y-32500000D03*
D17*
X112880000Y-32500000D03*
D18*
X59500000Y-36000000D03*
X59500000Y-49000000D03*
D19*
X58000000Y-60450000D03*
X58000000Y-67550000D03*
D20*
X58800000Y-93500000D03*
X62500000Y-93500000D03*
X66300000Y-93500000D03*
X67000000Y-98300000D03*
X212200000Y-99500000D03*
X208500000Y-99500000D03*
X204700000Y-99500000D03*
X204000000Y-94700000D03*
D13*
X86500000Y-89500000D03*
D21*
X86500000Y-81880000D03*
D13*
X86500000Y-102500000D03*
D21*
X86500000Y-110120000D03*
D13*
X101000000Y-76000000D03*
D21*
X108620000Y-76000000D03*
D13*
X101000000Y-116000000D03*
D21*
X108620000Y-116000000D03*
D13*
X142500000Y-111500000D03*
D21*
X142500000Y-103880000D03*
D13*
X142500000Y-82500000D03*
D21*
X142500000Y-90120000D03*
D13*
X148500000Y-111500000D03*
D21*
X148500000Y-103880000D03*
D13*
X154500000Y-103500000D03*
D21*
X154500000Y-111120000D03*
D13*
X148500000Y-82500000D03*
D21*
X148500000Y-90120000D03*
D13*
X154500000Y-90500000D03*
D21*
X154500000Y-82880000D03*
D13*
X171500000Y-108500000D03*
D21*
X179120000Y-108500000D03*
D13*
X174000000Y-85500000D03*
D21*
X181620000Y-85500000D03*
D13*
X171500000Y-113500000D03*
D21*
X163880000Y-113500000D03*
D13*
X174000000Y-81000000D03*
D21*
X166380000Y-81000000D03*
D13*
X205000000Y-107000000D03*
D21*
X212620000Y-107000000D03*
D13*
X205000000Y-87000000D03*
D21*
X212620000Y-87000000D03*
D22*
X71000000Y-92000000D03*
X71000000Y-89500000D03*
X71000000Y-87000000D03*
X71000000Y-100000000D03*
X71000000Y-102500000D03*
X71000000Y-105000000D03*
X94000000Y-79000000D03*
X94000000Y-81500000D03*
X94000000Y-84000000D03*
X94000000Y-113000000D03*
X94000000Y-110500000D03*
X94000000Y-108000000D03*
D23*
X135540000Y-32500000D03*
X130460000Y-32500000D03*
D22*
X178000000Y-32500000D03*
X175500000Y-35000000D03*
X178000000Y-37500000D03*
X175500000Y-40000000D03*
X180500000Y-40000000D03*
X180500000Y-35000000D03*
X130000000Y-96000000D03*
X130000000Y-94000000D03*
X130000000Y-86000000D03*
X130000000Y-82000000D03*
X130000000Y-80000000D03*
X130000000Y-112000000D03*
X130000000Y-110000000D03*
X130000000Y-106000000D03*
X130000000Y-100000000D03*
X130000000Y-98000000D03*
D24*
X169210000Y-100810000D03*
D25*
X176830000Y-93190000D03*
X171750000Y-100810000D03*
X174290000Y-93190000D03*
X174290000Y-100810000D03*
X171750000Y-93190000D03*
X176830000Y-100810000D03*
X169210000Y-93190000D03*
D26*
X120000000Y-47000000D03*
D27*
X154500000Y-103500000D02*
X173500000Y-103500000D01*
X174290000Y-102710000D02*
X174290000Y-100810000D01*
X173500000Y-103500000D02*
X174290000Y-102710000D01*
X154500000Y-90500000D02*
X176500000Y-90500000D01*
X176830000Y-90830000D02*
X176830000Y-93190000D01*
X176500000Y-90500000D02*
X176830000Y-90830000D01*
D28*
X120500000Y-46500000D02*
X120500000Y-32500000D01*
X120000000Y-47000000D02*
X120500000Y-46500000D01*
D29*
G36*
X172750000Y-29103554D02*
X172750000Y-53896446D01*
X170896446Y-55750000D01*
X99073249Y-55750000D01*
X99491071Y-55332906D01*
X99849591Y-54469495D01*
X99850407Y-53534607D01*
X99493395Y-52670571D01*
X98832906Y-52008929D01*
X97969495Y-51650409D01*
X97034607Y-51649593D01*
X96170571Y-52006605D01*
X95508929Y-52667094D01*
X95150409Y-53530505D01*
X95149593Y-54465393D01*
X95506605Y-55329429D01*
X95926443Y-55750000D01*
X73000000Y-55750000D01*
X72902736Y-55769696D01*
X72823223Y-55823223D01*
X68823223Y-59823223D01*
X68768375Y-59905927D01*
X68750000Y-60000000D01*
X68750000Y-66896446D01*
X66896446Y-68750000D01*
X58103554Y-68750000D01*
X56925000Y-67571446D01*
X56925000Y-47485197D01*
X117549576Y-47485197D01*
X117921780Y-48386000D01*
X118610375Y-49075798D01*
X119510527Y-49449573D01*
X119999997Y-49450000D01*
X120000000Y-49450001D01*
X120000003Y-49450000D01*
X120485197Y-49450424D01*
X121386000Y-49078220D01*
X122075798Y-48389625D01*
X122076224Y-48388599D01*
X122232409Y-48232414D01*
X122232412Y-48232412D01*
X122497959Y-47834993D01*
X122763505Y-47437575D01*
X122950001Y-46500000D01*
X122950000Y-46499995D01*
X122950000Y-32500000D01*
X122789178Y-31691491D01*
X128848000Y-31691491D01*
X128848000Y-33308509D01*
X128970706Y-33925395D01*
X129320144Y-34448365D01*
X129843114Y-34797803D01*
X130460000Y-34920509D01*
X131076886Y-34797803D01*
X131599856Y-34448365D01*
X131949294Y-33925395D01*
X132072000Y-33308509D01*
X132072000Y-31691491D01*
X133928000Y-31691491D01*
X133928000Y-33308509D01*
X134050706Y-33925395D01*
X134400144Y-34448365D01*
X134923114Y-34797803D01*
X135540000Y-34920509D01*
X136156886Y-34797803D01*
X136679856Y-34448365D01*
X137029294Y-33925395D01*
X137152000Y-33308509D01*
X137152000Y-31691491D01*
X137029294Y-31074605D01*
X136679856Y-30551635D01*
X136156886Y-30202197D01*
X135540000Y-30079491D01*
X134923114Y-30202197D01*
X134400144Y-30551635D01*
X134050706Y-31074605D01*
X133928000Y-31691491D01*
X132072000Y-31691491D01*
X131949294Y-31074605D01*
X131599856Y-30551635D01*
X131076886Y-30202197D01*
X130460000Y-30079491D01*
X129843114Y-30202197D01*
X129320144Y-30551635D01*
X128970706Y-31074605D01*
X128848000Y-31691491D01*
X122789178Y-31691491D01*
X122763505Y-31562426D01*
X122232412Y-30767588D01*
X121437574Y-30236495D01*
X120500000Y-30050000D01*
X119562426Y-30236495D01*
X118767588Y-30767588D01*
X118236495Y-31562426D01*
X118050000Y-32500000D01*
X118050000Y-45484796D01*
X117924202Y-45610375D01*
X117550427Y-46510527D01*
X117550000Y-46999997D01*
X117549999Y-47000000D01*
X117550000Y-47000003D01*
X117549576Y-47485197D01*
X56925000Y-47485197D01*
X56925000Y-36366373D01*
X57649679Y-36366373D01*
X57930732Y-37046572D01*
X58450691Y-37567439D01*
X59130398Y-37849679D01*
X59866373Y-37850321D01*
X60546572Y-37569268D01*
X61067439Y-37049309D01*
X61349679Y-36369602D01*
X61350321Y-35633627D01*
X61069268Y-34953428D01*
X60549309Y-34432561D01*
X59869602Y-34150321D01*
X59133627Y-34149679D01*
X58453428Y-34430732D01*
X57932561Y-34950691D01*
X57650321Y-35630398D01*
X57649679Y-36366373D01*
X56925000Y-36366373D01*
X56925000Y-32500000D01*
X110891797Y-32500000D01*
X111040232Y-33246233D01*
X111462939Y-33878858D01*
X112095564Y-34301565D01*
X112841797Y-34450000D01*
X112918203Y-34450000D01*
X113664436Y-34301565D01*
X114297061Y-33878858D01*
X114719768Y-33246233D01*
X114868203Y-32500000D01*
X114719768Y-31753767D01*
X114297061Y-31121142D01*
X113664436Y-30698435D01*
X112918203Y-30550000D01*
X112841797Y-30550000D01*
X112095564Y-30698435D01*
X111462939Y-31121142D01*
X111040232Y-31753767D01*
X110891797Y-32500000D01*
X56925000Y-32500000D01*
X56925000Y-28428554D01*
X57428554Y-27925000D01*
X171571446Y-27925000D01*
X172750000Y-29103554D01*
X172750000Y-29103554D01*
G37*
X172750000Y-29103554D02*
X172750000Y-53896446D01*
X170896446Y-55750000D01*
X99073249Y-55750000D01*
X99491071Y-55332906D01*
X99849591Y-54469495D01*
X99850407Y-53534607D01*
X99493395Y-52670571D01*
X98832906Y-52008929D01*
X97969495Y-51650409D01*
X97034607Y-51649593D01*
X96170571Y-52006605D01*
X95508929Y-52667094D01*
X95150409Y-53530505D01*
X95149593Y-54465393D01*
X95506605Y-55329429D01*
X95926443Y-55750000D01*
X73000000Y-55750000D01*
X72902736Y-55769696D01*
X72823223Y-55823223D01*
X68823223Y-59823223D01*
X68768375Y-59905927D01*
X68750000Y-60000000D01*
X68750000Y-66896446D01*
X66896446Y-68750000D01*
X58103554Y-68750000D01*
X56925000Y-67571446D01*
X56925000Y-47485197D01*
X117549576Y-47485197D01*
X117921780Y-48386000D01*
X118610375Y-49075798D01*
X119510527Y-49449573D01*
X119999997Y-49450000D01*
X120000000Y-49450001D01*
X120000003Y-49450000D01*
X120485197Y-49450424D01*
X121386000Y-49078220D01*
X122075798Y-48389625D01*
X122076224Y-48388599D01*
X122232409Y-48232414D01*
X122232412Y-48232412D01*
X122497959Y-47834993D01*
X122763505Y-47437575D01*
X122950001Y-46500000D01*
X122950000Y-46499995D01*
X122950000Y-32500000D01*
X122789178Y-31691491D01*
X128848000Y-31691491D01*
X128848000Y-33308509D01*
X128970706Y-33925395D01*
X129320144Y-34448365D01*
X129843114Y-34797803D01*
X130460000Y-34920509D01*
X131076886Y-34797803D01*
X131599856Y-34448365D01*
X131949294Y-33925395D01*
X132072000Y-33308509D01*
X132072000Y-31691491D01*
X133928000Y-31691491D01*
X133928000Y-33308509D01*
X134050706Y-33925395D01*
X134400144Y-34448365D01*
X134923114Y-34797803D01*
X135540000Y-34920509D01*
X136156886Y-34797803D01*
X136679856Y-34448365D01*
X137029294Y-33925395D01*
X137152000Y-33308509D01*
X137152000Y-31691491D01*
X137029294Y-31074605D01*
X136679856Y-30551635D01*
X136156886Y-30202197D01*
X135540000Y-30079491D01*
X134923114Y-30202197D01*
X134400144Y-30551635D01*
X134050706Y-31074605D01*
X133928000Y-31691491D01*
X132072000Y-31691491D01*
X131949294Y-31074605D01*
X131599856Y-30551635D01*
X131076886Y-30202197D01*
X130460000Y-30079491D01*
X129843114Y-30202197D01*
X129320144Y-30551635D01*
X128970706Y-31074605D01*
X128848000Y-31691491D01*
X122789178Y-31691491D01*
X122763505Y-31562426D01*
X122232412Y-30767588D01*
X121437574Y-30236495D01*
X120500000Y-30050000D01*
X119562426Y-30236495D01*
X118767588Y-30767588D01*
X118236495Y-31562426D01*
X118050000Y-32500000D01*
X118050000Y-45484796D01*
X117924202Y-45610375D01*
X117550427Y-46510527D01*
X117550000Y-46999997D01*
X117549999Y-47000000D01*
X117550000Y-47000003D01*
X117549576Y-47485197D01*
X56925000Y-47485197D01*
X56925000Y-36366373D01*
X57649679Y-36366373D01*
X57930732Y-37046572D01*
X58450691Y-37567439D01*
X59130398Y-37849679D01*
X59866373Y-37850321D01*
X60546572Y-37569268D01*
X61067439Y-37049309D01*
X61349679Y-36369602D01*
X61350321Y-35633627D01*
X61069268Y-34953428D01*
X60549309Y-34432561D01*
X59869602Y-34150321D01*
X59133627Y-34149679D01*
X58453428Y-34430732D01*
X57932561Y-34950691D01*
X57650321Y-35630398D01*
X57649679Y-36366373D01*
X56925000Y-36366373D01*
X56925000Y-32500000D01*
X110891797Y-32500000D01*
X111040232Y-33246233D01*
X111462939Y-33878858D01*
X112095564Y-34301565D01*
X112841797Y-34450000D01*
X112918203Y-34450000D01*
X113664436Y-34301565D01*
X114297061Y-33878858D01*
X114719768Y-33246233D01*
X114868203Y-32500000D01*
X114719768Y-31753767D01*
X114297061Y-31121142D01*
X113664436Y-30698435D01*
X112918203Y-30550000D01*
X112841797Y-30550000D01*
X112095564Y-30698435D01*
X111462939Y-31121142D01*
X111040232Y-31753767D01*
X110891797Y-32500000D01*
X56925000Y-32500000D01*
X56925000Y-28428554D01*
X57428554Y-27925000D01*
X171571446Y-27925000D01*
X172750000Y-29103554D01*
G36*
X214075000Y-28428554D02*
X214075000Y-86216328D01*
X213819051Y-85833274D01*
X213283753Y-85475599D01*
X212652325Y-85350000D01*
X212587675Y-85350000D01*
X211956247Y-85475599D01*
X211420949Y-85833274D01*
X211063274Y-86368572D01*
X210937675Y-87000000D01*
X211063274Y-87631428D01*
X211420949Y-88166726D01*
X211956247Y-88524401D01*
X212587675Y-88650000D01*
X212652325Y-88650000D01*
X213283753Y-88524401D01*
X213819051Y-88166726D01*
X214075000Y-87783672D01*
X214075000Y-106216328D01*
X213819051Y-105833274D01*
X213283753Y-105475599D01*
X212652325Y-105350000D01*
X212587675Y-105350000D01*
X211956247Y-105475599D01*
X211420949Y-105833274D01*
X211063274Y-106368572D01*
X210937675Y-107000000D01*
X211063274Y-107631428D01*
X211420949Y-108166726D01*
X211956247Y-108524401D01*
X212587675Y-108650000D01*
X212652325Y-108650000D01*
X213283753Y-108524401D01*
X213819051Y-108166726D01*
X214075000Y-107783672D01*
X214075000Y-128571446D01*
X213571446Y-129075000D01*
X57428554Y-129075000D01*
X56925000Y-128571446D01*
X56925000Y-118700000D01*
X138333348Y-118700000D01*
X138333348Y-120300000D01*
X138392618Y-120614991D01*
X138578777Y-120904291D01*
X138862824Y-121098372D01*
X139200000Y-121166652D01*
X140800000Y-121166652D01*
X141114991Y-121107382D01*
X141404291Y-120921223D01*
X141598372Y-120637176D01*
X141666652Y-120300000D01*
X141666652Y-118700000D01*
X141607382Y-118385009D01*
X141421223Y-118095709D01*
X141137176Y-117901628D01*
X140800000Y-117833348D01*
X139200000Y-117833348D01*
X138885009Y-117892618D01*
X138595709Y-118078777D01*
X138401628Y-118362824D01*
X138333348Y-118700000D01*
X56925000Y-118700000D01*
X56925000Y-114200000D01*
X84833348Y-114200000D01*
X84833348Y-115800000D01*
X84892618Y-116114991D01*
X85078777Y-116404291D01*
X85362824Y-116598372D01*
X85700000Y-116666652D01*
X87300000Y-116666652D01*
X87614991Y-116607382D01*
X87904291Y-116421223D01*
X87968831Y-116326765D01*
X99349715Y-116326765D01*
X99600383Y-116933429D01*
X100064130Y-117397986D01*
X100670355Y-117649713D01*
X101326765Y-117650285D01*
X101933429Y-117399617D01*
X102397986Y-116935870D01*
X102649713Y-116329645D01*
X102650000Y-116000000D01*
X106937675Y-116000000D01*
X107063274Y-116631428D01*
X107420949Y-117166726D01*
X107956247Y-117524401D01*
X108587675Y-117650000D01*
X108652325Y-117650000D01*
X109283753Y-117524401D01*
X109819051Y-117166726D01*
X110176726Y-116631428D01*
X110302325Y-116000000D01*
X110176726Y-115368572D01*
X109819051Y-114833274D01*
X109283753Y-114475599D01*
X108652325Y-114350000D01*
X108587675Y-114350000D01*
X107956247Y-114475599D01*
X107420949Y-114833274D01*
X107063274Y-115368572D01*
X106937675Y-116000000D01*
X102650000Y-116000000D01*
X102650285Y-115673235D01*
X102399617Y-115066571D01*
X101935870Y-114602014D01*
X101329645Y-114350287D01*
X100673235Y-114349715D01*
X100066571Y-114600383D01*
X99602014Y-115064130D01*
X99350287Y-115670355D01*
X99349715Y-116326765D01*
X87968831Y-116326765D01*
X88098372Y-116137176D01*
X88166652Y-115800000D01*
X88166652Y-114200000D01*
X88107382Y-113885009D01*
X87921223Y-113595709D01*
X87637176Y-113401628D01*
X87300000Y-113333348D01*
X85700000Y-113333348D01*
X85385009Y-113392618D01*
X85095709Y-113578777D01*
X84901628Y-113862824D01*
X84833348Y-114200000D01*
X56925000Y-114200000D01*
X56925000Y-112319240D01*
X128387721Y-112319240D01*
X128632616Y-112911932D01*
X129085683Y-113365790D01*
X129677947Y-113611720D01*
X130319240Y-113612279D01*
X130911932Y-113367384D01*
X131365790Y-112914317D01*
X131611720Y-112322053D01*
X131612279Y-111680760D01*
X131413634Y-111200000D01*
X133333348Y-111200000D01*
X133333348Y-112800000D01*
X133392618Y-113114991D01*
X133578777Y-113404291D01*
X133862824Y-113598372D01*
X134200000Y-113666652D01*
X135800000Y-113666652D01*
X136114991Y-113607382D01*
X136281867Y-113500000D01*
X162197675Y-113500000D01*
X162323274Y-114131428D01*
X162680949Y-114666726D01*
X163216247Y-115024401D01*
X163847675Y-115150000D01*
X163912325Y-115150000D01*
X164543753Y-115024401D01*
X165079051Y-114666726D01*
X165436726Y-114131428D01*
X165497327Y-113826765D01*
X169849715Y-113826765D01*
X170100383Y-114433429D01*
X170564130Y-114897986D01*
X171170355Y-115149713D01*
X171826765Y-115150285D01*
X172433429Y-114899617D01*
X172897986Y-114435870D01*
X173149713Y-113829645D01*
X173150285Y-113173235D01*
X172899617Y-112566571D01*
X172435870Y-112102014D01*
X171829645Y-111850287D01*
X171173235Y-111849715D01*
X170566571Y-112100383D01*
X170102014Y-112564130D01*
X169850287Y-113170355D01*
X169849715Y-113826765D01*
X165497327Y-113826765D01*
X165562325Y-113500000D01*
X165436726Y-112868572D01*
X165079051Y-112333274D01*
X164543753Y-111975599D01*
X163912325Y-111850000D01*
X163847675Y-111850000D01*
X163216247Y-111975599D01*
X162680949Y-112333274D01*
X162323274Y-112868572D01*
X162197675Y-113500000D01*
X136281867Y-113500000D01*
X136404291Y-113421223D01*
X136598372Y-113137176D01*
X136666652Y-112800000D01*
X136666652Y-111826765D01*
X140849715Y-111826765D01*
X141100383Y-112433429D01*
X141564130Y-112897986D01*
X142170355Y-113149713D01*
X142826765Y-113150285D01*
X143433429Y-112899617D01*
X143897986Y-112435870D01*
X144149713Y-111829645D01*
X144149715Y-111826765D01*
X146849715Y-111826765D01*
X147100383Y-112433429D01*
X147564130Y-112897986D01*
X148170355Y-113149713D01*
X148826765Y-113150285D01*
X149433429Y-112899617D01*
X149897986Y-112435870D01*
X150149713Y-111829645D01*
X150150285Y-111173235D01*
X149899617Y-110566571D01*
X149435870Y-110102014D01*
X148829645Y-109850287D01*
X148173235Y-109849715D01*
X147566571Y-110100383D01*
X147102014Y-110564130D01*
X146850287Y-111170355D01*
X146849715Y-111826765D01*
X144149715Y-111826765D01*
X144150285Y-111173235D01*
X143899617Y-110566571D01*
X143435870Y-110102014D01*
X142829645Y-109850287D01*
X142173235Y-109849715D01*
X141566571Y-110100383D01*
X141102014Y-110564130D01*
X140850287Y-111170355D01*
X140849715Y-111826765D01*
X136666652Y-111826765D01*
X136666652Y-111200000D01*
X136607382Y-110885009D01*
X136421223Y-110595709D01*
X136137176Y-110401628D01*
X135800000Y-110333348D01*
X134200000Y-110333348D01*
X133885009Y-110392618D01*
X133595709Y-110578777D01*
X133401628Y-110862824D01*
X133333348Y-111200000D01*
X131413634Y-111200000D01*
X131367384Y-111088068D01*
X130914317Y-110634210D01*
X130322053Y-110388280D01*
X129680760Y-110387721D01*
X129088068Y-110632616D01*
X128634210Y-111085683D01*
X128388280Y-111677947D01*
X128387721Y-112319240D01*
X56925000Y-112319240D01*
X56925000Y-110087675D01*
X84850000Y-110087675D01*
X84850000Y-110152325D01*
X84975599Y-110783753D01*
X85333274Y-111319051D01*
X85868572Y-111676726D01*
X86500000Y-111802325D01*
X87131428Y-111676726D01*
X87666726Y-111319051D01*
X88024401Y-110783753D01*
X88150000Y-110152325D01*
X88150000Y-110087675D01*
X88024401Y-109456247D01*
X87666726Y-108920949D01*
X87131428Y-108563274D01*
X86500000Y-108437675D01*
X85868572Y-108563274D01*
X85333274Y-108920949D01*
X84975599Y-109456247D01*
X84850000Y-110087675D01*
X56925000Y-110087675D01*
X56925000Y-108319240D01*
X92387721Y-108319240D01*
X92632616Y-108911932D01*
X92970287Y-109250192D01*
X92634210Y-109585683D01*
X92388280Y-110177947D01*
X92387721Y-110819240D01*
X92632616Y-111411932D01*
X93085683Y-111865790D01*
X93677947Y-112111720D01*
X94319240Y-112112279D01*
X94911932Y-111867384D01*
X95365790Y-111414317D01*
X95611720Y-110822053D01*
X95612279Y-110180760D01*
X95367384Y-109588068D01*
X95029713Y-109249808D01*
X95365790Y-108914317D01*
X95611720Y-108322053D01*
X95612279Y-107680760D01*
X95413634Y-107200000D01*
X99333348Y-107200000D01*
X99333348Y-108800000D01*
X99392618Y-109114991D01*
X99578777Y-109404291D01*
X99862824Y-109598372D01*
X100200000Y-109666652D01*
X101800000Y-109666652D01*
X102114991Y-109607382D01*
X102404291Y-109421223D01*
X102598372Y-109137176D01*
X102661231Y-108826765D01*
X169849715Y-108826765D01*
X170100383Y-109433429D01*
X170564130Y-109897986D01*
X171170355Y-110149713D01*
X171826765Y-110150285D01*
X172433429Y-109899617D01*
X172897986Y-109435870D01*
X173149713Y-108829645D01*
X173150285Y-108173235D01*
X172899617Y-107566571D01*
X172435870Y-107102014D01*
X171829645Y-106850287D01*
X171173235Y-106849715D01*
X170566571Y-107100383D01*
X170102014Y-107564130D01*
X169850287Y-108170355D01*
X169849715Y-108826765D01*
X102661231Y-108826765D01*
X102666652Y-108800000D01*
X102666652Y-107200000D01*
X102607382Y-106885009D01*
X102421223Y-106595709D01*
X102137176Y-106401628D01*
X101800000Y-106333348D01*
X100200000Y-106333348D01*
X99885009Y-106392618D01*
X99595709Y-106578777D01*
X99401628Y-106862824D01*
X99333348Y-107200000D01*
X95413634Y-107200000D01*
X95367384Y-107088068D01*
X94914317Y-106634210D01*
X94322053Y-106388280D01*
X93680760Y-106387721D01*
X93088068Y-106632616D01*
X92634210Y-107085683D01*
X92388280Y-107677947D01*
X92387721Y-108319240D01*
X56925000Y-108319240D01*
X56925000Y-106319240D01*
X128387721Y-106319240D01*
X128632616Y-106911932D01*
X129085683Y-107365790D01*
X129677947Y-107611720D01*
X130319240Y-107612279D01*
X130911932Y-107367384D01*
X131365790Y-106914317D01*
X131611720Y-106322053D01*
X131612175Y-105800000D01*
X188933348Y-105800000D01*
X188933348Y-108200000D01*
X188992618Y-108514991D01*
X189178777Y-108804291D01*
X189462824Y-108998372D01*
X189800000Y-109066652D01*
X192200000Y-109066652D01*
X192514991Y-109007382D01*
X192804291Y-108821223D01*
X192998372Y-108537176D01*
X193066652Y-108200000D01*
X193066652Y-107405981D01*
X196449645Y-107405981D01*
X196761081Y-108159715D01*
X197337252Y-108736892D01*
X198090441Y-109049643D01*
X198905981Y-109050355D01*
X199659715Y-108738919D01*
X200236892Y-108162748D01*
X200549643Y-107409559D01*
X200549715Y-107326765D01*
X203349715Y-107326765D01*
X203600383Y-107933429D01*
X204064130Y-108397986D01*
X204670355Y-108649713D01*
X205326765Y-108650285D01*
X205933429Y-108399617D01*
X206397986Y-107935870D01*
X206649713Y-107329645D01*
X206650285Y-106673235D01*
X206399617Y-106066571D01*
X205935870Y-105602014D01*
X205329645Y-105350287D01*
X204673235Y-105349715D01*
X204066571Y-105600383D01*
X203602014Y-106064130D01*
X203350287Y-106670355D01*
X203349715Y-107326765D01*
X200549715Y-107326765D01*
X200550355Y-106594019D01*
X200238919Y-105840285D01*
X199662748Y-105263108D01*
X198909559Y-104950357D01*
X198094019Y-104949645D01*
X197340285Y-105261081D01*
X196763108Y-105837252D01*
X196450357Y-106590441D01*
X196449645Y-107405981D01*
X193066652Y-107405981D01*
X193066652Y-105800000D01*
X193007382Y-105485009D01*
X192821223Y-105195709D01*
X192537176Y-105001628D01*
X192200000Y-104933348D01*
X189800000Y-104933348D01*
X189485009Y-104992618D01*
X189195709Y-105178777D01*
X189001628Y-105462824D01*
X188933348Y-105800000D01*
X131612175Y-105800000D01*
X131612279Y-105680760D01*
X131367384Y-105088068D01*
X130914317Y-104634210D01*
X130322053Y-104388280D01*
X129680760Y-104387721D01*
X129088068Y-104632616D01*
X128634210Y-105085683D01*
X128388280Y-105677947D01*
X128387721Y-106319240D01*
X56925000Y-106319240D01*
X56925000Y-100319240D01*
X69387721Y-100319240D01*
X69632616Y-100911932D01*
X69970287Y-101250192D01*
X69634210Y-101585683D01*
X69388280Y-102177947D01*
X69387721Y-102819240D01*
X69632616Y-103411932D01*
X70085683Y-103865790D01*
X70677947Y-104111720D01*
X71319240Y-104112279D01*
X71911932Y-103867384D01*
X72365790Y-103414317D01*
X72609763Y-102826765D01*
X77349715Y-102826765D01*
X77600383Y-103433429D01*
X78064130Y-103897986D01*
X78670355Y-104149713D01*
X79326765Y-104150285D01*
X79933429Y-103899617D01*
X80020097Y-103813100D01*
X80078777Y-103904291D01*
X80362824Y-104098372D01*
X80700000Y-104166652D01*
X82300000Y-104166652D01*
X82614991Y-104107382D01*
X82904291Y-103921223D01*
X83098372Y-103637176D01*
X83166652Y-103300000D01*
X83166652Y-102826765D01*
X84849715Y-102826765D01*
X85100383Y-103433429D01*
X85564130Y-103897986D01*
X86170355Y-104149713D01*
X86826765Y-104150285D01*
X87433429Y-103899617D01*
X87485461Y-103847675D01*
X140850000Y-103847675D01*
X140850000Y-103912325D01*
X140975599Y-104543753D01*
X141333274Y-105079051D01*
X141868572Y-105436726D01*
X142500000Y-105562325D01*
X143131428Y-105436726D01*
X143666726Y-105079051D01*
X144024401Y-104543753D01*
X144150000Y-103912325D01*
X144150000Y-103847675D01*
X146850000Y-103847675D01*
X146850000Y-103912325D01*
X146975599Y-104543753D01*
X147333274Y-105079051D01*
X147868572Y-105436726D01*
X148500000Y-105562325D01*
X149131428Y-105436726D01*
X149666726Y-105079051D01*
X150024401Y-104543753D01*
X150150000Y-103912325D01*
X150150000Y-103847675D01*
X150145841Y-103826765D01*
X152849715Y-103826765D01*
X153100383Y-104433429D01*
X153564130Y-104897986D01*
X154170355Y-105149713D01*
X154826765Y-105150285D01*
X154827455Y-105150000D01*
X173500000Y-105150000D01*
X174131428Y-105024401D01*
X174666726Y-104666726D01*
X175456726Y-103876726D01*
X175814402Y-103341427D01*
X175940000Y-102710000D01*
X175940000Y-100369838D01*
X175814401Y-99738410D01*
X175655101Y-99500000D01*
X202813756Y-99500000D01*
X202916519Y-100016623D01*
X203209162Y-100454594D01*
X203647133Y-100747237D01*
X204163756Y-100850000D01*
X205236244Y-100850000D01*
X205752867Y-100747237D01*
X206190838Y-100454594D01*
X206483481Y-100016623D01*
X206586244Y-99500000D01*
X206613756Y-99500000D01*
X206716519Y-100016623D01*
X207009162Y-100454594D01*
X207447133Y-100747237D01*
X207963756Y-100850000D01*
X209036244Y-100850000D01*
X209552867Y-100747237D01*
X209990838Y-100454594D01*
X210283481Y-100016623D01*
X210386244Y-99500000D01*
X210283481Y-98983377D01*
X209990838Y-98545406D01*
X209552867Y-98252763D01*
X209036244Y-98150000D01*
X207963756Y-98150000D01*
X207447133Y-98252763D01*
X207009162Y-98545406D01*
X206716519Y-98983377D01*
X206613756Y-99500000D01*
X206586244Y-99500000D01*
X206483481Y-98983377D01*
X206190838Y-98545406D01*
X205752867Y-98252763D01*
X205236244Y-98150000D01*
X204163756Y-98150000D01*
X203647133Y-98252763D01*
X203209162Y-98545406D01*
X202916519Y-98983377D01*
X202813756Y-99500000D01*
X175655101Y-99500000D01*
X175456726Y-99203112D01*
X174921428Y-98845437D01*
X174290000Y-98719838D01*
X173658572Y-98845437D01*
X173123274Y-99203112D01*
X173020000Y-99357672D01*
X172916726Y-99203112D01*
X172381428Y-98845437D01*
X171750000Y-98719838D01*
X171118572Y-98845437D01*
X170705637Y-99121352D01*
X170631223Y-99005709D01*
X170347176Y-98811628D01*
X170010000Y-98743348D01*
X168410000Y-98743348D01*
X168095009Y-98802618D01*
X167805709Y-98988777D01*
X167611628Y-99272824D01*
X167543348Y-99610000D01*
X167543348Y-101850000D01*
X154500292Y-101850000D01*
X154173235Y-101849715D01*
X153566571Y-102100383D01*
X153102014Y-102564130D01*
X152850287Y-103170355D01*
X152849715Y-103826765D01*
X150145841Y-103826765D01*
X150024401Y-103216247D01*
X149666726Y-102680949D01*
X149131428Y-102323274D01*
X148500000Y-102197675D01*
X147868572Y-102323274D01*
X147333274Y-102680949D01*
X146975599Y-103216247D01*
X146850000Y-103847675D01*
X144150000Y-103847675D01*
X144024401Y-103216247D01*
X143666726Y-102680949D01*
X143131428Y-102323274D01*
X142500000Y-102197675D01*
X141868572Y-102323274D01*
X141333274Y-102680949D01*
X140975599Y-103216247D01*
X140850000Y-103847675D01*
X87485461Y-103847675D01*
X87897986Y-103435870D01*
X88149713Y-102829645D01*
X88150285Y-102173235D01*
X87899617Y-101566571D01*
X87435870Y-101102014D01*
X86829645Y-100850287D01*
X86173235Y-100849715D01*
X85566571Y-101100383D01*
X85102014Y-101564130D01*
X84850287Y-102170355D01*
X84849715Y-102826765D01*
X83166652Y-102826765D01*
X83166652Y-101700000D01*
X83107382Y-101385009D01*
X82921223Y-101095709D01*
X82637176Y-100901628D01*
X82300000Y-100833348D01*
X80700000Y-100833348D01*
X80385009Y-100892618D01*
X80095709Y-101078777D01*
X80021334Y-101187628D01*
X79935870Y-101102014D01*
X79329645Y-100850287D01*
X78673235Y-100849715D01*
X78066571Y-101100383D01*
X77602014Y-101564130D01*
X77350287Y-102170355D01*
X77349715Y-102826765D01*
X72609763Y-102826765D01*
X72611720Y-102822053D01*
X72612279Y-102180760D01*
X72367384Y-101588068D01*
X72029713Y-101249808D01*
X72365790Y-100914317D01*
X72611720Y-100322053D01*
X72611722Y-100319240D01*
X128387721Y-100319240D01*
X128632616Y-100911932D01*
X129085683Y-101365790D01*
X129677947Y-101611720D01*
X130319240Y-101612279D01*
X130911932Y-101367384D01*
X131365790Y-100914317D01*
X131454782Y-100700000D01*
X131833348Y-100700000D01*
X131833348Y-102300000D01*
X131892618Y-102614991D01*
X132078777Y-102904291D01*
X132362824Y-103098372D01*
X132700000Y-103166652D01*
X134300000Y-103166652D01*
X134614991Y-103107382D01*
X134904291Y-102921223D01*
X134978666Y-102812372D01*
X135064130Y-102897986D01*
X135670355Y-103149713D01*
X136326765Y-103150285D01*
X136933429Y-102899617D01*
X137397986Y-102435870D01*
X137649713Y-101829645D01*
X137650285Y-101173235D01*
X137399617Y-100566571D01*
X136935870Y-100102014D01*
X136329645Y-99850287D01*
X135673235Y-99849715D01*
X135066571Y-100100383D01*
X134979903Y-100186900D01*
X134921223Y-100095709D01*
X134637176Y-99901628D01*
X134300000Y-99833348D01*
X132700000Y-99833348D01*
X132385009Y-99892618D01*
X132095709Y-100078777D01*
X131901628Y-100362824D01*
X131833348Y-100700000D01*
X131454782Y-100700000D01*
X131611720Y-100322053D01*
X131612279Y-99680760D01*
X131367384Y-99088068D01*
X130914317Y-98634210D01*
X130322053Y-98388280D01*
X129680760Y-98387721D01*
X129088068Y-98632616D01*
X128634210Y-99085683D01*
X128388280Y-99677947D01*
X128387721Y-100319240D01*
X72611722Y-100319240D01*
X72612279Y-99680760D01*
X72367384Y-99088068D01*
X71914317Y-98634210D01*
X71322053Y-98388280D01*
X70680760Y-98387721D01*
X70088068Y-98632616D01*
X69634210Y-99085683D01*
X69388280Y-99677947D01*
X69387721Y-100319240D01*
X56925000Y-100319240D01*
X56925000Y-97200000D01*
X158333348Y-97200000D01*
X158333348Y-98800000D01*
X158392618Y-99114991D01*
X158578777Y-99404291D01*
X158862824Y-99598372D01*
X159200000Y-99666652D01*
X160800000Y-99666652D01*
X161114991Y-99607382D01*
X161404291Y-99421223D01*
X161598372Y-99137176D01*
X161666652Y-98800000D01*
X161666652Y-97200000D01*
X161607382Y-96885009D01*
X161421223Y-96595709D01*
X161137176Y-96401628D01*
X160800000Y-96333348D01*
X159200000Y-96333348D01*
X158885009Y-96392618D01*
X158595709Y-96578777D01*
X158401628Y-96862824D01*
X158333348Y-97200000D01*
X56925000Y-97200000D01*
X56925000Y-93500000D01*
X60613756Y-93500000D01*
X60716519Y-94016623D01*
X61009162Y-94454594D01*
X61447133Y-94747237D01*
X61963756Y-94850000D01*
X63036244Y-94850000D01*
X63552867Y-94747237D01*
X63990838Y-94454594D01*
X64283481Y-94016623D01*
X64386244Y-93500000D01*
X64413756Y-93500000D01*
X64516519Y-94016623D01*
X64809162Y-94454594D01*
X65247133Y-94747237D01*
X65763756Y-94850000D01*
X66836244Y-94850000D01*
X67352867Y-94747237D01*
X67790838Y-94454594D01*
X67881278Y-94319240D01*
X128387721Y-94319240D01*
X128632616Y-94911932D01*
X129085683Y-95365790D01*
X129677947Y-95611720D01*
X130319240Y-95612279D01*
X130911932Y-95367384D01*
X131365790Y-94914317D01*
X131611720Y-94322053D01*
X131612279Y-93680760D01*
X131367384Y-93088068D01*
X130914317Y-92634210D01*
X130322053Y-92388280D01*
X129680760Y-92387721D01*
X129088068Y-92632616D01*
X128634210Y-93085683D01*
X128388280Y-93677947D01*
X128387721Y-94319240D01*
X67881278Y-94319240D01*
X68083481Y-94016623D01*
X68186244Y-93500000D01*
X68083481Y-92983377D01*
X67790838Y-92545406D01*
X67352867Y-92252763D01*
X66836244Y-92150000D01*
X65763756Y-92150000D01*
X65247133Y-92252763D01*
X64809162Y-92545406D01*
X64516519Y-92983377D01*
X64413756Y-93500000D01*
X64386244Y-93500000D01*
X64283481Y-92983377D01*
X63990838Y-92545406D01*
X63552867Y-92252763D01*
X63036244Y-92150000D01*
X61963756Y-92150000D01*
X61447133Y-92252763D01*
X61009162Y-92545406D01*
X60716519Y-92983377D01*
X60613756Y-93500000D01*
X56925000Y-93500000D01*
X56925000Y-89819240D01*
X69387721Y-89819240D01*
X69632616Y-90411932D01*
X69970287Y-90750192D01*
X69634210Y-91085683D01*
X69388280Y-91677947D01*
X69387721Y-92319240D01*
X69632616Y-92911932D01*
X70085683Y-93365790D01*
X70677947Y-93611720D01*
X71319240Y-93612279D01*
X71911932Y-93367384D01*
X72365790Y-92914317D01*
X72611720Y-92322053D01*
X72612262Y-91700000D01*
X131833348Y-91700000D01*
X131833348Y-93300000D01*
X131892618Y-93614991D01*
X132078777Y-93904291D01*
X132362824Y-94098372D01*
X132700000Y-94166652D01*
X134300000Y-94166652D01*
X134614991Y-94107382D01*
X134904291Y-93921223D01*
X134978666Y-93812372D01*
X135064130Y-93897986D01*
X135670355Y-94149713D01*
X136326765Y-94150285D01*
X136933429Y-93899617D01*
X137397986Y-93435870D01*
X137649713Y-92829645D01*
X137650285Y-92173235D01*
X137399617Y-91566571D01*
X136935870Y-91102014D01*
X136329645Y-90850287D01*
X135673235Y-90849715D01*
X135066571Y-91100383D01*
X134979903Y-91186900D01*
X134921223Y-91095709D01*
X134637176Y-90901628D01*
X134300000Y-90833348D01*
X132700000Y-90833348D01*
X132385009Y-90892618D01*
X132095709Y-91078777D01*
X131901628Y-91362824D01*
X131833348Y-91700000D01*
X72612262Y-91700000D01*
X72612279Y-91680760D01*
X72367384Y-91088068D01*
X72029713Y-90749808D01*
X72365790Y-90414317D01*
X72609763Y-89826765D01*
X77349715Y-89826765D01*
X77600383Y-90433429D01*
X78064130Y-90897986D01*
X78670355Y-91149713D01*
X79326765Y-91150285D01*
X79933429Y-90899617D01*
X80020097Y-90813100D01*
X80078777Y-90904291D01*
X80362824Y-91098372D01*
X80700000Y-91166652D01*
X82300000Y-91166652D01*
X82614991Y-91107382D01*
X82904291Y-90921223D01*
X83098372Y-90637176D01*
X83166652Y-90300000D01*
X83166652Y-89826765D01*
X84849715Y-89826765D01*
X85100383Y-90433429D01*
X85564130Y-90897986D01*
X86170355Y-91149713D01*
X86826765Y-91150285D01*
X87433429Y-90899617D01*
X87897986Y-90435870D01*
X88042569Y-90087675D01*
X140850000Y-90087675D01*
X140850000Y-90152325D01*
X140975599Y-90783753D01*
X141333274Y-91319051D01*
X141868572Y-91676726D01*
X142500000Y-91802325D01*
X143131428Y-91676726D01*
X143666726Y-91319051D01*
X144024401Y-90783753D01*
X144150000Y-90152325D01*
X144150000Y-90087675D01*
X146850000Y-90087675D01*
X146850000Y-90152325D01*
X146975599Y-90783753D01*
X147333274Y-91319051D01*
X147868572Y-91676726D01*
X148500000Y-91802325D01*
X149131428Y-91676726D01*
X149666726Y-91319051D01*
X149995661Y-90826765D01*
X152849715Y-90826765D01*
X153100383Y-91433429D01*
X153564130Y-91897986D01*
X154170355Y-92149713D01*
X154826765Y-92150285D01*
X154827455Y-92150000D01*
X167679315Y-92150000D01*
X167560000Y-92749838D01*
X167560000Y-93630162D01*
X167685599Y-94261590D01*
X168043274Y-94796888D01*
X168578572Y-95154563D01*
X169210000Y-95280162D01*
X169841428Y-95154563D01*
X170376726Y-94796888D01*
X170480000Y-94642328D01*
X170583274Y-94796888D01*
X171118572Y-95154563D01*
X171750000Y-95280162D01*
X172381428Y-95154563D01*
X172916726Y-94796888D01*
X173020000Y-94642328D01*
X173123274Y-94796888D01*
X173658572Y-95154563D01*
X174290000Y-95280162D01*
X174921428Y-95154563D01*
X175456726Y-94796888D01*
X175560000Y-94642328D01*
X175663274Y-94796888D01*
X176198572Y-95154563D01*
X176830000Y-95280162D01*
X177461428Y-95154563D01*
X177996726Y-94796888D01*
X178354401Y-94261590D01*
X178480000Y-93630162D01*
X178480000Y-90830000D01*
X178354401Y-90198572D01*
X178107892Y-89829645D01*
X177996726Y-89663273D01*
X177666726Y-89333274D01*
X177625307Y-89305599D01*
X177131428Y-88975599D01*
X176500000Y-88850000D01*
X154500292Y-88850000D01*
X154173235Y-88849715D01*
X153566571Y-89100383D01*
X153102014Y-89564130D01*
X152850287Y-90170355D01*
X152849715Y-90826765D01*
X149995661Y-90826765D01*
X150024401Y-90783753D01*
X150150000Y-90152325D01*
X150150000Y-90087675D01*
X150024401Y-89456247D01*
X149666726Y-88920949D01*
X149131428Y-88563274D01*
X148500000Y-88437675D01*
X147868572Y-88563274D01*
X147333274Y-88920949D01*
X146975599Y-89456247D01*
X146850000Y-90087675D01*
X144150000Y-90087675D01*
X144024401Y-89456247D01*
X143666726Y-88920949D01*
X143131428Y-88563274D01*
X142500000Y-88437675D01*
X141868572Y-88563274D01*
X141333274Y-88920949D01*
X140975599Y-89456247D01*
X140850000Y-90087675D01*
X88042569Y-90087675D01*
X88149713Y-89829645D01*
X88150285Y-89173235D01*
X87899617Y-88566571D01*
X87435870Y-88102014D01*
X86829645Y-87850287D01*
X86173235Y-87849715D01*
X85566571Y-88100383D01*
X85102014Y-88564130D01*
X84850287Y-89170355D01*
X84849715Y-89826765D01*
X83166652Y-89826765D01*
X83166652Y-88700000D01*
X83107382Y-88385009D01*
X82921223Y-88095709D01*
X82637176Y-87901628D01*
X82300000Y-87833348D01*
X80700000Y-87833348D01*
X80385009Y-87892618D01*
X80095709Y-88078777D01*
X80021334Y-88187628D01*
X79935870Y-88102014D01*
X79329645Y-87850287D01*
X78673235Y-87849715D01*
X78066571Y-88100383D01*
X77602014Y-88564130D01*
X77350287Y-89170355D01*
X77349715Y-89826765D01*
X72609763Y-89826765D01*
X72611720Y-89822053D01*
X72612279Y-89180760D01*
X72367384Y-88588068D01*
X71914317Y-88134210D01*
X71322053Y-87888280D01*
X70680760Y-87887721D01*
X70088068Y-88132616D01*
X69634210Y-88585683D01*
X69388280Y-89177947D01*
X69387721Y-89819240D01*
X56925000Y-89819240D01*
X56925000Y-86319240D01*
X128387721Y-86319240D01*
X128632616Y-86911932D01*
X129085683Y-87365790D01*
X129677947Y-87611720D01*
X130319240Y-87612279D01*
X130911932Y-87367384D01*
X131365790Y-86914317D01*
X131611720Y-86322053D01*
X131612151Y-85826765D01*
X172349715Y-85826765D01*
X172600383Y-86433429D01*
X173064130Y-86897986D01*
X173670355Y-87149713D01*
X174326765Y-87150285D01*
X174933429Y-86899617D01*
X175397986Y-86435870D01*
X175649713Y-85829645D01*
X175649738Y-85800000D01*
X188933348Y-85800000D01*
X188933348Y-88200000D01*
X188992618Y-88514991D01*
X189178777Y-88804291D01*
X189462824Y-88998372D01*
X189800000Y-89066652D01*
X192200000Y-89066652D01*
X192514991Y-89007382D01*
X192804291Y-88821223D01*
X192998372Y-88537176D01*
X193066652Y-88200000D01*
X193066652Y-87405981D01*
X196449645Y-87405981D01*
X196761081Y-88159715D01*
X197337252Y-88736892D01*
X198090441Y-89049643D01*
X198905981Y-89050355D01*
X199659715Y-88738919D01*
X200236892Y-88162748D01*
X200549643Y-87409559D01*
X200549715Y-87326765D01*
X203349715Y-87326765D01*
X203600383Y-87933429D01*
X204064130Y-88397986D01*
X204670355Y-88649713D01*
X205326765Y-88650285D01*
X205933429Y-88399617D01*
X206397986Y-87935870D01*
X206649713Y-87329645D01*
X206650285Y-86673235D01*
X206399617Y-86066571D01*
X205935870Y-85602014D01*
X205329645Y-85350287D01*
X204673235Y-85349715D01*
X204066571Y-85600383D01*
X203602014Y-86064130D01*
X203350287Y-86670355D01*
X203349715Y-87326765D01*
X200549715Y-87326765D01*
X200550355Y-86594019D01*
X200238919Y-85840285D01*
X199662748Y-85263108D01*
X198909559Y-84950357D01*
X198094019Y-84949645D01*
X197340285Y-85261081D01*
X196763108Y-85837252D01*
X196450357Y-86590441D01*
X196449645Y-87405981D01*
X193066652Y-87405981D01*
X193066652Y-85800000D01*
X193007382Y-85485009D01*
X192821223Y-85195709D01*
X192537176Y-85001628D01*
X192200000Y-84933348D01*
X189800000Y-84933348D01*
X189485009Y-84992618D01*
X189195709Y-85178777D01*
X189001628Y-85462824D01*
X188933348Y-85800000D01*
X175649738Y-85800000D01*
X175650285Y-85173235D01*
X175399617Y-84566571D01*
X174935870Y-84102014D01*
X174329645Y-83850287D01*
X173673235Y-83849715D01*
X173066571Y-84100383D01*
X172602014Y-84564130D01*
X172350287Y-85170355D01*
X172349715Y-85826765D01*
X131612151Y-85826765D01*
X131612279Y-85680760D01*
X131367384Y-85088068D01*
X130914317Y-84634210D01*
X130322053Y-84388280D01*
X129680760Y-84387721D01*
X129088068Y-84632616D01*
X128634210Y-85085683D01*
X128388280Y-85677947D01*
X128387721Y-86319240D01*
X56925000Y-86319240D01*
X56925000Y-81847675D01*
X84850000Y-81847675D01*
X84850000Y-81912325D01*
X84975599Y-82543753D01*
X85333274Y-83079051D01*
X85868572Y-83436726D01*
X86500000Y-83562325D01*
X87131428Y-83436726D01*
X87666726Y-83079051D01*
X88024401Y-82543753D01*
X88150000Y-81912325D01*
X88150000Y-81847675D01*
X88144344Y-81819240D01*
X92387721Y-81819240D01*
X92632616Y-82411932D01*
X92970287Y-82750192D01*
X92634210Y-83085683D01*
X92388280Y-83677947D01*
X92387721Y-84319240D01*
X92632616Y-84911932D01*
X93085683Y-85365790D01*
X93677947Y-85611720D01*
X94319240Y-85612279D01*
X94911932Y-85367384D01*
X95365790Y-84914317D01*
X95611720Y-84322053D01*
X95612279Y-83680760D01*
X95413634Y-83200000D01*
X99333348Y-83200000D01*
X99333348Y-84800000D01*
X99392618Y-85114991D01*
X99578777Y-85404291D01*
X99862824Y-85598372D01*
X100200000Y-85666652D01*
X101800000Y-85666652D01*
X102114991Y-85607382D01*
X102404291Y-85421223D01*
X102598372Y-85137176D01*
X102666652Y-84800000D01*
X102666652Y-83200000D01*
X102607382Y-82885009D01*
X102569904Y-82826765D01*
X140849715Y-82826765D01*
X141100383Y-83433429D01*
X141564130Y-83897986D01*
X142170355Y-84149713D01*
X142826765Y-84150285D01*
X143433429Y-83899617D01*
X143897986Y-83435870D01*
X144149713Y-82829645D01*
X144149715Y-82826765D01*
X146849715Y-82826765D01*
X147100383Y-83433429D01*
X147564130Y-83897986D01*
X148170355Y-84149713D01*
X148826765Y-84150285D01*
X149433429Y-83899617D01*
X149897986Y-83435870D01*
X150149713Y-82829645D01*
X150150285Y-82173235D01*
X149899617Y-81566571D01*
X149435870Y-81102014D01*
X149190194Y-81000000D01*
X164697675Y-81000000D01*
X164823274Y-81631428D01*
X165180949Y-82166726D01*
X165716247Y-82524401D01*
X166347675Y-82650000D01*
X166412325Y-82650000D01*
X167043753Y-82524401D01*
X167579051Y-82166726D01*
X167936726Y-81631428D01*
X167997327Y-81326765D01*
X172349715Y-81326765D01*
X172600383Y-81933429D01*
X173064130Y-82397986D01*
X173670355Y-82649713D01*
X174326765Y-82650285D01*
X174933429Y-82399617D01*
X175397986Y-81935870D01*
X175649713Y-81329645D01*
X175650285Y-80673235D01*
X175399617Y-80066571D01*
X174935870Y-79602014D01*
X174329645Y-79350287D01*
X173673235Y-79349715D01*
X173066571Y-79600383D01*
X172602014Y-80064130D01*
X172350287Y-80670355D01*
X172349715Y-81326765D01*
X167997327Y-81326765D01*
X168062325Y-81000000D01*
X167936726Y-80368572D01*
X167579051Y-79833274D01*
X167043753Y-79475599D01*
X166412325Y-79350000D01*
X166347675Y-79350000D01*
X165716247Y-79475599D01*
X165180949Y-79833274D01*
X164823274Y-80368572D01*
X164697675Y-81000000D01*
X149190194Y-81000000D01*
X148829645Y-80850287D01*
X148173235Y-80849715D01*
X147566571Y-81100383D01*
X147102014Y-81564130D01*
X146850287Y-82170355D01*
X146849715Y-82826765D01*
X144149715Y-82826765D01*
X144150285Y-82173235D01*
X143899617Y-81566571D01*
X143435870Y-81102014D01*
X142829645Y-80850287D01*
X142173235Y-80849715D01*
X141566571Y-81100383D01*
X141102014Y-81564130D01*
X140850287Y-82170355D01*
X140849715Y-82826765D01*
X102569904Y-82826765D01*
X102421223Y-82595709D01*
X102137176Y-82401628D01*
X101800000Y-82333348D01*
X100200000Y-82333348D01*
X99885009Y-82392618D01*
X99595709Y-82578777D01*
X99401628Y-82862824D01*
X99333348Y-83200000D01*
X95413634Y-83200000D01*
X95367384Y-83088068D01*
X95029713Y-82749808D01*
X95365790Y-82414317D01*
X95611720Y-81822053D01*
X95612279Y-81180760D01*
X95367384Y-80588068D01*
X95099025Y-80319240D01*
X128387721Y-80319240D01*
X128632616Y-80911932D01*
X129085683Y-81365790D01*
X129677947Y-81611720D01*
X130319240Y-81612279D01*
X130911932Y-81367384D01*
X131365790Y-80914317D01*
X131611720Y-80322053D01*
X131612279Y-79680760D01*
X131413634Y-79200000D01*
X133333348Y-79200000D01*
X133333348Y-80800000D01*
X133392618Y-81114991D01*
X133578777Y-81404291D01*
X133862824Y-81598372D01*
X134200000Y-81666652D01*
X135800000Y-81666652D01*
X136114991Y-81607382D01*
X136404291Y-81421223D01*
X136598372Y-81137176D01*
X136666652Y-80800000D01*
X136666652Y-79200000D01*
X136607382Y-78885009D01*
X136421223Y-78595709D01*
X136137176Y-78401628D01*
X135800000Y-78333348D01*
X134200000Y-78333348D01*
X133885009Y-78392618D01*
X133595709Y-78578777D01*
X133401628Y-78862824D01*
X133333348Y-79200000D01*
X131413634Y-79200000D01*
X131367384Y-79088068D01*
X130914317Y-78634210D01*
X130322053Y-78388280D01*
X129680760Y-78387721D01*
X129088068Y-78632616D01*
X128634210Y-79085683D01*
X128388280Y-79677947D01*
X128387721Y-80319240D01*
X95099025Y-80319240D01*
X94914317Y-80134210D01*
X94322053Y-79888280D01*
X93680760Y-79887721D01*
X93088068Y-80132616D01*
X92634210Y-80585683D01*
X92388280Y-81177947D01*
X92387721Y-81819240D01*
X88144344Y-81819240D01*
X88024401Y-81216247D01*
X87666726Y-80680949D01*
X87131428Y-80323274D01*
X86500000Y-80197675D01*
X85868572Y-80323274D01*
X85333274Y-80680949D01*
X84975599Y-81216247D01*
X84850000Y-81847675D01*
X56925000Y-81847675D01*
X56925000Y-76200000D01*
X84833348Y-76200000D01*
X84833348Y-77800000D01*
X84892618Y-78114991D01*
X85078777Y-78404291D01*
X85362824Y-78598372D01*
X85700000Y-78666652D01*
X87300000Y-78666652D01*
X87614991Y-78607382D01*
X87904291Y-78421223D01*
X88098372Y-78137176D01*
X88166652Y-77800000D01*
X88166652Y-76326765D01*
X99349715Y-76326765D01*
X99600383Y-76933429D01*
X100064130Y-77397986D01*
X100670355Y-77649713D01*
X101326765Y-77650285D01*
X101933429Y-77399617D01*
X102397986Y-76935870D01*
X102649713Y-76329645D01*
X102650000Y-76000000D01*
X106937675Y-76000000D01*
X107063274Y-76631428D01*
X107420949Y-77166726D01*
X107956247Y-77524401D01*
X108587675Y-77650000D01*
X108652325Y-77650000D01*
X109283753Y-77524401D01*
X109819051Y-77166726D01*
X110176726Y-76631428D01*
X110302325Y-76000000D01*
X110176726Y-75368572D01*
X109819051Y-74833274D01*
X109283753Y-74475599D01*
X108652325Y-74350000D01*
X108587675Y-74350000D01*
X107956247Y-74475599D01*
X107420949Y-74833274D01*
X107063274Y-75368572D01*
X106937675Y-76000000D01*
X102650000Y-76000000D01*
X102650285Y-75673235D01*
X102399617Y-75066571D01*
X101935870Y-74602014D01*
X101329645Y-74350287D01*
X100673235Y-74349715D01*
X100066571Y-74600383D01*
X99602014Y-75064130D01*
X99350287Y-75670355D01*
X99349715Y-76326765D01*
X88166652Y-76326765D01*
X88166652Y-76200000D01*
X88107382Y-75885009D01*
X87921223Y-75595709D01*
X87637176Y-75401628D01*
X87300000Y-75333348D01*
X85700000Y-75333348D01*
X85385009Y-75392618D01*
X85095709Y-75578777D01*
X84901628Y-75862824D01*
X84833348Y-76200000D01*
X56925000Y-76200000D01*
X56925000Y-73700000D01*
X138333348Y-73700000D01*
X138333348Y-75300000D01*
X138392618Y-75614991D01*
X138578777Y-75904291D01*
X138862824Y-76098372D01*
X139200000Y-76166652D01*
X140800000Y-76166652D01*
X141114991Y-76107382D01*
X141404291Y-75921223D01*
X141598372Y-75637176D01*
X141666652Y-75300000D01*
X141666652Y-73700000D01*
X141607382Y-73385009D01*
X141421223Y-73095709D01*
X141137176Y-72901628D01*
X140800000Y-72833348D01*
X139200000Y-72833348D01*
X138885009Y-72892618D01*
X138595709Y-73078777D01*
X138401628Y-73362824D01*
X138333348Y-73700000D01*
X56925000Y-73700000D01*
X56925000Y-72428554D01*
X58103554Y-71250000D01*
X68000000Y-71250000D01*
X68097264Y-71230304D01*
X68176777Y-71176777D01*
X71176777Y-68176777D01*
X71231625Y-68094073D01*
X71250000Y-68000000D01*
X71250000Y-61103554D01*
X74103554Y-58250000D01*
X174000000Y-58250000D01*
X174097264Y-58230304D01*
X174176777Y-58176777D01*
X176176777Y-56176777D01*
X176231625Y-56094073D01*
X176250000Y-56000000D01*
X176250000Y-41434293D01*
X176411932Y-41367384D01*
X176865790Y-40914317D01*
X177111720Y-40322053D01*
X177112279Y-39680760D01*
X176867384Y-39088068D01*
X176414317Y-38634210D01*
X176250000Y-38565979D01*
X176250000Y-36434293D01*
X176411932Y-36367384D01*
X176865790Y-35914317D01*
X177111720Y-35322053D01*
X177111722Y-35319240D01*
X178887721Y-35319240D01*
X179132616Y-35911932D01*
X179585683Y-36365790D01*
X180177947Y-36611720D01*
X180819240Y-36612279D01*
X181411932Y-36367384D01*
X181865790Y-35914317D01*
X182111720Y-35322053D01*
X182112279Y-34680760D01*
X181867384Y-34088068D01*
X181414317Y-33634210D01*
X180822053Y-33388280D01*
X180180760Y-33387721D01*
X179588068Y-33632616D01*
X179134210Y-34085683D01*
X178888280Y-34677947D01*
X178887721Y-35319240D01*
X177111722Y-35319240D01*
X177112279Y-34680760D01*
X176867384Y-34088068D01*
X176414317Y-33634210D01*
X176250000Y-33565979D01*
X176250000Y-29103554D01*
X177428554Y-27925000D01*
X213571446Y-27925000D01*
X214075000Y-28428554D01*
X214075000Y-28428554D01*
G37*
X214075000Y-28428554D02*
X214075000Y-86216328D01*
X213819051Y-85833274D01*
X213283753Y-85475599D01*
X212652325Y-85350000D01*
X212587675Y-85350000D01*
X211956247Y-85475599D01*
X211420949Y-85833274D01*
X211063274Y-86368572D01*
X210937675Y-87000000D01*
X211063274Y-87631428D01*
X211420949Y-88166726D01*
X211956247Y-88524401D01*
X212587675Y-88650000D01*
X212652325Y-88650000D01*
X213283753Y-88524401D01*
X213819051Y-88166726D01*
X214075000Y-87783672D01*
X214075000Y-106216328D01*
X213819051Y-105833274D01*
X213283753Y-105475599D01*
X212652325Y-105350000D01*
X212587675Y-105350000D01*
X211956247Y-105475599D01*
X211420949Y-105833274D01*
X211063274Y-106368572D01*
X210937675Y-107000000D01*
X211063274Y-107631428D01*
X211420949Y-108166726D01*
X211956247Y-108524401D01*
X212587675Y-108650000D01*
X212652325Y-108650000D01*
X213283753Y-108524401D01*
X213819051Y-108166726D01*
X214075000Y-107783672D01*
X214075000Y-128571446D01*
X213571446Y-129075000D01*
X57428554Y-129075000D01*
X56925000Y-128571446D01*
X56925000Y-118700000D01*
X138333348Y-118700000D01*
X138333348Y-120300000D01*
X138392618Y-120614991D01*
X138578777Y-120904291D01*
X138862824Y-121098372D01*
X139200000Y-121166652D01*
X140800000Y-121166652D01*
X141114991Y-121107382D01*
X141404291Y-120921223D01*
X141598372Y-120637176D01*
X141666652Y-120300000D01*
X141666652Y-118700000D01*
X141607382Y-118385009D01*
X141421223Y-118095709D01*
X141137176Y-117901628D01*
X140800000Y-117833348D01*
X139200000Y-117833348D01*
X138885009Y-117892618D01*
X138595709Y-118078777D01*
X138401628Y-118362824D01*
X138333348Y-118700000D01*
X56925000Y-118700000D01*
X56925000Y-114200000D01*
X84833348Y-114200000D01*
X84833348Y-115800000D01*
X84892618Y-116114991D01*
X85078777Y-116404291D01*
X85362824Y-116598372D01*
X85700000Y-116666652D01*
X87300000Y-116666652D01*
X87614991Y-116607382D01*
X87904291Y-116421223D01*
X87968831Y-116326765D01*
X99349715Y-116326765D01*
X99600383Y-116933429D01*
X100064130Y-117397986D01*
X100670355Y-117649713D01*
X101326765Y-117650285D01*
X101933429Y-117399617D01*
X102397986Y-116935870D01*
X102649713Y-116329645D01*
X102650000Y-116000000D01*
X106937675Y-116000000D01*
X107063274Y-116631428D01*
X107420949Y-117166726D01*
X107956247Y-117524401D01*
X108587675Y-117650000D01*
X108652325Y-117650000D01*
X109283753Y-117524401D01*
X109819051Y-117166726D01*
X110176726Y-116631428D01*
X110302325Y-116000000D01*
X110176726Y-115368572D01*
X109819051Y-114833274D01*
X109283753Y-114475599D01*
X108652325Y-114350000D01*
X108587675Y-114350000D01*
X107956247Y-114475599D01*
X107420949Y-114833274D01*
X107063274Y-115368572D01*
X106937675Y-116000000D01*
X102650000Y-116000000D01*
X102650285Y-115673235D01*
X102399617Y-115066571D01*
X101935870Y-114602014D01*
X101329645Y-114350287D01*
X100673235Y-114349715D01*
X100066571Y-114600383D01*
X99602014Y-115064130D01*
X99350287Y-115670355D01*
X99349715Y-116326765D01*
X87968831Y-116326765D01*
X88098372Y-116137176D01*
X88166652Y-115800000D01*
X88166652Y-114200000D01*
X88107382Y-113885009D01*
X87921223Y-113595709D01*
X87637176Y-113401628D01*
X87300000Y-113333348D01*
X85700000Y-113333348D01*
X85385009Y-113392618D01*
X85095709Y-113578777D01*
X84901628Y-113862824D01*
X84833348Y-114200000D01*
X56925000Y-114200000D01*
X56925000Y-112319240D01*
X128387721Y-112319240D01*
X128632616Y-112911932D01*
X129085683Y-113365790D01*
X129677947Y-113611720D01*
X130319240Y-113612279D01*
X130911932Y-113367384D01*
X131365790Y-112914317D01*
X131611720Y-112322053D01*
X131612279Y-111680760D01*
X131413634Y-111200000D01*
X133333348Y-111200000D01*
X133333348Y-112800000D01*
X133392618Y-113114991D01*
X133578777Y-113404291D01*
X133862824Y-113598372D01*
X134200000Y-113666652D01*
X135800000Y-113666652D01*
X136114991Y-113607382D01*
X136281867Y-113500000D01*
X162197675Y-113500000D01*
X162323274Y-114131428D01*
X162680949Y-114666726D01*
X163216247Y-115024401D01*
X163847675Y-115150000D01*
X163912325Y-115150000D01*
X164543753Y-115024401D01*
X165079051Y-114666726D01*
X165436726Y-114131428D01*
X165497327Y-113826765D01*
X169849715Y-113826765D01*
X170100383Y-114433429D01*
X170564130Y-114897986D01*
X171170355Y-115149713D01*
X171826765Y-115150285D01*
X172433429Y-114899617D01*
X172897986Y-114435870D01*
X173149713Y-113829645D01*
X173150285Y-113173235D01*
X172899617Y-112566571D01*
X172435870Y-112102014D01*
X171829645Y-111850287D01*
X171173235Y-111849715D01*
X170566571Y-112100383D01*
X170102014Y-112564130D01*
X169850287Y-113170355D01*
X169849715Y-113826765D01*
X165497327Y-113826765D01*
X165562325Y-113500000D01*
X165436726Y-112868572D01*
X165079051Y-112333274D01*
X164543753Y-111975599D01*
X163912325Y-111850000D01*
X163847675Y-111850000D01*
X163216247Y-111975599D01*
X162680949Y-112333274D01*
X162323274Y-112868572D01*
X162197675Y-113500000D01*
X136281867Y-113500000D01*
X136404291Y-113421223D01*
X136598372Y-113137176D01*
X136666652Y-112800000D01*
X136666652Y-111826765D01*
X140849715Y-111826765D01*
X141100383Y-112433429D01*
X141564130Y-112897986D01*
X142170355Y-113149713D01*
X142826765Y-113150285D01*
X143433429Y-112899617D01*
X143897986Y-112435870D01*
X144149713Y-111829645D01*
X144149715Y-111826765D01*
X146849715Y-111826765D01*
X147100383Y-112433429D01*
X147564130Y-112897986D01*
X148170355Y-113149713D01*
X148826765Y-113150285D01*
X149433429Y-112899617D01*
X149897986Y-112435870D01*
X150149713Y-111829645D01*
X150150285Y-111173235D01*
X149899617Y-110566571D01*
X149435870Y-110102014D01*
X148829645Y-109850287D01*
X148173235Y-109849715D01*
X147566571Y-110100383D01*
X147102014Y-110564130D01*
X146850287Y-111170355D01*
X146849715Y-111826765D01*
X144149715Y-111826765D01*
X144150285Y-111173235D01*
X143899617Y-110566571D01*
X143435870Y-110102014D01*
X142829645Y-109850287D01*
X142173235Y-109849715D01*
X141566571Y-110100383D01*
X141102014Y-110564130D01*
X140850287Y-111170355D01*
X140849715Y-111826765D01*
X136666652Y-111826765D01*
X136666652Y-111200000D01*
X136607382Y-110885009D01*
X136421223Y-110595709D01*
X136137176Y-110401628D01*
X135800000Y-110333348D01*
X134200000Y-110333348D01*
X133885009Y-110392618D01*
X133595709Y-110578777D01*
X133401628Y-110862824D01*
X133333348Y-111200000D01*
X131413634Y-111200000D01*
X131367384Y-111088068D01*
X130914317Y-110634210D01*
X130322053Y-110388280D01*
X129680760Y-110387721D01*
X129088068Y-110632616D01*
X128634210Y-111085683D01*
X128388280Y-111677947D01*
X128387721Y-112319240D01*
X56925000Y-112319240D01*
X56925000Y-110087675D01*
X84850000Y-110087675D01*
X84850000Y-110152325D01*
X84975599Y-110783753D01*
X85333274Y-111319051D01*
X85868572Y-111676726D01*
X86500000Y-111802325D01*
X87131428Y-111676726D01*
X87666726Y-111319051D01*
X88024401Y-110783753D01*
X88150000Y-110152325D01*
X88150000Y-110087675D01*
X88024401Y-109456247D01*
X87666726Y-108920949D01*
X87131428Y-108563274D01*
X86500000Y-108437675D01*
X85868572Y-108563274D01*
X85333274Y-108920949D01*
X84975599Y-109456247D01*
X84850000Y-110087675D01*
X56925000Y-110087675D01*
X56925000Y-108319240D01*
X92387721Y-108319240D01*
X92632616Y-108911932D01*
X92970287Y-109250192D01*
X92634210Y-109585683D01*
X92388280Y-110177947D01*
X92387721Y-110819240D01*
X92632616Y-111411932D01*
X93085683Y-111865790D01*
X93677947Y-112111720D01*
X94319240Y-112112279D01*
X94911932Y-111867384D01*
X95365790Y-111414317D01*
X95611720Y-110822053D01*
X95612279Y-110180760D01*
X95367384Y-109588068D01*
X95029713Y-109249808D01*
X95365790Y-108914317D01*
X95611720Y-108322053D01*
X95612279Y-107680760D01*
X95413634Y-107200000D01*
X99333348Y-107200000D01*
X99333348Y-108800000D01*
X99392618Y-109114991D01*
X99578777Y-109404291D01*
X99862824Y-109598372D01*
X100200000Y-109666652D01*
X101800000Y-109666652D01*
X102114991Y-109607382D01*
X102404291Y-109421223D01*
X102598372Y-109137176D01*
X102661231Y-108826765D01*
X169849715Y-108826765D01*
X170100383Y-109433429D01*
X170564130Y-109897986D01*
X171170355Y-110149713D01*
X171826765Y-110150285D01*
X172433429Y-109899617D01*
X172897986Y-109435870D01*
X173149713Y-108829645D01*
X173150285Y-108173235D01*
X172899617Y-107566571D01*
X172435870Y-107102014D01*
X171829645Y-106850287D01*
X171173235Y-106849715D01*
X170566571Y-107100383D01*
X170102014Y-107564130D01*
X169850287Y-108170355D01*
X169849715Y-108826765D01*
X102661231Y-108826765D01*
X102666652Y-108800000D01*
X102666652Y-107200000D01*
X102607382Y-106885009D01*
X102421223Y-106595709D01*
X102137176Y-106401628D01*
X101800000Y-106333348D01*
X100200000Y-106333348D01*
X99885009Y-106392618D01*
X99595709Y-106578777D01*
X99401628Y-106862824D01*
X99333348Y-107200000D01*
X95413634Y-107200000D01*
X95367384Y-107088068D01*
X94914317Y-106634210D01*
X94322053Y-106388280D01*
X93680760Y-106387721D01*
X93088068Y-106632616D01*
X92634210Y-107085683D01*
X92388280Y-107677947D01*
X92387721Y-108319240D01*
X56925000Y-108319240D01*
X56925000Y-106319240D01*
X128387721Y-106319240D01*
X128632616Y-106911932D01*
X129085683Y-107365790D01*
X129677947Y-107611720D01*
X130319240Y-107612279D01*
X130911932Y-107367384D01*
X131365790Y-106914317D01*
X131611720Y-106322053D01*
X131612175Y-105800000D01*
X188933348Y-105800000D01*
X188933348Y-108200000D01*
X188992618Y-108514991D01*
X189178777Y-108804291D01*
X189462824Y-108998372D01*
X189800000Y-109066652D01*
X192200000Y-109066652D01*
X192514991Y-109007382D01*
X192804291Y-108821223D01*
X192998372Y-108537176D01*
X193066652Y-108200000D01*
X193066652Y-107405981D01*
X196449645Y-107405981D01*
X196761081Y-108159715D01*
X197337252Y-108736892D01*
X198090441Y-109049643D01*
X198905981Y-109050355D01*
X199659715Y-108738919D01*
X200236892Y-108162748D01*
X200549643Y-107409559D01*
X200549715Y-107326765D01*
X203349715Y-107326765D01*
X203600383Y-107933429D01*
X204064130Y-108397986D01*
X204670355Y-108649713D01*
X205326765Y-108650285D01*
X205933429Y-108399617D01*
X206397986Y-107935870D01*
X206649713Y-107329645D01*
X206650285Y-106673235D01*
X206399617Y-106066571D01*
X205935870Y-105602014D01*
X205329645Y-105350287D01*
X204673235Y-105349715D01*
X204066571Y-105600383D01*
X203602014Y-106064130D01*
X203350287Y-106670355D01*
X203349715Y-107326765D01*
X200549715Y-107326765D01*
X200550355Y-106594019D01*
X200238919Y-105840285D01*
X199662748Y-105263108D01*
X198909559Y-104950357D01*
X198094019Y-104949645D01*
X197340285Y-105261081D01*
X196763108Y-105837252D01*
X196450357Y-106590441D01*
X196449645Y-107405981D01*
X193066652Y-107405981D01*
X193066652Y-105800000D01*
X193007382Y-105485009D01*
X192821223Y-105195709D01*
X192537176Y-105001628D01*
X192200000Y-104933348D01*
X189800000Y-104933348D01*
X189485009Y-104992618D01*
X189195709Y-105178777D01*
X189001628Y-105462824D01*
X188933348Y-105800000D01*
X131612175Y-105800000D01*
X131612279Y-105680760D01*
X131367384Y-105088068D01*
X130914317Y-104634210D01*
X130322053Y-104388280D01*
X129680760Y-104387721D01*
X129088068Y-104632616D01*
X128634210Y-105085683D01*
X128388280Y-105677947D01*
X128387721Y-106319240D01*
X56925000Y-106319240D01*
X56925000Y-100319240D01*
X69387721Y-100319240D01*
X69632616Y-100911932D01*
X69970287Y-101250192D01*
X69634210Y-101585683D01*
X69388280Y-102177947D01*
X69387721Y-102819240D01*
X69632616Y-103411932D01*
X70085683Y-103865790D01*
X70677947Y-104111720D01*
X71319240Y-104112279D01*
X71911932Y-103867384D01*
X72365790Y-103414317D01*
X72609763Y-102826765D01*
X77349715Y-102826765D01*
X77600383Y-103433429D01*
X78064130Y-103897986D01*
X78670355Y-104149713D01*
X79326765Y-104150285D01*
X79933429Y-103899617D01*
X80020097Y-103813100D01*
X80078777Y-103904291D01*
X80362824Y-104098372D01*
X80700000Y-104166652D01*
X82300000Y-104166652D01*
X82614991Y-104107382D01*
X82904291Y-103921223D01*
X83098372Y-103637176D01*
X83166652Y-103300000D01*
X83166652Y-102826765D01*
X84849715Y-102826765D01*
X85100383Y-103433429D01*
X85564130Y-103897986D01*
X86170355Y-104149713D01*
X86826765Y-104150285D01*
X87433429Y-103899617D01*
X87485461Y-103847675D01*
X140850000Y-103847675D01*
X140850000Y-103912325D01*
X140975599Y-104543753D01*
X141333274Y-105079051D01*
X141868572Y-105436726D01*
X142500000Y-105562325D01*
X143131428Y-105436726D01*
X143666726Y-105079051D01*
X144024401Y-104543753D01*
X144150000Y-103912325D01*
X144150000Y-103847675D01*
X146850000Y-103847675D01*
X146850000Y-103912325D01*
X146975599Y-104543753D01*
X147333274Y-105079051D01*
X147868572Y-105436726D01*
X148500000Y-105562325D01*
X149131428Y-105436726D01*
X149666726Y-105079051D01*
X150024401Y-104543753D01*
X150150000Y-103912325D01*
X150150000Y-103847675D01*
X150145841Y-103826765D01*
X152849715Y-103826765D01*
X153100383Y-104433429D01*
X153564130Y-104897986D01*
X154170355Y-105149713D01*
X154826765Y-105150285D01*
X154827455Y-105150000D01*
X173500000Y-105150000D01*
X174131428Y-105024401D01*
X174666726Y-104666726D01*
X175456726Y-103876726D01*
X175814402Y-103341427D01*
X175940000Y-102710000D01*
X175940000Y-100369838D01*
X175814401Y-99738410D01*
X175655101Y-99500000D01*
X202813756Y-99500000D01*
X202916519Y-100016623D01*
X203209162Y-100454594D01*
X203647133Y-100747237D01*
X204163756Y-100850000D01*
X205236244Y-100850000D01*
X205752867Y-100747237D01*
X206190838Y-100454594D01*
X206483481Y-100016623D01*
X206586244Y-99500000D01*
X206613756Y-99500000D01*
X206716519Y-100016623D01*
X207009162Y-100454594D01*
X207447133Y-100747237D01*
X207963756Y-100850000D01*
X209036244Y-100850000D01*
X209552867Y-100747237D01*
X209990838Y-100454594D01*
X210283481Y-100016623D01*
X210386244Y-99500000D01*
X210283481Y-98983377D01*
X209990838Y-98545406D01*
X209552867Y-98252763D01*
X209036244Y-98150000D01*
X207963756Y-98150000D01*
X207447133Y-98252763D01*
X207009162Y-98545406D01*
X206716519Y-98983377D01*
X206613756Y-99500000D01*
X206586244Y-99500000D01*
X206483481Y-98983377D01*
X206190838Y-98545406D01*
X205752867Y-98252763D01*
X205236244Y-98150000D01*
X204163756Y-98150000D01*
X203647133Y-98252763D01*
X203209162Y-98545406D01*
X202916519Y-98983377D01*
X202813756Y-99500000D01*
X175655101Y-99500000D01*
X175456726Y-99203112D01*
X174921428Y-98845437D01*
X174290000Y-98719838D01*
X173658572Y-98845437D01*
X173123274Y-99203112D01*
X173020000Y-99357672D01*
X172916726Y-99203112D01*
X172381428Y-98845437D01*
X171750000Y-98719838D01*
X171118572Y-98845437D01*
X170705637Y-99121352D01*
X170631223Y-99005709D01*
X170347176Y-98811628D01*
X170010000Y-98743348D01*
X168410000Y-98743348D01*
X168095009Y-98802618D01*
X167805709Y-98988777D01*
X167611628Y-99272824D01*
X167543348Y-99610000D01*
X167543348Y-101850000D01*
X154500292Y-101850000D01*
X154173235Y-101849715D01*
X153566571Y-102100383D01*
X153102014Y-102564130D01*
X152850287Y-103170355D01*
X152849715Y-103826765D01*
X150145841Y-103826765D01*
X150024401Y-103216247D01*
X149666726Y-102680949D01*
X149131428Y-102323274D01*
X148500000Y-102197675D01*
X147868572Y-102323274D01*
X147333274Y-102680949D01*
X146975599Y-103216247D01*
X146850000Y-103847675D01*
X144150000Y-103847675D01*
X144024401Y-103216247D01*
X143666726Y-102680949D01*
X143131428Y-102323274D01*
X142500000Y-102197675D01*
X141868572Y-102323274D01*
X141333274Y-102680949D01*
X140975599Y-103216247D01*
X140850000Y-103847675D01*
X87485461Y-103847675D01*
X87897986Y-103435870D01*
X88149713Y-102829645D01*
X88150285Y-102173235D01*
X87899617Y-101566571D01*
X87435870Y-101102014D01*
X86829645Y-100850287D01*
X86173235Y-100849715D01*
X85566571Y-101100383D01*
X85102014Y-101564130D01*
X84850287Y-102170355D01*
X84849715Y-102826765D01*
X83166652Y-102826765D01*
X83166652Y-101700000D01*
X83107382Y-101385009D01*
X82921223Y-101095709D01*
X82637176Y-100901628D01*
X82300000Y-100833348D01*
X80700000Y-100833348D01*
X80385009Y-100892618D01*
X80095709Y-101078777D01*
X80021334Y-101187628D01*
X79935870Y-101102014D01*
X79329645Y-100850287D01*
X78673235Y-100849715D01*
X78066571Y-101100383D01*
X77602014Y-101564130D01*
X77350287Y-102170355D01*
X77349715Y-102826765D01*
X72609763Y-102826765D01*
X72611720Y-102822053D01*
X72612279Y-102180760D01*
X72367384Y-101588068D01*
X72029713Y-101249808D01*
X72365790Y-100914317D01*
X72611720Y-100322053D01*
X72611722Y-100319240D01*
X128387721Y-100319240D01*
X128632616Y-100911932D01*
X129085683Y-101365790D01*
X129677947Y-101611720D01*
X130319240Y-101612279D01*
X130911932Y-101367384D01*
X131365790Y-100914317D01*
X131454782Y-100700000D01*
X131833348Y-100700000D01*
X131833348Y-102300000D01*
X131892618Y-102614991D01*
X132078777Y-102904291D01*
X132362824Y-103098372D01*
X132700000Y-103166652D01*
X134300000Y-103166652D01*
X134614991Y-103107382D01*
X134904291Y-102921223D01*
X134978666Y-102812372D01*
X135064130Y-102897986D01*
X135670355Y-103149713D01*
X136326765Y-103150285D01*
X136933429Y-102899617D01*
X137397986Y-102435870D01*
X137649713Y-101829645D01*
X137650285Y-101173235D01*
X137399617Y-100566571D01*
X136935870Y-100102014D01*
X136329645Y-99850287D01*
X135673235Y-99849715D01*
X135066571Y-100100383D01*
X134979903Y-100186900D01*
X134921223Y-100095709D01*
X134637176Y-99901628D01*
X134300000Y-99833348D01*
X132700000Y-99833348D01*
X132385009Y-99892618D01*
X132095709Y-100078777D01*
X131901628Y-100362824D01*
X131833348Y-100700000D01*
X131454782Y-100700000D01*
X131611720Y-100322053D01*
X131612279Y-99680760D01*
X131367384Y-99088068D01*
X130914317Y-98634210D01*
X130322053Y-98388280D01*
X129680760Y-98387721D01*
X129088068Y-98632616D01*
X128634210Y-99085683D01*
X128388280Y-99677947D01*
X128387721Y-100319240D01*
X72611722Y-100319240D01*
X72612279Y-99680760D01*
X72367384Y-99088068D01*
X71914317Y-98634210D01*
X71322053Y-98388280D01*
X70680760Y-98387721D01*
X70088068Y-98632616D01*
X69634210Y-99085683D01*
X69388280Y-99677947D01*
X69387721Y-100319240D01*
X56925000Y-100319240D01*
X56925000Y-97200000D01*
X158333348Y-97200000D01*
X158333348Y-98800000D01*
X158392618Y-99114991D01*
X158578777Y-99404291D01*
X158862824Y-99598372D01*
X159200000Y-99666652D01*
X160800000Y-99666652D01*
X161114991Y-99607382D01*
X161404291Y-99421223D01*
X161598372Y-99137176D01*
X161666652Y-98800000D01*
X161666652Y-97200000D01*
X161607382Y-96885009D01*
X161421223Y-96595709D01*
X161137176Y-96401628D01*
X160800000Y-96333348D01*
X159200000Y-96333348D01*
X158885009Y-96392618D01*
X158595709Y-96578777D01*
X158401628Y-96862824D01*
X158333348Y-97200000D01*
X56925000Y-97200000D01*
X56925000Y-93500000D01*
X60613756Y-93500000D01*
X60716519Y-94016623D01*
X61009162Y-94454594D01*
X61447133Y-94747237D01*
X61963756Y-94850000D01*
X63036244Y-94850000D01*
X63552867Y-94747237D01*
X63990838Y-94454594D01*
X64283481Y-94016623D01*
X64386244Y-93500000D01*
X64413756Y-93500000D01*
X64516519Y-94016623D01*
X64809162Y-94454594D01*
X65247133Y-94747237D01*
X65763756Y-94850000D01*
X66836244Y-94850000D01*
X67352867Y-94747237D01*
X67790838Y-94454594D01*
X67881278Y-94319240D01*
X128387721Y-94319240D01*
X128632616Y-94911932D01*
X129085683Y-95365790D01*
X129677947Y-95611720D01*
X130319240Y-95612279D01*
X130911932Y-95367384D01*
X131365790Y-94914317D01*
X131611720Y-94322053D01*
X131612279Y-93680760D01*
X131367384Y-93088068D01*
X130914317Y-92634210D01*
X130322053Y-92388280D01*
X129680760Y-92387721D01*
X129088068Y-92632616D01*
X128634210Y-93085683D01*
X128388280Y-93677947D01*
X128387721Y-94319240D01*
X67881278Y-94319240D01*
X68083481Y-94016623D01*
X68186244Y-93500000D01*
X68083481Y-92983377D01*
X67790838Y-92545406D01*
X67352867Y-92252763D01*
X66836244Y-92150000D01*
X65763756Y-92150000D01*
X65247133Y-92252763D01*
X64809162Y-92545406D01*
X64516519Y-92983377D01*
X64413756Y-93500000D01*
X64386244Y-93500000D01*
X64283481Y-92983377D01*
X63990838Y-92545406D01*
X63552867Y-92252763D01*
X63036244Y-92150000D01*
X61963756Y-92150000D01*
X61447133Y-92252763D01*
X61009162Y-92545406D01*
X60716519Y-92983377D01*
X60613756Y-93500000D01*
X56925000Y-93500000D01*
X56925000Y-89819240D01*
X69387721Y-89819240D01*
X69632616Y-90411932D01*
X69970287Y-90750192D01*
X69634210Y-91085683D01*
X69388280Y-91677947D01*
X69387721Y-92319240D01*
X69632616Y-92911932D01*
X70085683Y-93365790D01*
X70677947Y-93611720D01*
X71319240Y-93612279D01*
X71911932Y-93367384D01*
X72365790Y-92914317D01*
X72611720Y-92322053D01*
X72612262Y-91700000D01*
X131833348Y-91700000D01*
X131833348Y-93300000D01*
X131892618Y-93614991D01*
X132078777Y-93904291D01*
X132362824Y-94098372D01*
X132700000Y-94166652D01*
X134300000Y-94166652D01*
X134614991Y-94107382D01*
X134904291Y-93921223D01*
X134978666Y-93812372D01*
X135064130Y-93897986D01*
X135670355Y-94149713D01*
X136326765Y-94150285D01*
X136933429Y-93899617D01*
X137397986Y-93435870D01*
X137649713Y-92829645D01*
X137650285Y-92173235D01*
X137399617Y-91566571D01*
X136935870Y-91102014D01*
X136329645Y-90850287D01*
X135673235Y-90849715D01*
X135066571Y-91100383D01*
X134979903Y-91186900D01*
X134921223Y-91095709D01*
X134637176Y-90901628D01*
X134300000Y-90833348D01*
X132700000Y-90833348D01*
X132385009Y-90892618D01*
X132095709Y-91078777D01*
X131901628Y-91362824D01*
X131833348Y-91700000D01*
X72612262Y-91700000D01*
X72612279Y-91680760D01*
X72367384Y-91088068D01*
X72029713Y-90749808D01*
X72365790Y-90414317D01*
X72609763Y-89826765D01*
X77349715Y-89826765D01*
X77600383Y-90433429D01*
X78064130Y-90897986D01*
X78670355Y-91149713D01*
X79326765Y-91150285D01*
X79933429Y-90899617D01*
X80020097Y-90813100D01*
X80078777Y-90904291D01*
X80362824Y-91098372D01*
X80700000Y-91166652D01*
X82300000Y-91166652D01*
X82614991Y-91107382D01*
X82904291Y-90921223D01*
X83098372Y-90637176D01*
X83166652Y-90300000D01*
X83166652Y-89826765D01*
X84849715Y-89826765D01*
X85100383Y-90433429D01*
X85564130Y-90897986D01*
X86170355Y-91149713D01*
X86826765Y-91150285D01*
X87433429Y-90899617D01*
X87897986Y-90435870D01*
X88042569Y-90087675D01*
X140850000Y-90087675D01*
X140850000Y-90152325D01*
X140975599Y-90783753D01*
X141333274Y-91319051D01*
X141868572Y-91676726D01*
X142500000Y-91802325D01*
X143131428Y-91676726D01*
X143666726Y-91319051D01*
X144024401Y-90783753D01*
X144150000Y-90152325D01*
X144150000Y-90087675D01*
X146850000Y-90087675D01*
X146850000Y-90152325D01*
X146975599Y-90783753D01*
X147333274Y-91319051D01*
X147868572Y-91676726D01*
X148500000Y-91802325D01*
X149131428Y-91676726D01*
X149666726Y-91319051D01*
X149995661Y-90826765D01*
X152849715Y-90826765D01*
X153100383Y-91433429D01*
X153564130Y-91897986D01*
X154170355Y-92149713D01*
X154826765Y-92150285D01*
X154827455Y-92150000D01*
X167679315Y-92150000D01*
X167560000Y-92749838D01*
X167560000Y-93630162D01*
X167685599Y-94261590D01*
X168043274Y-94796888D01*
X168578572Y-95154563D01*
X169210000Y-95280162D01*
X169841428Y-95154563D01*
X170376726Y-94796888D01*
X170480000Y-94642328D01*
X170583274Y-94796888D01*
X171118572Y-95154563D01*
X171750000Y-95280162D01*
X172381428Y-95154563D01*
X172916726Y-94796888D01*
X173020000Y-94642328D01*
X173123274Y-94796888D01*
X173658572Y-95154563D01*
X174290000Y-95280162D01*
X174921428Y-95154563D01*
X175456726Y-94796888D01*
X175560000Y-94642328D01*
X175663274Y-94796888D01*
X176198572Y-95154563D01*
X176830000Y-95280162D01*
X177461428Y-95154563D01*
X177996726Y-94796888D01*
X178354401Y-94261590D01*
X178480000Y-93630162D01*
X178480000Y-90830000D01*
X178354401Y-90198572D01*
X178107892Y-89829645D01*
X177996726Y-89663273D01*
X177666726Y-89333274D01*
X177625307Y-89305599D01*
X177131428Y-88975599D01*
X176500000Y-88850000D01*
X154500292Y-88850000D01*
X154173235Y-88849715D01*
X153566571Y-89100383D01*
X153102014Y-89564130D01*
X152850287Y-90170355D01*
X152849715Y-90826765D01*
X149995661Y-90826765D01*
X150024401Y-90783753D01*
X150150000Y-90152325D01*
X150150000Y-90087675D01*
X150024401Y-89456247D01*
X149666726Y-88920949D01*
X149131428Y-88563274D01*
X148500000Y-88437675D01*
X147868572Y-88563274D01*
X147333274Y-88920949D01*
X146975599Y-89456247D01*
X146850000Y-90087675D01*
X144150000Y-90087675D01*
X144024401Y-89456247D01*
X143666726Y-88920949D01*
X143131428Y-88563274D01*
X142500000Y-88437675D01*
X141868572Y-88563274D01*
X141333274Y-88920949D01*
X140975599Y-89456247D01*
X140850000Y-90087675D01*
X88042569Y-90087675D01*
X88149713Y-89829645D01*
X88150285Y-89173235D01*
X87899617Y-88566571D01*
X87435870Y-88102014D01*
X86829645Y-87850287D01*
X86173235Y-87849715D01*
X85566571Y-88100383D01*
X85102014Y-88564130D01*
X84850287Y-89170355D01*
X84849715Y-89826765D01*
X83166652Y-89826765D01*
X83166652Y-88700000D01*
X83107382Y-88385009D01*
X82921223Y-88095709D01*
X82637176Y-87901628D01*
X82300000Y-87833348D01*
X80700000Y-87833348D01*
X80385009Y-87892618D01*
X80095709Y-88078777D01*
X80021334Y-88187628D01*
X79935870Y-88102014D01*
X79329645Y-87850287D01*
X78673235Y-87849715D01*
X78066571Y-88100383D01*
X77602014Y-88564130D01*
X77350287Y-89170355D01*
X77349715Y-89826765D01*
X72609763Y-89826765D01*
X72611720Y-89822053D01*
X72612279Y-89180760D01*
X72367384Y-88588068D01*
X71914317Y-88134210D01*
X71322053Y-87888280D01*
X70680760Y-87887721D01*
X70088068Y-88132616D01*
X69634210Y-88585683D01*
X69388280Y-89177947D01*
X69387721Y-89819240D01*
X56925000Y-89819240D01*
X56925000Y-86319240D01*
X128387721Y-86319240D01*
X128632616Y-86911932D01*
X129085683Y-87365790D01*
X129677947Y-87611720D01*
X130319240Y-87612279D01*
X130911932Y-87367384D01*
X131365790Y-86914317D01*
X131611720Y-86322053D01*
X131612151Y-85826765D01*
X172349715Y-85826765D01*
X172600383Y-86433429D01*
X173064130Y-86897986D01*
X173670355Y-87149713D01*
X174326765Y-87150285D01*
X174933429Y-86899617D01*
X175397986Y-86435870D01*
X175649713Y-85829645D01*
X175649738Y-85800000D01*
X188933348Y-85800000D01*
X188933348Y-88200000D01*
X188992618Y-88514991D01*
X189178777Y-88804291D01*
X189462824Y-88998372D01*
X189800000Y-89066652D01*
X192200000Y-89066652D01*
X192514991Y-89007382D01*
X192804291Y-88821223D01*
X192998372Y-88537176D01*
X193066652Y-88200000D01*
X193066652Y-87405981D01*
X196449645Y-87405981D01*
X196761081Y-88159715D01*
X197337252Y-88736892D01*
X198090441Y-89049643D01*
X198905981Y-89050355D01*
X199659715Y-88738919D01*
X200236892Y-88162748D01*
X200549643Y-87409559D01*
X200549715Y-87326765D01*
X203349715Y-87326765D01*
X203600383Y-87933429D01*
X204064130Y-88397986D01*
X204670355Y-88649713D01*
X205326765Y-88650285D01*
X205933429Y-88399617D01*
X206397986Y-87935870D01*
X206649713Y-87329645D01*
X206650285Y-86673235D01*
X206399617Y-86066571D01*
X205935870Y-85602014D01*
X205329645Y-85350287D01*
X204673235Y-85349715D01*
X204066571Y-85600383D01*
X203602014Y-86064130D01*
X203350287Y-86670355D01*
X203349715Y-87326765D01*
X200549715Y-87326765D01*
X200550355Y-86594019D01*
X200238919Y-85840285D01*
X199662748Y-85263108D01*
X198909559Y-84950357D01*
X198094019Y-84949645D01*
X197340285Y-85261081D01*
X196763108Y-85837252D01*
X196450357Y-86590441D01*
X196449645Y-87405981D01*
X193066652Y-87405981D01*
X193066652Y-85800000D01*
X193007382Y-85485009D01*
X192821223Y-85195709D01*
X192537176Y-85001628D01*
X192200000Y-84933348D01*
X189800000Y-84933348D01*
X189485009Y-84992618D01*
X189195709Y-85178777D01*
X189001628Y-85462824D01*
X188933348Y-85800000D01*
X175649738Y-85800000D01*
X175650285Y-85173235D01*
X175399617Y-84566571D01*
X174935870Y-84102014D01*
X174329645Y-83850287D01*
X173673235Y-83849715D01*
X173066571Y-84100383D01*
X172602014Y-84564130D01*
X172350287Y-85170355D01*
X172349715Y-85826765D01*
X131612151Y-85826765D01*
X131612279Y-85680760D01*
X131367384Y-85088068D01*
X130914317Y-84634210D01*
X130322053Y-84388280D01*
X129680760Y-84387721D01*
X129088068Y-84632616D01*
X128634210Y-85085683D01*
X128388280Y-85677947D01*
X128387721Y-86319240D01*
X56925000Y-86319240D01*
X56925000Y-81847675D01*
X84850000Y-81847675D01*
X84850000Y-81912325D01*
X84975599Y-82543753D01*
X85333274Y-83079051D01*
X85868572Y-83436726D01*
X86500000Y-83562325D01*
X87131428Y-83436726D01*
X87666726Y-83079051D01*
X88024401Y-82543753D01*
X88150000Y-81912325D01*
X88150000Y-81847675D01*
X88144344Y-81819240D01*
X92387721Y-81819240D01*
X92632616Y-82411932D01*
X92970287Y-82750192D01*
X92634210Y-83085683D01*
X92388280Y-83677947D01*
X92387721Y-84319240D01*
X92632616Y-84911932D01*
X93085683Y-85365790D01*
X93677947Y-85611720D01*
X94319240Y-85612279D01*
X94911932Y-85367384D01*
X95365790Y-84914317D01*
X95611720Y-84322053D01*
X95612279Y-83680760D01*
X95413634Y-83200000D01*
X99333348Y-83200000D01*
X99333348Y-84800000D01*
X99392618Y-85114991D01*
X99578777Y-85404291D01*
X99862824Y-85598372D01*
X100200000Y-85666652D01*
X101800000Y-85666652D01*
X102114991Y-85607382D01*
X102404291Y-85421223D01*
X102598372Y-85137176D01*
X102666652Y-84800000D01*
X102666652Y-83200000D01*
X102607382Y-82885009D01*
X102569904Y-82826765D01*
X140849715Y-82826765D01*
X141100383Y-83433429D01*
X141564130Y-83897986D01*
X142170355Y-84149713D01*
X142826765Y-84150285D01*
X143433429Y-83899617D01*
X143897986Y-83435870D01*
X144149713Y-82829645D01*
X144149715Y-82826765D01*
X146849715Y-82826765D01*
X147100383Y-83433429D01*
X147564130Y-83897986D01*
X148170355Y-84149713D01*
X148826765Y-84150285D01*
X149433429Y-83899617D01*
X149897986Y-83435870D01*
X150149713Y-82829645D01*
X150150285Y-82173235D01*
X149899617Y-81566571D01*
X149435870Y-81102014D01*
X149190194Y-81000000D01*
X164697675Y-81000000D01*
X164823274Y-81631428D01*
X165180949Y-82166726D01*
X165716247Y-82524401D01*
X166347675Y-82650000D01*
X166412325Y-82650000D01*
X167043753Y-82524401D01*
X167579051Y-82166726D01*
X167936726Y-81631428D01*
X167997327Y-81326765D01*
X172349715Y-81326765D01*
X172600383Y-81933429D01*
X173064130Y-82397986D01*
X173670355Y-82649713D01*
X174326765Y-82650285D01*
X174933429Y-82399617D01*
X175397986Y-81935870D01*
X175649713Y-81329645D01*
X175650285Y-80673235D01*
X175399617Y-80066571D01*
X174935870Y-79602014D01*
X174329645Y-79350287D01*
X173673235Y-79349715D01*
X173066571Y-79600383D01*
X172602014Y-80064130D01*
X172350287Y-80670355D01*
X172349715Y-81326765D01*
X167997327Y-81326765D01*
X168062325Y-81000000D01*
X167936726Y-80368572D01*
X167579051Y-79833274D01*
X167043753Y-79475599D01*
X166412325Y-79350000D01*
X166347675Y-79350000D01*
X165716247Y-79475599D01*
X165180949Y-79833274D01*
X164823274Y-80368572D01*
X164697675Y-81000000D01*
X149190194Y-81000000D01*
X148829645Y-80850287D01*
X148173235Y-80849715D01*
X147566571Y-81100383D01*
X147102014Y-81564130D01*
X146850287Y-82170355D01*
X146849715Y-82826765D01*
X144149715Y-82826765D01*
X144150285Y-82173235D01*
X143899617Y-81566571D01*
X143435870Y-81102014D01*
X142829645Y-80850287D01*
X142173235Y-80849715D01*
X141566571Y-81100383D01*
X141102014Y-81564130D01*
X140850287Y-82170355D01*
X140849715Y-82826765D01*
X102569904Y-82826765D01*
X102421223Y-82595709D01*
X102137176Y-82401628D01*
X101800000Y-82333348D01*
X100200000Y-82333348D01*
X99885009Y-82392618D01*
X99595709Y-82578777D01*
X99401628Y-82862824D01*
X99333348Y-83200000D01*
X95413634Y-83200000D01*
X95367384Y-83088068D01*
X95029713Y-82749808D01*
X95365790Y-82414317D01*
X95611720Y-81822053D01*
X95612279Y-81180760D01*
X95367384Y-80588068D01*
X95099025Y-80319240D01*
X128387721Y-80319240D01*
X128632616Y-80911932D01*
X129085683Y-81365790D01*
X129677947Y-81611720D01*
X130319240Y-81612279D01*
X130911932Y-81367384D01*
X131365790Y-80914317D01*
X131611720Y-80322053D01*
X131612279Y-79680760D01*
X131413634Y-79200000D01*
X133333348Y-79200000D01*
X133333348Y-80800000D01*
X133392618Y-81114991D01*
X133578777Y-81404291D01*
X133862824Y-81598372D01*
X134200000Y-81666652D01*
X135800000Y-81666652D01*
X136114991Y-81607382D01*
X136404291Y-81421223D01*
X136598372Y-81137176D01*
X136666652Y-80800000D01*
X136666652Y-79200000D01*
X136607382Y-78885009D01*
X136421223Y-78595709D01*
X136137176Y-78401628D01*
X135800000Y-78333348D01*
X134200000Y-78333348D01*
X133885009Y-78392618D01*
X133595709Y-78578777D01*
X133401628Y-78862824D01*
X133333348Y-79200000D01*
X131413634Y-79200000D01*
X131367384Y-79088068D01*
X130914317Y-78634210D01*
X130322053Y-78388280D01*
X129680760Y-78387721D01*
X129088068Y-78632616D01*
X128634210Y-79085683D01*
X128388280Y-79677947D01*
X128387721Y-80319240D01*
X95099025Y-80319240D01*
X94914317Y-80134210D01*
X94322053Y-79888280D01*
X93680760Y-79887721D01*
X93088068Y-80132616D01*
X92634210Y-80585683D01*
X92388280Y-81177947D01*
X92387721Y-81819240D01*
X88144344Y-81819240D01*
X88024401Y-81216247D01*
X87666726Y-80680949D01*
X87131428Y-80323274D01*
X86500000Y-80197675D01*
X85868572Y-80323274D01*
X85333274Y-80680949D01*
X84975599Y-81216247D01*
X84850000Y-81847675D01*
X56925000Y-81847675D01*
X56925000Y-76200000D01*
X84833348Y-76200000D01*
X84833348Y-77800000D01*
X84892618Y-78114991D01*
X85078777Y-78404291D01*
X85362824Y-78598372D01*
X85700000Y-78666652D01*
X87300000Y-78666652D01*
X87614991Y-78607382D01*
X87904291Y-78421223D01*
X88098372Y-78137176D01*
X88166652Y-77800000D01*
X88166652Y-76326765D01*
X99349715Y-76326765D01*
X99600383Y-76933429D01*
X100064130Y-77397986D01*
X100670355Y-77649713D01*
X101326765Y-77650285D01*
X101933429Y-77399617D01*
X102397986Y-76935870D01*
X102649713Y-76329645D01*
X102650000Y-76000000D01*
X106937675Y-76000000D01*
X107063274Y-76631428D01*
X107420949Y-77166726D01*
X107956247Y-77524401D01*
X108587675Y-77650000D01*
X108652325Y-77650000D01*
X109283753Y-77524401D01*
X109819051Y-77166726D01*
X110176726Y-76631428D01*
X110302325Y-76000000D01*
X110176726Y-75368572D01*
X109819051Y-74833274D01*
X109283753Y-74475599D01*
X108652325Y-74350000D01*
X108587675Y-74350000D01*
X107956247Y-74475599D01*
X107420949Y-74833274D01*
X107063274Y-75368572D01*
X106937675Y-76000000D01*
X102650000Y-76000000D01*
X102650285Y-75673235D01*
X102399617Y-75066571D01*
X101935870Y-74602014D01*
X101329645Y-74350287D01*
X100673235Y-74349715D01*
X100066571Y-74600383D01*
X99602014Y-75064130D01*
X99350287Y-75670355D01*
X99349715Y-76326765D01*
X88166652Y-76326765D01*
X88166652Y-76200000D01*
X88107382Y-75885009D01*
X87921223Y-75595709D01*
X87637176Y-75401628D01*
X87300000Y-75333348D01*
X85700000Y-75333348D01*
X85385009Y-75392618D01*
X85095709Y-75578777D01*
X84901628Y-75862824D01*
X84833348Y-76200000D01*
X56925000Y-76200000D01*
X56925000Y-73700000D01*
X138333348Y-73700000D01*
X138333348Y-75300000D01*
X138392618Y-75614991D01*
X138578777Y-75904291D01*
X138862824Y-76098372D01*
X139200000Y-76166652D01*
X140800000Y-76166652D01*
X141114991Y-76107382D01*
X141404291Y-75921223D01*
X141598372Y-75637176D01*
X141666652Y-75300000D01*
X141666652Y-73700000D01*
X141607382Y-73385009D01*
X141421223Y-73095709D01*
X141137176Y-72901628D01*
X140800000Y-72833348D01*
X139200000Y-72833348D01*
X138885009Y-72892618D01*
X138595709Y-73078777D01*
X138401628Y-73362824D01*
X138333348Y-73700000D01*
X56925000Y-73700000D01*
X56925000Y-72428554D01*
X58103554Y-71250000D01*
X68000000Y-71250000D01*
X68097264Y-71230304D01*
X68176777Y-71176777D01*
X71176777Y-68176777D01*
X71231625Y-68094073D01*
X71250000Y-68000000D01*
X71250000Y-61103554D01*
X74103554Y-58250000D01*
X174000000Y-58250000D01*
X174097264Y-58230304D01*
X174176777Y-58176777D01*
X176176777Y-56176777D01*
X176231625Y-56094073D01*
X176250000Y-56000000D01*
X176250000Y-41434293D01*
X176411932Y-41367384D01*
X176865790Y-40914317D01*
X177111720Y-40322053D01*
X177112279Y-39680760D01*
X176867384Y-39088068D01*
X176414317Y-38634210D01*
X176250000Y-38565979D01*
X176250000Y-36434293D01*
X176411932Y-36367384D01*
X176865790Y-35914317D01*
X177111720Y-35322053D01*
X177111722Y-35319240D01*
X178887721Y-35319240D01*
X179132616Y-35911932D01*
X179585683Y-36365790D01*
X180177947Y-36611720D01*
X180819240Y-36612279D01*
X181411932Y-36367384D01*
X181865790Y-35914317D01*
X182111720Y-35322053D01*
X182112279Y-34680760D01*
X181867384Y-34088068D01*
X181414317Y-33634210D01*
X180822053Y-33388280D01*
X180180760Y-33387721D01*
X179588068Y-33632616D01*
X179134210Y-34085683D01*
X178888280Y-34677947D01*
X178887721Y-35319240D01*
X177111722Y-35319240D01*
X177112279Y-34680760D01*
X176867384Y-34088068D01*
X176414317Y-33634210D01*
X176250000Y-33565979D01*
X176250000Y-29103554D01*
X177428554Y-27925000D01*
X213571446Y-27925000D01*
X214075000Y-28428554D01*
M02*
