%TF.GenerationSoftware,KiCad,Pcbnew,4.0.7*%
%TF.CreationDate,2021-06-18T00:58:30+09:00*%
%TF.ProjectId,NuTube_MUSES_AMP_PCB_v2,4E75547562655F4D555345535F414D50,rev?*%
%TF.FileFunction,Legend,Bot*%
%FSLAX46Y46*%
G04 Gerber Fmt 4.6, Leading zero omitted, Abs format (unit mm)*
G04 Created by KiCad (PCBNEW 4.0.7) date 06/18/21 00:58:30*
%MOMM*%
%LPD*%
G01*
G04 APERTURE LIST*
%ADD10C,0.100000*%
%ADD11C,0.300000*%
%ADD12C,0.150000*%
%ADD13C,0.120000*%
G04 APERTURE END LIST*
D10*
D11*
X132928572Y-127178571D02*
X132928572Y-128250000D01*
X133000000Y-128464286D01*
X133142857Y-128607143D01*
X133357143Y-128678571D01*
X133500000Y-128678571D01*
X131500000Y-128678571D02*
X132214286Y-128678571D01*
X132214286Y-127178571D01*
X130142857Y-128535714D02*
X130214286Y-128607143D01*
X130428572Y-128678571D01*
X130571429Y-128678571D01*
X130785714Y-128607143D01*
X130928572Y-128464286D01*
X131000000Y-128321429D01*
X131071429Y-128035714D01*
X131071429Y-127821429D01*
X131000000Y-127535714D01*
X130928572Y-127392857D01*
X130785714Y-127250000D01*
X130571429Y-127178571D01*
X130428572Y-127178571D01*
X130214286Y-127250000D01*
X130142857Y-127321429D01*
X129071429Y-127178571D02*
X129071429Y-128250000D01*
X129142857Y-128464286D01*
X129285714Y-128607143D01*
X129500000Y-128678571D01*
X129642857Y-128678571D01*
X127642857Y-128678571D02*
X128357143Y-128678571D01*
X128357143Y-127178571D01*
X126285714Y-128535714D02*
X126357143Y-128607143D01*
X126571429Y-128678571D01*
X126714286Y-128678571D01*
X126928571Y-128607143D01*
X127071429Y-128464286D01*
X127142857Y-128321429D01*
X127214286Y-128035714D01*
X127214286Y-127821429D01*
X127142857Y-127535714D01*
X127071429Y-127392857D01*
X126928571Y-127250000D01*
X126714286Y-127178571D01*
X126571429Y-127178571D01*
X126357143Y-127250000D01*
X126285714Y-127321429D01*
X125214286Y-127178571D02*
X125214286Y-128250000D01*
X125285714Y-128464286D01*
X125428571Y-128607143D01*
X125642857Y-128678571D01*
X125785714Y-128678571D01*
X123785714Y-128678571D02*
X124500000Y-128678571D01*
X124500000Y-127178571D01*
X122428571Y-128535714D02*
X122500000Y-128607143D01*
X122714286Y-128678571D01*
X122857143Y-128678571D01*
X123071428Y-128607143D01*
X123214286Y-128464286D01*
X123285714Y-128321429D01*
X123357143Y-128035714D01*
X123357143Y-127821429D01*
X123285714Y-127535714D01*
X123214286Y-127392857D01*
X123071428Y-127250000D01*
X122857143Y-127178571D01*
X122714286Y-127178571D01*
X122500000Y-127250000D01*
X122428571Y-127321429D01*
X121357143Y-127178571D02*
X121357143Y-128250000D01*
X121428571Y-128464286D01*
X121571428Y-128607143D01*
X121785714Y-128678571D01*
X121928571Y-128678571D01*
X119928571Y-128678571D02*
X120642857Y-128678571D01*
X120642857Y-127178571D01*
X118571428Y-128535714D02*
X118642857Y-128607143D01*
X118857143Y-128678571D01*
X119000000Y-128678571D01*
X119214285Y-128607143D01*
X119357143Y-128464286D01*
X119428571Y-128321429D01*
X119500000Y-128035714D01*
X119500000Y-127821429D01*
X119428571Y-127535714D01*
X119357143Y-127392857D01*
X119214285Y-127250000D01*
X119000000Y-127178571D01*
X118857143Y-127178571D01*
X118642857Y-127250000D01*
X118571428Y-127321429D01*
D12*
X142000000Y-130000000D02*
X42000000Y-130000000D01*
X142000000Y-30000000D02*
X142000000Y-130000000D01*
X142000000Y-30000000D02*
X42000000Y-30000000D01*
X42000000Y-30000000D02*
X142000000Y-30000000D01*
X42000000Y-130000000D02*
X42000000Y-30000000D01*
D13*
X117680000Y-108500000D02*
X117680000Y-107500000D01*
X116320000Y-107500000D02*
X116320000Y-108500000D01*
X116320000Y-91500000D02*
X116320000Y-92500000D01*
X117680000Y-92500000D02*
X117680000Y-91500000D01*
D12*
X125579443Y-109389943D02*
X125627062Y-109342324D01*
X125674681Y-109199467D01*
X125674681Y-109104229D01*
X125627062Y-108961371D01*
X125531824Y-108866133D01*
X125436586Y-108818514D01*
X125246110Y-108770895D01*
X125103252Y-108770895D01*
X124912776Y-108818514D01*
X124817538Y-108866133D01*
X124722300Y-108961371D01*
X124674681Y-109104229D01*
X124674681Y-109199467D01*
X124722300Y-109342324D01*
X124769919Y-109389943D01*
X124769919Y-109770895D02*
X124722300Y-109818514D01*
X124674681Y-109913752D01*
X124674681Y-110151848D01*
X124722300Y-110247086D01*
X124769919Y-110294705D01*
X124865157Y-110342324D01*
X124960395Y-110342324D01*
X125103252Y-110294705D01*
X125674681Y-109723276D01*
X125674681Y-110342324D01*
X124769919Y-110723276D02*
X124722300Y-110770895D01*
X124674681Y-110866133D01*
X124674681Y-111104229D01*
X124722300Y-111199467D01*
X124769919Y-111247086D01*
X124865157Y-111294705D01*
X124960395Y-111294705D01*
X125103252Y-111247086D01*
X125674681Y-110675657D01*
X125674681Y-111294705D01*
X117452381Y-104583334D02*
X116976190Y-104250000D01*
X117452381Y-104011905D02*
X116452381Y-104011905D01*
X116452381Y-104392858D01*
X116500000Y-104488096D01*
X116547619Y-104535715D01*
X116642857Y-104583334D01*
X116785714Y-104583334D01*
X116880952Y-104535715D01*
X116928571Y-104488096D01*
X116976190Y-104392858D01*
X116976190Y-104011905D01*
X116452381Y-104916667D02*
X116452381Y-105583334D01*
X117452381Y-105154762D01*
X117452381Y-94857143D02*
X116976190Y-94523809D01*
X117452381Y-94285714D02*
X116452381Y-94285714D01*
X116452381Y-94666667D01*
X116500000Y-94761905D01*
X116547619Y-94809524D01*
X116642857Y-94857143D01*
X116785714Y-94857143D01*
X116880952Y-94809524D01*
X116928571Y-94761905D01*
X116976190Y-94666667D01*
X116976190Y-94285714D01*
X117452381Y-95809524D02*
X117452381Y-95238095D01*
X117452381Y-95523809D02*
X116452381Y-95523809D01*
X116595238Y-95428571D01*
X116690476Y-95333333D01*
X116738095Y-95238095D01*
X117452381Y-96761905D02*
X117452381Y-96190476D01*
X117452381Y-96476190D02*
X116452381Y-96476190D01*
X116595238Y-96380952D01*
X116690476Y-96285714D01*
X116738095Y-96190476D01*
M02*
