%TF.GenerationSoftware,KiCad,Pcbnew,4.0.7*%
%TF.CreationDate,2021-06-18T00:58:30+09:00*%
%TF.ProjectId,NuTube_MUSES_AMP_PCB_v2,4E75547562655F4D555345535F414D50,rev?*%
%TF.FileFunction,Soldermask,Top*%
%FSLAX46Y46*%
G04 Gerber Fmt 4.6, Leading zero omitted, Abs format (unit mm)*
G04 Created by KiCad (PCBNEW 4.0.7) date 06/18/21 00:58:30*
%MOMM*%
%LPD*%
G01*
G04 APERTURE LIST*
%ADD10C,0.100000*%
%ADD11C,0.150000*%
%ADD12C,1.162000*%
%ADD13C,3.600000*%
%ADD14C,6.400000*%
%ADD15R,1.400000X1.000000*%
%ADD16R,1.200000X1.400000*%
%ADD17R,2.000000X2.000000*%
%ADD18C,2.000000*%
%ADD19R,2.400000X2.400000*%
%ADD20C,2.400000*%
%ADD21R,2.200000X2.700000*%
%ADD22R,2.700000X2.200000*%
%ADD23R,2.600000X2.600000*%
%ADD24O,2.600000X2.600000*%
%ADD25R,1.100000X2.700000*%
%ADD26R,2.100000X1.400000*%
%ADD27R,0.800000X1.600000*%
%ADD28C,3.400000*%
%ADD29O,1.800000X1.300000*%
%ADD30R,4.900000X1.300000*%
%ADD31O,2.400000X1.400000*%
%ADD32R,1.300000X1.600000*%
%ADD33R,1.600000X1.300000*%
%ADD34C,1.924000*%
%ADD35O,1.924000X3.448000*%
%ADD36R,1.400000X2.900000*%
%ADD37R,2.400000X4.400000*%
%ADD38R,2.000000X2.800000*%
%ADD39O,2.000000X2.800000*%
%ADD40R,1.150000X1.600000*%
%ADD41C,2.100000*%
G04 APERTURE END LIST*
D10*
D11*
X142000000Y-130000000D02*
X42000000Y-130000000D01*
X142000000Y-30000000D02*
X142000000Y-130000000D01*
X142000000Y-30000000D02*
X42000000Y-30000000D01*
X42000000Y-30000000D02*
X142000000Y-30000000D01*
X42000000Y-130000000D02*
X42000000Y-30000000D01*
D12*
X116500000Y-73000000D03*
X133500000Y-95000000D03*
X60500000Y-105500000D03*
X60500000Y-94500000D03*
X72750000Y-118500000D03*
X80000000Y-118500000D03*
X81250000Y-85750000D03*
D13*
X138000000Y-34000000D03*
X46000000Y-34000000D03*
D14*
X138000000Y-126000000D03*
D12*
X73750000Y-108000000D03*
X98750000Y-114000000D03*
X98750000Y-86000000D03*
X69750000Y-104750000D03*
X69750000Y-95000000D03*
X74000000Y-92000000D03*
X77500000Y-92000000D03*
X77500000Y-108000000D03*
X64000000Y-105500000D03*
X64000000Y-94250000D03*
D14*
X46000000Y-126000000D03*
D12*
X71750000Y-113750000D03*
X77500000Y-100000000D03*
X74000000Y-100000000D03*
X108750000Y-100250000D03*
X112250000Y-100250000D03*
X112250000Y-85750000D03*
X108750000Y-86750000D03*
X108750000Y-90750000D03*
X108750000Y-113250000D03*
X108750000Y-109250000D03*
X101250000Y-105750000D03*
X97500000Y-107500000D03*
X97500000Y-92500000D03*
X101250000Y-94250000D03*
X117000000Y-89500000D03*
X117000000Y-110750000D03*
X124250000Y-100250000D03*
X122250000Y-100250000D03*
X120250000Y-100250000D03*
X127750000Y-92000000D03*
X123500000Y-108250000D03*
X127500000Y-113250000D03*
X140750000Y-106000000D03*
X136750000Y-107500000D03*
X133250000Y-109000000D03*
X130500000Y-106500000D03*
X134000000Y-103750000D03*
X136000000Y-100750000D03*
X137750000Y-104250000D03*
X135000000Y-91750000D03*
X137000000Y-93750000D03*
X140750000Y-98500000D03*
X137500000Y-53000000D03*
X126500000Y-53000000D03*
X132000000Y-53000000D03*
X127000000Y-45750000D03*
X130250000Y-45250000D03*
X133750000Y-45250000D03*
X137000000Y-45250000D03*
X137250000Y-36500000D03*
X140750000Y-36000000D03*
X140750000Y-31250000D03*
X134000000Y-31500000D03*
X126500000Y-36750000D03*
X110000000Y-31250000D03*
X121500000Y-47250000D03*
X109500000Y-52250000D03*
X113250000Y-50500000D03*
X43250000Y-81000000D03*
X56250000Y-81250000D03*
X57250000Y-69000000D03*
X117500000Y-68000000D03*
X117500000Y-65250000D03*
X110600000Y-64700000D03*
X107500000Y-57500000D03*
X101500000Y-31500000D03*
X140750000Y-46000000D03*
X119500000Y-50500000D03*
D10*
G36*
X126600000Y-52300000D02*
X127400000Y-52500000D01*
X127400000Y-53500000D01*
X126600000Y-53700000D01*
X126600000Y-52300000D01*
X126600000Y-52300000D01*
G37*
D15*
X129300000Y-53000000D03*
D16*
X128500000Y-51800000D03*
D15*
X127700000Y-53000000D03*
D16*
X128500000Y-54200000D03*
D10*
G36*
X129600000Y-52500000D02*
X130400000Y-52300000D01*
X130400000Y-53700000D01*
X129600000Y-53500000D01*
X129600000Y-52500000D01*
X129600000Y-52500000D01*
G37*
G36*
X137400000Y-53700000D02*
X136600000Y-53500000D01*
X136600000Y-52500000D01*
X137400000Y-52300000D01*
X137400000Y-53700000D01*
X137400000Y-53700000D01*
G37*
D15*
X134700000Y-53000000D03*
D16*
X135500000Y-54200000D03*
D15*
X136300000Y-53000000D03*
D16*
X135500000Y-51800000D03*
D10*
G36*
X134400000Y-53500000D02*
X133600000Y-53700000D01*
X133600000Y-52300000D01*
X134400000Y-52500000D01*
X134400000Y-53500000D01*
X134400000Y-53500000D01*
G37*
D17*
X84000000Y-84000000D03*
D18*
X84000000Y-81500000D03*
D17*
X84000000Y-117000000D03*
D18*
X84000000Y-114500000D03*
D19*
X53000000Y-92000000D03*
D20*
X53000000Y-87000000D03*
D17*
X62000000Y-90000000D03*
D18*
X62000000Y-87500000D03*
D19*
X53000000Y-108000000D03*
D20*
X53000000Y-113000000D03*
D17*
X62000000Y-110000000D03*
D18*
X62000000Y-112500000D03*
D17*
X109000000Y-84000000D03*
D18*
X109000000Y-81500000D03*
D21*
X102050000Y-91000000D03*
X98450000Y-91000000D03*
D17*
X101000000Y-114000000D03*
D18*
X101000000Y-116500000D03*
D17*
X101000000Y-86000000D03*
D18*
X101000000Y-83500000D03*
D21*
X102050000Y-109000000D03*
X98450000Y-109000000D03*
D17*
X109000000Y-116000000D03*
D18*
X109000000Y-118500000D03*
D19*
X108000000Y-107000000D03*
D20*
X113000000Y-107000000D03*
D19*
X108000000Y-93000000D03*
D20*
X113000000Y-93000000D03*
D17*
X123750000Y-86250000D03*
D18*
X126250000Y-86250000D03*
D17*
X134750000Y-113000000D03*
D18*
X132250000Y-113000000D03*
D22*
X120000000Y-92800000D03*
X120000000Y-89200000D03*
D23*
X100000000Y-48000000D03*
D24*
X100000000Y-40380000D03*
D25*
X113000000Y-61600000D03*
X117000000Y-61600000D03*
X117000000Y-58400000D03*
X113000000Y-58400000D03*
D26*
X113500000Y-60950000D03*
X116500000Y-60950000D03*
X116500000Y-59050000D03*
X113500000Y-59050000D03*
D27*
X128650000Y-39650000D03*
X127350000Y-39650000D03*
X127350000Y-42350000D03*
X128650000Y-42350000D03*
X136650000Y-39650000D03*
X135350000Y-39650000D03*
X135350000Y-42350000D03*
X136650000Y-42350000D03*
D20*
X45500000Y-40500000D03*
X45500000Y-53500000D03*
D28*
X83500000Y-58500000D03*
D29*
X44000000Y-65450000D03*
D30*
X49900000Y-70300000D03*
X49900000Y-67700000D03*
D29*
X44000000Y-72550000D03*
D31*
X45000000Y-97500000D03*
X48000000Y-97500000D03*
X52000000Y-97500000D03*
X53500000Y-102300000D03*
X139000000Y-102500000D03*
X136000000Y-102500000D03*
X132000000Y-102500000D03*
X130500000Y-97700000D03*
D32*
X62000000Y-96100000D03*
X62000000Y-93900000D03*
D33*
X89900000Y-84000000D03*
X92100000Y-84000000D03*
D32*
X62000000Y-103900000D03*
X62000000Y-106100000D03*
D33*
X89900000Y-117000000D03*
X92100000Y-117000000D03*
D32*
X99000000Y-106100000D03*
X99000000Y-103900000D03*
X99000000Y-93900000D03*
X99000000Y-96100000D03*
D33*
X123400000Y-106750000D03*
X125600000Y-106750000D03*
X121600000Y-106750000D03*
X119400000Y-106750000D03*
X132900000Y-106750000D03*
X135100000Y-106750000D03*
X127650000Y-93500000D03*
X129850000Y-93500000D03*
X125850000Y-93500000D03*
X123650000Y-93500000D03*
X132900000Y-93500000D03*
X135100000Y-93500000D03*
D34*
X45000000Y-92500000D03*
X45000000Y-90000000D03*
X45000000Y-87500000D03*
X68000000Y-89500000D03*
X68000000Y-92000000D03*
X68000000Y-94500000D03*
X45000000Y-107500000D03*
X45000000Y-110000000D03*
X45000000Y-112500000D03*
X68000000Y-110500000D03*
X68000000Y-108000000D03*
X68000000Y-105500000D03*
D35*
X105540000Y-60000000D03*
X100460000Y-60000000D03*
D34*
X111190000Y-53160000D03*
X113730000Y-53160000D03*
X116270000Y-53160000D03*
X118810000Y-53160000D03*
X111190000Y-32840000D03*
X113730000Y-32840000D03*
X116270000Y-32840000D03*
X118810000Y-32840000D03*
D36*
X74500000Y-83980000D03*
X76000000Y-83980000D03*
X77500000Y-83980000D03*
D37*
X76000000Y-80020000D03*
D10*
G36*
X77200000Y-81795000D02*
X76700000Y-82945000D01*
X75300000Y-82945000D01*
X74800000Y-81795000D01*
X77200000Y-81795000D01*
X77200000Y-81795000D01*
G37*
D36*
X74500000Y-116980000D03*
X76000000Y-116980000D03*
X77500000Y-116980000D03*
D37*
X76000000Y-113020000D03*
D10*
G36*
X77200000Y-114795000D02*
X76700000Y-115945000D01*
X75300000Y-115945000D01*
X74800000Y-114795000D01*
X77200000Y-114795000D01*
X77200000Y-114795000D01*
G37*
D38*
X120000000Y-104000000D03*
D39*
X127620000Y-96380000D03*
X122540000Y-104000000D03*
X125080000Y-96380000D03*
X125080000Y-104000000D03*
X122540000Y-96380000D03*
X127620000Y-104000000D03*
X120000000Y-96380000D03*
D40*
X72000000Y-83950000D03*
X72000000Y-82050000D03*
X72000000Y-116950000D03*
X72000000Y-115050000D03*
D41*
X95000000Y-111430000D03*
X95000000Y-108890000D03*
X95000000Y-106350000D03*
X95000000Y-103810000D03*
X95000000Y-101270000D03*
X95000000Y-98730000D03*
X95000000Y-96190000D03*
X95000000Y-93650000D03*
X95000000Y-91110000D03*
X95000000Y-88570000D03*
X73000000Y-124430000D03*
X75540000Y-124430000D03*
X78080000Y-124430000D03*
X80620000Y-124430000D03*
X80620000Y-73430000D03*
X78080000Y-73430000D03*
X75540000Y-73430000D03*
X73000000Y-73430000D03*
D12*
X43500000Y-31500000D03*
M02*
