%TF.GenerationSoftware,KiCad,Pcbnew,4.0.7*%
%TF.CreationDate,2021-06-18T00:58:30+09:00*%
%TF.ProjectId,NuTube_MUSES_AMP_PCB_v2,4E75547562655F4D555345535F414D50,rev?*%
%TF.FileFunction,Copper,L1,Top,Signal*%
%FSLAX46Y46*%
G04 Gerber Fmt 4.6, Leading zero omitted, Abs format (unit mm)*
G04 Created by KiCad (PCBNEW 4.0.7) date 06/18/21 00:58:30*
%MOMM*%
%LPD*%
G01*
G04 APERTURE LIST*
%ADD10C,0.100000*%
%ADD11C,0.150000*%
%ADD12C,0.762000*%
%ADD13C,6.000000*%
%ADD14R,1.000000X0.600000*%
%ADD15R,0.800000X1.000000*%
%ADD16R,1.600000X1.600000*%
%ADD17C,1.600000*%
%ADD18R,2.000000X2.000000*%
%ADD19C,2.000000*%
%ADD20R,1.800000X2.300000*%
%ADD21R,2.300000X1.800000*%
%ADD22R,2.200000X2.200000*%
%ADD23O,2.200000X2.200000*%
%ADD24R,0.700000X2.300000*%
%ADD25R,1.700000X1.000000*%
%ADD26R,0.400000X1.200000*%
%ADD27O,1.400000X0.900000*%
%ADD28R,4.500000X0.900000*%
%ADD29O,2.000000X1.000000*%
%ADD30R,0.900000X1.200000*%
%ADD31R,1.200000X0.900000*%
%ADD32C,1.524000*%
%ADD33O,1.524000X3.048000*%
%ADD34R,1.000000X2.500000*%
%ADD35R,2.000000X4.000000*%
%ADD36R,1.600000X2.400000*%
%ADD37O,1.600000X2.400000*%
%ADD38R,0.750000X1.200000*%
%ADD39C,1.700000*%
%ADD40C,0.600000*%
%ADD41C,0.250000*%
%ADD42C,1.000000*%
%ADD43C,0.300000*%
G04 APERTURE END LIST*
D10*
D11*
X142000000Y-130000000D02*
X42000000Y-130000000D01*
X142000000Y-30000000D02*
X142000000Y-130000000D01*
X142000000Y-30000000D02*
X42000000Y-30000000D01*
X42000000Y-30000000D02*
X142000000Y-30000000D01*
X42000000Y-130000000D02*
X42000000Y-30000000D01*
D12*
X116500000Y-73000000D03*
X133500000Y-95000000D03*
X60500000Y-105500000D03*
X60500000Y-94500000D03*
X72750000Y-118500000D03*
X80000000Y-118500000D03*
X81250000Y-85750000D03*
D13*
X138000000Y-126000000D03*
D12*
X73750000Y-108000000D03*
X98750000Y-114000000D03*
X98750000Y-86000000D03*
X69750000Y-104750000D03*
X69750000Y-95000000D03*
X74000000Y-92000000D03*
X77500000Y-92000000D03*
X77500000Y-108000000D03*
X64000000Y-105500000D03*
X64000000Y-94250000D03*
D13*
X46000000Y-126000000D03*
D12*
X71750000Y-113750000D03*
X77500000Y-100000000D03*
X74000000Y-100000000D03*
X108750000Y-100250000D03*
X112250000Y-100250000D03*
X112250000Y-85750000D03*
X108750000Y-86750000D03*
X108750000Y-90750000D03*
X108750000Y-113250000D03*
X108750000Y-109250000D03*
X101250000Y-105750000D03*
X97500000Y-107500000D03*
X97500000Y-92500000D03*
X101250000Y-94250000D03*
X117000000Y-89500000D03*
X117000000Y-110750000D03*
X124250000Y-100250000D03*
X122250000Y-100250000D03*
X120250000Y-100250000D03*
X127750000Y-92000000D03*
X123500000Y-108250000D03*
X127500000Y-113250000D03*
X140750000Y-106000000D03*
X136750000Y-107500000D03*
X133250000Y-109000000D03*
X130500000Y-106500000D03*
X134000000Y-103750000D03*
X136000000Y-100750000D03*
X137750000Y-104250000D03*
X135000000Y-91750000D03*
X137000000Y-93750000D03*
X140750000Y-98500000D03*
X137500000Y-53000000D03*
X126500000Y-53000000D03*
X132000000Y-53000000D03*
X127000000Y-45750000D03*
X130250000Y-45250000D03*
X133750000Y-45250000D03*
X137000000Y-45250000D03*
X137250000Y-36500000D03*
X140750000Y-36000000D03*
X140750000Y-31250000D03*
X134000000Y-31500000D03*
X126500000Y-36750000D03*
X110000000Y-31250000D03*
X121500000Y-47250000D03*
X109500000Y-52250000D03*
X113250000Y-50500000D03*
X43250000Y-81000000D03*
X56250000Y-81250000D03*
X57250000Y-69000000D03*
X117500000Y-68000000D03*
X117500000Y-65250000D03*
X110600000Y-64700000D03*
X107500000Y-57500000D03*
X101500000Y-31500000D03*
X140750000Y-46000000D03*
X119500000Y-50500000D03*
D10*
G36*
X126800000Y-52500000D02*
X127200000Y-52700000D01*
X127200000Y-53300000D01*
X126800000Y-53500000D01*
X126800000Y-52500000D01*
X126800000Y-52500000D01*
G37*
D14*
X129300000Y-53000000D03*
D15*
X128500000Y-51800000D03*
D14*
X127700000Y-53000000D03*
D15*
X128500000Y-54200000D03*
D10*
G36*
X129800000Y-52700000D02*
X130200000Y-52500000D01*
X130200000Y-53500000D01*
X129800000Y-53300000D01*
X129800000Y-52700000D01*
X129800000Y-52700000D01*
G37*
G36*
X137200000Y-53500000D02*
X136800000Y-53300000D01*
X136800000Y-52700000D01*
X137200000Y-52500000D01*
X137200000Y-53500000D01*
X137200000Y-53500000D01*
G37*
D14*
X134700000Y-53000000D03*
D15*
X135500000Y-54200000D03*
D14*
X136300000Y-53000000D03*
D15*
X135500000Y-51800000D03*
D10*
G36*
X134200000Y-53300000D02*
X133800000Y-53500000D01*
X133800000Y-52500000D01*
X134200000Y-52700000D01*
X134200000Y-53300000D01*
X134200000Y-53300000D01*
G37*
D16*
X84000000Y-84000000D03*
D17*
X84000000Y-81500000D03*
D16*
X84000000Y-117000000D03*
D17*
X84000000Y-114500000D03*
D18*
X53000000Y-92000000D03*
D19*
X53000000Y-87000000D03*
D16*
X62000000Y-90000000D03*
D17*
X62000000Y-87500000D03*
D18*
X53000000Y-108000000D03*
D19*
X53000000Y-113000000D03*
D16*
X62000000Y-110000000D03*
D17*
X62000000Y-112500000D03*
D16*
X109000000Y-84000000D03*
D17*
X109000000Y-81500000D03*
D20*
X102050000Y-91000000D03*
X98450000Y-91000000D03*
D16*
X101000000Y-114000000D03*
D17*
X101000000Y-116500000D03*
D16*
X101000000Y-86000000D03*
D17*
X101000000Y-83500000D03*
D20*
X102050000Y-109000000D03*
X98450000Y-109000000D03*
D16*
X109000000Y-116000000D03*
D17*
X109000000Y-118500000D03*
D18*
X108000000Y-107000000D03*
D19*
X113000000Y-107000000D03*
D18*
X108000000Y-93000000D03*
D19*
X113000000Y-93000000D03*
D16*
X123750000Y-86250000D03*
D17*
X126250000Y-86250000D03*
D16*
X134750000Y-113000000D03*
D17*
X132250000Y-113000000D03*
D21*
X120000000Y-92800000D03*
X120000000Y-89200000D03*
D22*
X100000000Y-48000000D03*
D23*
X100000000Y-40380000D03*
D24*
X113000000Y-61600000D03*
X117000000Y-61600000D03*
X117000000Y-58400000D03*
X113000000Y-58400000D03*
D25*
X113500000Y-60950000D03*
X116500000Y-60950000D03*
X116500000Y-59050000D03*
X113500000Y-59050000D03*
D26*
X128650000Y-39650000D03*
X127350000Y-39650000D03*
X127350000Y-42350000D03*
X128650000Y-42350000D03*
X136650000Y-39650000D03*
X135350000Y-39650000D03*
X135350000Y-42350000D03*
X136650000Y-42350000D03*
D19*
X45500000Y-40500000D03*
X45500000Y-53500000D03*
D27*
X44000000Y-65450000D03*
D28*
X49900000Y-70300000D03*
X49900000Y-67700000D03*
D27*
X44000000Y-72550000D03*
D29*
X45000000Y-97500000D03*
X48000000Y-97500000D03*
X52000000Y-97500000D03*
X53500000Y-102300000D03*
X139000000Y-102500000D03*
X136000000Y-102500000D03*
X132000000Y-102500000D03*
X130500000Y-97700000D03*
D30*
X62000000Y-96100000D03*
X62000000Y-93900000D03*
D31*
X89900000Y-84000000D03*
X92100000Y-84000000D03*
D30*
X62000000Y-103900000D03*
X62000000Y-106100000D03*
D31*
X89900000Y-117000000D03*
X92100000Y-117000000D03*
D30*
X99000000Y-106100000D03*
X99000000Y-103900000D03*
X99000000Y-93900000D03*
X99000000Y-96100000D03*
D31*
X123400000Y-106750000D03*
X125600000Y-106750000D03*
X121600000Y-106750000D03*
X119400000Y-106750000D03*
X132900000Y-106750000D03*
X135100000Y-106750000D03*
X127650000Y-93500000D03*
X129850000Y-93500000D03*
X125850000Y-93500000D03*
X123650000Y-93500000D03*
X132900000Y-93500000D03*
X135100000Y-93500000D03*
D32*
X45000000Y-92500000D03*
X45000000Y-90000000D03*
X45000000Y-87500000D03*
X68000000Y-89500000D03*
X68000000Y-92000000D03*
X68000000Y-94500000D03*
X45000000Y-107500000D03*
X45000000Y-110000000D03*
X45000000Y-112500000D03*
X68000000Y-110500000D03*
X68000000Y-108000000D03*
X68000000Y-105500000D03*
D33*
X105540000Y-60000000D03*
X100460000Y-60000000D03*
D32*
X111190000Y-53160000D03*
X113730000Y-53160000D03*
X116270000Y-53160000D03*
X118810000Y-53160000D03*
X111190000Y-32840000D03*
X113730000Y-32840000D03*
X116270000Y-32840000D03*
X118810000Y-32840000D03*
D34*
X74500000Y-83980000D03*
X76000000Y-83980000D03*
X77500000Y-83980000D03*
D35*
X76000000Y-80020000D03*
D10*
G36*
X77000000Y-81995000D02*
X76500000Y-82745000D01*
X75500000Y-82745000D01*
X75000000Y-81995000D01*
X77000000Y-81995000D01*
X77000000Y-81995000D01*
G37*
D34*
X74500000Y-116980000D03*
X76000000Y-116980000D03*
X77500000Y-116980000D03*
D35*
X76000000Y-113020000D03*
D10*
G36*
X77000000Y-114995000D02*
X76500000Y-115745000D01*
X75500000Y-115745000D01*
X75000000Y-114995000D01*
X77000000Y-114995000D01*
X77000000Y-114995000D01*
G37*
D36*
X120000000Y-104000000D03*
D37*
X127620000Y-96380000D03*
X122540000Y-104000000D03*
X125080000Y-96380000D03*
X125080000Y-104000000D03*
X122540000Y-96380000D03*
X127620000Y-104000000D03*
X120000000Y-96380000D03*
D38*
X72000000Y-83950000D03*
X72000000Y-82050000D03*
X72000000Y-116950000D03*
X72000000Y-115050000D03*
D39*
X95000000Y-111430000D03*
X95000000Y-108890000D03*
X95000000Y-106350000D03*
X95000000Y-103810000D03*
X95000000Y-101270000D03*
X95000000Y-98730000D03*
X95000000Y-96190000D03*
X95000000Y-93650000D03*
X95000000Y-91110000D03*
X95000000Y-88570000D03*
X73000000Y-124430000D03*
X75540000Y-124430000D03*
X78080000Y-124430000D03*
X80620000Y-124430000D03*
X80620000Y-73430000D03*
X78080000Y-73430000D03*
X75540000Y-73430000D03*
X73000000Y-73430000D03*
D12*
X43500000Y-31500000D03*
D40*
X75750000Y-108250000D03*
X74500000Y-87000000D03*
D41*
X136650000Y-42350000D02*
X136650000Y-45050000D01*
X127350000Y-42350000D02*
X127350000Y-45150000D01*
D42*
X128650000Y-45250000D02*
X128650000Y-51650000D01*
X128650000Y-51650000D02*
X128500000Y-51800000D01*
D41*
X128650000Y-45900000D02*
X128650000Y-45250000D01*
X128650000Y-45250000D02*
X128650000Y-45050000D01*
X128650000Y-45050000D02*
X128650000Y-42350000D01*
D42*
X109000000Y-84000000D02*
X110500000Y-85500000D01*
X110500000Y-114500000D02*
X109000000Y-116000000D01*
X110500000Y-85500000D02*
X110500000Y-114500000D01*
X109000000Y-84000000D02*
X121500000Y-84000000D01*
X121500000Y-84000000D02*
X123750000Y-86250000D01*
X128500000Y-54200000D02*
X128500000Y-81500000D01*
X128500000Y-81500000D02*
X123750000Y-86250000D01*
X120000000Y-92800000D02*
X120700000Y-92800000D01*
X120700000Y-92800000D02*
X123750000Y-89750000D01*
X123750000Y-89750000D02*
X123750000Y-86250000D01*
X102050000Y-91000000D02*
X102050000Y-90950000D01*
X102050000Y-90950000D02*
X109000000Y-84000000D01*
X102050000Y-91000000D02*
X101900000Y-91000000D01*
X101900000Y-91000000D02*
X99000000Y-93900000D01*
X102050000Y-109000000D02*
X102050000Y-109050000D01*
X102050000Y-109050000D02*
X109000000Y-116000000D01*
X99000000Y-106100000D02*
X99150000Y-106100000D01*
X99150000Y-106100000D02*
X102050000Y-109000000D01*
X120000000Y-96380000D02*
X120000000Y-92800000D01*
X120200000Y-92800000D02*
X120000000Y-92800000D01*
X135500000Y-78500000D02*
X135500000Y-89750000D01*
X132250000Y-114500000D02*
X134000000Y-116250000D01*
X135500000Y-54200000D02*
X135500000Y-78500000D01*
X132250000Y-114500000D02*
X132250000Y-113000000D01*
X136000000Y-116250000D02*
X134000000Y-116250000D01*
X138500000Y-113750000D02*
X136000000Y-116250000D01*
X138500000Y-105750000D02*
X138500000Y-113750000D01*
X140750000Y-103500000D02*
X138500000Y-105750000D01*
X140750000Y-101250000D02*
X140750000Y-103500000D01*
X139000000Y-99500000D02*
X140750000Y-101250000D01*
X139000000Y-93250000D02*
X139000000Y-99500000D01*
X135500000Y-89750000D02*
X139000000Y-93250000D01*
X135350000Y-45250000D02*
X135350000Y-51650000D01*
X135350000Y-51650000D02*
X135500000Y-51800000D01*
D41*
X135350000Y-45850000D02*
X135350000Y-45250000D01*
X135350000Y-45250000D02*
X135350000Y-44950000D01*
X135350000Y-44950000D02*
X135350000Y-42350000D01*
D42*
X113500000Y-59050000D02*
X113500000Y-58900000D01*
X113500000Y-58900000D02*
X113000000Y-58400000D01*
X74500000Y-83980000D02*
X73280000Y-83980000D01*
X74500000Y-83980000D02*
X74500000Y-87000000D01*
X73250000Y-110750000D02*
X73250000Y-116950000D01*
X75750000Y-108250000D02*
X73250000Y-110750000D01*
X72000000Y-116950000D02*
X73250000Y-116950000D01*
X73250000Y-116950000D02*
X74470000Y-116950000D01*
X74470000Y-116950000D02*
X74500000Y-116980000D01*
X73280000Y-83980000D02*
X73250000Y-83950000D01*
X72000000Y-83950000D02*
X73250000Y-83950000D01*
X111190000Y-50310000D02*
X113000000Y-48500000D01*
X113000000Y-48500000D02*
X120000000Y-48500000D01*
X120000000Y-48500000D02*
X121500000Y-50000000D01*
X121500000Y-50000000D02*
X121500000Y-70000000D01*
X121500000Y-70000000D02*
X115250000Y-76250000D01*
X115250000Y-76250000D02*
X74500000Y-76250000D01*
X74500000Y-76250000D02*
X73250000Y-77500000D01*
X73250000Y-77500000D02*
X73250000Y-84000000D01*
X111190000Y-50310000D02*
X111190000Y-53160000D01*
X73250000Y-83950000D02*
X73250000Y-84000000D01*
X113000000Y-58400000D02*
X113000000Y-54970000D01*
X113000000Y-54970000D02*
X111190000Y-53160000D01*
X84000000Y-84000000D02*
X84000000Y-85500000D01*
X73250000Y-89250000D02*
X68000000Y-94500000D01*
X80250000Y-89250000D02*
X73250000Y-89250000D01*
X84000000Y-85500000D02*
X80250000Y-89250000D01*
X84000000Y-84000000D02*
X89900000Y-84000000D01*
X77500000Y-83980000D02*
X83980000Y-83980000D01*
X83980000Y-83980000D02*
X84000000Y-84000000D01*
X68000000Y-105500000D02*
X68250000Y-105500000D01*
X68250000Y-105500000D02*
X70250000Y-107500000D01*
X70250000Y-107500000D02*
X70250000Y-118250000D01*
X70250000Y-118250000D02*
X72750000Y-120750000D01*
X72750000Y-120750000D02*
X80250000Y-120750000D01*
X80250000Y-120750000D02*
X84000000Y-117000000D01*
X84000000Y-117000000D02*
X89900000Y-117000000D01*
X77500000Y-116980000D02*
X79750000Y-116980000D01*
X79750000Y-116980000D02*
X83980000Y-116980000D01*
X83980000Y-116980000D02*
X84000000Y-117000000D01*
X62000000Y-96100000D02*
X62000000Y-96250000D01*
X62000000Y-96250000D02*
X62500000Y-96750000D01*
X74100000Y-93650000D02*
X95000000Y-93650000D01*
X71000000Y-96750000D02*
X74100000Y-93650000D01*
X62500000Y-96750000D02*
X71000000Y-96750000D01*
X62000000Y-96100000D02*
X62100000Y-96100000D01*
X62000000Y-96100000D02*
X57100000Y-96100000D01*
X57100000Y-96100000D02*
X53000000Y-92000000D01*
X45000000Y-90000000D02*
X50000000Y-90000000D01*
X50000000Y-90000000D02*
X53000000Y-87000000D01*
X62000000Y-90000000D02*
X62000000Y-93900000D01*
X68000000Y-92000000D02*
X64000000Y-92000000D01*
X64000000Y-92000000D02*
X62000000Y-90000000D01*
X62000000Y-103900000D02*
X62100000Y-103900000D01*
X62100000Y-103900000D02*
X62750000Y-103250000D01*
X74100000Y-106350000D02*
X95000000Y-106350000D01*
X71000000Y-103250000D02*
X74100000Y-106350000D01*
X62750000Y-103250000D02*
X71000000Y-103250000D01*
X62000000Y-103900000D02*
X57100000Y-103900000D01*
X57100000Y-103900000D02*
X53000000Y-108000000D01*
X45000000Y-110000000D02*
X50000000Y-110000000D01*
X50000000Y-110000000D02*
X53000000Y-113000000D01*
X62000000Y-110000000D02*
X62000000Y-106100000D01*
X68000000Y-108000000D02*
X64000000Y-108000000D01*
X64000000Y-108000000D02*
X62000000Y-110000000D01*
X95000000Y-111430000D02*
X95000000Y-108890000D01*
X95000000Y-111430000D02*
X98430000Y-111430000D01*
X98430000Y-111430000D02*
X101000000Y-114000000D01*
X92100000Y-117000000D02*
X98000000Y-117000000D01*
X98000000Y-117000000D02*
X101000000Y-114000000D01*
X95000000Y-88570000D02*
X95000000Y-91110000D01*
X95000000Y-88570000D02*
X98430000Y-88570000D01*
X98430000Y-88570000D02*
X101000000Y-86000000D01*
X92100000Y-84000000D02*
X99000000Y-84000000D01*
X99000000Y-84000000D02*
X101000000Y-86000000D01*
X99000000Y-103900000D02*
X104900000Y-103900000D01*
X104900000Y-103900000D02*
X108000000Y-107000000D01*
X95000000Y-103810000D02*
X98910000Y-103810000D01*
X98910000Y-103810000D02*
X99000000Y-103900000D01*
X99000000Y-96100000D02*
X104900000Y-96100000D01*
X104900000Y-96100000D02*
X108000000Y-93000000D01*
X95000000Y-96190000D02*
X98910000Y-96190000D01*
X98910000Y-96190000D02*
X99000000Y-96100000D01*
X100460000Y-60000000D02*
X100000000Y-60000000D01*
X100000000Y-60000000D02*
X96000000Y-64000000D01*
X54300000Y-67700000D02*
X49900000Y-67700000D01*
X58000000Y-64000000D02*
X54300000Y-67700000D01*
X96000000Y-64000000D02*
X58000000Y-64000000D01*
X100460000Y-60000000D02*
X100460000Y-48460000D01*
X100460000Y-48460000D02*
X100000000Y-48000000D01*
X100000000Y-40380000D02*
X45620000Y-40380000D01*
X45620000Y-40380000D02*
X45500000Y-40500000D01*
X113500000Y-60950000D02*
X113500000Y-61100000D01*
X113500000Y-61100000D02*
X113000000Y-61600000D01*
X113000000Y-61600000D02*
X113000000Y-64500000D01*
X105540000Y-65040000D02*
X105540000Y-60000000D01*
X107000000Y-66500000D02*
X105540000Y-65040000D01*
X111000000Y-66500000D02*
X107000000Y-66500000D01*
X113000000Y-64500000D02*
X111000000Y-66500000D01*
X117000000Y-61600000D02*
X117000000Y-61450000D01*
X117000000Y-61450000D02*
X116500000Y-60950000D01*
X117000000Y-61600000D02*
X117000000Y-64950000D01*
D41*
X127350000Y-39650000D02*
X127350000Y-36750000D01*
X136650000Y-39650000D02*
X136650000Y-36700000D01*
D42*
X117000000Y-58400000D02*
X117000000Y-58550000D01*
X117000000Y-58550000D02*
X116500000Y-59050000D01*
X117000000Y-58400000D02*
X117000000Y-54970000D01*
X117000000Y-54970000D02*
X118810000Y-53160000D01*
X128650000Y-35900000D02*
X128650000Y-36750000D01*
D41*
X128650000Y-39650000D02*
X128650000Y-36750000D01*
D42*
X127750000Y-35000000D02*
X128650000Y-35900000D01*
X112750000Y-35000000D02*
X127750000Y-35000000D01*
X112750000Y-35000000D02*
X111190000Y-33440000D01*
X111190000Y-32840000D02*
X111190000Y-33440000D01*
X135350000Y-36750000D02*
X135350000Y-35600000D01*
X135350000Y-35600000D02*
X132590000Y-32840000D01*
X118810000Y-32840000D02*
X132590000Y-32840000D01*
D41*
X135350000Y-39650000D02*
X135350000Y-36750000D01*
X135350000Y-36750000D02*
X135350000Y-35600000D01*
D42*
X48000000Y-97500000D02*
X48000000Y-95500000D01*
X48000000Y-95500000D02*
X45000000Y-92500000D01*
X52000000Y-97500000D02*
X52000000Y-98000000D01*
X52000000Y-98000000D02*
X45000000Y-105000000D01*
X45000000Y-105000000D02*
X45000000Y-107500000D01*
X136000000Y-102500000D02*
X136000000Y-105850000D01*
X136000000Y-105850000D02*
X135100000Y-106750000D01*
X135100000Y-93500000D02*
X135100000Y-99400000D01*
X135100000Y-99400000D02*
X132000000Y-102500000D01*
X121600000Y-106750000D02*
X123400000Y-106750000D01*
X123400000Y-106750000D02*
X123400000Y-104860000D01*
X123400000Y-104860000D02*
X122540000Y-104000000D01*
X119400000Y-106750000D02*
X119400000Y-104600000D01*
X119400000Y-104600000D02*
X120000000Y-104000000D01*
X132900000Y-106750000D02*
X132900000Y-106850000D01*
X132900000Y-106850000D02*
X129750000Y-110000000D01*
X129750000Y-110000000D02*
X122650000Y-110000000D01*
X122650000Y-110000000D02*
X119400000Y-106750000D01*
X125850000Y-93500000D02*
X127650000Y-93500000D01*
X125850000Y-93500000D02*
X125850000Y-95610000D01*
X125850000Y-95610000D02*
X125080000Y-96380000D01*
X125000000Y-96300000D02*
X125080000Y-96380000D01*
X132900000Y-93500000D02*
X132900000Y-93400000D01*
X132900000Y-93400000D02*
X129750000Y-90250000D01*
X129750000Y-90250000D02*
X126900000Y-90250000D01*
X126900000Y-90250000D02*
X123650000Y-93500000D01*
X122540000Y-96380000D02*
X122540000Y-94610000D01*
X122540000Y-94610000D02*
X123650000Y-93500000D01*
D43*
G36*
X127700000Y-45250000D02*
X127700000Y-51088319D01*
X127677332Y-51121495D01*
X127641184Y-51300000D01*
X127641184Y-51408209D01*
X127622314Y-51436450D01*
X127550001Y-51800000D01*
X127622314Y-52163550D01*
X127641184Y-52191791D01*
X127641184Y-52300000D01*
X127672562Y-52466760D01*
X127771117Y-52619919D01*
X127921495Y-52722668D01*
X128100000Y-52758816D01*
X128900000Y-52758816D01*
X129066760Y-52727438D01*
X129219919Y-52628883D01*
X129322668Y-52478505D01*
X129358816Y-52300000D01*
X129358816Y-52266280D01*
X129527686Y-52013550D01*
X129574163Y-51779891D01*
X129600000Y-51650000D01*
X129600000Y-45250000D01*
X129530381Y-44900000D01*
X134469619Y-44900000D01*
X134400000Y-45250000D01*
X134400000Y-51650000D01*
X134425837Y-51779891D01*
X134472314Y-52013550D01*
X134641184Y-52266280D01*
X134641184Y-52300000D01*
X134672562Y-52466760D01*
X134771117Y-52619919D01*
X134921495Y-52722668D01*
X135100000Y-52758816D01*
X135900000Y-52758816D01*
X136066760Y-52727438D01*
X136219919Y-52628883D01*
X136322668Y-52478505D01*
X136358816Y-52300000D01*
X136358816Y-52191791D01*
X136377686Y-52163550D01*
X136449999Y-51800000D01*
X136377686Y-51436450D01*
X136358816Y-51408209D01*
X136358816Y-51300000D01*
X136327438Y-51133240D01*
X136300000Y-51090600D01*
X136300000Y-45250000D01*
X136230381Y-44900000D01*
X140937868Y-44900000D01*
X141475000Y-45437132D01*
X141475000Y-100657940D01*
X141421752Y-100578249D01*
X139950000Y-99106498D01*
X139950000Y-93250000D01*
X139877686Y-92886451D01*
X139779846Y-92740024D01*
X139671751Y-92578248D01*
X136450000Y-89356498D01*
X136450000Y-54200000D01*
X136377686Y-53836451D01*
X136358816Y-53808210D01*
X136358816Y-53700000D01*
X136327438Y-53533240D01*
X136228883Y-53380081D01*
X136078505Y-53277332D01*
X135900000Y-53241184D01*
X135100000Y-53241184D01*
X134933240Y-53272562D01*
X134780081Y-53371117D01*
X134677332Y-53521495D01*
X134641184Y-53700000D01*
X134641184Y-53808210D01*
X134622314Y-53836451D01*
X134550000Y-54200000D01*
X134550000Y-89750000D01*
X134599728Y-90000000D01*
X134622314Y-90113550D01*
X134828249Y-90421751D01*
X138050000Y-93643503D01*
X138050000Y-99500000D01*
X138102423Y-99763549D01*
X138122314Y-99863550D01*
X138328249Y-100171751D01*
X139800000Y-101643503D01*
X139800000Y-103106497D01*
X137828249Y-105078249D01*
X137622314Y-105386450D01*
X137622314Y-105386451D01*
X137550000Y-105750000D01*
X137550000Y-113356497D01*
X135606498Y-115300000D01*
X134393503Y-115300000D01*
X133200000Y-114106498D01*
X133200000Y-113817883D01*
X133309081Y-113708993D01*
X133499783Y-113249731D01*
X133500217Y-112752450D01*
X133310316Y-112292857D01*
X132958993Y-111940919D01*
X132499731Y-111750217D01*
X132002450Y-111749783D01*
X131542857Y-111939684D01*
X131190919Y-112291007D01*
X131000217Y-112750269D01*
X130999783Y-113247550D01*
X131189684Y-113707143D01*
X131300000Y-113817652D01*
X131300000Y-114500000D01*
X131359673Y-114800000D01*
X131372314Y-114863550D01*
X131578249Y-115171751D01*
X133328249Y-116921752D01*
X133636450Y-117127686D01*
X134000000Y-117200000D01*
X136000000Y-117200000D01*
X136303233Y-117139683D01*
X136363550Y-117127686D01*
X136671751Y-116921751D01*
X139171752Y-114421751D01*
X139377686Y-114113550D01*
X139400272Y-114000000D01*
X139450000Y-113750000D01*
X139450000Y-106143502D01*
X141421752Y-104171751D01*
X141475000Y-104092060D01*
X141475000Y-129312868D01*
X141312868Y-129475000D01*
X42687132Y-129475000D01*
X42525000Y-129312868D01*
X42525000Y-110240024D01*
X43787791Y-110240024D01*
X43971918Y-110685646D01*
X44312561Y-111026884D01*
X44757861Y-111211789D01*
X45240024Y-111212209D01*
X45685646Y-111028082D01*
X45763864Y-110950000D01*
X49606498Y-110950000D01*
X51550092Y-112893595D01*
X51549749Y-113287157D01*
X51770033Y-113820286D01*
X52177569Y-114228533D01*
X52710312Y-114449748D01*
X53287157Y-114450251D01*
X53820286Y-114229967D01*
X54228533Y-113822431D01*
X54449748Y-113289688D01*
X54450251Y-112712843D01*
X54229967Y-112179714D01*
X53822431Y-111771467D01*
X53289688Y-111550252D01*
X52893409Y-111549906D01*
X50671751Y-109328249D01*
X50363550Y-109122314D01*
X50303233Y-109110317D01*
X50000000Y-109050000D01*
X45764189Y-109050000D01*
X45687439Y-108973116D01*
X45242139Y-108788211D01*
X44759976Y-108787791D01*
X44314354Y-108971918D01*
X43973116Y-109312561D01*
X43788211Y-109757861D01*
X43787791Y-110240024D01*
X42525000Y-110240024D01*
X42525000Y-107740024D01*
X43787791Y-107740024D01*
X43971918Y-108185646D01*
X44312561Y-108526884D01*
X44757861Y-108711789D01*
X45240024Y-108712209D01*
X45685646Y-108528082D01*
X46026884Y-108187439D01*
X46211789Y-107742139D01*
X46212209Y-107259976D01*
X46104790Y-107000000D01*
X51541184Y-107000000D01*
X51541184Y-109000000D01*
X51572562Y-109166760D01*
X51671117Y-109319919D01*
X51821495Y-109422668D01*
X52000000Y-109458816D01*
X54000000Y-109458816D01*
X54166760Y-109427438D01*
X54319919Y-109328883D01*
X54407981Y-109200000D01*
X60741184Y-109200000D01*
X60741184Y-110800000D01*
X60772562Y-110966760D01*
X60871117Y-111119919D01*
X61021495Y-111222668D01*
X61200000Y-111258816D01*
X62800000Y-111258816D01*
X62966760Y-111227438D01*
X63119919Y-111128883D01*
X63222668Y-110978505D01*
X63258816Y-110800000D01*
X63258816Y-110084686D01*
X64393503Y-108950000D01*
X67235811Y-108950000D01*
X67312561Y-109026884D01*
X67757861Y-109211789D01*
X68240024Y-109212209D01*
X68685646Y-109028082D01*
X69026884Y-108687439D01*
X69211789Y-108242139D01*
X69212169Y-107805672D01*
X69300000Y-107893503D01*
X69300000Y-118250000D01*
X69359657Y-118549919D01*
X69372314Y-118613550D01*
X69578249Y-118921751D01*
X72078249Y-121421752D01*
X72386450Y-121627686D01*
X72446767Y-121639683D01*
X72750000Y-121700000D01*
X80250000Y-121700000D01*
X80553233Y-121639683D01*
X80613550Y-121627686D01*
X80921751Y-121421751D01*
X84084687Y-118258816D01*
X84800000Y-118258816D01*
X84966760Y-118227438D01*
X85119919Y-118128883D01*
X85222668Y-117978505D01*
X85228440Y-117950000D01*
X89900000Y-117950000D01*
X90107047Y-117908816D01*
X90500000Y-117908816D01*
X90666760Y-117877438D01*
X90819919Y-117778883D01*
X90922668Y-117628505D01*
X90958816Y-117450000D01*
X90958816Y-116550000D01*
X90927438Y-116383240D01*
X90828883Y-116230081D01*
X90678505Y-116127332D01*
X90500000Y-116091184D01*
X90107047Y-116091184D01*
X89900000Y-116050000D01*
X85230592Y-116050000D01*
X85227438Y-116033240D01*
X85128883Y-115880081D01*
X84978505Y-115777332D01*
X84800000Y-115741184D01*
X83200000Y-115741184D01*
X83033240Y-115772562D01*
X82880081Y-115871117D01*
X82777332Y-116021495D01*
X82775610Y-116030000D01*
X78458816Y-116030000D01*
X78458816Y-115730000D01*
X78427438Y-115563240D01*
X78328883Y-115410081D01*
X78178505Y-115307332D01*
X78000000Y-115271184D01*
X77000000Y-115271184D01*
X76833240Y-115302562D01*
X76680081Y-115401117D01*
X76577332Y-115551495D01*
X76541184Y-115730000D01*
X76541184Y-118230000D01*
X76572562Y-118396760D01*
X76671117Y-118549919D01*
X76821495Y-118652668D01*
X77000000Y-118688816D01*
X78000000Y-118688816D01*
X78166760Y-118657438D01*
X78319919Y-118558883D01*
X78422668Y-118408505D01*
X78458816Y-118230000D01*
X78458816Y-117930000D01*
X81726497Y-117930000D01*
X79856498Y-119800000D01*
X73143503Y-119800000D01*
X71200000Y-117856498D01*
X71200000Y-117720549D01*
X71296117Y-117869919D01*
X71446495Y-117972668D01*
X71625000Y-118008816D01*
X72375000Y-118008816D01*
X72541760Y-117977438D01*
X72662102Y-117900000D01*
X73541184Y-117900000D01*
X73541184Y-118230000D01*
X73572562Y-118396760D01*
X73671117Y-118549919D01*
X73821495Y-118652668D01*
X74000000Y-118688816D01*
X75000000Y-118688816D01*
X75166760Y-118657438D01*
X75319919Y-118558883D01*
X75422668Y-118408505D01*
X75458816Y-118230000D01*
X75458816Y-115730000D01*
X75427438Y-115563240D01*
X75328883Y-115410081D01*
X75178505Y-115307332D01*
X75000000Y-115271184D01*
X74200000Y-115271184D01*
X74200000Y-111143502D01*
X76421752Y-108921751D01*
X76627686Y-108613550D01*
X76699999Y-108250000D01*
X76627686Y-107886450D01*
X76421752Y-107578248D01*
X76113550Y-107372314D01*
X75750000Y-107300001D01*
X75386450Y-107372314D01*
X75078249Y-107578248D01*
X72578249Y-110078249D01*
X72372314Y-110386450D01*
X72372314Y-110386451D01*
X72300000Y-110750000D01*
X72300000Y-115891184D01*
X71625000Y-115891184D01*
X71458240Y-115922562D01*
X71305081Y-116021117D01*
X71202332Y-116171495D01*
X71200000Y-116183011D01*
X71200000Y-107500000D01*
X71127686Y-107136451D01*
X71127686Y-107136450D01*
X70921751Y-106828248D01*
X69112737Y-105019235D01*
X69028082Y-104814354D01*
X68687439Y-104473116D01*
X68242139Y-104288211D01*
X67759976Y-104287791D01*
X67314354Y-104471918D01*
X66973116Y-104812561D01*
X66788211Y-105257861D01*
X66787791Y-105740024D01*
X66971918Y-106185646D01*
X67312561Y-106526884D01*
X67757861Y-106711789D01*
X68118601Y-106712103D01*
X68194667Y-106788170D01*
X67759976Y-106787791D01*
X67314354Y-106971918D01*
X67236136Y-107050000D01*
X64000000Y-107050000D01*
X63696767Y-107110317D01*
X63636450Y-107122314D01*
X63328248Y-107328249D01*
X62950000Y-107706497D01*
X62950000Y-106100000D01*
X62908816Y-105892953D01*
X62908816Y-105500000D01*
X62877438Y-105333240D01*
X62778883Y-105180081D01*
X62628505Y-105077332D01*
X62450000Y-105041184D01*
X61550000Y-105041184D01*
X61383240Y-105072562D01*
X61230081Y-105171117D01*
X61127332Y-105321495D01*
X61091184Y-105500000D01*
X61091184Y-105892953D01*
X61050000Y-106100000D01*
X61050000Y-108769408D01*
X61033240Y-108772562D01*
X60880081Y-108871117D01*
X60777332Y-109021495D01*
X60741184Y-109200000D01*
X54407981Y-109200000D01*
X54422668Y-109178505D01*
X54458816Y-109000000D01*
X54458816Y-107884686D01*
X57493503Y-104850000D01*
X61265142Y-104850000D01*
X61371495Y-104922668D01*
X61550000Y-104958816D01*
X62450000Y-104958816D01*
X62616760Y-104927438D01*
X62769919Y-104828883D01*
X62872668Y-104678505D01*
X62908816Y-104500000D01*
X62908816Y-104434686D01*
X63143503Y-104200000D01*
X70606498Y-104200000D01*
X73428249Y-107021751D01*
X73736450Y-107227686D01*
X73796767Y-107239683D01*
X74100000Y-107300000D01*
X94111467Y-107300000D01*
X94262647Y-107451444D01*
X94668985Y-107620170D01*
X94264571Y-107787271D01*
X93898556Y-108152647D01*
X93700226Y-108630279D01*
X93699774Y-109147452D01*
X93897271Y-109625429D01*
X94050000Y-109778425D01*
X94050000Y-110541467D01*
X93898556Y-110692647D01*
X93700226Y-111170279D01*
X93699774Y-111687452D01*
X93897271Y-112165429D01*
X94262647Y-112531444D01*
X94740279Y-112729774D01*
X95257452Y-112730226D01*
X95735429Y-112532729D01*
X95888425Y-112380000D01*
X98036498Y-112380000D01*
X99656497Y-114000000D01*
X97606498Y-116050000D01*
X92100000Y-116050000D01*
X91892953Y-116091184D01*
X91500000Y-116091184D01*
X91333240Y-116122562D01*
X91180081Y-116221117D01*
X91077332Y-116371495D01*
X91041184Y-116550000D01*
X91041184Y-117450000D01*
X91072562Y-117616760D01*
X91171117Y-117769919D01*
X91321495Y-117872668D01*
X91500000Y-117908816D01*
X91892953Y-117908816D01*
X92100000Y-117950000D01*
X98000000Y-117950000D01*
X98319489Y-117886450D01*
X98363550Y-117877686D01*
X98671751Y-117671751D01*
X101084687Y-115258816D01*
X101800000Y-115258816D01*
X101966760Y-115227438D01*
X102119919Y-115128883D01*
X102222668Y-114978505D01*
X102258816Y-114800000D01*
X102258816Y-113200000D01*
X102227438Y-113033240D01*
X102128883Y-112880081D01*
X101978505Y-112777332D01*
X101800000Y-112741184D01*
X101084687Y-112741184D01*
X99101751Y-110758249D01*
X98793550Y-110552314D01*
X98733233Y-110540317D01*
X98430000Y-110480000D01*
X95950000Y-110480000D01*
X95950000Y-109778533D01*
X96101444Y-109627353D01*
X96299774Y-109149721D01*
X96300226Y-108632548D01*
X96102729Y-108154571D01*
X95737353Y-107788556D01*
X95331015Y-107619830D01*
X95735429Y-107452729D01*
X96101444Y-107087353D01*
X96299774Y-106609721D01*
X96300219Y-106100000D01*
X98050000Y-106100000D01*
X98091184Y-106307047D01*
X98091184Y-106700000D01*
X98122562Y-106866760D01*
X98221117Y-107019919D01*
X98371495Y-107122668D01*
X98550000Y-107158816D01*
X98865314Y-107158816D01*
X100691184Y-108984687D01*
X100691184Y-110150000D01*
X100722562Y-110316760D01*
X100821117Y-110469919D01*
X100971495Y-110572668D01*
X101150000Y-110608816D01*
X102265314Y-110608816D01*
X107741184Y-116084687D01*
X107741184Y-116800000D01*
X107772562Y-116966760D01*
X107871117Y-117119919D01*
X108021495Y-117222668D01*
X108200000Y-117258816D01*
X109800000Y-117258816D01*
X109966760Y-117227438D01*
X110119919Y-117128883D01*
X110222668Y-116978505D01*
X110258816Y-116800000D01*
X110258816Y-116084686D01*
X111171751Y-115171752D01*
X111319922Y-114949999D01*
X111377686Y-114863549D01*
X111450000Y-114500000D01*
X111450000Y-107287157D01*
X111549749Y-107287157D01*
X111770033Y-107820286D01*
X112177569Y-108228533D01*
X112710312Y-108449748D01*
X113287157Y-108450251D01*
X113820286Y-108229967D01*
X114228533Y-107822431D01*
X114449748Y-107289688D01*
X114450251Y-106712843D01*
X114279669Y-106300000D01*
X118341184Y-106300000D01*
X118341184Y-107200000D01*
X118372562Y-107366760D01*
X118471117Y-107519919D01*
X118621495Y-107622668D01*
X118800000Y-107658816D01*
X118965314Y-107658816D01*
X121978249Y-110671751D01*
X122286450Y-110877686D01*
X122346767Y-110889683D01*
X122650000Y-110950000D01*
X129750000Y-110950000D01*
X130053233Y-110889683D01*
X130113550Y-110877686D01*
X130421751Y-110671751D01*
X133434687Y-107658816D01*
X133500000Y-107658816D01*
X133666760Y-107627438D01*
X133819919Y-107528883D01*
X133922668Y-107378505D01*
X133958816Y-107200000D01*
X133958816Y-106300000D01*
X134041184Y-106300000D01*
X134041184Y-107200000D01*
X134072562Y-107366760D01*
X134171117Y-107519919D01*
X134321495Y-107622668D01*
X134500000Y-107658816D01*
X134892955Y-107658816D01*
X135100000Y-107699999D01*
X135307045Y-107658816D01*
X135700000Y-107658816D01*
X135866760Y-107627438D01*
X136019919Y-107528883D01*
X136122668Y-107378505D01*
X136158816Y-107200000D01*
X136158816Y-107034686D01*
X136671751Y-106521752D01*
X136877686Y-106213550D01*
X136893660Y-106133240D01*
X136950000Y-105850000D01*
X136950000Y-103338902D01*
X137200158Y-103171751D01*
X137406093Y-102863549D01*
X137478407Y-102500000D01*
X137406093Y-102136451D01*
X137200158Y-101828249D01*
X136891956Y-101622314D01*
X136528407Y-101550000D01*
X135471593Y-101550000D01*
X135108044Y-101622314D01*
X134799842Y-101828249D01*
X134593907Y-102136451D01*
X134521593Y-102500000D01*
X134593907Y-102863549D01*
X134799842Y-103171751D01*
X135050000Y-103338902D01*
X135050000Y-105456497D01*
X134665314Y-105841184D01*
X134500000Y-105841184D01*
X134333240Y-105872562D01*
X134180081Y-105971117D01*
X134077332Y-106121495D01*
X134041184Y-106300000D01*
X133958816Y-106300000D01*
X133927438Y-106133240D01*
X133828883Y-105980081D01*
X133678505Y-105877332D01*
X133500000Y-105841184D01*
X133107047Y-105841184D01*
X132900000Y-105800000D01*
X132692953Y-105841184D01*
X132300000Y-105841184D01*
X132133240Y-105872562D01*
X131980081Y-105971117D01*
X131877332Y-106121495D01*
X131841184Y-106300000D01*
X131841184Y-106565313D01*
X129356498Y-109050000D01*
X123043502Y-109050000D01*
X121693502Y-107700000D01*
X123400000Y-107700000D01*
X123607047Y-107658816D01*
X124000000Y-107658816D01*
X124166760Y-107627438D01*
X124319919Y-107528883D01*
X124422668Y-107378505D01*
X124458816Y-107200000D01*
X124458816Y-106300000D01*
X124427438Y-106133240D01*
X124350000Y-106012898D01*
X124350000Y-105419029D01*
X124601646Y-105587174D01*
X125080000Y-105682325D01*
X125558354Y-105587174D01*
X125963883Y-105316208D01*
X126234849Y-104910679D01*
X126330000Y-104432325D01*
X126330000Y-103567675D01*
X126370000Y-103567675D01*
X126370000Y-104432325D01*
X126465151Y-104910679D01*
X126736117Y-105316208D01*
X127141646Y-105587174D01*
X127620000Y-105682325D01*
X128098354Y-105587174D01*
X128503883Y-105316208D01*
X128774849Y-104910679D01*
X128870000Y-104432325D01*
X128870000Y-103567675D01*
X128774849Y-103089321D01*
X128503883Y-102683792D01*
X128228820Y-102500000D01*
X130521593Y-102500000D01*
X130593907Y-102863549D01*
X130799842Y-103171751D01*
X131108044Y-103377686D01*
X131471593Y-103450000D01*
X132528407Y-103450000D01*
X132891956Y-103377686D01*
X133200158Y-103171751D01*
X133406093Y-102863549D01*
X133478407Y-102500000D01*
X133456025Y-102387477D01*
X135771751Y-100071751D01*
X135977686Y-99763550D01*
X135989683Y-99703233D01*
X136050000Y-99400000D01*
X136050000Y-94234858D01*
X136122668Y-94128505D01*
X136158816Y-93950000D01*
X136158816Y-93050000D01*
X136127438Y-92883240D01*
X136028883Y-92730081D01*
X135878505Y-92627332D01*
X135700000Y-92591184D01*
X135307047Y-92591184D01*
X135100000Y-92550000D01*
X134892953Y-92591184D01*
X134500000Y-92591184D01*
X134333240Y-92622562D01*
X134180081Y-92721117D01*
X134077332Y-92871495D01*
X134041184Y-93050000D01*
X134041184Y-93950000D01*
X134072562Y-94116760D01*
X134150000Y-94237102D01*
X134150000Y-99006498D01*
X131606498Y-101550000D01*
X131471593Y-101550000D01*
X131108044Y-101622314D01*
X130799842Y-101828249D01*
X130593907Y-102136451D01*
X130521593Y-102500000D01*
X128228820Y-102500000D01*
X128098354Y-102412826D01*
X127620000Y-102317675D01*
X127141646Y-102412826D01*
X126736117Y-102683792D01*
X126465151Y-103089321D01*
X126370000Y-103567675D01*
X126330000Y-103567675D01*
X126234849Y-103089321D01*
X125963883Y-102683792D01*
X125558354Y-102412826D01*
X125080000Y-102317675D01*
X124601646Y-102412826D01*
X124196117Y-102683792D01*
X123925151Y-103089321D01*
X123830000Y-103567675D01*
X123830000Y-103946497D01*
X123790000Y-103906497D01*
X123790000Y-103567675D01*
X123694849Y-103089321D01*
X123423883Y-102683792D01*
X123018354Y-102412826D01*
X122540000Y-102317675D01*
X122061646Y-102412826D01*
X121656117Y-102683792D01*
X121385151Y-103089321D01*
X121290000Y-103567675D01*
X121290000Y-104432325D01*
X121385151Y-104910679D01*
X121656117Y-105316208D01*
X122061646Y-105587174D01*
X122450000Y-105664423D01*
X122450000Y-105800000D01*
X121600000Y-105800000D01*
X121392953Y-105841184D01*
X121000000Y-105841184D01*
X120833240Y-105872562D01*
X120680081Y-105971117D01*
X120577332Y-106121495D01*
X120541184Y-106300000D01*
X120541184Y-106547682D01*
X120458816Y-106465314D01*
X120458816Y-106300000D01*
X120427438Y-106133240D01*
X120350000Y-106012898D01*
X120350000Y-105658816D01*
X120800000Y-105658816D01*
X120966760Y-105627438D01*
X121119919Y-105528883D01*
X121222668Y-105378505D01*
X121258816Y-105200000D01*
X121258816Y-102800000D01*
X121227438Y-102633240D01*
X121128883Y-102480081D01*
X120978505Y-102377332D01*
X120800000Y-102341184D01*
X119200000Y-102341184D01*
X119033240Y-102372562D01*
X118880081Y-102471117D01*
X118777332Y-102621495D01*
X118741184Y-102800000D01*
X118741184Y-103915314D01*
X118728249Y-103928249D01*
X118522314Y-104236450D01*
X118522314Y-104236451D01*
X118450000Y-104600000D01*
X118450000Y-106015142D01*
X118377332Y-106121495D01*
X118341184Y-106300000D01*
X114279669Y-106300000D01*
X114229967Y-106179714D01*
X113822431Y-105771467D01*
X113289688Y-105550252D01*
X112712843Y-105549749D01*
X112179714Y-105770033D01*
X111771467Y-106177569D01*
X111550252Y-106710312D01*
X111549749Y-107287157D01*
X111450000Y-107287157D01*
X111450000Y-93287157D01*
X111549749Y-93287157D01*
X111770033Y-93820286D01*
X112177569Y-94228533D01*
X112710312Y-94449748D01*
X113287157Y-94450251D01*
X113820286Y-94229967D01*
X114228533Y-93822431D01*
X114449748Y-93289688D01*
X114450251Y-92712843D01*
X114229967Y-92179714D01*
X113822431Y-91771467D01*
X113289688Y-91550252D01*
X112712843Y-91549749D01*
X112179714Y-91770033D01*
X111771467Y-92177569D01*
X111550252Y-92710312D01*
X111549749Y-93287157D01*
X111450000Y-93287157D01*
X111450000Y-85500000D01*
X111377686Y-85136451D01*
X111301587Y-85022562D01*
X111253103Y-84950000D01*
X121106498Y-84950000D01*
X122491184Y-86334687D01*
X122491184Y-87050000D01*
X122522562Y-87216760D01*
X122621117Y-87369919D01*
X122771495Y-87472668D01*
X122800000Y-87478440D01*
X122800000Y-89356497D01*
X120715314Y-91441184D01*
X118850000Y-91441184D01*
X118683240Y-91472562D01*
X118530081Y-91571117D01*
X118427332Y-91721495D01*
X118391184Y-91900000D01*
X118391184Y-93700000D01*
X118422562Y-93866760D01*
X118521117Y-94019919D01*
X118671495Y-94122668D01*
X118850000Y-94158816D01*
X119050000Y-94158816D01*
X119050000Y-95162743D01*
X118845151Y-95469321D01*
X118750000Y-95947675D01*
X118750000Y-96812325D01*
X118845151Y-97290679D01*
X119116117Y-97696208D01*
X119521646Y-97967174D01*
X120000000Y-98062325D01*
X120478354Y-97967174D01*
X120883883Y-97696208D01*
X121154849Y-97290679D01*
X121250000Y-96812325D01*
X121250000Y-95947675D01*
X121290000Y-95947675D01*
X121290000Y-96812325D01*
X121385151Y-97290679D01*
X121656117Y-97696208D01*
X122061646Y-97967174D01*
X122540000Y-98062325D01*
X123018354Y-97967174D01*
X123423883Y-97696208D01*
X123694849Y-97290679D01*
X123790000Y-96812325D01*
X123790000Y-95947675D01*
X123694849Y-95469321D01*
X123490000Y-95162743D01*
X123490000Y-95003502D01*
X124084686Y-94408816D01*
X124250000Y-94408816D01*
X124416760Y-94377438D01*
X124569919Y-94278883D01*
X124672668Y-94128505D01*
X124708816Y-93950000D01*
X124708816Y-93784686D01*
X124791184Y-93702318D01*
X124791184Y-93950000D01*
X124822562Y-94116760D01*
X124900000Y-94237102D01*
X124900000Y-94733479D01*
X124601646Y-94792826D01*
X124196117Y-95063792D01*
X123925151Y-95469321D01*
X123830000Y-95947675D01*
X123830000Y-96812325D01*
X123925151Y-97290679D01*
X124196117Y-97696208D01*
X124601646Y-97967174D01*
X125080000Y-98062325D01*
X125558354Y-97967174D01*
X125963883Y-97696208D01*
X126234849Y-97290679D01*
X126330000Y-96812325D01*
X126330000Y-96473503D01*
X126370000Y-96433503D01*
X126370000Y-96812325D01*
X126465151Y-97290679D01*
X126736117Y-97696208D01*
X127141646Y-97967174D01*
X127620000Y-98062325D01*
X128098354Y-97967174D01*
X128503883Y-97696208D01*
X128774849Y-97290679D01*
X128870000Y-96812325D01*
X128870000Y-95947675D01*
X128774849Y-95469321D01*
X128503883Y-95063792D01*
X128098354Y-94792826D01*
X127620000Y-94697675D01*
X127141646Y-94792826D01*
X126800000Y-95021107D01*
X126800000Y-94450000D01*
X127650000Y-94450000D01*
X127857047Y-94408816D01*
X128250000Y-94408816D01*
X128416760Y-94377438D01*
X128569919Y-94278883D01*
X128672668Y-94128505D01*
X128708816Y-93950000D01*
X128708816Y-93050000D01*
X128677438Y-92883240D01*
X128578883Y-92730081D01*
X128428505Y-92627332D01*
X128250000Y-92591184D01*
X127857047Y-92591184D01*
X127650000Y-92550000D01*
X125943502Y-92550000D01*
X127293502Y-91200000D01*
X129356498Y-91200000D01*
X131841184Y-93684687D01*
X131841184Y-93950000D01*
X131872562Y-94116760D01*
X131971117Y-94269919D01*
X132121495Y-94372668D01*
X132300000Y-94408816D01*
X132692953Y-94408816D01*
X132900000Y-94450000D01*
X133107047Y-94408816D01*
X133500000Y-94408816D01*
X133666760Y-94377438D01*
X133819919Y-94278883D01*
X133922668Y-94128505D01*
X133958816Y-93950000D01*
X133958816Y-93050000D01*
X133927438Y-92883240D01*
X133828883Y-92730081D01*
X133678505Y-92627332D01*
X133500000Y-92591184D01*
X133434687Y-92591184D01*
X130421751Y-89578249D01*
X130113550Y-89372314D01*
X130053233Y-89360317D01*
X129750000Y-89300000D01*
X126900000Y-89300000D01*
X126596767Y-89360317D01*
X126536450Y-89372314D01*
X126228249Y-89578249D01*
X123215314Y-92591184D01*
X123050000Y-92591184D01*
X122883240Y-92622562D01*
X122730081Y-92721117D01*
X122627332Y-92871495D01*
X122591184Y-93050000D01*
X122591184Y-93215314D01*
X121868249Y-93938249D01*
X121662314Y-94246450D01*
X121662314Y-94246451D01*
X121590000Y-94610000D01*
X121590000Y-95162743D01*
X121385151Y-95469321D01*
X121290000Y-95947675D01*
X121250000Y-95947675D01*
X121154849Y-95469321D01*
X120950000Y-95162743D01*
X120950000Y-94158816D01*
X121150000Y-94158816D01*
X121316760Y-94127438D01*
X121469919Y-94028883D01*
X121572668Y-93878505D01*
X121608816Y-93700000D01*
X121608816Y-93234686D01*
X124421751Y-90421752D01*
X124618240Y-90127686D01*
X124627686Y-90113549D01*
X124700000Y-89750000D01*
X124700000Y-87480592D01*
X124716760Y-87477438D01*
X124869919Y-87378883D01*
X124972668Y-87228505D01*
X125008816Y-87050000D01*
X125008816Y-86334686D01*
X129171751Y-82171752D01*
X129377685Y-81863550D01*
X129377686Y-81863549D01*
X129450000Y-81500000D01*
X129450000Y-54200000D01*
X129377686Y-53836451D01*
X129358816Y-53808210D01*
X129358816Y-53700000D01*
X129327438Y-53533240D01*
X129228883Y-53380081D01*
X129078505Y-53277332D01*
X128900000Y-53241184D01*
X128100000Y-53241184D01*
X127933240Y-53272562D01*
X127780081Y-53371117D01*
X127677332Y-53521495D01*
X127641184Y-53700000D01*
X127641184Y-53808210D01*
X127622314Y-53836451D01*
X127550000Y-54200000D01*
X127550000Y-81106497D01*
X123750000Y-84906498D01*
X122171751Y-83328249D01*
X121863550Y-83122314D01*
X121803233Y-83110317D01*
X121500000Y-83050000D01*
X110230592Y-83050000D01*
X110227438Y-83033240D01*
X110128883Y-82880081D01*
X109978505Y-82777332D01*
X109800000Y-82741184D01*
X108200000Y-82741184D01*
X108033240Y-82772562D01*
X107880081Y-82871117D01*
X107777332Y-83021495D01*
X107741184Y-83200000D01*
X107741184Y-83915313D01*
X102265314Y-89391184D01*
X101150000Y-89391184D01*
X100983240Y-89422562D01*
X100830081Y-89521117D01*
X100727332Y-89671495D01*
X100691184Y-89850000D01*
X100691184Y-90865313D01*
X98715314Y-92841184D01*
X98550000Y-92841184D01*
X98383240Y-92872562D01*
X98230081Y-92971117D01*
X98127332Y-93121495D01*
X98091184Y-93300000D01*
X98091184Y-93692955D01*
X98050001Y-93900000D01*
X98091184Y-94107045D01*
X98091184Y-94500000D01*
X98122562Y-94666760D01*
X98221117Y-94819919D01*
X98371495Y-94922668D01*
X98550000Y-94958816D01*
X99450000Y-94958816D01*
X99616760Y-94927438D01*
X99769919Y-94828883D01*
X99872668Y-94678505D01*
X99908816Y-94500000D01*
X99908816Y-94334686D01*
X101634687Y-92608816D01*
X102950000Y-92608816D01*
X103116760Y-92577438D01*
X103269919Y-92478883D01*
X103372668Y-92328505D01*
X103408816Y-92150000D01*
X103408816Y-90934686D01*
X109000000Y-85343503D01*
X109550000Y-85893503D01*
X109550000Y-114106497D01*
X109000000Y-114656497D01*
X103408816Y-109065314D01*
X103408816Y-107850000D01*
X103377438Y-107683240D01*
X103278883Y-107530081D01*
X103128505Y-107427332D01*
X102950000Y-107391184D01*
X101784687Y-107391184D01*
X99908816Y-105515314D01*
X99908816Y-105500000D01*
X99877438Y-105333240D01*
X99778883Y-105180081D01*
X99628505Y-105077332D01*
X99450000Y-105041184D01*
X98550000Y-105041184D01*
X98383240Y-105072562D01*
X98230081Y-105171117D01*
X98127332Y-105321495D01*
X98091184Y-105500000D01*
X98091184Y-105892953D01*
X98050000Y-106100000D01*
X96300219Y-106100000D01*
X96300226Y-106092548D01*
X96102729Y-105614571D01*
X95737353Y-105248556D01*
X95331015Y-105079830D01*
X95735429Y-104912729D01*
X95888425Y-104760000D01*
X98182560Y-104760000D01*
X98221117Y-104819919D01*
X98371495Y-104922668D01*
X98550000Y-104958816D01*
X99450000Y-104958816D01*
X99616760Y-104927438D01*
X99737102Y-104850000D01*
X104506498Y-104850000D01*
X106541184Y-106884686D01*
X106541184Y-108000000D01*
X106572562Y-108166760D01*
X106671117Y-108319919D01*
X106821495Y-108422668D01*
X107000000Y-108458816D01*
X109000000Y-108458816D01*
X109166760Y-108427438D01*
X109319919Y-108328883D01*
X109422668Y-108178505D01*
X109458816Y-108000000D01*
X109458816Y-106000000D01*
X109427438Y-105833240D01*
X109328883Y-105680081D01*
X109178505Y-105577332D01*
X109000000Y-105541184D01*
X107884686Y-105541184D01*
X105571751Y-103228249D01*
X105263550Y-103022314D01*
X105203233Y-103010317D01*
X104900000Y-102950000D01*
X99734858Y-102950000D01*
X99628505Y-102877332D01*
X99450000Y-102841184D01*
X98550000Y-102841184D01*
X98450001Y-102860000D01*
X95888533Y-102860000D01*
X95737353Y-102708556D01*
X95259721Y-102510226D01*
X94742548Y-102509774D01*
X94264571Y-102707271D01*
X93898556Y-103072647D01*
X93700226Y-103550279D01*
X93699774Y-104067452D01*
X93897271Y-104545429D01*
X94262647Y-104911444D01*
X94668985Y-105080170D01*
X94264571Y-105247271D01*
X94111575Y-105400000D01*
X74493502Y-105400000D01*
X71671751Y-102578249D01*
X71363550Y-102372314D01*
X71303233Y-102360317D01*
X71000000Y-102300000D01*
X62750000Y-102300000D01*
X62386450Y-102372314D01*
X62078249Y-102578248D01*
X61815313Y-102841184D01*
X61550000Y-102841184D01*
X61383240Y-102872562D01*
X61262898Y-102950000D01*
X57100000Y-102950000D01*
X56736451Y-103022314D01*
X56428249Y-103228248D01*
X53115314Y-106541184D01*
X52000000Y-106541184D01*
X51833240Y-106572562D01*
X51680081Y-106671117D01*
X51577332Y-106821495D01*
X51541184Y-107000000D01*
X46104790Y-107000000D01*
X46028082Y-106814354D01*
X45950000Y-106736136D01*
X45950000Y-105393502D01*
X52671751Y-98671751D01*
X52864605Y-98383126D01*
X52891956Y-98377686D01*
X53200158Y-98171751D01*
X53406093Y-97863549D01*
X53478407Y-97500000D01*
X53406093Y-97136451D01*
X53200158Y-96828249D01*
X52891956Y-96622314D01*
X52528407Y-96550000D01*
X51471593Y-96550000D01*
X51108044Y-96622314D01*
X50799842Y-96828249D01*
X50593907Y-97136451D01*
X50521593Y-97500000D01*
X50593907Y-97863549D01*
X50673632Y-97982866D01*
X44328249Y-104328249D01*
X44122314Y-104636450D01*
X44122314Y-104636451D01*
X44050000Y-105000000D01*
X44050000Y-106735811D01*
X43973116Y-106812561D01*
X43788211Y-107257861D01*
X43787791Y-107740024D01*
X42525000Y-107740024D01*
X42525000Y-92740024D01*
X43787791Y-92740024D01*
X43971918Y-93185646D01*
X44312561Y-93526884D01*
X44757861Y-93711789D01*
X44868383Y-93711885D01*
X47050000Y-95893503D01*
X47050000Y-96661098D01*
X46799842Y-96828249D01*
X46593907Y-97136451D01*
X46521593Y-97500000D01*
X46593907Y-97863549D01*
X46799842Y-98171751D01*
X47108044Y-98377686D01*
X47471593Y-98450000D01*
X48528407Y-98450000D01*
X48891956Y-98377686D01*
X49200158Y-98171751D01*
X49406093Y-97863549D01*
X49478407Y-97500000D01*
X49406093Y-97136451D01*
X49200158Y-96828249D01*
X48950000Y-96661098D01*
X48950000Y-95500000D01*
X48887828Y-95187439D01*
X48877686Y-95136450D01*
X48671752Y-94828249D01*
X46212114Y-92368612D01*
X46212209Y-92259976D01*
X46028082Y-91814354D01*
X45687439Y-91473116D01*
X45242139Y-91288211D01*
X44759976Y-91287791D01*
X44314354Y-91471918D01*
X43973116Y-91812561D01*
X43788211Y-92257861D01*
X43787791Y-92740024D01*
X42525000Y-92740024D01*
X42525000Y-90240024D01*
X43787791Y-90240024D01*
X43971918Y-90685646D01*
X44312561Y-91026884D01*
X44757861Y-91211789D01*
X45240024Y-91212209D01*
X45685646Y-91028082D01*
X45713776Y-91000000D01*
X51541184Y-91000000D01*
X51541184Y-93000000D01*
X51572562Y-93166760D01*
X51671117Y-93319919D01*
X51821495Y-93422668D01*
X52000000Y-93458816D01*
X53115314Y-93458816D01*
X56428249Y-96771752D01*
X56727569Y-96971751D01*
X56736451Y-96977686D01*
X57100000Y-97050000D01*
X61265142Y-97050000D01*
X61371495Y-97122668D01*
X61550000Y-97158816D01*
X61565314Y-97158816D01*
X61828249Y-97421752D01*
X62136450Y-97627686D01*
X62500000Y-97700000D01*
X71000000Y-97700000D01*
X71319489Y-97636450D01*
X71363550Y-97627686D01*
X71671751Y-97421751D01*
X74493502Y-94600000D01*
X94111467Y-94600000D01*
X94262647Y-94751444D01*
X94668985Y-94920170D01*
X94264571Y-95087271D01*
X93898556Y-95452647D01*
X93700226Y-95930279D01*
X93699774Y-96447452D01*
X93897271Y-96925429D01*
X94262647Y-97291444D01*
X94740279Y-97489774D01*
X95257452Y-97490226D01*
X95735429Y-97292729D01*
X95888425Y-97140000D01*
X98457083Y-97140000D01*
X98550000Y-97158816D01*
X99450000Y-97158816D01*
X99616760Y-97127438D01*
X99737102Y-97050000D01*
X104900000Y-97050000D01*
X105203233Y-96989683D01*
X105263550Y-96977686D01*
X105571751Y-96771751D01*
X107884686Y-94458816D01*
X109000000Y-94458816D01*
X109166760Y-94427438D01*
X109319919Y-94328883D01*
X109422668Y-94178505D01*
X109458816Y-94000000D01*
X109458816Y-92000000D01*
X109427438Y-91833240D01*
X109328883Y-91680081D01*
X109178505Y-91577332D01*
X109000000Y-91541184D01*
X107000000Y-91541184D01*
X106833240Y-91572562D01*
X106680081Y-91671117D01*
X106577332Y-91821495D01*
X106541184Y-92000000D01*
X106541184Y-93115314D01*
X104506498Y-95150000D01*
X99734858Y-95150000D01*
X99628505Y-95077332D01*
X99450000Y-95041184D01*
X98550000Y-95041184D01*
X98383240Y-95072562D01*
X98230081Y-95171117D01*
X98183015Y-95240000D01*
X95888533Y-95240000D01*
X95737353Y-95088556D01*
X95331015Y-94919830D01*
X95735429Y-94752729D01*
X96101444Y-94387353D01*
X96299774Y-93909721D01*
X96300226Y-93392548D01*
X96102729Y-92914571D01*
X95737353Y-92548556D01*
X95331015Y-92379830D01*
X95735429Y-92212729D01*
X96101444Y-91847353D01*
X96299774Y-91369721D01*
X96300226Y-90852548D01*
X96102729Y-90374571D01*
X95950000Y-90221575D01*
X95950000Y-89520000D01*
X98430000Y-89520000D01*
X98733233Y-89459683D01*
X98793550Y-89447686D01*
X99101751Y-89241751D01*
X101084687Y-87258816D01*
X101800000Y-87258816D01*
X101966760Y-87227438D01*
X102119919Y-87128883D01*
X102222668Y-86978505D01*
X102258816Y-86800000D01*
X102258816Y-85200000D01*
X102227438Y-85033240D01*
X102128883Y-84880081D01*
X101978505Y-84777332D01*
X101800000Y-84741184D01*
X101084687Y-84741184D01*
X99671751Y-83328249D01*
X99363550Y-83122314D01*
X99303233Y-83110317D01*
X99000000Y-83050000D01*
X92100000Y-83050000D01*
X91892953Y-83091184D01*
X91500000Y-83091184D01*
X91333240Y-83122562D01*
X91180081Y-83221117D01*
X91077332Y-83371495D01*
X91041184Y-83550000D01*
X91041184Y-84450000D01*
X91072562Y-84616760D01*
X91171117Y-84769919D01*
X91321495Y-84872668D01*
X91500000Y-84908816D01*
X91892953Y-84908816D01*
X92100000Y-84950000D01*
X98606498Y-84950000D01*
X99656497Y-86000000D01*
X98036498Y-87620000D01*
X95888533Y-87620000D01*
X95737353Y-87468556D01*
X95259721Y-87270226D01*
X94742548Y-87269774D01*
X94264571Y-87467271D01*
X93898556Y-87832647D01*
X93700226Y-88310279D01*
X93699774Y-88827452D01*
X93897271Y-89305429D01*
X94050000Y-89458425D01*
X94050000Y-90221467D01*
X93898556Y-90372647D01*
X93700226Y-90850279D01*
X93699774Y-91367452D01*
X93897271Y-91845429D01*
X94262647Y-92211444D01*
X94668985Y-92380170D01*
X94264571Y-92547271D01*
X94111575Y-92700000D01*
X74100000Y-92700000D01*
X73796767Y-92760317D01*
X73736450Y-92772314D01*
X73428249Y-92978249D01*
X70606498Y-95800000D01*
X62990327Y-95800000D01*
X62977686Y-95736451D01*
X62908816Y-95633380D01*
X62908816Y-95500000D01*
X62877438Y-95333240D01*
X62778883Y-95180081D01*
X62628505Y-95077332D01*
X62450000Y-95041184D01*
X61550000Y-95041184D01*
X61383240Y-95072562D01*
X61262898Y-95150000D01*
X57493503Y-95150000D01*
X54458816Y-92115314D01*
X54458816Y-91000000D01*
X54427438Y-90833240D01*
X54328883Y-90680081D01*
X54178505Y-90577332D01*
X54000000Y-90541184D01*
X52000000Y-90541184D01*
X51833240Y-90572562D01*
X51680081Y-90671117D01*
X51577332Y-90821495D01*
X51541184Y-91000000D01*
X45713776Y-91000000D01*
X45763864Y-90950000D01*
X50000000Y-90950000D01*
X50303233Y-90889683D01*
X50363550Y-90877686D01*
X50671751Y-90671751D01*
X52143502Y-89200000D01*
X60741184Y-89200000D01*
X60741184Y-90800000D01*
X60772562Y-90966760D01*
X60871117Y-91119919D01*
X61021495Y-91222668D01*
X61050000Y-91228440D01*
X61050000Y-93900000D01*
X61091184Y-94107047D01*
X61091184Y-94500000D01*
X61122562Y-94666760D01*
X61221117Y-94819919D01*
X61371495Y-94922668D01*
X61550000Y-94958816D01*
X62450000Y-94958816D01*
X62616760Y-94927438D01*
X62769919Y-94828883D01*
X62872668Y-94678505D01*
X62908816Y-94500000D01*
X62908816Y-94107047D01*
X62950000Y-93900000D01*
X62950000Y-92293503D01*
X63328248Y-92671751D01*
X63636450Y-92877686D01*
X63680511Y-92886450D01*
X64000000Y-92950000D01*
X67235811Y-92950000D01*
X67312561Y-93026884D01*
X67757861Y-93211789D01*
X67944546Y-93211952D01*
X67868612Y-93287886D01*
X67759976Y-93287791D01*
X67314354Y-93471918D01*
X66973116Y-93812561D01*
X66788211Y-94257861D01*
X66787791Y-94740024D01*
X66971918Y-95185646D01*
X67312561Y-95526884D01*
X67757861Y-95711789D01*
X68240024Y-95712209D01*
X68685646Y-95528082D01*
X69026884Y-95187439D01*
X69211789Y-94742139D01*
X69211885Y-94631617D01*
X73643503Y-90200000D01*
X80250000Y-90200000D01*
X80553233Y-90139683D01*
X80613550Y-90127686D01*
X80921751Y-89921751D01*
X84671752Y-86171751D01*
X84877686Y-85863550D01*
X84912442Y-85688816D01*
X84950000Y-85500000D01*
X84950000Y-85230592D01*
X84966760Y-85227438D01*
X85119919Y-85128883D01*
X85222668Y-84978505D01*
X85228440Y-84950000D01*
X89900000Y-84950000D01*
X90107047Y-84908816D01*
X90500000Y-84908816D01*
X90666760Y-84877438D01*
X90819919Y-84778883D01*
X90922668Y-84628505D01*
X90958816Y-84450000D01*
X90958816Y-83550000D01*
X90927438Y-83383240D01*
X90828883Y-83230081D01*
X90678505Y-83127332D01*
X90500000Y-83091184D01*
X90107047Y-83091184D01*
X89900000Y-83050000D01*
X85230592Y-83050000D01*
X85227438Y-83033240D01*
X85128883Y-82880081D01*
X84978505Y-82777332D01*
X84800000Y-82741184D01*
X83200000Y-82741184D01*
X83033240Y-82772562D01*
X82880081Y-82871117D01*
X82777332Y-83021495D01*
X82775610Y-83030000D01*
X78458816Y-83030000D01*
X78458816Y-82730000D01*
X78427438Y-82563240D01*
X78328883Y-82410081D01*
X78178505Y-82307332D01*
X78000000Y-82271184D01*
X77000000Y-82271184D01*
X76833240Y-82302562D01*
X76680081Y-82401117D01*
X76577332Y-82551495D01*
X76541184Y-82730000D01*
X76541184Y-85230000D01*
X76572562Y-85396760D01*
X76671117Y-85549919D01*
X76821495Y-85652668D01*
X77000000Y-85688816D01*
X78000000Y-85688816D01*
X78166760Y-85657438D01*
X78319919Y-85558883D01*
X78422668Y-85408505D01*
X78458816Y-85230000D01*
X78458816Y-84930000D01*
X82765645Y-84930000D01*
X82772562Y-84966760D01*
X82871117Y-85119919D01*
X82969414Y-85187083D01*
X79856498Y-88300000D01*
X73250000Y-88300000D01*
X72946767Y-88360317D01*
X72886450Y-88372314D01*
X72578248Y-88578249D01*
X69212048Y-91944449D01*
X69212209Y-91759976D01*
X69028082Y-91314354D01*
X68687439Y-90973116D01*
X68242139Y-90788211D01*
X67759976Y-90787791D01*
X67314354Y-90971918D01*
X67236136Y-91050000D01*
X64393503Y-91050000D01*
X63258816Y-89915314D01*
X63258816Y-89200000D01*
X63227438Y-89033240D01*
X63128883Y-88880081D01*
X62978505Y-88777332D01*
X62800000Y-88741184D01*
X61200000Y-88741184D01*
X61033240Y-88772562D01*
X60880081Y-88871117D01*
X60777332Y-89021495D01*
X60741184Y-89200000D01*
X52143502Y-89200000D01*
X52893595Y-88449908D01*
X53287157Y-88450251D01*
X53820286Y-88229967D01*
X54228533Y-87822431D01*
X54449748Y-87289688D01*
X54450251Y-86712843D01*
X54229967Y-86179714D01*
X53822431Y-85771467D01*
X53289688Y-85550252D01*
X52712843Y-85549749D01*
X52179714Y-85770033D01*
X51771467Y-86177569D01*
X51550252Y-86710312D01*
X51549906Y-87106591D01*
X49606498Y-89050000D01*
X45764189Y-89050000D01*
X45687439Y-88973116D01*
X45242139Y-88788211D01*
X44759976Y-88787791D01*
X44314354Y-88971918D01*
X43973116Y-89312561D01*
X43788211Y-89757861D01*
X43787791Y-90240024D01*
X42525000Y-90240024D01*
X42525000Y-84937132D01*
X43062132Y-84400000D01*
X58250000Y-84400000D01*
X58308358Y-84388182D01*
X58356066Y-84356066D01*
X59356066Y-83356066D01*
X59388975Y-83306444D01*
X59400000Y-83250000D01*
X59400000Y-73562132D01*
X60312132Y-72650000D01*
X117506498Y-72650000D01*
X114856498Y-75300000D01*
X74500000Y-75300000D01*
X74196767Y-75360317D01*
X74136450Y-75372314D01*
X73828249Y-75578249D01*
X72578249Y-76828249D01*
X72372314Y-77136450D01*
X72372314Y-77136451D01*
X72300000Y-77500000D01*
X72300000Y-82891184D01*
X71625000Y-82891184D01*
X71458240Y-82922562D01*
X71305081Y-83021117D01*
X71202332Y-83171495D01*
X71166184Y-83350000D01*
X71166184Y-83520795D01*
X71122314Y-83586451D01*
X71050000Y-83950000D01*
X71122314Y-84313549D01*
X71166184Y-84379205D01*
X71166184Y-84550000D01*
X71197562Y-84716760D01*
X71296117Y-84869919D01*
X71446495Y-84972668D01*
X71625000Y-85008816D01*
X72375000Y-85008816D01*
X72541760Y-84977438D01*
X72662102Y-84900000D01*
X72998632Y-84900000D01*
X73250000Y-84950000D01*
X73350547Y-84930000D01*
X73541184Y-84930000D01*
X73541184Y-85230000D01*
X73550000Y-85276853D01*
X73550000Y-87000000D01*
X73622314Y-87363549D01*
X73828249Y-87671751D01*
X74136451Y-87877686D01*
X74500000Y-87950000D01*
X74863549Y-87877686D01*
X75171751Y-87671751D01*
X75377686Y-87363549D01*
X75450000Y-87000000D01*
X75450000Y-85273535D01*
X75458816Y-85230000D01*
X75458816Y-82730000D01*
X75427438Y-82563240D01*
X75328883Y-82410081D01*
X75178505Y-82307332D01*
X75000000Y-82271184D01*
X74200000Y-82271184D01*
X74200000Y-77893502D01*
X74893502Y-77200000D01*
X115250000Y-77200000D01*
X115569489Y-77136450D01*
X115613550Y-77127686D01*
X115921751Y-76921751D01*
X120193503Y-72650000D01*
X126000000Y-72650000D01*
X126058358Y-72638182D01*
X126107521Y-72604591D01*
X126139742Y-72554519D01*
X126150000Y-72500000D01*
X126150000Y-45812132D01*
X127062132Y-44900000D01*
X127769619Y-44900000D01*
X127700000Y-45250000D01*
X127700000Y-45250000D01*
G37*
X127700000Y-45250000D02*
X127700000Y-51088319D01*
X127677332Y-51121495D01*
X127641184Y-51300000D01*
X127641184Y-51408209D01*
X127622314Y-51436450D01*
X127550001Y-51800000D01*
X127622314Y-52163550D01*
X127641184Y-52191791D01*
X127641184Y-52300000D01*
X127672562Y-52466760D01*
X127771117Y-52619919D01*
X127921495Y-52722668D01*
X128100000Y-52758816D01*
X128900000Y-52758816D01*
X129066760Y-52727438D01*
X129219919Y-52628883D01*
X129322668Y-52478505D01*
X129358816Y-52300000D01*
X129358816Y-52266280D01*
X129527686Y-52013550D01*
X129574163Y-51779891D01*
X129600000Y-51650000D01*
X129600000Y-45250000D01*
X129530381Y-44900000D01*
X134469619Y-44900000D01*
X134400000Y-45250000D01*
X134400000Y-51650000D01*
X134425837Y-51779891D01*
X134472314Y-52013550D01*
X134641184Y-52266280D01*
X134641184Y-52300000D01*
X134672562Y-52466760D01*
X134771117Y-52619919D01*
X134921495Y-52722668D01*
X135100000Y-52758816D01*
X135900000Y-52758816D01*
X136066760Y-52727438D01*
X136219919Y-52628883D01*
X136322668Y-52478505D01*
X136358816Y-52300000D01*
X136358816Y-52191791D01*
X136377686Y-52163550D01*
X136449999Y-51800000D01*
X136377686Y-51436450D01*
X136358816Y-51408209D01*
X136358816Y-51300000D01*
X136327438Y-51133240D01*
X136300000Y-51090600D01*
X136300000Y-45250000D01*
X136230381Y-44900000D01*
X140937868Y-44900000D01*
X141475000Y-45437132D01*
X141475000Y-100657940D01*
X141421752Y-100578249D01*
X139950000Y-99106498D01*
X139950000Y-93250000D01*
X139877686Y-92886451D01*
X139779846Y-92740024D01*
X139671751Y-92578248D01*
X136450000Y-89356498D01*
X136450000Y-54200000D01*
X136377686Y-53836451D01*
X136358816Y-53808210D01*
X136358816Y-53700000D01*
X136327438Y-53533240D01*
X136228883Y-53380081D01*
X136078505Y-53277332D01*
X135900000Y-53241184D01*
X135100000Y-53241184D01*
X134933240Y-53272562D01*
X134780081Y-53371117D01*
X134677332Y-53521495D01*
X134641184Y-53700000D01*
X134641184Y-53808210D01*
X134622314Y-53836451D01*
X134550000Y-54200000D01*
X134550000Y-89750000D01*
X134599728Y-90000000D01*
X134622314Y-90113550D01*
X134828249Y-90421751D01*
X138050000Y-93643503D01*
X138050000Y-99500000D01*
X138102423Y-99763549D01*
X138122314Y-99863550D01*
X138328249Y-100171751D01*
X139800000Y-101643503D01*
X139800000Y-103106497D01*
X137828249Y-105078249D01*
X137622314Y-105386450D01*
X137622314Y-105386451D01*
X137550000Y-105750000D01*
X137550000Y-113356497D01*
X135606498Y-115300000D01*
X134393503Y-115300000D01*
X133200000Y-114106498D01*
X133200000Y-113817883D01*
X133309081Y-113708993D01*
X133499783Y-113249731D01*
X133500217Y-112752450D01*
X133310316Y-112292857D01*
X132958993Y-111940919D01*
X132499731Y-111750217D01*
X132002450Y-111749783D01*
X131542857Y-111939684D01*
X131190919Y-112291007D01*
X131000217Y-112750269D01*
X130999783Y-113247550D01*
X131189684Y-113707143D01*
X131300000Y-113817652D01*
X131300000Y-114500000D01*
X131359673Y-114800000D01*
X131372314Y-114863550D01*
X131578249Y-115171751D01*
X133328249Y-116921752D01*
X133636450Y-117127686D01*
X134000000Y-117200000D01*
X136000000Y-117200000D01*
X136303233Y-117139683D01*
X136363550Y-117127686D01*
X136671751Y-116921751D01*
X139171752Y-114421751D01*
X139377686Y-114113550D01*
X139400272Y-114000000D01*
X139450000Y-113750000D01*
X139450000Y-106143502D01*
X141421752Y-104171751D01*
X141475000Y-104092060D01*
X141475000Y-129312868D01*
X141312868Y-129475000D01*
X42687132Y-129475000D01*
X42525000Y-129312868D01*
X42525000Y-110240024D01*
X43787791Y-110240024D01*
X43971918Y-110685646D01*
X44312561Y-111026884D01*
X44757861Y-111211789D01*
X45240024Y-111212209D01*
X45685646Y-111028082D01*
X45763864Y-110950000D01*
X49606498Y-110950000D01*
X51550092Y-112893595D01*
X51549749Y-113287157D01*
X51770033Y-113820286D01*
X52177569Y-114228533D01*
X52710312Y-114449748D01*
X53287157Y-114450251D01*
X53820286Y-114229967D01*
X54228533Y-113822431D01*
X54449748Y-113289688D01*
X54450251Y-112712843D01*
X54229967Y-112179714D01*
X53822431Y-111771467D01*
X53289688Y-111550252D01*
X52893409Y-111549906D01*
X50671751Y-109328249D01*
X50363550Y-109122314D01*
X50303233Y-109110317D01*
X50000000Y-109050000D01*
X45764189Y-109050000D01*
X45687439Y-108973116D01*
X45242139Y-108788211D01*
X44759976Y-108787791D01*
X44314354Y-108971918D01*
X43973116Y-109312561D01*
X43788211Y-109757861D01*
X43787791Y-110240024D01*
X42525000Y-110240024D01*
X42525000Y-107740024D01*
X43787791Y-107740024D01*
X43971918Y-108185646D01*
X44312561Y-108526884D01*
X44757861Y-108711789D01*
X45240024Y-108712209D01*
X45685646Y-108528082D01*
X46026884Y-108187439D01*
X46211789Y-107742139D01*
X46212209Y-107259976D01*
X46104790Y-107000000D01*
X51541184Y-107000000D01*
X51541184Y-109000000D01*
X51572562Y-109166760D01*
X51671117Y-109319919D01*
X51821495Y-109422668D01*
X52000000Y-109458816D01*
X54000000Y-109458816D01*
X54166760Y-109427438D01*
X54319919Y-109328883D01*
X54407981Y-109200000D01*
X60741184Y-109200000D01*
X60741184Y-110800000D01*
X60772562Y-110966760D01*
X60871117Y-111119919D01*
X61021495Y-111222668D01*
X61200000Y-111258816D01*
X62800000Y-111258816D01*
X62966760Y-111227438D01*
X63119919Y-111128883D01*
X63222668Y-110978505D01*
X63258816Y-110800000D01*
X63258816Y-110084686D01*
X64393503Y-108950000D01*
X67235811Y-108950000D01*
X67312561Y-109026884D01*
X67757861Y-109211789D01*
X68240024Y-109212209D01*
X68685646Y-109028082D01*
X69026884Y-108687439D01*
X69211789Y-108242139D01*
X69212169Y-107805672D01*
X69300000Y-107893503D01*
X69300000Y-118250000D01*
X69359657Y-118549919D01*
X69372314Y-118613550D01*
X69578249Y-118921751D01*
X72078249Y-121421752D01*
X72386450Y-121627686D01*
X72446767Y-121639683D01*
X72750000Y-121700000D01*
X80250000Y-121700000D01*
X80553233Y-121639683D01*
X80613550Y-121627686D01*
X80921751Y-121421751D01*
X84084687Y-118258816D01*
X84800000Y-118258816D01*
X84966760Y-118227438D01*
X85119919Y-118128883D01*
X85222668Y-117978505D01*
X85228440Y-117950000D01*
X89900000Y-117950000D01*
X90107047Y-117908816D01*
X90500000Y-117908816D01*
X90666760Y-117877438D01*
X90819919Y-117778883D01*
X90922668Y-117628505D01*
X90958816Y-117450000D01*
X90958816Y-116550000D01*
X90927438Y-116383240D01*
X90828883Y-116230081D01*
X90678505Y-116127332D01*
X90500000Y-116091184D01*
X90107047Y-116091184D01*
X89900000Y-116050000D01*
X85230592Y-116050000D01*
X85227438Y-116033240D01*
X85128883Y-115880081D01*
X84978505Y-115777332D01*
X84800000Y-115741184D01*
X83200000Y-115741184D01*
X83033240Y-115772562D01*
X82880081Y-115871117D01*
X82777332Y-116021495D01*
X82775610Y-116030000D01*
X78458816Y-116030000D01*
X78458816Y-115730000D01*
X78427438Y-115563240D01*
X78328883Y-115410081D01*
X78178505Y-115307332D01*
X78000000Y-115271184D01*
X77000000Y-115271184D01*
X76833240Y-115302562D01*
X76680081Y-115401117D01*
X76577332Y-115551495D01*
X76541184Y-115730000D01*
X76541184Y-118230000D01*
X76572562Y-118396760D01*
X76671117Y-118549919D01*
X76821495Y-118652668D01*
X77000000Y-118688816D01*
X78000000Y-118688816D01*
X78166760Y-118657438D01*
X78319919Y-118558883D01*
X78422668Y-118408505D01*
X78458816Y-118230000D01*
X78458816Y-117930000D01*
X81726497Y-117930000D01*
X79856498Y-119800000D01*
X73143503Y-119800000D01*
X71200000Y-117856498D01*
X71200000Y-117720549D01*
X71296117Y-117869919D01*
X71446495Y-117972668D01*
X71625000Y-118008816D01*
X72375000Y-118008816D01*
X72541760Y-117977438D01*
X72662102Y-117900000D01*
X73541184Y-117900000D01*
X73541184Y-118230000D01*
X73572562Y-118396760D01*
X73671117Y-118549919D01*
X73821495Y-118652668D01*
X74000000Y-118688816D01*
X75000000Y-118688816D01*
X75166760Y-118657438D01*
X75319919Y-118558883D01*
X75422668Y-118408505D01*
X75458816Y-118230000D01*
X75458816Y-115730000D01*
X75427438Y-115563240D01*
X75328883Y-115410081D01*
X75178505Y-115307332D01*
X75000000Y-115271184D01*
X74200000Y-115271184D01*
X74200000Y-111143502D01*
X76421752Y-108921751D01*
X76627686Y-108613550D01*
X76699999Y-108250000D01*
X76627686Y-107886450D01*
X76421752Y-107578248D01*
X76113550Y-107372314D01*
X75750000Y-107300001D01*
X75386450Y-107372314D01*
X75078249Y-107578248D01*
X72578249Y-110078249D01*
X72372314Y-110386450D01*
X72372314Y-110386451D01*
X72300000Y-110750000D01*
X72300000Y-115891184D01*
X71625000Y-115891184D01*
X71458240Y-115922562D01*
X71305081Y-116021117D01*
X71202332Y-116171495D01*
X71200000Y-116183011D01*
X71200000Y-107500000D01*
X71127686Y-107136451D01*
X71127686Y-107136450D01*
X70921751Y-106828248D01*
X69112737Y-105019235D01*
X69028082Y-104814354D01*
X68687439Y-104473116D01*
X68242139Y-104288211D01*
X67759976Y-104287791D01*
X67314354Y-104471918D01*
X66973116Y-104812561D01*
X66788211Y-105257861D01*
X66787791Y-105740024D01*
X66971918Y-106185646D01*
X67312561Y-106526884D01*
X67757861Y-106711789D01*
X68118601Y-106712103D01*
X68194667Y-106788170D01*
X67759976Y-106787791D01*
X67314354Y-106971918D01*
X67236136Y-107050000D01*
X64000000Y-107050000D01*
X63696767Y-107110317D01*
X63636450Y-107122314D01*
X63328248Y-107328249D01*
X62950000Y-107706497D01*
X62950000Y-106100000D01*
X62908816Y-105892953D01*
X62908816Y-105500000D01*
X62877438Y-105333240D01*
X62778883Y-105180081D01*
X62628505Y-105077332D01*
X62450000Y-105041184D01*
X61550000Y-105041184D01*
X61383240Y-105072562D01*
X61230081Y-105171117D01*
X61127332Y-105321495D01*
X61091184Y-105500000D01*
X61091184Y-105892953D01*
X61050000Y-106100000D01*
X61050000Y-108769408D01*
X61033240Y-108772562D01*
X60880081Y-108871117D01*
X60777332Y-109021495D01*
X60741184Y-109200000D01*
X54407981Y-109200000D01*
X54422668Y-109178505D01*
X54458816Y-109000000D01*
X54458816Y-107884686D01*
X57493503Y-104850000D01*
X61265142Y-104850000D01*
X61371495Y-104922668D01*
X61550000Y-104958816D01*
X62450000Y-104958816D01*
X62616760Y-104927438D01*
X62769919Y-104828883D01*
X62872668Y-104678505D01*
X62908816Y-104500000D01*
X62908816Y-104434686D01*
X63143503Y-104200000D01*
X70606498Y-104200000D01*
X73428249Y-107021751D01*
X73736450Y-107227686D01*
X73796767Y-107239683D01*
X74100000Y-107300000D01*
X94111467Y-107300000D01*
X94262647Y-107451444D01*
X94668985Y-107620170D01*
X94264571Y-107787271D01*
X93898556Y-108152647D01*
X93700226Y-108630279D01*
X93699774Y-109147452D01*
X93897271Y-109625429D01*
X94050000Y-109778425D01*
X94050000Y-110541467D01*
X93898556Y-110692647D01*
X93700226Y-111170279D01*
X93699774Y-111687452D01*
X93897271Y-112165429D01*
X94262647Y-112531444D01*
X94740279Y-112729774D01*
X95257452Y-112730226D01*
X95735429Y-112532729D01*
X95888425Y-112380000D01*
X98036498Y-112380000D01*
X99656497Y-114000000D01*
X97606498Y-116050000D01*
X92100000Y-116050000D01*
X91892953Y-116091184D01*
X91500000Y-116091184D01*
X91333240Y-116122562D01*
X91180081Y-116221117D01*
X91077332Y-116371495D01*
X91041184Y-116550000D01*
X91041184Y-117450000D01*
X91072562Y-117616760D01*
X91171117Y-117769919D01*
X91321495Y-117872668D01*
X91500000Y-117908816D01*
X91892953Y-117908816D01*
X92100000Y-117950000D01*
X98000000Y-117950000D01*
X98319489Y-117886450D01*
X98363550Y-117877686D01*
X98671751Y-117671751D01*
X101084687Y-115258816D01*
X101800000Y-115258816D01*
X101966760Y-115227438D01*
X102119919Y-115128883D01*
X102222668Y-114978505D01*
X102258816Y-114800000D01*
X102258816Y-113200000D01*
X102227438Y-113033240D01*
X102128883Y-112880081D01*
X101978505Y-112777332D01*
X101800000Y-112741184D01*
X101084687Y-112741184D01*
X99101751Y-110758249D01*
X98793550Y-110552314D01*
X98733233Y-110540317D01*
X98430000Y-110480000D01*
X95950000Y-110480000D01*
X95950000Y-109778533D01*
X96101444Y-109627353D01*
X96299774Y-109149721D01*
X96300226Y-108632548D01*
X96102729Y-108154571D01*
X95737353Y-107788556D01*
X95331015Y-107619830D01*
X95735429Y-107452729D01*
X96101444Y-107087353D01*
X96299774Y-106609721D01*
X96300219Y-106100000D01*
X98050000Y-106100000D01*
X98091184Y-106307047D01*
X98091184Y-106700000D01*
X98122562Y-106866760D01*
X98221117Y-107019919D01*
X98371495Y-107122668D01*
X98550000Y-107158816D01*
X98865314Y-107158816D01*
X100691184Y-108984687D01*
X100691184Y-110150000D01*
X100722562Y-110316760D01*
X100821117Y-110469919D01*
X100971495Y-110572668D01*
X101150000Y-110608816D01*
X102265314Y-110608816D01*
X107741184Y-116084687D01*
X107741184Y-116800000D01*
X107772562Y-116966760D01*
X107871117Y-117119919D01*
X108021495Y-117222668D01*
X108200000Y-117258816D01*
X109800000Y-117258816D01*
X109966760Y-117227438D01*
X110119919Y-117128883D01*
X110222668Y-116978505D01*
X110258816Y-116800000D01*
X110258816Y-116084686D01*
X111171751Y-115171752D01*
X111319922Y-114949999D01*
X111377686Y-114863549D01*
X111450000Y-114500000D01*
X111450000Y-107287157D01*
X111549749Y-107287157D01*
X111770033Y-107820286D01*
X112177569Y-108228533D01*
X112710312Y-108449748D01*
X113287157Y-108450251D01*
X113820286Y-108229967D01*
X114228533Y-107822431D01*
X114449748Y-107289688D01*
X114450251Y-106712843D01*
X114279669Y-106300000D01*
X118341184Y-106300000D01*
X118341184Y-107200000D01*
X118372562Y-107366760D01*
X118471117Y-107519919D01*
X118621495Y-107622668D01*
X118800000Y-107658816D01*
X118965314Y-107658816D01*
X121978249Y-110671751D01*
X122286450Y-110877686D01*
X122346767Y-110889683D01*
X122650000Y-110950000D01*
X129750000Y-110950000D01*
X130053233Y-110889683D01*
X130113550Y-110877686D01*
X130421751Y-110671751D01*
X133434687Y-107658816D01*
X133500000Y-107658816D01*
X133666760Y-107627438D01*
X133819919Y-107528883D01*
X133922668Y-107378505D01*
X133958816Y-107200000D01*
X133958816Y-106300000D01*
X134041184Y-106300000D01*
X134041184Y-107200000D01*
X134072562Y-107366760D01*
X134171117Y-107519919D01*
X134321495Y-107622668D01*
X134500000Y-107658816D01*
X134892955Y-107658816D01*
X135100000Y-107699999D01*
X135307045Y-107658816D01*
X135700000Y-107658816D01*
X135866760Y-107627438D01*
X136019919Y-107528883D01*
X136122668Y-107378505D01*
X136158816Y-107200000D01*
X136158816Y-107034686D01*
X136671751Y-106521752D01*
X136877686Y-106213550D01*
X136893660Y-106133240D01*
X136950000Y-105850000D01*
X136950000Y-103338902D01*
X137200158Y-103171751D01*
X137406093Y-102863549D01*
X137478407Y-102500000D01*
X137406093Y-102136451D01*
X137200158Y-101828249D01*
X136891956Y-101622314D01*
X136528407Y-101550000D01*
X135471593Y-101550000D01*
X135108044Y-101622314D01*
X134799842Y-101828249D01*
X134593907Y-102136451D01*
X134521593Y-102500000D01*
X134593907Y-102863549D01*
X134799842Y-103171751D01*
X135050000Y-103338902D01*
X135050000Y-105456497D01*
X134665314Y-105841184D01*
X134500000Y-105841184D01*
X134333240Y-105872562D01*
X134180081Y-105971117D01*
X134077332Y-106121495D01*
X134041184Y-106300000D01*
X133958816Y-106300000D01*
X133927438Y-106133240D01*
X133828883Y-105980081D01*
X133678505Y-105877332D01*
X133500000Y-105841184D01*
X133107047Y-105841184D01*
X132900000Y-105800000D01*
X132692953Y-105841184D01*
X132300000Y-105841184D01*
X132133240Y-105872562D01*
X131980081Y-105971117D01*
X131877332Y-106121495D01*
X131841184Y-106300000D01*
X131841184Y-106565313D01*
X129356498Y-109050000D01*
X123043502Y-109050000D01*
X121693502Y-107700000D01*
X123400000Y-107700000D01*
X123607047Y-107658816D01*
X124000000Y-107658816D01*
X124166760Y-107627438D01*
X124319919Y-107528883D01*
X124422668Y-107378505D01*
X124458816Y-107200000D01*
X124458816Y-106300000D01*
X124427438Y-106133240D01*
X124350000Y-106012898D01*
X124350000Y-105419029D01*
X124601646Y-105587174D01*
X125080000Y-105682325D01*
X125558354Y-105587174D01*
X125963883Y-105316208D01*
X126234849Y-104910679D01*
X126330000Y-104432325D01*
X126330000Y-103567675D01*
X126370000Y-103567675D01*
X126370000Y-104432325D01*
X126465151Y-104910679D01*
X126736117Y-105316208D01*
X127141646Y-105587174D01*
X127620000Y-105682325D01*
X128098354Y-105587174D01*
X128503883Y-105316208D01*
X128774849Y-104910679D01*
X128870000Y-104432325D01*
X128870000Y-103567675D01*
X128774849Y-103089321D01*
X128503883Y-102683792D01*
X128228820Y-102500000D01*
X130521593Y-102500000D01*
X130593907Y-102863549D01*
X130799842Y-103171751D01*
X131108044Y-103377686D01*
X131471593Y-103450000D01*
X132528407Y-103450000D01*
X132891956Y-103377686D01*
X133200158Y-103171751D01*
X133406093Y-102863549D01*
X133478407Y-102500000D01*
X133456025Y-102387477D01*
X135771751Y-100071751D01*
X135977686Y-99763550D01*
X135989683Y-99703233D01*
X136050000Y-99400000D01*
X136050000Y-94234858D01*
X136122668Y-94128505D01*
X136158816Y-93950000D01*
X136158816Y-93050000D01*
X136127438Y-92883240D01*
X136028883Y-92730081D01*
X135878505Y-92627332D01*
X135700000Y-92591184D01*
X135307047Y-92591184D01*
X135100000Y-92550000D01*
X134892953Y-92591184D01*
X134500000Y-92591184D01*
X134333240Y-92622562D01*
X134180081Y-92721117D01*
X134077332Y-92871495D01*
X134041184Y-93050000D01*
X134041184Y-93950000D01*
X134072562Y-94116760D01*
X134150000Y-94237102D01*
X134150000Y-99006498D01*
X131606498Y-101550000D01*
X131471593Y-101550000D01*
X131108044Y-101622314D01*
X130799842Y-101828249D01*
X130593907Y-102136451D01*
X130521593Y-102500000D01*
X128228820Y-102500000D01*
X128098354Y-102412826D01*
X127620000Y-102317675D01*
X127141646Y-102412826D01*
X126736117Y-102683792D01*
X126465151Y-103089321D01*
X126370000Y-103567675D01*
X126330000Y-103567675D01*
X126234849Y-103089321D01*
X125963883Y-102683792D01*
X125558354Y-102412826D01*
X125080000Y-102317675D01*
X124601646Y-102412826D01*
X124196117Y-102683792D01*
X123925151Y-103089321D01*
X123830000Y-103567675D01*
X123830000Y-103946497D01*
X123790000Y-103906497D01*
X123790000Y-103567675D01*
X123694849Y-103089321D01*
X123423883Y-102683792D01*
X123018354Y-102412826D01*
X122540000Y-102317675D01*
X122061646Y-102412826D01*
X121656117Y-102683792D01*
X121385151Y-103089321D01*
X121290000Y-103567675D01*
X121290000Y-104432325D01*
X121385151Y-104910679D01*
X121656117Y-105316208D01*
X122061646Y-105587174D01*
X122450000Y-105664423D01*
X122450000Y-105800000D01*
X121600000Y-105800000D01*
X121392953Y-105841184D01*
X121000000Y-105841184D01*
X120833240Y-105872562D01*
X120680081Y-105971117D01*
X120577332Y-106121495D01*
X120541184Y-106300000D01*
X120541184Y-106547682D01*
X120458816Y-106465314D01*
X120458816Y-106300000D01*
X120427438Y-106133240D01*
X120350000Y-106012898D01*
X120350000Y-105658816D01*
X120800000Y-105658816D01*
X120966760Y-105627438D01*
X121119919Y-105528883D01*
X121222668Y-105378505D01*
X121258816Y-105200000D01*
X121258816Y-102800000D01*
X121227438Y-102633240D01*
X121128883Y-102480081D01*
X120978505Y-102377332D01*
X120800000Y-102341184D01*
X119200000Y-102341184D01*
X119033240Y-102372562D01*
X118880081Y-102471117D01*
X118777332Y-102621495D01*
X118741184Y-102800000D01*
X118741184Y-103915314D01*
X118728249Y-103928249D01*
X118522314Y-104236450D01*
X118522314Y-104236451D01*
X118450000Y-104600000D01*
X118450000Y-106015142D01*
X118377332Y-106121495D01*
X118341184Y-106300000D01*
X114279669Y-106300000D01*
X114229967Y-106179714D01*
X113822431Y-105771467D01*
X113289688Y-105550252D01*
X112712843Y-105549749D01*
X112179714Y-105770033D01*
X111771467Y-106177569D01*
X111550252Y-106710312D01*
X111549749Y-107287157D01*
X111450000Y-107287157D01*
X111450000Y-93287157D01*
X111549749Y-93287157D01*
X111770033Y-93820286D01*
X112177569Y-94228533D01*
X112710312Y-94449748D01*
X113287157Y-94450251D01*
X113820286Y-94229967D01*
X114228533Y-93822431D01*
X114449748Y-93289688D01*
X114450251Y-92712843D01*
X114229967Y-92179714D01*
X113822431Y-91771467D01*
X113289688Y-91550252D01*
X112712843Y-91549749D01*
X112179714Y-91770033D01*
X111771467Y-92177569D01*
X111550252Y-92710312D01*
X111549749Y-93287157D01*
X111450000Y-93287157D01*
X111450000Y-85500000D01*
X111377686Y-85136451D01*
X111301587Y-85022562D01*
X111253103Y-84950000D01*
X121106498Y-84950000D01*
X122491184Y-86334687D01*
X122491184Y-87050000D01*
X122522562Y-87216760D01*
X122621117Y-87369919D01*
X122771495Y-87472668D01*
X122800000Y-87478440D01*
X122800000Y-89356497D01*
X120715314Y-91441184D01*
X118850000Y-91441184D01*
X118683240Y-91472562D01*
X118530081Y-91571117D01*
X118427332Y-91721495D01*
X118391184Y-91900000D01*
X118391184Y-93700000D01*
X118422562Y-93866760D01*
X118521117Y-94019919D01*
X118671495Y-94122668D01*
X118850000Y-94158816D01*
X119050000Y-94158816D01*
X119050000Y-95162743D01*
X118845151Y-95469321D01*
X118750000Y-95947675D01*
X118750000Y-96812325D01*
X118845151Y-97290679D01*
X119116117Y-97696208D01*
X119521646Y-97967174D01*
X120000000Y-98062325D01*
X120478354Y-97967174D01*
X120883883Y-97696208D01*
X121154849Y-97290679D01*
X121250000Y-96812325D01*
X121250000Y-95947675D01*
X121290000Y-95947675D01*
X121290000Y-96812325D01*
X121385151Y-97290679D01*
X121656117Y-97696208D01*
X122061646Y-97967174D01*
X122540000Y-98062325D01*
X123018354Y-97967174D01*
X123423883Y-97696208D01*
X123694849Y-97290679D01*
X123790000Y-96812325D01*
X123790000Y-95947675D01*
X123694849Y-95469321D01*
X123490000Y-95162743D01*
X123490000Y-95003502D01*
X124084686Y-94408816D01*
X124250000Y-94408816D01*
X124416760Y-94377438D01*
X124569919Y-94278883D01*
X124672668Y-94128505D01*
X124708816Y-93950000D01*
X124708816Y-93784686D01*
X124791184Y-93702318D01*
X124791184Y-93950000D01*
X124822562Y-94116760D01*
X124900000Y-94237102D01*
X124900000Y-94733479D01*
X124601646Y-94792826D01*
X124196117Y-95063792D01*
X123925151Y-95469321D01*
X123830000Y-95947675D01*
X123830000Y-96812325D01*
X123925151Y-97290679D01*
X124196117Y-97696208D01*
X124601646Y-97967174D01*
X125080000Y-98062325D01*
X125558354Y-97967174D01*
X125963883Y-97696208D01*
X126234849Y-97290679D01*
X126330000Y-96812325D01*
X126330000Y-96473503D01*
X126370000Y-96433503D01*
X126370000Y-96812325D01*
X126465151Y-97290679D01*
X126736117Y-97696208D01*
X127141646Y-97967174D01*
X127620000Y-98062325D01*
X128098354Y-97967174D01*
X128503883Y-97696208D01*
X128774849Y-97290679D01*
X128870000Y-96812325D01*
X128870000Y-95947675D01*
X128774849Y-95469321D01*
X128503883Y-95063792D01*
X128098354Y-94792826D01*
X127620000Y-94697675D01*
X127141646Y-94792826D01*
X126800000Y-95021107D01*
X126800000Y-94450000D01*
X127650000Y-94450000D01*
X127857047Y-94408816D01*
X128250000Y-94408816D01*
X128416760Y-94377438D01*
X128569919Y-94278883D01*
X128672668Y-94128505D01*
X128708816Y-93950000D01*
X128708816Y-93050000D01*
X128677438Y-92883240D01*
X128578883Y-92730081D01*
X128428505Y-92627332D01*
X128250000Y-92591184D01*
X127857047Y-92591184D01*
X127650000Y-92550000D01*
X125943502Y-92550000D01*
X127293502Y-91200000D01*
X129356498Y-91200000D01*
X131841184Y-93684687D01*
X131841184Y-93950000D01*
X131872562Y-94116760D01*
X131971117Y-94269919D01*
X132121495Y-94372668D01*
X132300000Y-94408816D01*
X132692953Y-94408816D01*
X132900000Y-94450000D01*
X133107047Y-94408816D01*
X133500000Y-94408816D01*
X133666760Y-94377438D01*
X133819919Y-94278883D01*
X133922668Y-94128505D01*
X133958816Y-93950000D01*
X133958816Y-93050000D01*
X133927438Y-92883240D01*
X133828883Y-92730081D01*
X133678505Y-92627332D01*
X133500000Y-92591184D01*
X133434687Y-92591184D01*
X130421751Y-89578249D01*
X130113550Y-89372314D01*
X130053233Y-89360317D01*
X129750000Y-89300000D01*
X126900000Y-89300000D01*
X126596767Y-89360317D01*
X126536450Y-89372314D01*
X126228249Y-89578249D01*
X123215314Y-92591184D01*
X123050000Y-92591184D01*
X122883240Y-92622562D01*
X122730081Y-92721117D01*
X122627332Y-92871495D01*
X122591184Y-93050000D01*
X122591184Y-93215314D01*
X121868249Y-93938249D01*
X121662314Y-94246450D01*
X121662314Y-94246451D01*
X121590000Y-94610000D01*
X121590000Y-95162743D01*
X121385151Y-95469321D01*
X121290000Y-95947675D01*
X121250000Y-95947675D01*
X121154849Y-95469321D01*
X120950000Y-95162743D01*
X120950000Y-94158816D01*
X121150000Y-94158816D01*
X121316760Y-94127438D01*
X121469919Y-94028883D01*
X121572668Y-93878505D01*
X121608816Y-93700000D01*
X121608816Y-93234686D01*
X124421751Y-90421752D01*
X124618240Y-90127686D01*
X124627686Y-90113549D01*
X124700000Y-89750000D01*
X124700000Y-87480592D01*
X124716760Y-87477438D01*
X124869919Y-87378883D01*
X124972668Y-87228505D01*
X125008816Y-87050000D01*
X125008816Y-86334686D01*
X129171751Y-82171752D01*
X129377685Y-81863550D01*
X129377686Y-81863549D01*
X129450000Y-81500000D01*
X129450000Y-54200000D01*
X129377686Y-53836451D01*
X129358816Y-53808210D01*
X129358816Y-53700000D01*
X129327438Y-53533240D01*
X129228883Y-53380081D01*
X129078505Y-53277332D01*
X128900000Y-53241184D01*
X128100000Y-53241184D01*
X127933240Y-53272562D01*
X127780081Y-53371117D01*
X127677332Y-53521495D01*
X127641184Y-53700000D01*
X127641184Y-53808210D01*
X127622314Y-53836451D01*
X127550000Y-54200000D01*
X127550000Y-81106497D01*
X123750000Y-84906498D01*
X122171751Y-83328249D01*
X121863550Y-83122314D01*
X121803233Y-83110317D01*
X121500000Y-83050000D01*
X110230592Y-83050000D01*
X110227438Y-83033240D01*
X110128883Y-82880081D01*
X109978505Y-82777332D01*
X109800000Y-82741184D01*
X108200000Y-82741184D01*
X108033240Y-82772562D01*
X107880081Y-82871117D01*
X107777332Y-83021495D01*
X107741184Y-83200000D01*
X107741184Y-83915313D01*
X102265314Y-89391184D01*
X101150000Y-89391184D01*
X100983240Y-89422562D01*
X100830081Y-89521117D01*
X100727332Y-89671495D01*
X100691184Y-89850000D01*
X100691184Y-90865313D01*
X98715314Y-92841184D01*
X98550000Y-92841184D01*
X98383240Y-92872562D01*
X98230081Y-92971117D01*
X98127332Y-93121495D01*
X98091184Y-93300000D01*
X98091184Y-93692955D01*
X98050001Y-93900000D01*
X98091184Y-94107045D01*
X98091184Y-94500000D01*
X98122562Y-94666760D01*
X98221117Y-94819919D01*
X98371495Y-94922668D01*
X98550000Y-94958816D01*
X99450000Y-94958816D01*
X99616760Y-94927438D01*
X99769919Y-94828883D01*
X99872668Y-94678505D01*
X99908816Y-94500000D01*
X99908816Y-94334686D01*
X101634687Y-92608816D01*
X102950000Y-92608816D01*
X103116760Y-92577438D01*
X103269919Y-92478883D01*
X103372668Y-92328505D01*
X103408816Y-92150000D01*
X103408816Y-90934686D01*
X109000000Y-85343503D01*
X109550000Y-85893503D01*
X109550000Y-114106497D01*
X109000000Y-114656497D01*
X103408816Y-109065314D01*
X103408816Y-107850000D01*
X103377438Y-107683240D01*
X103278883Y-107530081D01*
X103128505Y-107427332D01*
X102950000Y-107391184D01*
X101784687Y-107391184D01*
X99908816Y-105515314D01*
X99908816Y-105500000D01*
X99877438Y-105333240D01*
X99778883Y-105180081D01*
X99628505Y-105077332D01*
X99450000Y-105041184D01*
X98550000Y-105041184D01*
X98383240Y-105072562D01*
X98230081Y-105171117D01*
X98127332Y-105321495D01*
X98091184Y-105500000D01*
X98091184Y-105892953D01*
X98050000Y-106100000D01*
X96300219Y-106100000D01*
X96300226Y-106092548D01*
X96102729Y-105614571D01*
X95737353Y-105248556D01*
X95331015Y-105079830D01*
X95735429Y-104912729D01*
X95888425Y-104760000D01*
X98182560Y-104760000D01*
X98221117Y-104819919D01*
X98371495Y-104922668D01*
X98550000Y-104958816D01*
X99450000Y-104958816D01*
X99616760Y-104927438D01*
X99737102Y-104850000D01*
X104506498Y-104850000D01*
X106541184Y-106884686D01*
X106541184Y-108000000D01*
X106572562Y-108166760D01*
X106671117Y-108319919D01*
X106821495Y-108422668D01*
X107000000Y-108458816D01*
X109000000Y-108458816D01*
X109166760Y-108427438D01*
X109319919Y-108328883D01*
X109422668Y-108178505D01*
X109458816Y-108000000D01*
X109458816Y-106000000D01*
X109427438Y-105833240D01*
X109328883Y-105680081D01*
X109178505Y-105577332D01*
X109000000Y-105541184D01*
X107884686Y-105541184D01*
X105571751Y-103228249D01*
X105263550Y-103022314D01*
X105203233Y-103010317D01*
X104900000Y-102950000D01*
X99734858Y-102950000D01*
X99628505Y-102877332D01*
X99450000Y-102841184D01*
X98550000Y-102841184D01*
X98450001Y-102860000D01*
X95888533Y-102860000D01*
X95737353Y-102708556D01*
X95259721Y-102510226D01*
X94742548Y-102509774D01*
X94264571Y-102707271D01*
X93898556Y-103072647D01*
X93700226Y-103550279D01*
X93699774Y-104067452D01*
X93897271Y-104545429D01*
X94262647Y-104911444D01*
X94668985Y-105080170D01*
X94264571Y-105247271D01*
X94111575Y-105400000D01*
X74493502Y-105400000D01*
X71671751Y-102578249D01*
X71363550Y-102372314D01*
X71303233Y-102360317D01*
X71000000Y-102300000D01*
X62750000Y-102300000D01*
X62386450Y-102372314D01*
X62078249Y-102578248D01*
X61815313Y-102841184D01*
X61550000Y-102841184D01*
X61383240Y-102872562D01*
X61262898Y-102950000D01*
X57100000Y-102950000D01*
X56736451Y-103022314D01*
X56428249Y-103228248D01*
X53115314Y-106541184D01*
X52000000Y-106541184D01*
X51833240Y-106572562D01*
X51680081Y-106671117D01*
X51577332Y-106821495D01*
X51541184Y-107000000D01*
X46104790Y-107000000D01*
X46028082Y-106814354D01*
X45950000Y-106736136D01*
X45950000Y-105393502D01*
X52671751Y-98671751D01*
X52864605Y-98383126D01*
X52891956Y-98377686D01*
X53200158Y-98171751D01*
X53406093Y-97863549D01*
X53478407Y-97500000D01*
X53406093Y-97136451D01*
X53200158Y-96828249D01*
X52891956Y-96622314D01*
X52528407Y-96550000D01*
X51471593Y-96550000D01*
X51108044Y-96622314D01*
X50799842Y-96828249D01*
X50593907Y-97136451D01*
X50521593Y-97500000D01*
X50593907Y-97863549D01*
X50673632Y-97982866D01*
X44328249Y-104328249D01*
X44122314Y-104636450D01*
X44122314Y-104636451D01*
X44050000Y-105000000D01*
X44050000Y-106735811D01*
X43973116Y-106812561D01*
X43788211Y-107257861D01*
X43787791Y-107740024D01*
X42525000Y-107740024D01*
X42525000Y-92740024D01*
X43787791Y-92740024D01*
X43971918Y-93185646D01*
X44312561Y-93526884D01*
X44757861Y-93711789D01*
X44868383Y-93711885D01*
X47050000Y-95893503D01*
X47050000Y-96661098D01*
X46799842Y-96828249D01*
X46593907Y-97136451D01*
X46521593Y-97500000D01*
X46593907Y-97863549D01*
X46799842Y-98171751D01*
X47108044Y-98377686D01*
X47471593Y-98450000D01*
X48528407Y-98450000D01*
X48891956Y-98377686D01*
X49200158Y-98171751D01*
X49406093Y-97863549D01*
X49478407Y-97500000D01*
X49406093Y-97136451D01*
X49200158Y-96828249D01*
X48950000Y-96661098D01*
X48950000Y-95500000D01*
X48887828Y-95187439D01*
X48877686Y-95136450D01*
X48671752Y-94828249D01*
X46212114Y-92368612D01*
X46212209Y-92259976D01*
X46028082Y-91814354D01*
X45687439Y-91473116D01*
X45242139Y-91288211D01*
X44759976Y-91287791D01*
X44314354Y-91471918D01*
X43973116Y-91812561D01*
X43788211Y-92257861D01*
X43787791Y-92740024D01*
X42525000Y-92740024D01*
X42525000Y-90240024D01*
X43787791Y-90240024D01*
X43971918Y-90685646D01*
X44312561Y-91026884D01*
X44757861Y-91211789D01*
X45240024Y-91212209D01*
X45685646Y-91028082D01*
X45713776Y-91000000D01*
X51541184Y-91000000D01*
X51541184Y-93000000D01*
X51572562Y-93166760D01*
X51671117Y-93319919D01*
X51821495Y-93422668D01*
X52000000Y-93458816D01*
X53115314Y-93458816D01*
X56428249Y-96771752D01*
X56727569Y-96971751D01*
X56736451Y-96977686D01*
X57100000Y-97050000D01*
X61265142Y-97050000D01*
X61371495Y-97122668D01*
X61550000Y-97158816D01*
X61565314Y-97158816D01*
X61828249Y-97421752D01*
X62136450Y-97627686D01*
X62500000Y-97700000D01*
X71000000Y-97700000D01*
X71319489Y-97636450D01*
X71363550Y-97627686D01*
X71671751Y-97421751D01*
X74493502Y-94600000D01*
X94111467Y-94600000D01*
X94262647Y-94751444D01*
X94668985Y-94920170D01*
X94264571Y-95087271D01*
X93898556Y-95452647D01*
X93700226Y-95930279D01*
X93699774Y-96447452D01*
X93897271Y-96925429D01*
X94262647Y-97291444D01*
X94740279Y-97489774D01*
X95257452Y-97490226D01*
X95735429Y-97292729D01*
X95888425Y-97140000D01*
X98457083Y-97140000D01*
X98550000Y-97158816D01*
X99450000Y-97158816D01*
X99616760Y-97127438D01*
X99737102Y-97050000D01*
X104900000Y-97050000D01*
X105203233Y-96989683D01*
X105263550Y-96977686D01*
X105571751Y-96771751D01*
X107884686Y-94458816D01*
X109000000Y-94458816D01*
X109166760Y-94427438D01*
X109319919Y-94328883D01*
X109422668Y-94178505D01*
X109458816Y-94000000D01*
X109458816Y-92000000D01*
X109427438Y-91833240D01*
X109328883Y-91680081D01*
X109178505Y-91577332D01*
X109000000Y-91541184D01*
X107000000Y-91541184D01*
X106833240Y-91572562D01*
X106680081Y-91671117D01*
X106577332Y-91821495D01*
X106541184Y-92000000D01*
X106541184Y-93115314D01*
X104506498Y-95150000D01*
X99734858Y-95150000D01*
X99628505Y-95077332D01*
X99450000Y-95041184D01*
X98550000Y-95041184D01*
X98383240Y-95072562D01*
X98230081Y-95171117D01*
X98183015Y-95240000D01*
X95888533Y-95240000D01*
X95737353Y-95088556D01*
X95331015Y-94919830D01*
X95735429Y-94752729D01*
X96101444Y-94387353D01*
X96299774Y-93909721D01*
X96300226Y-93392548D01*
X96102729Y-92914571D01*
X95737353Y-92548556D01*
X95331015Y-92379830D01*
X95735429Y-92212729D01*
X96101444Y-91847353D01*
X96299774Y-91369721D01*
X96300226Y-90852548D01*
X96102729Y-90374571D01*
X95950000Y-90221575D01*
X95950000Y-89520000D01*
X98430000Y-89520000D01*
X98733233Y-89459683D01*
X98793550Y-89447686D01*
X99101751Y-89241751D01*
X101084687Y-87258816D01*
X101800000Y-87258816D01*
X101966760Y-87227438D01*
X102119919Y-87128883D01*
X102222668Y-86978505D01*
X102258816Y-86800000D01*
X102258816Y-85200000D01*
X102227438Y-85033240D01*
X102128883Y-84880081D01*
X101978505Y-84777332D01*
X101800000Y-84741184D01*
X101084687Y-84741184D01*
X99671751Y-83328249D01*
X99363550Y-83122314D01*
X99303233Y-83110317D01*
X99000000Y-83050000D01*
X92100000Y-83050000D01*
X91892953Y-83091184D01*
X91500000Y-83091184D01*
X91333240Y-83122562D01*
X91180081Y-83221117D01*
X91077332Y-83371495D01*
X91041184Y-83550000D01*
X91041184Y-84450000D01*
X91072562Y-84616760D01*
X91171117Y-84769919D01*
X91321495Y-84872668D01*
X91500000Y-84908816D01*
X91892953Y-84908816D01*
X92100000Y-84950000D01*
X98606498Y-84950000D01*
X99656497Y-86000000D01*
X98036498Y-87620000D01*
X95888533Y-87620000D01*
X95737353Y-87468556D01*
X95259721Y-87270226D01*
X94742548Y-87269774D01*
X94264571Y-87467271D01*
X93898556Y-87832647D01*
X93700226Y-88310279D01*
X93699774Y-88827452D01*
X93897271Y-89305429D01*
X94050000Y-89458425D01*
X94050000Y-90221467D01*
X93898556Y-90372647D01*
X93700226Y-90850279D01*
X93699774Y-91367452D01*
X93897271Y-91845429D01*
X94262647Y-92211444D01*
X94668985Y-92380170D01*
X94264571Y-92547271D01*
X94111575Y-92700000D01*
X74100000Y-92700000D01*
X73796767Y-92760317D01*
X73736450Y-92772314D01*
X73428249Y-92978249D01*
X70606498Y-95800000D01*
X62990327Y-95800000D01*
X62977686Y-95736451D01*
X62908816Y-95633380D01*
X62908816Y-95500000D01*
X62877438Y-95333240D01*
X62778883Y-95180081D01*
X62628505Y-95077332D01*
X62450000Y-95041184D01*
X61550000Y-95041184D01*
X61383240Y-95072562D01*
X61262898Y-95150000D01*
X57493503Y-95150000D01*
X54458816Y-92115314D01*
X54458816Y-91000000D01*
X54427438Y-90833240D01*
X54328883Y-90680081D01*
X54178505Y-90577332D01*
X54000000Y-90541184D01*
X52000000Y-90541184D01*
X51833240Y-90572562D01*
X51680081Y-90671117D01*
X51577332Y-90821495D01*
X51541184Y-91000000D01*
X45713776Y-91000000D01*
X45763864Y-90950000D01*
X50000000Y-90950000D01*
X50303233Y-90889683D01*
X50363550Y-90877686D01*
X50671751Y-90671751D01*
X52143502Y-89200000D01*
X60741184Y-89200000D01*
X60741184Y-90800000D01*
X60772562Y-90966760D01*
X60871117Y-91119919D01*
X61021495Y-91222668D01*
X61050000Y-91228440D01*
X61050000Y-93900000D01*
X61091184Y-94107047D01*
X61091184Y-94500000D01*
X61122562Y-94666760D01*
X61221117Y-94819919D01*
X61371495Y-94922668D01*
X61550000Y-94958816D01*
X62450000Y-94958816D01*
X62616760Y-94927438D01*
X62769919Y-94828883D01*
X62872668Y-94678505D01*
X62908816Y-94500000D01*
X62908816Y-94107047D01*
X62950000Y-93900000D01*
X62950000Y-92293503D01*
X63328248Y-92671751D01*
X63636450Y-92877686D01*
X63680511Y-92886450D01*
X64000000Y-92950000D01*
X67235811Y-92950000D01*
X67312561Y-93026884D01*
X67757861Y-93211789D01*
X67944546Y-93211952D01*
X67868612Y-93287886D01*
X67759976Y-93287791D01*
X67314354Y-93471918D01*
X66973116Y-93812561D01*
X66788211Y-94257861D01*
X66787791Y-94740024D01*
X66971918Y-95185646D01*
X67312561Y-95526884D01*
X67757861Y-95711789D01*
X68240024Y-95712209D01*
X68685646Y-95528082D01*
X69026884Y-95187439D01*
X69211789Y-94742139D01*
X69211885Y-94631617D01*
X73643503Y-90200000D01*
X80250000Y-90200000D01*
X80553233Y-90139683D01*
X80613550Y-90127686D01*
X80921751Y-89921751D01*
X84671752Y-86171751D01*
X84877686Y-85863550D01*
X84912442Y-85688816D01*
X84950000Y-85500000D01*
X84950000Y-85230592D01*
X84966760Y-85227438D01*
X85119919Y-85128883D01*
X85222668Y-84978505D01*
X85228440Y-84950000D01*
X89900000Y-84950000D01*
X90107047Y-84908816D01*
X90500000Y-84908816D01*
X90666760Y-84877438D01*
X90819919Y-84778883D01*
X90922668Y-84628505D01*
X90958816Y-84450000D01*
X90958816Y-83550000D01*
X90927438Y-83383240D01*
X90828883Y-83230081D01*
X90678505Y-83127332D01*
X90500000Y-83091184D01*
X90107047Y-83091184D01*
X89900000Y-83050000D01*
X85230592Y-83050000D01*
X85227438Y-83033240D01*
X85128883Y-82880081D01*
X84978505Y-82777332D01*
X84800000Y-82741184D01*
X83200000Y-82741184D01*
X83033240Y-82772562D01*
X82880081Y-82871117D01*
X82777332Y-83021495D01*
X82775610Y-83030000D01*
X78458816Y-83030000D01*
X78458816Y-82730000D01*
X78427438Y-82563240D01*
X78328883Y-82410081D01*
X78178505Y-82307332D01*
X78000000Y-82271184D01*
X77000000Y-82271184D01*
X76833240Y-82302562D01*
X76680081Y-82401117D01*
X76577332Y-82551495D01*
X76541184Y-82730000D01*
X76541184Y-85230000D01*
X76572562Y-85396760D01*
X76671117Y-85549919D01*
X76821495Y-85652668D01*
X77000000Y-85688816D01*
X78000000Y-85688816D01*
X78166760Y-85657438D01*
X78319919Y-85558883D01*
X78422668Y-85408505D01*
X78458816Y-85230000D01*
X78458816Y-84930000D01*
X82765645Y-84930000D01*
X82772562Y-84966760D01*
X82871117Y-85119919D01*
X82969414Y-85187083D01*
X79856498Y-88300000D01*
X73250000Y-88300000D01*
X72946767Y-88360317D01*
X72886450Y-88372314D01*
X72578248Y-88578249D01*
X69212048Y-91944449D01*
X69212209Y-91759976D01*
X69028082Y-91314354D01*
X68687439Y-90973116D01*
X68242139Y-90788211D01*
X67759976Y-90787791D01*
X67314354Y-90971918D01*
X67236136Y-91050000D01*
X64393503Y-91050000D01*
X63258816Y-89915314D01*
X63258816Y-89200000D01*
X63227438Y-89033240D01*
X63128883Y-88880081D01*
X62978505Y-88777332D01*
X62800000Y-88741184D01*
X61200000Y-88741184D01*
X61033240Y-88772562D01*
X60880081Y-88871117D01*
X60777332Y-89021495D01*
X60741184Y-89200000D01*
X52143502Y-89200000D01*
X52893595Y-88449908D01*
X53287157Y-88450251D01*
X53820286Y-88229967D01*
X54228533Y-87822431D01*
X54449748Y-87289688D01*
X54450251Y-86712843D01*
X54229967Y-86179714D01*
X53822431Y-85771467D01*
X53289688Y-85550252D01*
X52712843Y-85549749D01*
X52179714Y-85770033D01*
X51771467Y-86177569D01*
X51550252Y-86710312D01*
X51549906Y-87106591D01*
X49606498Y-89050000D01*
X45764189Y-89050000D01*
X45687439Y-88973116D01*
X45242139Y-88788211D01*
X44759976Y-88787791D01*
X44314354Y-88971918D01*
X43973116Y-89312561D01*
X43788211Y-89757861D01*
X43787791Y-90240024D01*
X42525000Y-90240024D01*
X42525000Y-84937132D01*
X43062132Y-84400000D01*
X58250000Y-84400000D01*
X58308358Y-84388182D01*
X58356066Y-84356066D01*
X59356066Y-83356066D01*
X59388975Y-83306444D01*
X59400000Y-83250000D01*
X59400000Y-73562132D01*
X60312132Y-72650000D01*
X117506498Y-72650000D01*
X114856498Y-75300000D01*
X74500000Y-75300000D01*
X74196767Y-75360317D01*
X74136450Y-75372314D01*
X73828249Y-75578249D01*
X72578249Y-76828249D01*
X72372314Y-77136450D01*
X72372314Y-77136451D01*
X72300000Y-77500000D01*
X72300000Y-82891184D01*
X71625000Y-82891184D01*
X71458240Y-82922562D01*
X71305081Y-83021117D01*
X71202332Y-83171495D01*
X71166184Y-83350000D01*
X71166184Y-83520795D01*
X71122314Y-83586451D01*
X71050000Y-83950000D01*
X71122314Y-84313549D01*
X71166184Y-84379205D01*
X71166184Y-84550000D01*
X71197562Y-84716760D01*
X71296117Y-84869919D01*
X71446495Y-84972668D01*
X71625000Y-85008816D01*
X72375000Y-85008816D01*
X72541760Y-84977438D01*
X72662102Y-84900000D01*
X72998632Y-84900000D01*
X73250000Y-84950000D01*
X73350547Y-84930000D01*
X73541184Y-84930000D01*
X73541184Y-85230000D01*
X73550000Y-85276853D01*
X73550000Y-87000000D01*
X73622314Y-87363549D01*
X73828249Y-87671751D01*
X74136451Y-87877686D01*
X74500000Y-87950000D01*
X74863549Y-87877686D01*
X75171751Y-87671751D01*
X75377686Y-87363549D01*
X75450000Y-87000000D01*
X75450000Y-85273535D01*
X75458816Y-85230000D01*
X75458816Y-82730000D01*
X75427438Y-82563240D01*
X75328883Y-82410081D01*
X75178505Y-82307332D01*
X75000000Y-82271184D01*
X74200000Y-82271184D01*
X74200000Y-77893502D01*
X74893502Y-77200000D01*
X115250000Y-77200000D01*
X115569489Y-77136450D01*
X115613550Y-77127686D01*
X115921751Y-76921751D01*
X120193503Y-72650000D01*
X126000000Y-72650000D01*
X126058358Y-72638182D01*
X126107521Y-72604591D01*
X126139742Y-72554519D01*
X126150000Y-72500000D01*
X126150000Y-45812132D01*
X127062132Y-44900000D01*
X127769619Y-44900000D01*
X127700000Y-45250000D01*
G36*
X141475000Y-30687132D02*
X141475000Y-36562868D01*
X140937868Y-37100000D01*
X136230381Y-37100000D01*
X136300000Y-36750000D01*
X136300000Y-35600000D01*
X136227686Y-35236451D01*
X136115644Y-35068769D01*
X136021751Y-34928248D01*
X135499484Y-34405981D01*
X135949645Y-34405981D01*
X136261081Y-35159715D01*
X136837252Y-35736892D01*
X137590441Y-36049643D01*
X138405981Y-36050355D01*
X139159715Y-35738919D01*
X139736892Y-35162748D01*
X140049643Y-34409559D01*
X140050355Y-33594019D01*
X139738919Y-32840285D01*
X139162748Y-32263108D01*
X138409559Y-31950357D01*
X137594019Y-31949645D01*
X136840285Y-32261081D01*
X136263108Y-32837252D01*
X135950357Y-33590441D01*
X135949645Y-34405981D01*
X135499484Y-34405981D01*
X133261751Y-32168249D01*
X132953550Y-31962314D01*
X132889857Y-31949645D01*
X132590000Y-31890000D01*
X119574189Y-31890000D01*
X119497439Y-31813116D01*
X119052139Y-31628211D01*
X118569976Y-31627791D01*
X118124354Y-31811918D01*
X117783116Y-32152561D01*
X117598211Y-32597861D01*
X117597791Y-33080024D01*
X117781918Y-33525646D01*
X118122561Y-33866884D01*
X118563553Y-34050000D01*
X116515370Y-34050000D01*
X116955646Y-33868082D01*
X117296884Y-33527439D01*
X117481789Y-33082139D01*
X117482209Y-32599976D01*
X117298082Y-32154354D01*
X116957439Y-31813116D01*
X116512139Y-31628211D01*
X116029976Y-31627791D01*
X115584354Y-31811918D01*
X115243116Y-32152561D01*
X115058211Y-32597861D01*
X115057791Y-33080024D01*
X115241918Y-33525646D01*
X115582561Y-33866884D01*
X116023553Y-34050000D01*
X113143503Y-34050000D01*
X112335436Y-33241934D01*
X112401789Y-33082139D01*
X112402209Y-32599976D01*
X112218082Y-32154354D01*
X111877439Y-31813116D01*
X111432139Y-31628211D01*
X110949976Y-31627791D01*
X110504354Y-31811918D01*
X110163116Y-32152561D01*
X109978211Y-32597861D01*
X109977791Y-33080024D01*
X110161918Y-33525646D01*
X110280705Y-33644641D01*
X110295235Y-33717686D01*
X110312314Y-33803550D01*
X110518249Y-34111751D01*
X112078248Y-35671751D01*
X112386450Y-35877686D01*
X112446767Y-35889683D01*
X112750000Y-35950000D01*
X127356498Y-35950000D01*
X127700000Y-36293503D01*
X127700000Y-36750000D01*
X127769619Y-37100000D01*
X122000000Y-37100000D01*
X121941642Y-37111818D01*
X121892479Y-37145409D01*
X121860258Y-37195481D01*
X121850000Y-37250000D01*
X121850000Y-49006497D01*
X120671751Y-47828249D01*
X120363550Y-47622314D01*
X120303233Y-47610317D01*
X120000000Y-47550000D01*
X113000000Y-47550000D01*
X112636451Y-47622314D01*
X112328249Y-47828248D01*
X110518249Y-49638249D01*
X110312314Y-49946450D01*
X110312314Y-49946451D01*
X110240000Y-50310000D01*
X110240000Y-52395811D01*
X110163116Y-52472561D01*
X109978211Y-52917861D01*
X109977791Y-53400024D01*
X110161918Y-53845646D01*
X110166264Y-53850000D01*
X109812132Y-53850000D01*
X108900000Y-52937868D01*
X108900000Y-31062132D01*
X109437132Y-30525000D01*
X141312868Y-30525000D01*
X141475000Y-30687132D01*
X141475000Y-30687132D01*
G37*
X141475000Y-30687132D02*
X141475000Y-36562868D01*
X140937868Y-37100000D01*
X136230381Y-37100000D01*
X136300000Y-36750000D01*
X136300000Y-35600000D01*
X136227686Y-35236451D01*
X136115644Y-35068769D01*
X136021751Y-34928248D01*
X135499484Y-34405981D01*
X135949645Y-34405981D01*
X136261081Y-35159715D01*
X136837252Y-35736892D01*
X137590441Y-36049643D01*
X138405981Y-36050355D01*
X139159715Y-35738919D01*
X139736892Y-35162748D01*
X140049643Y-34409559D01*
X140050355Y-33594019D01*
X139738919Y-32840285D01*
X139162748Y-32263108D01*
X138409559Y-31950357D01*
X137594019Y-31949645D01*
X136840285Y-32261081D01*
X136263108Y-32837252D01*
X135950357Y-33590441D01*
X135949645Y-34405981D01*
X135499484Y-34405981D01*
X133261751Y-32168249D01*
X132953550Y-31962314D01*
X132889857Y-31949645D01*
X132590000Y-31890000D01*
X119574189Y-31890000D01*
X119497439Y-31813116D01*
X119052139Y-31628211D01*
X118569976Y-31627791D01*
X118124354Y-31811918D01*
X117783116Y-32152561D01*
X117598211Y-32597861D01*
X117597791Y-33080024D01*
X117781918Y-33525646D01*
X118122561Y-33866884D01*
X118563553Y-34050000D01*
X116515370Y-34050000D01*
X116955646Y-33868082D01*
X117296884Y-33527439D01*
X117481789Y-33082139D01*
X117482209Y-32599976D01*
X117298082Y-32154354D01*
X116957439Y-31813116D01*
X116512139Y-31628211D01*
X116029976Y-31627791D01*
X115584354Y-31811918D01*
X115243116Y-32152561D01*
X115058211Y-32597861D01*
X115057791Y-33080024D01*
X115241918Y-33525646D01*
X115582561Y-33866884D01*
X116023553Y-34050000D01*
X113143503Y-34050000D01*
X112335436Y-33241934D01*
X112401789Y-33082139D01*
X112402209Y-32599976D01*
X112218082Y-32154354D01*
X111877439Y-31813116D01*
X111432139Y-31628211D01*
X110949976Y-31627791D01*
X110504354Y-31811918D01*
X110163116Y-32152561D01*
X109978211Y-32597861D01*
X109977791Y-33080024D01*
X110161918Y-33525646D01*
X110280705Y-33644641D01*
X110295235Y-33717686D01*
X110312314Y-33803550D01*
X110518249Y-34111751D01*
X112078248Y-35671751D01*
X112386450Y-35877686D01*
X112446767Y-35889683D01*
X112750000Y-35950000D01*
X127356498Y-35950000D01*
X127700000Y-36293503D01*
X127700000Y-36750000D01*
X127769619Y-37100000D01*
X122000000Y-37100000D01*
X121941642Y-37111818D01*
X121892479Y-37145409D01*
X121860258Y-37195481D01*
X121850000Y-37250000D01*
X121850000Y-49006497D01*
X120671751Y-47828249D01*
X120363550Y-47622314D01*
X120303233Y-47610317D01*
X120000000Y-47550000D01*
X113000000Y-47550000D01*
X112636451Y-47622314D01*
X112328249Y-47828248D01*
X110518249Y-49638249D01*
X110312314Y-49946450D01*
X110312314Y-49946451D01*
X110240000Y-50310000D01*
X110240000Y-52395811D01*
X110163116Y-52472561D01*
X109978211Y-52917861D01*
X109977791Y-53400024D01*
X110161918Y-53845646D01*
X110166264Y-53850000D01*
X109812132Y-53850000D01*
X108900000Y-52937868D01*
X108900000Y-31062132D01*
X109437132Y-30525000D01*
X141312868Y-30525000D01*
X141475000Y-30687132D01*
G36*
X120550000Y-50393503D02*
X120550000Y-53850000D01*
X117294319Y-53850000D01*
X117296884Y-53847439D01*
X117481789Y-53402139D01*
X117482209Y-52919976D01*
X117298082Y-52474354D01*
X116957439Y-52133116D01*
X116512139Y-51948211D01*
X116029976Y-51947791D01*
X115584354Y-52131918D01*
X115243116Y-52472561D01*
X115058211Y-52917861D01*
X115057791Y-53400024D01*
X115241918Y-53845646D01*
X115246264Y-53850000D01*
X114754319Y-53850000D01*
X114756884Y-53847439D01*
X114941789Y-53402139D01*
X114942209Y-52919976D01*
X114758082Y-52474354D01*
X114417439Y-52133116D01*
X113972139Y-51948211D01*
X113489976Y-51947791D01*
X113044354Y-52131918D01*
X112703116Y-52472561D01*
X112518211Y-52917861D01*
X112518014Y-53144511D01*
X112402114Y-53028612D01*
X112402209Y-52919976D01*
X112218082Y-52474354D01*
X112140000Y-52396136D01*
X112140000Y-50703502D01*
X113393503Y-49450000D01*
X119606498Y-49450000D01*
X120550000Y-50393503D01*
X120550000Y-50393503D01*
G37*
X120550000Y-50393503D02*
X120550000Y-53850000D01*
X117294319Y-53850000D01*
X117296884Y-53847439D01*
X117481789Y-53402139D01*
X117482209Y-52919976D01*
X117298082Y-52474354D01*
X116957439Y-52133116D01*
X116512139Y-51948211D01*
X116029976Y-51947791D01*
X115584354Y-52131918D01*
X115243116Y-52472561D01*
X115058211Y-52917861D01*
X115057791Y-53400024D01*
X115241918Y-53845646D01*
X115246264Y-53850000D01*
X114754319Y-53850000D01*
X114756884Y-53847439D01*
X114941789Y-53402139D01*
X114942209Y-52919976D01*
X114758082Y-52474354D01*
X114417439Y-52133116D01*
X113972139Y-51948211D01*
X113489976Y-51947791D01*
X113044354Y-52131918D01*
X112703116Y-52472561D01*
X112518211Y-52917861D01*
X112518014Y-53144511D01*
X112402114Y-53028612D01*
X112402209Y-52919976D01*
X112218082Y-52474354D01*
X112140000Y-52396136D01*
X112140000Y-50703502D01*
X113393503Y-49450000D01*
X119606498Y-49450000D01*
X120550000Y-50393503D01*
G36*
X102600000Y-31062132D02*
X102600000Y-56500000D01*
X102611818Y-56558358D01*
X102645409Y-56607521D01*
X102695481Y-56639742D01*
X102750000Y-56650000D01*
X107687868Y-56650000D01*
X108600000Y-57562132D01*
X108600000Y-64250000D01*
X108611818Y-64308358D01*
X108645409Y-64357521D01*
X108695481Y-64389742D01*
X108750000Y-64400000D01*
X111756497Y-64400000D01*
X110606498Y-65550000D01*
X107393503Y-65550000D01*
X106490000Y-64646498D01*
X106490000Y-61518521D01*
X106659742Y-61264485D01*
X106752000Y-60800673D01*
X106752000Y-59199327D01*
X106659742Y-58735515D01*
X106397013Y-58342314D01*
X106003812Y-58079585D01*
X105540000Y-57987327D01*
X105076188Y-58079585D01*
X104682987Y-58342314D01*
X104420258Y-58735515D01*
X104328000Y-59199327D01*
X104328000Y-60800673D01*
X104420258Y-61264485D01*
X104590000Y-61518521D01*
X104590000Y-65040000D01*
X104650317Y-65343233D01*
X104662314Y-65403550D01*
X104868249Y-65711751D01*
X106328249Y-67171752D01*
X106636450Y-67377686D01*
X107000000Y-67450000D01*
X111000000Y-67450000D01*
X111303233Y-67389683D01*
X111363550Y-67377686D01*
X111671751Y-67171751D01*
X113671751Y-65171752D01*
X113877686Y-64863550D01*
X113914902Y-64676450D01*
X113950000Y-64500000D01*
X113950000Y-64400000D01*
X117437868Y-64400000D01*
X118350000Y-65312132D01*
X118350000Y-67937868D01*
X117437868Y-68850000D01*
X58250000Y-68850000D01*
X58191642Y-68861818D01*
X58143934Y-68893934D01*
X57143934Y-69893934D01*
X57111025Y-69943556D01*
X57100000Y-70000000D01*
X57100000Y-81187868D01*
X56187868Y-82100000D01*
X43062132Y-82100000D01*
X42525000Y-81562868D01*
X42525000Y-67250000D01*
X47191184Y-67250000D01*
X47191184Y-68150000D01*
X47222562Y-68316760D01*
X47321117Y-68469919D01*
X47471495Y-68572668D01*
X47650000Y-68608816D01*
X49692953Y-68608816D01*
X49900000Y-68650000D01*
X54300000Y-68650000D01*
X54603233Y-68589683D01*
X54663550Y-68577686D01*
X54971751Y-68371751D01*
X58393503Y-64950000D01*
X96000000Y-64950000D01*
X96303233Y-64889683D01*
X96363550Y-64877686D01*
X96671751Y-64671751D01*
X99652640Y-61690863D01*
X99996188Y-61920415D01*
X100460000Y-62012673D01*
X100923812Y-61920415D01*
X101317013Y-61657686D01*
X101579742Y-61264485D01*
X101672000Y-60800673D01*
X101672000Y-59199327D01*
X101579742Y-58735515D01*
X101410000Y-58481479D01*
X101410000Y-49435266D01*
X101419919Y-49428883D01*
X101522668Y-49278505D01*
X101558816Y-49100000D01*
X101558816Y-46900000D01*
X101527438Y-46733240D01*
X101428883Y-46580081D01*
X101278505Y-46477332D01*
X101100000Y-46441184D01*
X98900000Y-46441184D01*
X98733240Y-46472562D01*
X98580081Y-46571117D01*
X98477332Y-46721495D01*
X98441184Y-46900000D01*
X98441184Y-49100000D01*
X98472562Y-49266760D01*
X98571117Y-49419919D01*
X98721495Y-49522668D01*
X98900000Y-49558816D01*
X99510000Y-49558816D01*
X99510000Y-58481479D01*
X99340258Y-58735515D01*
X99248000Y-59199327D01*
X99248000Y-59408497D01*
X95606498Y-63050000D01*
X58000000Y-63050000D01*
X57696767Y-63110317D01*
X57636450Y-63122314D01*
X57328248Y-63328249D01*
X53906498Y-66750000D01*
X49900000Y-66750000D01*
X49692953Y-66791184D01*
X47650000Y-66791184D01*
X47483240Y-66822562D01*
X47330081Y-66921117D01*
X47227332Y-67071495D01*
X47191184Y-67250000D01*
X42525000Y-67250000D01*
X42525000Y-58886177D01*
X81549662Y-58886177D01*
X81845906Y-59603143D01*
X82393971Y-60152166D01*
X83110419Y-60449661D01*
X83886177Y-60450338D01*
X84603143Y-60154094D01*
X85152166Y-59606029D01*
X85449661Y-58889581D01*
X85450338Y-58113823D01*
X85154094Y-57396857D01*
X84606029Y-56847834D01*
X83889581Y-56550339D01*
X83113823Y-56549662D01*
X82396857Y-56845906D01*
X81847834Y-57393971D01*
X81550339Y-58110419D01*
X81549662Y-58886177D01*
X42525000Y-58886177D01*
X42525000Y-40787157D01*
X44049749Y-40787157D01*
X44270033Y-41320286D01*
X44677569Y-41728533D01*
X45210312Y-41949748D01*
X45787157Y-41950251D01*
X46320286Y-41729967D01*
X46720951Y-41330000D01*
X98786130Y-41330000D01*
X98903984Y-41506382D01*
X99406841Y-41842379D01*
X100000000Y-41960366D01*
X100593159Y-41842379D01*
X101096016Y-41506382D01*
X101432013Y-41003525D01*
X101550000Y-40410366D01*
X101550000Y-40349634D01*
X101432013Y-39756475D01*
X101096016Y-39253618D01*
X100593159Y-38917621D01*
X100000000Y-38799634D01*
X99406841Y-38917621D01*
X98903984Y-39253618D01*
X98786130Y-39430000D01*
X46480688Y-39430000D01*
X46322431Y-39271467D01*
X45789688Y-39050252D01*
X45212843Y-39049749D01*
X44679714Y-39270033D01*
X44271467Y-39677569D01*
X44050252Y-40210312D01*
X44049749Y-40787157D01*
X42525000Y-40787157D01*
X42525000Y-34405981D01*
X43949645Y-34405981D01*
X44261081Y-35159715D01*
X44837252Y-35736892D01*
X45590441Y-36049643D01*
X46405981Y-36050355D01*
X47159715Y-35738919D01*
X47736892Y-35162748D01*
X48049643Y-34409559D01*
X48050355Y-33594019D01*
X47738919Y-32840285D01*
X47162748Y-32263108D01*
X46409559Y-31950357D01*
X45594019Y-31949645D01*
X44840285Y-32261081D01*
X44263108Y-32837252D01*
X43950357Y-33590441D01*
X43949645Y-34405981D01*
X42525000Y-34405981D01*
X42525000Y-30687132D01*
X42687132Y-30525000D01*
X102062868Y-30525000D01*
X102600000Y-31062132D01*
X102600000Y-31062132D01*
G37*
X102600000Y-31062132D02*
X102600000Y-56500000D01*
X102611818Y-56558358D01*
X102645409Y-56607521D01*
X102695481Y-56639742D01*
X102750000Y-56650000D01*
X107687868Y-56650000D01*
X108600000Y-57562132D01*
X108600000Y-64250000D01*
X108611818Y-64308358D01*
X108645409Y-64357521D01*
X108695481Y-64389742D01*
X108750000Y-64400000D01*
X111756497Y-64400000D01*
X110606498Y-65550000D01*
X107393503Y-65550000D01*
X106490000Y-64646498D01*
X106490000Y-61518521D01*
X106659742Y-61264485D01*
X106752000Y-60800673D01*
X106752000Y-59199327D01*
X106659742Y-58735515D01*
X106397013Y-58342314D01*
X106003812Y-58079585D01*
X105540000Y-57987327D01*
X105076188Y-58079585D01*
X104682987Y-58342314D01*
X104420258Y-58735515D01*
X104328000Y-59199327D01*
X104328000Y-60800673D01*
X104420258Y-61264485D01*
X104590000Y-61518521D01*
X104590000Y-65040000D01*
X104650317Y-65343233D01*
X104662314Y-65403550D01*
X104868249Y-65711751D01*
X106328249Y-67171752D01*
X106636450Y-67377686D01*
X107000000Y-67450000D01*
X111000000Y-67450000D01*
X111303233Y-67389683D01*
X111363550Y-67377686D01*
X111671751Y-67171751D01*
X113671751Y-65171752D01*
X113877686Y-64863550D01*
X113914902Y-64676450D01*
X113950000Y-64500000D01*
X113950000Y-64400000D01*
X117437868Y-64400000D01*
X118350000Y-65312132D01*
X118350000Y-67937868D01*
X117437868Y-68850000D01*
X58250000Y-68850000D01*
X58191642Y-68861818D01*
X58143934Y-68893934D01*
X57143934Y-69893934D01*
X57111025Y-69943556D01*
X57100000Y-70000000D01*
X57100000Y-81187868D01*
X56187868Y-82100000D01*
X43062132Y-82100000D01*
X42525000Y-81562868D01*
X42525000Y-67250000D01*
X47191184Y-67250000D01*
X47191184Y-68150000D01*
X47222562Y-68316760D01*
X47321117Y-68469919D01*
X47471495Y-68572668D01*
X47650000Y-68608816D01*
X49692953Y-68608816D01*
X49900000Y-68650000D01*
X54300000Y-68650000D01*
X54603233Y-68589683D01*
X54663550Y-68577686D01*
X54971751Y-68371751D01*
X58393503Y-64950000D01*
X96000000Y-64950000D01*
X96303233Y-64889683D01*
X96363550Y-64877686D01*
X96671751Y-64671751D01*
X99652640Y-61690863D01*
X99996188Y-61920415D01*
X100460000Y-62012673D01*
X100923812Y-61920415D01*
X101317013Y-61657686D01*
X101579742Y-61264485D01*
X101672000Y-60800673D01*
X101672000Y-59199327D01*
X101579742Y-58735515D01*
X101410000Y-58481479D01*
X101410000Y-49435266D01*
X101419919Y-49428883D01*
X101522668Y-49278505D01*
X101558816Y-49100000D01*
X101558816Y-46900000D01*
X101527438Y-46733240D01*
X101428883Y-46580081D01*
X101278505Y-46477332D01*
X101100000Y-46441184D01*
X98900000Y-46441184D01*
X98733240Y-46472562D01*
X98580081Y-46571117D01*
X98477332Y-46721495D01*
X98441184Y-46900000D01*
X98441184Y-49100000D01*
X98472562Y-49266760D01*
X98571117Y-49419919D01*
X98721495Y-49522668D01*
X98900000Y-49558816D01*
X99510000Y-49558816D01*
X99510000Y-58481479D01*
X99340258Y-58735515D01*
X99248000Y-59199327D01*
X99248000Y-59408497D01*
X95606498Y-63050000D01*
X58000000Y-63050000D01*
X57696767Y-63110317D01*
X57636450Y-63122314D01*
X57328248Y-63328249D01*
X53906498Y-66750000D01*
X49900000Y-66750000D01*
X49692953Y-66791184D01*
X47650000Y-66791184D01*
X47483240Y-66822562D01*
X47330081Y-66921117D01*
X47227332Y-67071495D01*
X47191184Y-67250000D01*
X42525000Y-67250000D01*
X42525000Y-58886177D01*
X81549662Y-58886177D01*
X81845906Y-59603143D01*
X82393971Y-60152166D01*
X83110419Y-60449661D01*
X83886177Y-60450338D01*
X84603143Y-60154094D01*
X85152166Y-59606029D01*
X85449661Y-58889581D01*
X85450338Y-58113823D01*
X85154094Y-57396857D01*
X84606029Y-56847834D01*
X83889581Y-56550339D01*
X83113823Y-56549662D01*
X82396857Y-56845906D01*
X81847834Y-57393971D01*
X81550339Y-58110419D01*
X81549662Y-58886177D01*
X42525000Y-58886177D01*
X42525000Y-40787157D01*
X44049749Y-40787157D01*
X44270033Y-41320286D01*
X44677569Y-41728533D01*
X45210312Y-41949748D01*
X45787157Y-41950251D01*
X46320286Y-41729967D01*
X46720951Y-41330000D01*
X98786130Y-41330000D01*
X98903984Y-41506382D01*
X99406841Y-41842379D01*
X100000000Y-41960366D01*
X100593159Y-41842379D01*
X101096016Y-41506382D01*
X101432013Y-41003525D01*
X101550000Y-40410366D01*
X101550000Y-40349634D01*
X101432013Y-39756475D01*
X101096016Y-39253618D01*
X100593159Y-38917621D01*
X100000000Y-38799634D01*
X99406841Y-38917621D01*
X98903984Y-39253618D01*
X98786130Y-39430000D01*
X46480688Y-39430000D01*
X46322431Y-39271467D01*
X45789688Y-39050252D01*
X45212843Y-39049749D01*
X44679714Y-39270033D01*
X44271467Y-39677569D01*
X44050252Y-40210312D01*
X44049749Y-40787157D01*
X42525000Y-40787157D01*
X42525000Y-34405981D01*
X43949645Y-34405981D01*
X44261081Y-35159715D01*
X44837252Y-35736892D01*
X45590441Y-36049643D01*
X46405981Y-36050355D01*
X47159715Y-35738919D01*
X47736892Y-35162748D01*
X48049643Y-34409559D01*
X48050355Y-33594019D01*
X47738919Y-32840285D01*
X47162748Y-32263108D01*
X46409559Y-31950357D01*
X45594019Y-31949645D01*
X44840285Y-32261081D01*
X44263108Y-32837252D01*
X43950357Y-33590441D01*
X43949645Y-34405981D01*
X42525000Y-34405981D01*
X42525000Y-30687132D01*
X42687132Y-30525000D01*
X102062868Y-30525000D01*
X102600000Y-31062132D01*
M02*
