%TF.GenerationSoftware,KiCad,Pcbnew,4.0.7*%
%TF.CreationDate,2021-06-18T00:58:30+09:00*%
%TF.ProjectId,NuTube_MUSES_AMP_PCB_v2,4E75547562655F4D555345535F414D50,rev?*%
%TF.FileFunction,Soldermask,Bot*%
%FSLAX46Y46*%
G04 Gerber Fmt 4.6, Leading zero omitted, Abs format (unit mm)*
G04 Created by KiCad (PCBNEW 4.0.7) date 06/18/21 00:58:30*
%MOMM*%
%LPD*%
G01*
G04 APERTURE LIST*
%ADD10C,0.100000*%
%ADD11C,0.150000*%
%ADD12C,1.162000*%
%ADD13C,3.600000*%
%ADD14C,6.400000*%
%ADD15R,2.000000X2.000000*%
%ADD16C,2.000000*%
%ADD17R,2.400000X2.400000*%
%ADD18C,2.400000*%
%ADD19R,2.700000X2.200000*%
%ADD20R,2.600000X2.600000*%
%ADD21O,2.600000X2.600000*%
%ADD22C,3.400000*%
%ADD23O,1.800000X1.300000*%
%ADD24O,2.400000X1.400000*%
%ADD25R,1.300000X1.600000*%
%ADD26C,1.924000*%
%ADD27O,1.924000X3.448000*%
%ADD28R,2.000000X2.800000*%
%ADD29O,2.000000X2.800000*%
%ADD30C,2.100000*%
G04 APERTURE END LIST*
D10*
D11*
X142000000Y-130000000D02*
X42000000Y-130000000D01*
X142000000Y-30000000D02*
X142000000Y-130000000D01*
X142000000Y-30000000D02*
X42000000Y-30000000D01*
X42000000Y-30000000D02*
X142000000Y-30000000D01*
X42000000Y-130000000D02*
X42000000Y-30000000D01*
D12*
X116500000Y-73000000D03*
X133500000Y-95000000D03*
X60500000Y-105500000D03*
X60500000Y-94500000D03*
X72750000Y-118500000D03*
X80000000Y-118500000D03*
X81250000Y-85750000D03*
D13*
X138000000Y-34000000D03*
X46000000Y-34000000D03*
D14*
X138000000Y-126000000D03*
D12*
X73750000Y-108000000D03*
X98750000Y-114000000D03*
X98750000Y-86000000D03*
X69750000Y-104750000D03*
X69750000Y-95000000D03*
X74000000Y-92000000D03*
X77500000Y-92000000D03*
X77500000Y-108000000D03*
X64000000Y-105500000D03*
X64000000Y-94250000D03*
D14*
X46000000Y-126000000D03*
D12*
X71750000Y-113750000D03*
X77500000Y-100000000D03*
X74000000Y-100000000D03*
X108750000Y-100250000D03*
X112250000Y-100250000D03*
X112250000Y-85750000D03*
X108750000Y-86750000D03*
X108750000Y-90750000D03*
X108750000Y-113250000D03*
X108750000Y-109250000D03*
X101250000Y-105750000D03*
X97500000Y-107500000D03*
X97500000Y-92500000D03*
X101250000Y-94250000D03*
X117000000Y-89500000D03*
X117000000Y-110750000D03*
X124250000Y-100250000D03*
X122250000Y-100250000D03*
X120250000Y-100250000D03*
X127750000Y-92000000D03*
X123500000Y-108250000D03*
X127500000Y-113250000D03*
X140750000Y-106000000D03*
X136750000Y-107500000D03*
X133250000Y-109000000D03*
X130500000Y-106500000D03*
X134000000Y-103750000D03*
X136000000Y-100750000D03*
X137750000Y-104250000D03*
X135000000Y-91750000D03*
X137000000Y-93750000D03*
X140750000Y-98500000D03*
X137500000Y-53000000D03*
X126500000Y-53000000D03*
X132000000Y-53000000D03*
X127000000Y-45750000D03*
X130250000Y-45250000D03*
X133750000Y-45250000D03*
X137000000Y-45250000D03*
X137250000Y-36500000D03*
X140750000Y-36000000D03*
X140750000Y-31250000D03*
X134000000Y-31500000D03*
X126500000Y-36750000D03*
X110000000Y-31250000D03*
X121500000Y-47250000D03*
X109500000Y-52250000D03*
X113250000Y-50500000D03*
X43250000Y-81000000D03*
X56250000Y-81250000D03*
X57250000Y-69000000D03*
X117500000Y-68000000D03*
X117500000Y-65250000D03*
X110600000Y-64700000D03*
X107500000Y-57500000D03*
X101500000Y-31500000D03*
X140750000Y-46000000D03*
X119500000Y-50500000D03*
D15*
X84000000Y-84000000D03*
D16*
X84000000Y-81500000D03*
D15*
X84000000Y-117000000D03*
D16*
X84000000Y-114500000D03*
D17*
X53000000Y-92000000D03*
D18*
X53000000Y-87000000D03*
D15*
X62000000Y-90000000D03*
D16*
X62000000Y-87500000D03*
D17*
X53000000Y-108000000D03*
D18*
X53000000Y-113000000D03*
D15*
X62000000Y-110000000D03*
D16*
X62000000Y-112500000D03*
D15*
X109000000Y-84000000D03*
D16*
X109000000Y-81500000D03*
D15*
X101000000Y-114000000D03*
D16*
X101000000Y-116500000D03*
D15*
X101000000Y-86000000D03*
D16*
X101000000Y-83500000D03*
D15*
X109000000Y-116000000D03*
D16*
X109000000Y-118500000D03*
D17*
X108000000Y-107000000D03*
D18*
X113000000Y-107000000D03*
D17*
X108000000Y-93000000D03*
D18*
X113000000Y-93000000D03*
D15*
X123750000Y-86250000D03*
D16*
X126250000Y-86250000D03*
D15*
X134750000Y-113000000D03*
D16*
X132250000Y-113000000D03*
D19*
X127622300Y-111832800D03*
X127622300Y-108232800D03*
D20*
X100000000Y-48000000D03*
D21*
X100000000Y-40380000D03*
D18*
X45500000Y-40500000D03*
X45500000Y-53500000D03*
D22*
X83500000Y-58500000D03*
D23*
X44000000Y-65450000D03*
X44000000Y-72550000D03*
D24*
X45000000Y-97500000D03*
X48000000Y-97500000D03*
X52000000Y-97500000D03*
X53500000Y-102300000D03*
X139000000Y-102500000D03*
X136000000Y-102500000D03*
X132000000Y-102500000D03*
X130500000Y-97700000D03*
D25*
X117000000Y-106900000D03*
X117000000Y-109100000D03*
X117000000Y-93100000D03*
X117000000Y-90900000D03*
D26*
X45000000Y-92500000D03*
X45000000Y-90000000D03*
X45000000Y-87500000D03*
X68000000Y-89500000D03*
X68000000Y-92000000D03*
X68000000Y-94500000D03*
X45000000Y-107500000D03*
X45000000Y-110000000D03*
X45000000Y-112500000D03*
X68000000Y-110500000D03*
X68000000Y-108000000D03*
X68000000Y-105500000D03*
D27*
X105540000Y-60000000D03*
X100460000Y-60000000D03*
D26*
X111190000Y-53160000D03*
X113730000Y-53160000D03*
X116270000Y-53160000D03*
X118810000Y-53160000D03*
X111190000Y-32840000D03*
X113730000Y-32840000D03*
X116270000Y-32840000D03*
X118810000Y-32840000D03*
D28*
X120000000Y-104000000D03*
D29*
X127620000Y-96380000D03*
X122540000Y-104000000D03*
X125080000Y-96380000D03*
X125080000Y-104000000D03*
X122540000Y-96380000D03*
X127620000Y-104000000D03*
X120000000Y-96380000D03*
D30*
X95000000Y-111430000D03*
X95000000Y-108890000D03*
X95000000Y-106350000D03*
X95000000Y-103810000D03*
X95000000Y-101270000D03*
X95000000Y-98730000D03*
X95000000Y-96190000D03*
X95000000Y-93650000D03*
X95000000Y-91110000D03*
X95000000Y-88570000D03*
X73000000Y-124430000D03*
X75540000Y-124430000D03*
X78080000Y-124430000D03*
X80620000Y-124430000D03*
X80620000Y-73430000D03*
X78080000Y-73430000D03*
X75540000Y-73430000D03*
X73000000Y-73430000D03*
D12*
X43500000Y-31500000D03*
M02*
