%TF.GenerationSoftware,KiCad,Pcbnew,4.0.7*%
%TF.CreationDate,2021-06-18T00:58:30+09:00*%
%TF.ProjectId,NuTube_MUSES_AMP_PCB_v2,4E75547562655F4D555345535F414D50,rev?*%
%TF.FileFunction,Legend,Top*%
%FSLAX46Y46*%
G04 Gerber Fmt 4.6, Leading zero omitted, Abs format (unit mm)*
G04 Created by KiCad (PCBNEW 4.0.7) date 06/18/21 00:58:30*
%MOMM*%
%LPD*%
G01*
G04 APERTURE LIST*
%ADD10C,0.100000*%
%ADD11C,0.300000*%
%ADD12C,0.150000*%
%ADD13C,0.120000*%
G04 APERTURE END LIST*
D10*
D11*
X112642858Y-122128571D02*
X112642858Y-120628571D01*
X113500001Y-122128571D01*
X113500001Y-120628571D01*
X114857144Y-121128571D02*
X114857144Y-122128571D01*
X114214287Y-121128571D02*
X114214287Y-121914286D01*
X114285715Y-122057143D01*
X114428573Y-122128571D01*
X114642858Y-122128571D01*
X114785715Y-122057143D01*
X114857144Y-121985714D01*
X115357144Y-120628571D02*
X116214287Y-120628571D01*
X115785716Y-122128571D02*
X115785716Y-120628571D01*
X117357144Y-121128571D02*
X117357144Y-122128571D01*
X116714287Y-121128571D02*
X116714287Y-121914286D01*
X116785715Y-122057143D01*
X116928573Y-122128571D01*
X117142858Y-122128571D01*
X117285715Y-122057143D01*
X117357144Y-121985714D01*
X118071430Y-122128571D02*
X118071430Y-120628571D01*
X118071430Y-121200000D02*
X118214287Y-121128571D01*
X118500001Y-121128571D01*
X118642858Y-121200000D01*
X118714287Y-121271429D01*
X118785716Y-121414286D01*
X118785716Y-121842857D01*
X118714287Y-121985714D01*
X118642858Y-122057143D01*
X118500001Y-122128571D01*
X118214287Y-122128571D01*
X118071430Y-122057143D01*
X120000001Y-122057143D02*
X119857144Y-122128571D01*
X119571430Y-122128571D01*
X119428573Y-122057143D01*
X119357144Y-121914286D01*
X119357144Y-121342857D01*
X119428573Y-121200000D01*
X119571430Y-121128571D01*
X119857144Y-121128571D01*
X120000001Y-121200000D01*
X120071430Y-121342857D01*
X120071430Y-121485714D01*
X119357144Y-121628571D01*
X121857144Y-121557143D02*
X123000001Y-121557143D01*
X122428572Y-122128571D02*
X122428572Y-120985714D01*
X124857144Y-122128571D02*
X124857144Y-120628571D01*
X125357144Y-121700000D01*
X125857144Y-120628571D01*
X125857144Y-122128571D01*
X126571430Y-120628571D02*
X126571430Y-121842857D01*
X126642858Y-121985714D01*
X126714287Y-122057143D01*
X126857144Y-122128571D01*
X127142858Y-122128571D01*
X127285716Y-122057143D01*
X127357144Y-121985714D01*
X127428573Y-121842857D01*
X127428573Y-120628571D01*
X128071430Y-122057143D02*
X128285716Y-122128571D01*
X128642859Y-122128571D01*
X128785716Y-122057143D01*
X128857145Y-121985714D01*
X128928573Y-121842857D01*
X128928573Y-121700000D01*
X128857145Y-121557143D01*
X128785716Y-121485714D01*
X128642859Y-121414286D01*
X128357145Y-121342857D01*
X128214287Y-121271429D01*
X128142859Y-121200000D01*
X128071430Y-121057143D01*
X128071430Y-120914286D01*
X128142859Y-120771429D01*
X128214287Y-120700000D01*
X128357145Y-120628571D01*
X128714287Y-120628571D01*
X128928573Y-120700000D01*
X129571430Y-121342857D02*
X130071430Y-121342857D01*
X130285716Y-122128571D02*
X129571430Y-122128571D01*
X129571430Y-120628571D01*
X130285716Y-120628571D01*
X130857144Y-122057143D02*
X131071430Y-122128571D01*
X131428573Y-122128571D01*
X131571430Y-122057143D01*
X131642859Y-121985714D01*
X131714287Y-121842857D01*
X131714287Y-121700000D01*
X131642859Y-121557143D01*
X131571430Y-121485714D01*
X131428573Y-121414286D01*
X131142859Y-121342857D01*
X131000001Y-121271429D01*
X130928573Y-121200000D01*
X130857144Y-121057143D01*
X130857144Y-120914286D01*
X130928573Y-120771429D01*
X131000001Y-120700000D01*
X131142859Y-120628571D01*
X131500001Y-120628571D01*
X131714287Y-120700000D01*
X132571430Y-121271429D02*
X132428572Y-121200000D01*
X132357144Y-121128571D01*
X132285715Y-120985714D01*
X132285715Y-120914286D01*
X132357144Y-120771429D01*
X132428572Y-120700000D01*
X132571430Y-120628571D01*
X132857144Y-120628571D01*
X133000001Y-120700000D01*
X133071430Y-120771429D01*
X133142858Y-120914286D01*
X133142858Y-120985714D01*
X133071430Y-121128571D01*
X133000001Y-121200000D01*
X132857144Y-121271429D01*
X132571430Y-121271429D01*
X132428572Y-121342857D01*
X132357144Y-121414286D01*
X132285715Y-121557143D01*
X132285715Y-121842857D01*
X132357144Y-121985714D01*
X132428572Y-122057143D01*
X132571430Y-122128571D01*
X132857144Y-122128571D01*
X133000001Y-122057143D01*
X133071430Y-121985714D01*
X133142858Y-121842857D01*
X133142858Y-121557143D01*
X133071430Y-121414286D01*
X133000001Y-121342857D01*
X132857144Y-121271429D01*
X133857143Y-122128571D02*
X134142858Y-122128571D01*
X134285715Y-122057143D01*
X134357143Y-121985714D01*
X134500001Y-121771429D01*
X134571429Y-121485714D01*
X134571429Y-120914286D01*
X134500001Y-120771429D01*
X134428572Y-120700000D01*
X134285715Y-120628571D01*
X134000001Y-120628571D01*
X133857143Y-120700000D01*
X133785715Y-120771429D01*
X133714286Y-120914286D01*
X133714286Y-121271429D01*
X133785715Y-121414286D01*
X133857143Y-121485714D01*
X134000001Y-121557143D01*
X134285715Y-121557143D01*
X134428572Y-121485714D01*
X134500001Y-121414286D01*
X134571429Y-121271429D01*
X135142857Y-120771429D02*
X135214286Y-120700000D01*
X135357143Y-120628571D01*
X135714286Y-120628571D01*
X135857143Y-120700000D01*
X135928572Y-120771429D01*
X136000000Y-120914286D01*
X136000000Y-121057143D01*
X135928572Y-121271429D01*
X135071429Y-122128571D01*
X136000000Y-122128571D01*
X136928571Y-120628571D02*
X137071428Y-120628571D01*
X137214285Y-120700000D01*
X137285714Y-120771429D01*
X137357143Y-120914286D01*
X137428571Y-121200000D01*
X137428571Y-121557143D01*
X137357143Y-121842857D01*
X137285714Y-121985714D01*
X137214285Y-122057143D01*
X137071428Y-122128571D01*
X136928571Y-122128571D01*
X136785714Y-122057143D01*
X136714285Y-121985714D01*
X136642857Y-121842857D01*
X136571428Y-121557143D01*
X136571428Y-121200000D01*
X136642857Y-120914286D01*
X136714285Y-120771429D01*
X136785714Y-120700000D01*
X136928571Y-120628571D01*
X115892857Y-124678571D02*
X115892857Y-123178571D01*
X115892857Y-123892857D02*
X116750000Y-123892857D01*
X116750000Y-124678571D02*
X116750000Y-123178571D01*
X117464286Y-123892857D02*
X117964286Y-123892857D01*
X118178572Y-124678571D02*
X117464286Y-124678571D01*
X117464286Y-123178571D01*
X118178572Y-123178571D01*
X118750000Y-124250000D02*
X119464286Y-124250000D01*
X118607143Y-124678571D02*
X119107143Y-123178571D01*
X119607143Y-124678571D01*
X120107143Y-124678571D02*
X120107143Y-123178571D01*
X120464286Y-123178571D01*
X120678571Y-123250000D01*
X120821429Y-123392857D01*
X120892857Y-123535714D01*
X120964286Y-123821429D01*
X120964286Y-124035714D01*
X120892857Y-124321429D01*
X120821429Y-124464286D01*
X120678571Y-124607143D01*
X120464286Y-124678571D01*
X120107143Y-124678571D01*
X121607143Y-124678571D02*
X121607143Y-123178571D01*
X122178571Y-123178571D01*
X122321429Y-123250000D01*
X122392857Y-123321429D01*
X122464286Y-123464286D01*
X122464286Y-123678571D01*
X122392857Y-123821429D01*
X122321429Y-123892857D01*
X122178571Y-123964286D01*
X121607143Y-123964286D01*
X123107143Y-124678571D02*
X123107143Y-123178571D01*
X123107143Y-123892857D02*
X123964286Y-123892857D01*
X123964286Y-124678571D02*
X123964286Y-123178571D01*
X124964286Y-123178571D02*
X125250000Y-123178571D01*
X125392858Y-123250000D01*
X125535715Y-123392857D01*
X125607143Y-123678571D01*
X125607143Y-124178571D01*
X125535715Y-124464286D01*
X125392858Y-124607143D01*
X125250000Y-124678571D01*
X124964286Y-124678571D01*
X124821429Y-124607143D01*
X124678572Y-124464286D01*
X124607143Y-124178571D01*
X124607143Y-123678571D01*
X124678572Y-123392857D01*
X124821429Y-123250000D01*
X124964286Y-123178571D01*
X126250001Y-124678571D02*
X126250001Y-123178571D01*
X127107144Y-124678571D01*
X127107144Y-123178571D01*
X127821430Y-123892857D02*
X128321430Y-123892857D01*
X128535716Y-124678571D02*
X127821430Y-124678571D01*
X127821430Y-123178571D01*
X128535716Y-123178571D01*
X130250001Y-124250000D02*
X130964287Y-124250000D01*
X130107144Y-124678571D02*
X130607144Y-123178571D01*
X131107144Y-124678571D01*
X131607144Y-124678571D02*
X131607144Y-123178571D01*
X132107144Y-124250000D01*
X132607144Y-123178571D01*
X132607144Y-124678571D01*
X133321430Y-124678571D02*
X133321430Y-123178571D01*
X133892858Y-123178571D01*
X134035716Y-123250000D01*
X134107144Y-123321429D01*
X134178573Y-123464286D01*
X134178573Y-123678571D01*
X134107144Y-123821429D01*
X134035716Y-123892857D01*
X133892858Y-123964286D01*
X133321430Y-123964286D01*
X119321429Y-127800000D02*
X119250001Y-127728571D01*
X119107144Y-127514286D01*
X119035715Y-127371429D01*
X118964286Y-127157143D01*
X118892858Y-126800000D01*
X118892858Y-126514286D01*
X118964286Y-126157143D01*
X119035715Y-125942857D01*
X119107144Y-125800000D01*
X119250001Y-125585714D01*
X119321429Y-125514286D01*
X120750001Y-127085714D02*
X120678572Y-127157143D01*
X120464286Y-127228571D01*
X120321429Y-127228571D01*
X120107144Y-127157143D01*
X119964286Y-127014286D01*
X119892858Y-126871429D01*
X119821429Y-126585714D01*
X119821429Y-126371429D01*
X119892858Y-126085714D01*
X119964286Y-125942857D01*
X120107144Y-125800000D01*
X120321429Y-125728571D01*
X120464286Y-125728571D01*
X120678572Y-125800000D01*
X120750001Y-125871429D01*
X121250001Y-127800000D02*
X121321429Y-127728571D01*
X121464286Y-127514286D01*
X121535715Y-127371429D01*
X121607144Y-127157143D01*
X121678572Y-126800000D01*
X121678572Y-126514286D01*
X121607144Y-126157143D01*
X121535715Y-125942857D01*
X121464286Y-125800000D01*
X121321429Y-125585714D01*
X121250001Y-125514286D01*
X123964286Y-125728571D02*
X123964286Y-126800000D01*
X123892858Y-127014286D01*
X123750001Y-127157143D01*
X123535715Y-127228571D01*
X123392858Y-127228571D01*
X124678572Y-126442857D02*
X125178572Y-126442857D01*
X125392858Y-127228571D02*
X124678572Y-127228571D01*
X124678572Y-125728571D01*
X125392858Y-125728571D01*
X126678572Y-125728571D02*
X126392858Y-125728571D01*
X126250001Y-125800000D01*
X126178572Y-125871429D01*
X126035715Y-126085714D01*
X125964286Y-126371429D01*
X125964286Y-126942857D01*
X126035715Y-127085714D01*
X126107143Y-127157143D01*
X126250001Y-127228571D01*
X126535715Y-127228571D01*
X126678572Y-127157143D01*
X126750001Y-127085714D01*
X126821429Y-126942857D01*
X126821429Y-126585714D01*
X126750001Y-126442857D01*
X126678572Y-126371429D01*
X126535715Y-126300000D01*
X126250001Y-126300000D01*
X126107143Y-126371429D01*
X126035715Y-126442857D01*
X125964286Y-126585714D01*
X127464286Y-125728571D02*
X127464286Y-126942857D01*
X127535714Y-127085714D01*
X127607143Y-127157143D01*
X127750000Y-127228571D01*
X128035714Y-127228571D01*
X128178572Y-127157143D01*
X128250000Y-127085714D01*
X128321429Y-126942857D01*
X128321429Y-125728571D01*
X129035715Y-127228571D02*
X129035715Y-125728571D01*
X129892858Y-127228571D02*
X129250001Y-126371429D01*
X129892858Y-125728571D02*
X129035715Y-126585714D01*
X131035715Y-126442857D02*
X130535715Y-126442857D01*
X130535715Y-127228571D02*
X130535715Y-125728571D01*
X131250001Y-125728571D01*
D12*
X142000000Y-130000000D02*
X42000000Y-130000000D01*
X142000000Y-30000000D02*
X142000000Y-130000000D01*
X142000000Y-30000000D02*
X42000000Y-30000000D01*
X42000000Y-30000000D02*
X142000000Y-30000000D01*
X42000000Y-130000000D02*
X42000000Y-30000000D01*
D13*
X82820864Y-79732180D02*
G75*
G03X82820000Y-85767482I1179136J-3017820D01*
G01*
X85179136Y-79732180D02*
G75*
G02X85180000Y-85767482I-1179136J-3017820D01*
G01*
X85179136Y-79732180D02*
G75*
G03X82820000Y-79732518I-1179136J-3017820D01*
G01*
X80800000Y-82750000D02*
X87200000Y-82750000D01*
X80800000Y-82710000D02*
X87200000Y-82710000D01*
X80800000Y-82670000D02*
X87200000Y-82670000D01*
X80802000Y-82630000D02*
X87198000Y-82630000D01*
X80803000Y-82590000D02*
X87197000Y-82590000D01*
X80806000Y-82550000D02*
X87194000Y-82550000D01*
X80808000Y-82510000D02*
X87192000Y-82510000D01*
X80812000Y-82470000D02*
X83020000Y-82470000D01*
X84980000Y-82470000D02*
X87188000Y-82470000D01*
X80815000Y-82430000D02*
X83020000Y-82430000D01*
X84980000Y-82430000D02*
X87185000Y-82430000D01*
X80820000Y-82390000D02*
X83020000Y-82390000D01*
X84980000Y-82390000D02*
X87180000Y-82390000D01*
X80824000Y-82350000D02*
X83020000Y-82350000D01*
X84980000Y-82350000D02*
X87176000Y-82350000D01*
X80830000Y-82310000D02*
X83020000Y-82310000D01*
X84980000Y-82310000D02*
X87170000Y-82310000D01*
X80835000Y-82270000D02*
X83020000Y-82270000D01*
X84980000Y-82270000D02*
X87165000Y-82270000D01*
X80842000Y-82230000D02*
X83020000Y-82230000D01*
X84980000Y-82230000D02*
X87158000Y-82230000D01*
X80848000Y-82190000D02*
X83020000Y-82190000D01*
X84980000Y-82190000D02*
X87152000Y-82190000D01*
X80856000Y-82150000D02*
X83020000Y-82150000D01*
X84980000Y-82150000D02*
X87144000Y-82150000D01*
X80863000Y-82110000D02*
X83020000Y-82110000D01*
X84980000Y-82110000D02*
X87137000Y-82110000D01*
X80872000Y-82070000D02*
X83020000Y-82070000D01*
X84980000Y-82070000D02*
X87128000Y-82070000D01*
X80881000Y-82029000D02*
X83020000Y-82029000D01*
X84980000Y-82029000D02*
X87119000Y-82029000D01*
X80890000Y-81989000D02*
X83020000Y-81989000D01*
X84980000Y-81989000D02*
X87110000Y-81989000D01*
X80900000Y-81949000D02*
X83020000Y-81949000D01*
X84980000Y-81949000D02*
X87100000Y-81949000D01*
X80910000Y-81909000D02*
X83020000Y-81909000D01*
X84980000Y-81909000D02*
X87090000Y-81909000D01*
X80921000Y-81869000D02*
X83020000Y-81869000D01*
X84980000Y-81869000D02*
X87079000Y-81869000D01*
X80933000Y-81829000D02*
X83020000Y-81829000D01*
X84980000Y-81829000D02*
X87067000Y-81829000D01*
X80945000Y-81789000D02*
X83020000Y-81789000D01*
X84980000Y-81789000D02*
X87055000Y-81789000D01*
X80958000Y-81749000D02*
X83020000Y-81749000D01*
X84980000Y-81749000D02*
X87042000Y-81749000D01*
X80971000Y-81709000D02*
X83020000Y-81709000D01*
X84980000Y-81709000D02*
X87029000Y-81709000D01*
X80985000Y-81669000D02*
X83020000Y-81669000D01*
X84980000Y-81669000D02*
X87015000Y-81669000D01*
X80999000Y-81629000D02*
X83020000Y-81629000D01*
X84980000Y-81629000D02*
X87001000Y-81629000D01*
X81014000Y-81589000D02*
X83020000Y-81589000D01*
X84980000Y-81589000D02*
X86986000Y-81589000D01*
X81030000Y-81549000D02*
X83020000Y-81549000D01*
X84980000Y-81549000D02*
X86970000Y-81549000D01*
X81046000Y-81509000D02*
X83020000Y-81509000D01*
X84980000Y-81509000D02*
X86954000Y-81509000D01*
X81063000Y-81469000D02*
X83020000Y-81469000D01*
X84980000Y-81469000D02*
X86937000Y-81469000D01*
X81081000Y-81429000D02*
X83020000Y-81429000D01*
X84980000Y-81429000D02*
X86919000Y-81429000D01*
X81099000Y-81389000D02*
X83020000Y-81389000D01*
X84980000Y-81389000D02*
X86901000Y-81389000D01*
X81118000Y-81349000D02*
X83020000Y-81349000D01*
X84980000Y-81349000D02*
X86882000Y-81349000D01*
X81137000Y-81309000D02*
X83020000Y-81309000D01*
X84980000Y-81309000D02*
X86863000Y-81309000D01*
X81157000Y-81269000D02*
X83020000Y-81269000D01*
X84980000Y-81269000D02*
X86843000Y-81269000D01*
X81178000Y-81229000D02*
X83020000Y-81229000D01*
X84980000Y-81229000D02*
X86822000Y-81229000D01*
X81200000Y-81189000D02*
X83020000Y-81189000D01*
X84980000Y-81189000D02*
X86800000Y-81189000D01*
X81222000Y-81149000D02*
X83020000Y-81149000D01*
X84980000Y-81149000D02*
X86778000Y-81149000D01*
X81245000Y-81109000D02*
X83020000Y-81109000D01*
X84980000Y-81109000D02*
X86755000Y-81109000D01*
X81269000Y-81069000D02*
X83020000Y-81069000D01*
X84980000Y-81069000D02*
X86731000Y-81069000D01*
X81294000Y-81029000D02*
X83020000Y-81029000D01*
X84980000Y-81029000D02*
X86706000Y-81029000D01*
X81319000Y-80989000D02*
X83020000Y-80989000D01*
X84980000Y-80989000D02*
X86681000Y-80989000D01*
X81346000Y-80949000D02*
X83020000Y-80949000D01*
X84980000Y-80949000D02*
X86654000Y-80949000D01*
X81373000Y-80909000D02*
X83020000Y-80909000D01*
X84980000Y-80909000D02*
X86627000Y-80909000D01*
X81401000Y-80869000D02*
X83020000Y-80869000D01*
X84980000Y-80869000D02*
X86599000Y-80869000D01*
X81430000Y-80829000D02*
X83020000Y-80829000D01*
X84980000Y-80829000D02*
X86570000Y-80829000D01*
X81460000Y-80789000D02*
X83020000Y-80789000D01*
X84980000Y-80789000D02*
X86540000Y-80789000D01*
X81490000Y-80749000D02*
X83020000Y-80749000D01*
X84980000Y-80749000D02*
X86510000Y-80749000D01*
X81522000Y-80709000D02*
X83020000Y-80709000D01*
X84980000Y-80709000D02*
X86478000Y-80709000D01*
X81555000Y-80669000D02*
X83020000Y-80669000D01*
X84980000Y-80669000D02*
X86445000Y-80669000D01*
X81589000Y-80629000D02*
X83020000Y-80629000D01*
X84980000Y-80629000D02*
X86411000Y-80629000D01*
X81625000Y-80589000D02*
X83020000Y-80589000D01*
X84980000Y-80589000D02*
X86375000Y-80589000D01*
X81661000Y-80549000D02*
X83020000Y-80549000D01*
X84980000Y-80549000D02*
X86339000Y-80549000D01*
X81699000Y-80509000D02*
X86301000Y-80509000D01*
X81738000Y-80469000D02*
X86262000Y-80469000D01*
X81778000Y-80429000D02*
X86222000Y-80429000D01*
X81820000Y-80389000D02*
X86180000Y-80389000D01*
X81863000Y-80349000D02*
X86137000Y-80349000D01*
X81908000Y-80309000D02*
X86092000Y-80309000D01*
X81955000Y-80269000D02*
X86045000Y-80269000D01*
X82003000Y-80229000D02*
X85997000Y-80229000D01*
X82054000Y-80189000D02*
X85946000Y-80189000D01*
X82106000Y-80149000D02*
X85894000Y-80149000D01*
X82161000Y-80109000D02*
X85839000Y-80109000D01*
X82219000Y-80069000D02*
X85781000Y-80069000D01*
X82279000Y-80029000D02*
X85721000Y-80029000D01*
X82342000Y-79989000D02*
X85658000Y-79989000D01*
X82409000Y-79949000D02*
X85591000Y-79949000D01*
X82480000Y-79909000D02*
X85520000Y-79909000D01*
X82555000Y-79869000D02*
X85445000Y-79869000D01*
X82636000Y-79829000D02*
X85364000Y-79829000D01*
X82722000Y-79789000D02*
X85278000Y-79789000D01*
X82816000Y-79749000D02*
X85184000Y-79749000D01*
X82919000Y-79709000D02*
X85081000Y-79709000D01*
X83034000Y-79669000D02*
X84966000Y-79669000D01*
X83166000Y-79629000D02*
X84834000Y-79629000D01*
X83324000Y-79589000D02*
X84676000Y-79589000D01*
X83532000Y-79549000D02*
X84468000Y-79549000D01*
X84000000Y-86200000D02*
X84000000Y-85000000D01*
X83350000Y-85600000D02*
X84650000Y-85600000D01*
X82820864Y-112732180D02*
G75*
G03X82820000Y-118767482I1179136J-3017820D01*
G01*
X85179136Y-112732180D02*
G75*
G02X85180000Y-118767482I-1179136J-3017820D01*
G01*
X85179136Y-112732180D02*
G75*
G03X82820000Y-112732518I-1179136J-3017820D01*
G01*
X80800000Y-115750000D02*
X87200000Y-115750000D01*
X80800000Y-115710000D02*
X87200000Y-115710000D01*
X80800000Y-115670000D02*
X87200000Y-115670000D01*
X80802000Y-115630000D02*
X87198000Y-115630000D01*
X80803000Y-115590000D02*
X87197000Y-115590000D01*
X80806000Y-115550000D02*
X87194000Y-115550000D01*
X80808000Y-115510000D02*
X87192000Y-115510000D01*
X80812000Y-115470000D02*
X83020000Y-115470000D01*
X84980000Y-115470000D02*
X87188000Y-115470000D01*
X80815000Y-115430000D02*
X83020000Y-115430000D01*
X84980000Y-115430000D02*
X87185000Y-115430000D01*
X80820000Y-115390000D02*
X83020000Y-115390000D01*
X84980000Y-115390000D02*
X87180000Y-115390000D01*
X80824000Y-115350000D02*
X83020000Y-115350000D01*
X84980000Y-115350000D02*
X87176000Y-115350000D01*
X80830000Y-115310000D02*
X83020000Y-115310000D01*
X84980000Y-115310000D02*
X87170000Y-115310000D01*
X80835000Y-115270000D02*
X83020000Y-115270000D01*
X84980000Y-115270000D02*
X87165000Y-115270000D01*
X80842000Y-115230000D02*
X83020000Y-115230000D01*
X84980000Y-115230000D02*
X87158000Y-115230000D01*
X80848000Y-115190000D02*
X83020000Y-115190000D01*
X84980000Y-115190000D02*
X87152000Y-115190000D01*
X80856000Y-115150000D02*
X83020000Y-115150000D01*
X84980000Y-115150000D02*
X87144000Y-115150000D01*
X80863000Y-115110000D02*
X83020000Y-115110000D01*
X84980000Y-115110000D02*
X87137000Y-115110000D01*
X80872000Y-115070000D02*
X83020000Y-115070000D01*
X84980000Y-115070000D02*
X87128000Y-115070000D01*
X80881000Y-115029000D02*
X83020000Y-115029000D01*
X84980000Y-115029000D02*
X87119000Y-115029000D01*
X80890000Y-114989000D02*
X83020000Y-114989000D01*
X84980000Y-114989000D02*
X87110000Y-114989000D01*
X80900000Y-114949000D02*
X83020000Y-114949000D01*
X84980000Y-114949000D02*
X87100000Y-114949000D01*
X80910000Y-114909000D02*
X83020000Y-114909000D01*
X84980000Y-114909000D02*
X87090000Y-114909000D01*
X80921000Y-114869000D02*
X83020000Y-114869000D01*
X84980000Y-114869000D02*
X87079000Y-114869000D01*
X80933000Y-114829000D02*
X83020000Y-114829000D01*
X84980000Y-114829000D02*
X87067000Y-114829000D01*
X80945000Y-114789000D02*
X83020000Y-114789000D01*
X84980000Y-114789000D02*
X87055000Y-114789000D01*
X80958000Y-114749000D02*
X83020000Y-114749000D01*
X84980000Y-114749000D02*
X87042000Y-114749000D01*
X80971000Y-114709000D02*
X83020000Y-114709000D01*
X84980000Y-114709000D02*
X87029000Y-114709000D01*
X80985000Y-114669000D02*
X83020000Y-114669000D01*
X84980000Y-114669000D02*
X87015000Y-114669000D01*
X80999000Y-114629000D02*
X83020000Y-114629000D01*
X84980000Y-114629000D02*
X87001000Y-114629000D01*
X81014000Y-114589000D02*
X83020000Y-114589000D01*
X84980000Y-114589000D02*
X86986000Y-114589000D01*
X81030000Y-114549000D02*
X83020000Y-114549000D01*
X84980000Y-114549000D02*
X86970000Y-114549000D01*
X81046000Y-114509000D02*
X83020000Y-114509000D01*
X84980000Y-114509000D02*
X86954000Y-114509000D01*
X81063000Y-114469000D02*
X83020000Y-114469000D01*
X84980000Y-114469000D02*
X86937000Y-114469000D01*
X81081000Y-114429000D02*
X83020000Y-114429000D01*
X84980000Y-114429000D02*
X86919000Y-114429000D01*
X81099000Y-114389000D02*
X83020000Y-114389000D01*
X84980000Y-114389000D02*
X86901000Y-114389000D01*
X81118000Y-114349000D02*
X83020000Y-114349000D01*
X84980000Y-114349000D02*
X86882000Y-114349000D01*
X81137000Y-114309000D02*
X83020000Y-114309000D01*
X84980000Y-114309000D02*
X86863000Y-114309000D01*
X81157000Y-114269000D02*
X83020000Y-114269000D01*
X84980000Y-114269000D02*
X86843000Y-114269000D01*
X81178000Y-114229000D02*
X83020000Y-114229000D01*
X84980000Y-114229000D02*
X86822000Y-114229000D01*
X81200000Y-114189000D02*
X83020000Y-114189000D01*
X84980000Y-114189000D02*
X86800000Y-114189000D01*
X81222000Y-114149000D02*
X83020000Y-114149000D01*
X84980000Y-114149000D02*
X86778000Y-114149000D01*
X81245000Y-114109000D02*
X83020000Y-114109000D01*
X84980000Y-114109000D02*
X86755000Y-114109000D01*
X81269000Y-114069000D02*
X83020000Y-114069000D01*
X84980000Y-114069000D02*
X86731000Y-114069000D01*
X81294000Y-114029000D02*
X83020000Y-114029000D01*
X84980000Y-114029000D02*
X86706000Y-114029000D01*
X81319000Y-113989000D02*
X83020000Y-113989000D01*
X84980000Y-113989000D02*
X86681000Y-113989000D01*
X81346000Y-113949000D02*
X83020000Y-113949000D01*
X84980000Y-113949000D02*
X86654000Y-113949000D01*
X81373000Y-113909000D02*
X83020000Y-113909000D01*
X84980000Y-113909000D02*
X86627000Y-113909000D01*
X81401000Y-113869000D02*
X83020000Y-113869000D01*
X84980000Y-113869000D02*
X86599000Y-113869000D01*
X81430000Y-113829000D02*
X83020000Y-113829000D01*
X84980000Y-113829000D02*
X86570000Y-113829000D01*
X81460000Y-113789000D02*
X83020000Y-113789000D01*
X84980000Y-113789000D02*
X86540000Y-113789000D01*
X81490000Y-113749000D02*
X83020000Y-113749000D01*
X84980000Y-113749000D02*
X86510000Y-113749000D01*
X81522000Y-113709000D02*
X83020000Y-113709000D01*
X84980000Y-113709000D02*
X86478000Y-113709000D01*
X81555000Y-113669000D02*
X83020000Y-113669000D01*
X84980000Y-113669000D02*
X86445000Y-113669000D01*
X81589000Y-113629000D02*
X83020000Y-113629000D01*
X84980000Y-113629000D02*
X86411000Y-113629000D01*
X81625000Y-113589000D02*
X83020000Y-113589000D01*
X84980000Y-113589000D02*
X86375000Y-113589000D01*
X81661000Y-113549000D02*
X83020000Y-113549000D01*
X84980000Y-113549000D02*
X86339000Y-113549000D01*
X81699000Y-113509000D02*
X86301000Y-113509000D01*
X81738000Y-113469000D02*
X86262000Y-113469000D01*
X81778000Y-113429000D02*
X86222000Y-113429000D01*
X81820000Y-113389000D02*
X86180000Y-113389000D01*
X81863000Y-113349000D02*
X86137000Y-113349000D01*
X81908000Y-113309000D02*
X86092000Y-113309000D01*
X81955000Y-113269000D02*
X86045000Y-113269000D01*
X82003000Y-113229000D02*
X85997000Y-113229000D01*
X82054000Y-113189000D02*
X85946000Y-113189000D01*
X82106000Y-113149000D02*
X85894000Y-113149000D01*
X82161000Y-113109000D02*
X85839000Y-113109000D01*
X82219000Y-113069000D02*
X85781000Y-113069000D01*
X82279000Y-113029000D02*
X85721000Y-113029000D01*
X82342000Y-112989000D02*
X85658000Y-112989000D01*
X82409000Y-112949000D02*
X85591000Y-112949000D01*
X82480000Y-112909000D02*
X85520000Y-112909000D01*
X82555000Y-112869000D02*
X85445000Y-112869000D01*
X82636000Y-112829000D02*
X85364000Y-112829000D01*
X82722000Y-112789000D02*
X85278000Y-112789000D01*
X82816000Y-112749000D02*
X85184000Y-112749000D01*
X82919000Y-112709000D02*
X85081000Y-112709000D01*
X83034000Y-112669000D02*
X84966000Y-112669000D01*
X83166000Y-112629000D02*
X84834000Y-112629000D01*
X83324000Y-112589000D02*
X84676000Y-112589000D01*
X83532000Y-112549000D02*
X84468000Y-112549000D01*
X84000000Y-119200000D02*
X84000000Y-118000000D01*
X83350000Y-118600000D02*
X84650000Y-118600000D01*
X51616736Y-84601563D02*
G75*
G03X51620000Y-94399357I1383264J-4898437D01*
G01*
X54383264Y-84601563D02*
G75*
G02X54380000Y-94399357I-1383264J-4898437D01*
G01*
X54383264Y-84601563D02*
G75*
G03X51620000Y-84600643I-1383264J-4898437D01*
G01*
X47950000Y-89500000D02*
X58050000Y-89500000D01*
X47950000Y-89460000D02*
X58050000Y-89460000D01*
X47950000Y-89420000D02*
X58050000Y-89420000D01*
X47951000Y-89380000D02*
X58049000Y-89380000D01*
X47952000Y-89340000D02*
X58048000Y-89340000D01*
X47953000Y-89300000D02*
X58047000Y-89300000D01*
X47955000Y-89260000D02*
X58045000Y-89260000D01*
X47957000Y-89220000D02*
X58043000Y-89220000D01*
X47960000Y-89180000D02*
X58040000Y-89180000D01*
X47962000Y-89140000D02*
X58038000Y-89140000D01*
X47965000Y-89100000D02*
X58035000Y-89100000D01*
X47969000Y-89060000D02*
X58031000Y-89060000D01*
X47972000Y-89020000D02*
X58028000Y-89020000D01*
X47976000Y-88980000D02*
X58024000Y-88980000D01*
X47980000Y-88940000D02*
X58020000Y-88940000D01*
X47985000Y-88900000D02*
X58015000Y-88900000D01*
X47990000Y-88860000D02*
X58010000Y-88860000D01*
X47995000Y-88820000D02*
X58005000Y-88820000D01*
X48001000Y-88779000D02*
X57999000Y-88779000D01*
X48007000Y-88739000D02*
X57993000Y-88739000D01*
X48013000Y-88699000D02*
X57987000Y-88699000D01*
X48019000Y-88659000D02*
X57981000Y-88659000D01*
X48026000Y-88619000D02*
X57974000Y-88619000D01*
X48033000Y-88579000D02*
X57967000Y-88579000D01*
X48041000Y-88539000D02*
X57959000Y-88539000D01*
X48049000Y-88499000D02*
X57951000Y-88499000D01*
X48057000Y-88459000D02*
X57943000Y-88459000D01*
X48065000Y-88419000D02*
X57935000Y-88419000D01*
X48074000Y-88379000D02*
X57926000Y-88379000D01*
X48083000Y-88339000D02*
X57917000Y-88339000D01*
X48093000Y-88299000D02*
X57907000Y-88299000D01*
X48103000Y-88259000D02*
X57897000Y-88259000D01*
X48113000Y-88219000D02*
X57887000Y-88219000D01*
X48124000Y-88179000D02*
X51819000Y-88179000D01*
X54181000Y-88179000D02*
X57876000Y-88179000D01*
X48135000Y-88139000D02*
X51819000Y-88139000D01*
X54181000Y-88139000D02*
X57865000Y-88139000D01*
X48146000Y-88099000D02*
X51819000Y-88099000D01*
X54181000Y-88099000D02*
X57854000Y-88099000D01*
X48157000Y-88059000D02*
X51819000Y-88059000D01*
X54181000Y-88059000D02*
X57843000Y-88059000D01*
X48169000Y-88019000D02*
X51819000Y-88019000D01*
X54181000Y-88019000D02*
X57831000Y-88019000D01*
X48182000Y-87979000D02*
X51819000Y-87979000D01*
X54181000Y-87979000D02*
X57818000Y-87979000D01*
X48194000Y-87939000D02*
X51819000Y-87939000D01*
X54181000Y-87939000D02*
X57806000Y-87939000D01*
X48208000Y-87899000D02*
X51819000Y-87899000D01*
X54181000Y-87899000D02*
X57792000Y-87899000D01*
X48221000Y-87859000D02*
X51819000Y-87859000D01*
X54181000Y-87859000D02*
X57779000Y-87859000D01*
X48235000Y-87819000D02*
X51819000Y-87819000D01*
X54181000Y-87819000D02*
X57765000Y-87819000D01*
X48249000Y-87779000D02*
X51819000Y-87779000D01*
X54181000Y-87779000D02*
X57751000Y-87779000D01*
X48263000Y-87739000D02*
X51819000Y-87739000D01*
X54181000Y-87739000D02*
X57737000Y-87739000D01*
X48278000Y-87699000D02*
X51819000Y-87699000D01*
X54181000Y-87699000D02*
X57722000Y-87699000D01*
X48294000Y-87659000D02*
X51819000Y-87659000D01*
X54181000Y-87659000D02*
X57706000Y-87659000D01*
X48309000Y-87619000D02*
X51819000Y-87619000D01*
X54181000Y-87619000D02*
X57691000Y-87619000D01*
X48326000Y-87579000D02*
X51819000Y-87579000D01*
X54181000Y-87579000D02*
X57674000Y-87579000D01*
X48342000Y-87539000D02*
X51819000Y-87539000D01*
X54181000Y-87539000D02*
X57658000Y-87539000D01*
X48359000Y-87499000D02*
X51819000Y-87499000D01*
X54181000Y-87499000D02*
X57641000Y-87499000D01*
X48376000Y-87459000D02*
X51819000Y-87459000D01*
X54181000Y-87459000D02*
X57624000Y-87459000D01*
X48394000Y-87419000D02*
X51819000Y-87419000D01*
X54181000Y-87419000D02*
X57606000Y-87419000D01*
X48412000Y-87379000D02*
X51819000Y-87379000D01*
X54181000Y-87379000D02*
X57588000Y-87379000D01*
X48431000Y-87339000D02*
X51819000Y-87339000D01*
X54181000Y-87339000D02*
X57569000Y-87339000D01*
X48450000Y-87299000D02*
X51819000Y-87299000D01*
X54181000Y-87299000D02*
X57550000Y-87299000D01*
X48469000Y-87259000D02*
X51819000Y-87259000D01*
X54181000Y-87259000D02*
X57531000Y-87259000D01*
X48489000Y-87219000D02*
X51819000Y-87219000D01*
X54181000Y-87219000D02*
X57511000Y-87219000D01*
X48509000Y-87179000D02*
X51819000Y-87179000D01*
X54181000Y-87179000D02*
X57491000Y-87179000D01*
X48530000Y-87139000D02*
X51819000Y-87139000D01*
X54181000Y-87139000D02*
X57470000Y-87139000D01*
X48551000Y-87099000D02*
X51819000Y-87099000D01*
X54181000Y-87099000D02*
X57449000Y-87099000D01*
X48572000Y-87059000D02*
X51819000Y-87059000D01*
X54181000Y-87059000D02*
X57428000Y-87059000D01*
X48595000Y-87019000D02*
X51819000Y-87019000D01*
X54181000Y-87019000D02*
X57405000Y-87019000D01*
X48617000Y-86979000D02*
X51819000Y-86979000D01*
X54181000Y-86979000D02*
X57383000Y-86979000D01*
X48640000Y-86939000D02*
X51819000Y-86939000D01*
X54181000Y-86939000D02*
X57360000Y-86939000D01*
X48664000Y-86899000D02*
X51819000Y-86899000D01*
X54181000Y-86899000D02*
X57336000Y-86899000D01*
X48688000Y-86859000D02*
X51819000Y-86859000D01*
X54181000Y-86859000D02*
X57312000Y-86859000D01*
X48712000Y-86819000D02*
X51819000Y-86819000D01*
X54181000Y-86819000D02*
X57288000Y-86819000D01*
X48737000Y-86779000D02*
X51819000Y-86779000D01*
X54181000Y-86779000D02*
X57263000Y-86779000D01*
X48763000Y-86739000D02*
X51819000Y-86739000D01*
X54181000Y-86739000D02*
X57237000Y-86739000D01*
X48789000Y-86699000D02*
X51819000Y-86699000D01*
X54181000Y-86699000D02*
X57211000Y-86699000D01*
X48815000Y-86659000D02*
X51819000Y-86659000D01*
X54181000Y-86659000D02*
X57185000Y-86659000D01*
X48843000Y-86619000D02*
X51819000Y-86619000D01*
X54181000Y-86619000D02*
X57157000Y-86619000D01*
X48870000Y-86579000D02*
X51819000Y-86579000D01*
X54181000Y-86579000D02*
X57130000Y-86579000D01*
X48899000Y-86539000D02*
X51819000Y-86539000D01*
X54181000Y-86539000D02*
X57101000Y-86539000D01*
X48928000Y-86499000D02*
X51819000Y-86499000D01*
X54181000Y-86499000D02*
X57072000Y-86499000D01*
X48957000Y-86459000D02*
X51819000Y-86459000D01*
X54181000Y-86459000D02*
X57043000Y-86459000D01*
X48987000Y-86419000D02*
X51819000Y-86419000D01*
X54181000Y-86419000D02*
X57013000Y-86419000D01*
X49018000Y-86379000D02*
X51819000Y-86379000D01*
X54181000Y-86379000D02*
X56982000Y-86379000D01*
X49049000Y-86339000D02*
X51819000Y-86339000D01*
X54181000Y-86339000D02*
X56951000Y-86339000D01*
X49081000Y-86299000D02*
X51819000Y-86299000D01*
X54181000Y-86299000D02*
X56919000Y-86299000D01*
X49114000Y-86259000D02*
X51819000Y-86259000D01*
X54181000Y-86259000D02*
X56886000Y-86259000D01*
X49147000Y-86219000D02*
X51819000Y-86219000D01*
X54181000Y-86219000D02*
X56853000Y-86219000D01*
X49181000Y-86179000D02*
X51819000Y-86179000D01*
X54181000Y-86179000D02*
X56819000Y-86179000D01*
X49216000Y-86139000D02*
X51819000Y-86139000D01*
X54181000Y-86139000D02*
X56784000Y-86139000D01*
X49252000Y-86099000D02*
X51819000Y-86099000D01*
X54181000Y-86099000D02*
X56748000Y-86099000D01*
X49288000Y-86059000D02*
X51819000Y-86059000D01*
X54181000Y-86059000D02*
X56712000Y-86059000D01*
X49325000Y-86019000D02*
X51819000Y-86019000D01*
X54181000Y-86019000D02*
X56675000Y-86019000D01*
X49363000Y-85979000D02*
X51819000Y-85979000D01*
X54181000Y-85979000D02*
X56637000Y-85979000D01*
X49402000Y-85939000D02*
X51819000Y-85939000D01*
X54181000Y-85939000D02*
X56598000Y-85939000D01*
X49441000Y-85899000D02*
X51819000Y-85899000D01*
X54181000Y-85899000D02*
X56559000Y-85899000D01*
X49482000Y-85859000D02*
X51819000Y-85859000D01*
X54181000Y-85859000D02*
X56518000Y-85859000D01*
X49523000Y-85819000D02*
X56477000Y-85819000D01*
X49565000Y-85779000D02*
X56435000Y-85779000D01*
X49609000Y-85739000D02*
X56391000Y-85739000D01*
X49653000Y-85699000D02*
X56347000Y-85699000D01*
X49698000Y-85659000D02*
X56302000Y-85659000D01*
X49745000Y-85619000D02*
X56255000Y-85619000D01*
X49793000Y-85579000D02*
X56207000Y-85579000D01*
X49842000Y-85539000D02*
X56158000Y-85539000D01*
X49892000Y-85499000D02*
X56108000Y-85499000D01*
X49943000Y-85459000D02*
X56057000Y-85459000D01*
X49996000Y-85419000D02*
X56004000Y-85419000D01*
X50051000Y-85379000D02*
X55949000Y-85379000D01*
X50106000Y-85339000D02*
X55894000Y-85339000D01*
X50164000Y-85299000D02*
X55836000Y-85299000D01*
X50223000Y-85259000D02*
X55777000Y-85259000D01*
X50285000Y-85219000D02*
X55715000Y-85219000D01*
X50348000Y-85179000D02*
X55652000Y-85179000D01*
X50413000Y-85139000D02*
X55587000Y-85139000D01*
X50481000Y-85099000D02*
X55519000Y-85099000D01*
X50551000Y-85059000D02*
X55449000Y-85059000D01*
X50623000Y-85019000D02*
X55377000Y-85019000D01*
X50699000Y-84979000D02*
X55301000Y-84979000D01*
X50778000Y-84939000D02*
X55222000Y-84939000D01*
X50860000Y-84899000D02*
X55140000Y-84899000D01*
X50947000Y-84859000D02*
X55053000Y-84859000D01*
X51038000Y-84819000D02*
X54962000Y-84819000D01*
X51134000Y-84779000D02*
X54866000Y-84779000D01*
X51237000Y-84739000D02*
X54763000Y-84739000D01*
X51346000Y-84699000D02*
X54654000Y-84699000D01*
X51464000Y-84659000D02*
X54536000Y-84659000D01*
X51593000Y-84619000D02*
X54407000Y-84619000D01*
X51735000Y-84579000D02*
X54265000Y-84579000D01*
X51896000Y-84539000D02*
X54104000Y-84539000D01*
X52087000Y-84499000D02*
X53913000Y-84499000D01*
X52328000Y-84459000D02*
X53672000Y-84459000D01*
X52721000Y-84419000D02*
X53279000Y-84419000D01*
X53000000Y-94700000D02*
X53000000Y-93200000D01*
X52250000Y-93950000D02*
X53750000Y-93950000D01*
X60820864Y-85732180D02*
G75*
G03X60820000Y-91767482I1179136J-3017820D01*
G01*
X63179136Y-85732180D02*
G75*
G02X63180000Y-91767482I-1179136J-3017820D01*
G01*
X63179136Y-85732180D02*
G75*
G03X60820000Y-85732518I-1179136J-3017820D01*
G01*
X58800000Y-88750000D02*
X65200000Y-88750000D01*
X58800000Y-88710000D02*
X65200000Y-88710000D01*
X58800000Y-88670000D02*
X65200000Y-88670000D01*
X58802000Y-88630000D02*
X65198000Y-88630000D01*
X58803000Y-88590000D02*
X65197000Y-88590000D01*
X58806000Y-88550000D02*
X65194000Y-88550000D01*
X58808000Y-88510000D02*
X65192000Y-88510000D01*
X58812000Y-88470000D02*
X61020000Y-88470000D01*
X62980000Y-88470000D02*
X65188000Y-88470000D01*
X58815000Y-88430000D02*
X61020000Y-88430000D01*
X62980000Y-88430000D02*
X65185000Y-88430000D01*
X58820000Y-88390000D02*
X61020000Y-88390000D01*
X62980000Y-88390000D02*
X65180000Y-88390000D01*
X58824000Y-88350000D02*
X61020000Y-88350000D01*
X62980000Y-88350000D02*
X65176000Y-88350000D01*
X58830000Y-88310000D02*
X61020000Y-88310000D01*
X62980000Y-88310000D02*
X65170000Y-88310000D01*
X58835000Y-88270000D02*
X61020000Y-88270000D01*
X62980000Y-88270000D02*
X65165000Y-88270000D01*
X58842000Y-88230000D02*
X61020000Y-88230000D01*
X62980000Y-88230000D02*
X65158000Y-88230000D01*
X58848000Y-88190000D02*
X61020000Y-88190000D01*
X62980000Y-88190000D02*
X65152000Y-88190000D01*
X58856000Y-88150000D02*
X61020000Y-88150000D01*
X62980000Y-88150000D02*
X65144000Y-88150000D01*
X58863000Y-88110000D02*
X61020000Y-88110000D01*
X62980000Y-88110000D02*
X65137000Y-88110000D01*
X58872000Y-88070000D02*
X61020000Y-88070000D01*
X62980000Y-88070000D02*
X65128000Y-88070000D01*
X58881000Y-88029000D02*
X61020000Y-88029000D01*
X62980000Y-88029000D02*
X65119000Y-88029000D01*
X58890000Y-87989000D02*
X61020000Y-87989000D01*
X62980000Y-87989000D02*
X65110000Y-87989000D01*
X58900000Y-87949000D02*
X61020000Y-87949000D01*
X62980000Y-87949000D02*
X65100000Y-87949000D01*
X58910000Y-87909000D02*
X61020000Y-87909000D01*
X62980000Y-87909000D02*
X65090000Y-87909000D01*
X58921000Y-87869000D02*
X61020000Y-87869000D01*
X62980000Y-87869000D02*
X65079000Y-87869000D01*
X58933000Y-87829000D02*
X61020000Y-87829000D01*
X62980000Y-87829000D02*
X65067000Y-87829000D01*
X58945000Y-87789000D02*
X61020000Y-87789000D01*
X62980000Y-87789000D02*
X65055000Y-87789000D01*
X58958000Y-87749000D02*
X61020000Y-87749000D01*
X62980000Y-87749000D02*
X65042000Y-87749000D01*
X58971000Y-87709000D02*
X61020000Y-87709000D01*
X62980000Y-87709000D02*
X65029000Y-87709000D01*
X58985000Y-87669000D02*
X61020000Y-87669000D01*
X62980000Y-87669000D02*
X65015000Y-87669000D01*
X58999000Y-87629000D02*
X61020000Y-87629000D01*
X62980000Y-87629000D02*
X65001000Y-87629000D01*
X59014000Y-87589000D02*
X61020000Y-87589000D01*
X62980000Y-87589000D02*
X64986000Y-87589000D01*
X59030000Y-87549000D02*
X61020000Y-87549000D01*
X62980000Y-87549000D02*
X64970000Y-87549000D01*
X59046000Y-87509000D02*
X61020000Y-87509000D01*
X62980000Y-87509000D02*
X64954000Y-87509000D01*
X59063000Y-87469000D02*
X61020000Y-87469000D01*
X62980000Y-87469000D02*
X64937000Y-87469000D01*
X59081000Y-87429000D02*
X61020000Y-87429000D01*
X62980000Y-87429000D02*
X64919000Y-87429000D01*
X59099000Y-87389000D02*
X61020000Y-87389000D01*
X62980000Y-87389000D02*
X64901000Y-87389000D01*
X59118000Y-87349000D02*
X61020000Y-87349000D01*
X62980000Y-87349000D02*
X64882000Y-87349000D01*
X59137000Y-87309000D02*
X61020000Y-87309000D01*
X62980000Y-87309000D02*
X64863000Y-87309000D01*
X59157000Y-87269000D02*
X61020000Y-87269000D01*
X62980000Y-87269000D02*
X64843000Y-87269000D01*
X59178000Y-87229000D02*
X61020000Y-87229000D01*
X62980000Y-87229000D02*
X64822000Y-87229000D01*
X59200000Y-87189000D02*
X61020000Y-87189000D01*
X62980000Y-87189000D02*
X64800000Y-87189000D01*
X59222000Y-87149000D02*
X61020000Y-87149000D01*
X62980000Y-87149000D02*
X64778000Y-87149000D01*
X59245000Y-87109000D02*
X61020000Y-87109000D01*
X62980000Y-87109000D02*
X64755000Y-87109000D01*
X59269000Y-87069000D02*
X61020000Y-87069000D01*
X62980000Y-87069000D02*
X64731000Y-87069000D01*
X59294000Y-87029000D02*
X61020000Y-87029000D01*
X62980000Y-87029000D02*
X64706000Y-87029000D01*
X59319000Y-86989000D02*
X61020000Y-86989000D01*
X62980000Y-86989000D02*
X64681000Y-86989000D01*
X59346000Y-86949000D02*
X61020000Y-86949000D01*
X62980000Y-86949000D02*
X64654000Y-86949000D01*
X59373000Y-86909000D02*
X61020000Y-86909000D01*
X62980000Y-86909000D02*
X64627000Y-86909000D01*
X59401000Y-86869000D02*
X61020000Y-86869000D01*
X62980000Y-86869000D02*
X64599000Y-86869000D01*
X59430000Y-86829000D02*
X61020000Y-86829000D01*
X62980000Y-86829000D02*
X64570000Y-86829000D01*
X59460000Y-86789000D02*
X61020000Y-86789000D01*
X62980000Y-86789000D02*
X64540000Y-86789000D01*
X59490000Y-86749000D02*
X61020000Y-86749000D01*
X62980000Y-86749000D02*
X64510000Y-86749000D01*
X59522000Y-86709000D02*
X61020000Y-86709000D01*
X62980000Y-86709000D02*
X64478000Y-86709000D01*
X59555000Y-86669000D02*
X61020000Y-86669000D01*
X62980000Y-86669000D02*
X64445000Y-86669000D01*
X59589000Y-86629000D02*
X61020000Y-86629000D01*
X62980000Y-86629000D02*
X64411000Y-86629000D01*
X59625000Y-86589000D02*
X61020000Y-86589000D01*
X62980000Y-86589000D02*
X64375000Y-86589000D01*
X59661000Y-86549000D02*
X61020000Y-86549000D01*
X62980000Y-86549000D02*
X64339000Y-86549000D01*
X59699000Y-86509000D02*
X64301000Y-86509000D01*
X59738000Y-86469000D02*
X64262000Y-86469000D01*
X59778000Y-86429000D02*
X64222000Y-86429000D01*
X59820000Y-86389000D02*
X64180000Y-86389000D01*
X59863000Y-86349000D02*
X64137000Y-86349000D01*
X59908000Y-86309000D02*
X64092000Y-86309000D01*
X59955000Y-86269000D02*
X64045000Y-86269000D01*
X60003000Y-86229000D02*
X63997000Y-86229000D01*
X60054000Y-86189000D02*
X63946000Y-86189000D01*
X60106000Y-86149000D02*
X63894000Y-86149000D01*
X60161000Y-86109000D02*
X63839000Y-86109000D01*
X60219000Y-86069000D02*
X63781000Y-86069000D01*
X60279000Y-86029000D02*
X63721000Y-86029000D01*
X60342000Y-85989000D02*
X63658000Y-85989000D01*
X60409000Y-85949000D02*
X63591000Y-85949000D01*
X60480000Y-85909000D02*
X63520000Y-85909000D01*
X60555000Y-85869000D02*
X63445000Y-85869000D01*
X60636000Y-85829000D02*
X63364000Y-85829000D01*
X60722000Y-85789000D02*
X63278000Y-85789000D01*
X60816000Y-85749000D02*
X63184000Y-85749000D01*
X60919000Y-85709000D02*
X63081000Y-85709000D01*
X61034000Y-85669000D02*
X62966000Y-85669000D01*
X61166000Y-85629000D02*
X62834000Y-85629000D01*
X61324000Y-85589000D02*
X62676000Y-85589000D01*
X61532000Y-85549000D02*
X62468000Y-85549000D01*
X62000000Y-92200000D02*
X62000000Y-91000000D01*
X61350000Y-91600000D02*
X62650000Y-91600000D01*
X54383264Y-115398437D02*
G75*
G03X54380000Y-105600643I-1383264J4898437D01*
G01*
X51616736Y-115398437D02*
G75*
G02X51620000Y-105600643I1383264J4898437D01*
G01*
X51616736Y-115398437D02*
G75*
G03X54380000Y-115399357I1383264J4898437D01*
G01*
X58050000Y-110500000D02*
X47950000Y-110500000D01*
X58050000Y-110540000D02*
X47950000Y-110540000D01*
X58050000Y-110580000D02*
X47950000Y-110580000D01*
X58049000Y-110620000D02*
X47951000Y-110620000D01*
X58048000Y-110660000D02*
X47952000Y-110660000D01*
X58047000Y-110700000D02*
X47953000Y-110700000D01*
X58045000Y-110740000D02*
X47955000Y-110740000D01*
X58043000Y-110780000D02*
X47957000Y-110780000D01*
X58040000Y-110820000D02*
X47960000Y-110820000D01*
X58038000Y-110860000D02*
X47962000Y-110860000D01*
X58035000Y-110900000D02*
X47965000Y-110900000D01*
X58031000Y-110940000D02*
X47969000Y-110940000D01*
X58028000Y-110980000D02*
X47972000Y-110980000D01*
X58024000Y-111020000D02*
X47976000Y-111020000D01*
X58020000Y-111060000D02*
X47980000Y-111060000D01*
X58015000Y-111100000D02*
X47985000Y-111100000D01*
X58010000Y-111140000D02*
X47990000Y-111140000D01*
X58005000Y-111180000D02*
X47995000Y-111180000D01*
X57999000Y-111221000D02*
X48001000Y-111221000D01*
X57993000Y-111261000D02*
X48007000Y-111261000D01*
X57987000Y-111301000D02*
X48013000Y-111301000D01*
X57981000Y-111341000D02*
X48019000Y-111341000D01*
X57974000Y-111381000D02*
X48026000Y-111381000D01*
X57967000Y-111421000D02*
X48033000Y-111421000D01*
X57959000Y-111461000D02*
X48041000Y-111461000D01*
X57951000Y-111501000D02*
X48049000Y-111501000D01*
X57943000Y-111541000D02*
X48057000Y-111541000D01*
X57935000Y-111581000D02*
X48065000Y-111581000D01*
X57926000Y-111621000D02*
X48074000Y-111621000D01*
X57917000Y-111661000D02*
X48083000Y-111661000D01*
X57907000Y-111701000D02*
X48093000Y-111701000D01*
X57897000Y-111741000D02*
X48103000Y-111741000D01*
X57887000Y-111781000D02*
X48113000Y-111781000D01*
X57876000Y-111821000D02*
X54181000Y-111821000D01*
X51819000Y-111821000D02*
X48124000Y-111821000D01*
X57865000Y-111861000D02*
X54181000Y-111861000D01*
X51819000Y-111861000D02*
X48135000Y-111861000D01*
X57854000Y-111901000D02*
X54181000Y-111901000D01*
X51819000Y-111901000D02*
X48146000Y-111901000D01*
X57843000Y-111941000D02*
X54181000Y-111941000D01*
X51819000Y-111941000D02*
X48157000Y-111941000D01*
X57831000Y-111981000D02*
X54181000Y-111981000D01*
X51819000Y-111981000D02*
X48169000Y-111981000D01*
X57818000Y-112021000D02*
X54181000Y-112021000D01*
X51819000Y-112021000D02*
X48182000Y-112021000D01*
X57806000Y-112061000D02*
X54181000Y-112061000D01*
X51819000Y-112061000D02*
X48194000Y-112061000D01*
X57792000Y-112101000D02*
X54181000Y-112101000D01*
X51819000Y-112101000D02*
X48208000Y-112101000D01*
X57779000Y-112141000D02*
X54181000Y-112141000D01*
X51819000Y-112141000D02*
X48221000Y-112141000D01*
X57765000Y-112181000D02*
X54181000Y-112181000D01*
X51819000Y-112181000D02*
X48235000Y-112181000D01*
X57751000Y-112221000D02*
X54181000Y-112221000D01*
X51819000Y-112221000D02*
X48249000Y-112221000D01*
X57737000Y-112261000D02*
X54181000Y-112261000D01*
X51819000Y-112261000D02*
X48263000Y-112261000D01*
X57722000Y-112301000D02*
X54181000Y-112301000D01*
X51819000Y-112301000D02*
X48278000Y-112301000D01*
X57706000Y-112341000D02*
X54181000Y-112341000D01*
X51819000Y-112341000D02*
X48294000Y-112341000D01*
X57691000Y-112381000D02*
X54181000Y-112381000D01*
X51819000Y-112381000D02*
X48309000Y-112381000D01*
X57674000Y-112421000D02*
X54181000Y-112421000D01*
X51819000Y-112421000D02*
X48326000Y-112421000D01*
X57658000Y-112461000D02*
X54181000Y-112461000D01*
X51819000Y-112461000D02*
X48342000Y-112461000D01*
X57641000Y-112501000D02*
X54181000Y-112501000D01*
X51819000Y-112501000D02*
X48359000Y-112501000D01*
X57624000Y-112541000D02*
X54181000Y-112541000D01*
X51819000Y-112541000D02*
X48376000Y-112541000D01*
X57606000Y-112581000D02*
X54181000Y-112581000D01*
X51819000Y-112581000D02*
X48394000Y-112581000D01*
X57588000Y-112621000D02*
X54181000Y-112621000D01*
X51819000Y-112621000D02*
X48412000Y-112621000D01*
X57569000Y-112661000D02*
X54181000Y-112661000D01*
X51819000Y-112661000D02*
X48431000Y-112661000D01*
X57550000Y-112701000D02*
X54181000Y-112701000D01*
X51819000Y-112701000D02*
X48450000Y-112701000D01*
X57531000Y-112741000D02*
X54181000Y-112741000D01*
X51819000Y-112741000D02*
X48469000Y-112741000D01*
X57511000Y-112781000D02*
X54181000Y-112781000D01*
X51819000Y-112781000D02*
X48489000Y-112781000D01*
X57491000Y-112821000D02*
X54181000Y-112821000D01*
X51819000Y-112821000D02*
X48509000Y-112821000D01*
X57470000Y-112861000D02*
X54181000Y-112861000D01*
X51819000Y-112861000D02*
X48530000Y-112861000D01*
X57449000Y-112901000D02*
X54181000Y-112901000D01*
X51819000Y-112901000D02*
X48551000Y-112901000D01*
X57428000Y-112941000D02*
X54181000Y-112941000D01*
X51819000Y-112941000D02*
X48572000Y-112941000D01*
X57405000Y-112981000D02*
X54181000Y-112981000D01*
X51819000Y-112981000D02*
X48595000Y-112981000D01*
X57383000Y-113021000D02*
X54181000Y-113021000D01*
X51819000Y-113021000D02*
X48617000Y-113021000D01*
X57360000Y-113061000D02*
X54181000Y-113061000D01*
X51819000Y-113061000D02*
X48640000Y-113061000D01*
X57336000Y-113101000D02*
X54181000Y-113101000D01*
X51819000Y-113101000D02*
X48664000Y-113101000D01*
X57312000Y-113141000D02*
X54181000Y-113141000D01*
X51819000Y-113141000D02*
X48688000Y-113141000D01*
X57288000Y-113181000D02*
X54181000Y-113181000D01*
X51819000Y-113181000D02*
X48712000Y-113181000D01*
X57263000Y-113221000D02*
X54181000Y-113221000D01*
X51819000Y-113221000D02*
X48737000Y-113221000D01*
X57237000Y-113261000D02*
X54181000Y-113261000D01*
X51819000Y-113261000D02*
X48763000Y-113261000D01*
X57211000Y-113301000D02*
X54181000Y-113301000D01*
X51819000Y-113301000D02*
X48789000Y-113301000D01*
X57185000Y-113341000D02*
X54181000Y-113341000D01*
X51819000Y-113341000D02*
X48815000Y-113341000D01*
X57157000Y-113381000D02*
X54181000Y-113381000D01*
X51819000Y-113381000D02*
X48843000Y-113381000D01*
X57130000Y-113421000D02*
X54181000Y-113421000D01*
X51819000Y-113421000D02*
X48870000Y-113421000D01*
X57101000Y-113461000D02*
X54181000Y-113461000D01*
X51819000Y-113461000D02*
X48899000Y-113461000D01*
X57072000Y-113501000D02*
X54181000Y-113501000D01*
X51819000Y-113501000D02*
X48928000Y-113501000D01*
X57043000Y-113541000D02*
X54181000Y-113541000D01*
X51819000Y-113541000D02*
X48957000Y-113541000D01*
X57013000Y-113581000D02*
X54181000Y-113581000D01*
X51819000Y-113581000D02*
X48987000Y-113581000D01*
X56982000Y-113621000D02*
X54181000Y-113621000D01*
X51819000Y-113621000D02*
X49018000Y-113621000D01*
X56951000Y-113661000D02*
X54181000Y-113661000D01*
X51819000Y-113661000D02*
X49049000Y-113661000D01*
X56919000Y-113701000D02*
X54181000Y-113701000D01*
X51819000Y-113701000D02*
X49081000Y-113701000D01*
X56886000Y-113741000D02*
X54181000Y-113741000D01*
X51819000Y-113741000D02*
X49114000Y-113741000D01*
X56853000Y-113781000D02*
X54181000Y-113781000D01*
X51819000Y-113781000D02*
X49147000Y-113781000D01*
X56819000Y-113821000D02*
X54181000Y-113821000D01*
X51819000Y-113821000D02*
X49181000Y-113821000D01*
X56784000Y-113861000D02*
X54181000Y-113861000D01*
X51819000Y-113861000D02*
X49216000Y-113861000D01*
X56748000Y-113901000D02*
X54181000Y-113901000D01*
X51819000Y-113901000D02*
X49252000Y-113901000D01*
X56712000Y-113941000D02*
X54181000Y-113941000D01*
X51819000Y-113941000D02*
X49288000Y-113941000D01*
X56675000Y-113981000D02*
X54181000Y-113981000D01*
X51819000Y-113981000D02*
X49325000Y-113981000D01*
X56637000Y-114021000D02*
X54181000Y-114021000D01*
X51819000Y-114021000D02*
X49363000Y-114021000D01*
X56598000Y-114061000D02*
X54181000Y-114061000D01*
X51819000Y-114061000D02*
X49402000Y-114061000D01*
X56559000Y-114101000D02*
X54181000Y-114101000D01*
X51819000Y-114101000D02*
X49441000Y-114101000D01*
X56518000Y-114141000D02*
X54181000Y-114141000D01*
X51819000Y-114141000D02*
X49482000Y-114141000D01*
X56477000Y-114181000D02*
X49523000Y-114181000D01*
X56435000Y-114221000D02*
X49565000Y-114221000D01*
X56391000Y-114261000D02*
X49609000Y-114261000D01*
X56347000Y-114301000D02*
X49653000Y-114301000D01*
X56302000Y-114341000D02*
X49698000Y-114341000D01*
X56255000Y-114381000D02*
X49745000Y-114381000D01*
X56207000Y-114421000D02*
X49793000Y-114421000D01*
X56158000Y-114461000D02*
X49842000Y-114461000D01*
X56108000Y-114501000D02*
X49892000Y-114501000D01*
X56057000Y-114541000D02*
X49943000Y-114541000D01*
X56004000Y-114581000D02*
X49996000Y-114581000D01*
X55949000Y-114621000D02*
X50051000Y-114621000D01*
X55894000Y-114661000D02*
X50106000Y-114661000D01*
X55836000Y-114701000D02*
X50164000Y-114701000D01*
X55777000Y-114741000D02*
X50223000Y-114741000D01*
X55715000Y-114781000D02*
X50285000Y-114781000D01*
X55652000Y-114821000D02*
X50348000Y-114821000D01*
X55587000Y-114861000D02*
X50413000Y-114861000D01*
X55519000Y-114901000D02*
X50481000Y-114901000D01*
X55449000Y-114941000D02*
X50551000Y-114941000D01*
X55377000Y-114981000D02*
X50623000Y-114981000D01*
X55301000Y-115021000D02*
X50699000Y-115021000D01*
X55222000Y-115061000D02*
X50778000Y-115061000D01*
X55140000Y-115101000D02*
X50860000Y-115101000D01*
X55053000Y-115141000D02*
X50947000Y-115141000D01*
X54962000Y-115181000D02*
X51038000Y-115181000D01*
X54866000Y-115221000D02*
X51134000Y-115221000D01*
X54763000Y-115261000D02*
X51237000Y-115261000D01*
X54654000Y-115301000D02*
X51346000Y-115301000D01*
X54536000Y-115341000D02*
X51464000Y-115341000D01*
X54407000Y-115381000D02*
X51593000Y-115381000D01*
X54265000Y-115421000D02*
X51735000Y-115421000D01*
X54104000Y-115461000D02*
X51896000Y-115461000D01*
X53913000Y-115501000D02*
X52087000Y-115501000D01*
X53672000Y-115541000D02*
X52328000Y-115541000D01*
X53279000Y-115581000D02*
X52721000Y-115581000D01*
X53000000Y-105300000D02*
X53000000Y-106800000D01*
X53750000Y-106050000D02*
X52250000Y-106050000D01*
X63179136Y-114267820D02*
G75*
G03X63180000Y-108232518I-1179136J3017820D01*
G01*
X60820864Y-114267820D02*
G75*
G02X60820000Y-108232518I1179136J3017820D01*
G01*
X60820864Y-114267820D02*
G75*
G03X63180000Y-114267482I1179136J3017820D01*
G01*
X65200000Y-111250000D02*
X58800000Y-111250000D01*
X65200000Y-111290000D02*
X58800000Y-111290000D01*
X65200000Y-111330000D02*
X58800000Y-111330000D01*
X65198000Y-111370000D02*
X58802000Y-111370000D01*
X65197000Y-111410000D02*
X58803000Y-111410000D01*
X65194000Y-111450000D02*
X58806000Y-111450000D01*
X65192000Y-111490000D02*
X58808000Y-111490000D01*
X65188000Y-111530000D02*
X62980000Y-111530000D01*
X61020000Y-111530000D02*
X58812000Y-111530000D01*
X65185000Y-111570000D02*
X62980000Y-111570000D01*
X61020000Y-111570000D02*
X58815000Y-111570000D01*
X65180000Y-111610000D02*
X62980000Y-111610000D01*
X61020000Y-111610000D02*
X58820000Y-111610000D01*
X65176000Y-111650000D02*
X62980000Y-111650000D01*
X61020000Y-111650000D02*
X58824000Y-111650000D01*
X65170000Y-111690000D02*
X62980000Y-111690000D01*
X61020000Y-111690000D02*
X58830000Y-111690000D01*
X65165000Y-111730000D02*
X62980000Y-111730000D01*
X61020000Y-111730000D02*
X58835000Y-111730000D01*
X65158000Y-111770000D02*
X62980000Y-111770000D01*
X61020000Y-111770000D02*
X58842000Y-111770000D01*
X65152000Y-111810000D02*
X62980000Y-111810000D01*
X61020000Y-111810000D02*
X58848000Y-111810000D01*
X65144000Y-111850000D02*
X62980000Y-111850000D01*
X61020000Y-111850000D02*
X58856000Y-111850000D01*
X65137000Y-111890000D02*
X62980000Y-111890000D01*
X61020000Y-111890000D02*
X58863000Y-111890000D01*
X65128000Y-111930000D02*
X62980000Y-111930000D01*
X61020000Y-111930000D02*
X58872000Y-111930000D01*
X65119000Y-111971000D02*
X62980000Y-111971000D01*
X61020000Y-111971000D02*
X58881000Y-111971000D01*
X65110000Y-112011000D02*
X62980000Y-112011000D01*
X61020000Y-112011000D02*
X58890000Y-112011000D01*
X65100000Y-112051000D02*
X62980000Y-112051000D01*
X61020000Y-112051000D02*
X58900000Y-112051000D01*
X65090000Y-112091000D02*
X62980000Y-112091000D01*
X61020000Y-112091000D02*
X58910000Y-112091000D01*
X65079000Y-112131000D02*
X62980000Y-112131000D01*
X61020000Y-112131000D02*
X58921000Y-112131000D01*
X65067000Y-112171000D02*
X62980000Y-112171000D01*
X61020000Y-112171000D02*
X58933000Y-112171000D01*
X65055000Y-112211000D02*
X62980000Y-112211000D01*
X61020000Y-112211000D02*
X58945000Y-112211000D01*
X65042000Y-112251000D02*
X62980000Y-112251000D01*
X61020000Y-112251000D02*
X58958000Y-112251000D01*
X65029000Y-112291000D02*
X62980000Y-112291000D01*
X61020000Y-112291000D02*
X58971000Y-112291000D01*
X65015000Y-112331000D02*
X62980000Y-112331000D01*
X61020000Y-112331000D02*
X58985000Y-112331000D01*
X65001000Y-112371000D02*
X62980000Y-112371000D01*
X61020000Y-112371000D02*
X58999000Y-112371000D01*
X64986000Y-112411000D02*
X62980000Y-112411000D01*
X61020000Y-112411000D02*
X59014000Y-112411000D01*
X64970000Y-112451000D02*
X62980000Y-112451000D01*
X61020000Y-112451000D02*
X59030000Y-112451000D01*
X64954000Y-112491000D02*
X62980000Y-112491000D01*
X61020000Y-112491000D02*
X59046000Y-112491000D01*
X64937000Y-112531000D02*
X62980000Y-112531000D01*
X61020000Y-112531000D02*
X59063000Y-112531000D01*
X64919000Y-112571000D02*
X62980000Y-112571000D01*
X61020000Y-112571000D02*
X59081000Y-112571000D01*
X64901000Y-112611000D02*
X62980000Y-112611000D01*
X61020000Y-112611000D02*
X59099000Y-112611000D01*
X64882000Y-112651000D02*
X62980000Y-112651000D01*
X61020000Y-112651000D02*
X59118000Y-112651000D01*
X64863000Y-112691000D02*
X62980000Y-112691000D01*
X61020000Y-112691000D02*
X59137000Y-112691000D01*
X64843000Y-112731000D02*
X62980000Y-112731000D01*
X61020000Y-112731000D02*
X59157000Y-112731000D01*
X64822000Y-112771000D02*
X62980000Y-112771000D01*
X61020000Y-112771000D02*
X59178000Y-112771000D01*
X64800000Y-112811000D02*
X62980000Y-112811000D01*
X61020000Y-112811000D02*
X59200000Y-112811000D01*
X64778000Y-112851000D02*
X62980000Y-112851000D01*
X61020000Y-112851000D02*
X59222000Y-112851000D01*
X64755000Y-112891000D02*
X62980000Y-112891000D01*
X61020000Y-112891000D02*
X59245000Y-112891000D01*
X64731000Y-112931000D02*
X62980000Y-112931000D01*
X61020000Y-112931000D02*
X59269000Y-112931000D01*
X64706000Y-112971000D02*
X62980000Y-112971000D01*
X61020000Y-112971000D02*
X59294000Y-112971000D01*
X64681000Y-113011000D02*
X62980000Y-113011000D01*
X61020000Y-113011000D02*
X59319000Y-113011000D01*
X64654000Y-113051000D02*
X62980000Y-113051000D01*
X61020000Y-113051000D02*
X59346000Y-113051000D01*
X64627000Y-113091000D02*
X62980000Y-113091000D01*
X61020000Y-113091000D02*
X59373000Y-113091000D01*
X64599000Y-113131000D02*
X62980000Y-113131000D01*
X61020000Y-113131000D02*
X59401000Y-113131000D01*
X64570000Y-113171000D02*
X62980000Y-113171000D01*
X61020000Y-113171000D02*
X59430000Y-113171000D01*
X64540000Y-113211000D02*
X62980000Y-113211000D01*
X61020000Y-113211000D02*
X59460000Y-113211000D01*
X64510000Y-113251000D02*
X62980000Y-113251000D01*
X61020000Y-113251000D02*
X59490000Y-113251000D01*
X64478000Y-113291000D02*
X62980000Y-113291000D01*
X61020000Y-113291000D02*
X59522000Y-113291000D01*
X64445000Y-113331000D02*
X62980000Y-113331000D01*
X61020000Y-113331000D02*
X59555000Y-113331000D01*
X64411000Y-113371000D02*
X62980000Y-113371000D01*
X61020000Y-113371000D02*
X59589000Y-113371000D01*
X64375000Y-113411000D02*
X62980000Y-113411000D01*
X61020000Y-113411000D02*
X59625000Y-113411000D01*
X64339000Y-113451000D02*
X62980000Y-113451000D01*
X61020000Y-113451000D02*
X59661000Y-113451000D01*
X64301000Y-113491000D02*
X59699000Y-113491000D01*
X64262000Y-113531000D02*
X59738000Y-113531000D01*
X64222000Y-113571000D02*
X59778000Y-113571000D01*
X64180000Y-113611000D02*
X59820000Y-113611000D01*
X64137000Y-113651000D02*
X59863000Y-113651000D01*
X64092000Y-113691000D02*
X59908000Y-113691000D01*
X64045000Y-113731000D02*
X59955000Y-113731000D01*
X63997000Y-113771000D02*
X60003000Y-113771000D01*
X63946000Y-113811000D02*
X60054000Y-113811000D01*
X63894000Y-113851000D02*
X60106000Y-113851000D01*
X63839000Y-113891000D02*
X60161000Y-113891000D01*
X63781000Y-113931000D02*
X60219000Y-113931000D01*
X63721000Y-113971000D02*
X60279000Y-113971000D01*
X63658000Y-114011000D02*
X60342000Y-114011000D01*
X63591000Y-114051000D02*
X60409000Y-114051000D01*
X63520000Y-114091000D02*
X60480000Y-114091000D01*
X63445000Y-114131000D02*
X60555000Y-114131000D01*
X63364000Y-114171000D02*
X60636000Y-114171000D01*
X63278000Y-114211000D02*
X60722000Y-114211000D01*
X63184000Y-114251000D02*
X60816000Y-114251000D01*
X63081000Y-114291000D02*
X60919000Y-114291000D01*
X62966000Y-114331000D02*
X61034000Y-114331000D01*
X62834000Y-114371000D02*
X61166000Y-114371000D01*
X62676000Y-114411000D02*
X61324000Y-114411000D01*
X62468000Y-114451000D02*
X61532000Y-114451000D01*
X62000000Y-107800000D02*
X62000000Y-109000000D01*
X62650000Y-108400000D02*
X61350000Y-108400000D01*
X107820864Y-79732180D02*
G75*
G03X107820000Y-85767482I1179136J-3017820D01*
G01*
X110179136Y-79732180D02*
G75*
G02X110180000Y-85767482I-1179136J-3017820D01*
G01*
X110179136Y-79732180D02*
G75*
G03X107820000Y-79732518I-1179136J-3017820D01*
G01*
X105800000Y-82750000D02*
X112200000Y-82750000D01*
X105800000Y-82710000D02*
X112200000Y-82710000D01*
X105800000Y-82670000D02*
X112200000Y-82670000D01*
X105802000Y-82630000D02*
X112198000Y-82630000D01*
X105803000Y-82590000D02*
X112197000Y-82590000D01*
X105806000Y-82550000D02*
X112194000Y-82550000D01*
X105808000Y-82510000D02*
X112192000Y-82510000D01*
X105812000Y-82470000D02*
X108020000Y-82470000D01*
X109980000Y-82470000D02*
X112188000Y-82470000D01*
X105815000Y-82430000D02*
X108020000Y-82430000D01*
X109980000Y-82430000D02*
X112185000Y-82430000D01*
X105820000Y-82390000D02*
X108020000Y-82390000D01*
X109980000Y-82390000D02*
X112180000Y-82390000D01*
X105824000Y-82350000D02*
X108020000Y-82350000D01*
X109980000Y-82350000D02*
X112176000Y-82350000D01*
X105830000Y-82310000D02*
X108020000Y-82310000D01*
X109980000Y-82310000D02*
X112170000Y-82310000D01*
X105835000Y-82270000D02*
X108020000Y-82270000D01*
X109980000Y-82270000D02*
X112165000Y-82270000D01*
X105842000Y-82230000D02*
X108020000Y-82230000D01*
X109980000Y-82230000D02*
X112158000Y-82230000D01*
X105848000Y-82190000D02*
X108020000Y-82190000D01*
X109980000Y-82190000D02*
X112152000Y-82190000D01*
X105856000Y-82150000D02*
X108020000Y-82150000D01*
X109980000Y-82150000D02*
X112144000Y-82150000D01*
X105863000Y-82110000D02*
X108020000Y-82110000D01*
X109980000Y-82110000D02*
X112137000Y-82110000D01*
X105872000Y-82070000D02*
X108020000Y-82070000D01*
X109980000Y-82070000D02*
X112128000Y-82070000D01*
X105881000Y-82029000D02*
X108020000Y-82029000D01*
X109980000Y-82029000D02*
X112119000Y-82029000D01*
X105890000Y-81989000D02*
X108020000Y-81989000D01*
X109980000Y-81989000D02*
X112110000Y-81989000D01*
X105900000Y-81949000D02*
X108020000Y-81949000D01*
X109980000Y-81949000D02*
X112100000Y-81949000D01*
X105910000Y-81909000D02*
X108020000Y-81909000D01*
X109980000Y-81909000D02*
X112090000Y-81909000D01*
X105921000Y-81869000D02*
X108020000Y-81869000D01*
X109980000Y-81869000D02*
X112079000Y-81869000D01*
X105933000Y-81829000D02*
X108020000Y-81829000D01*
X109980000Y-81829000D02*
X112067000Y-81829000D01*
X105945000Y-81789000D02*
X108020000Y-81789000D01*
X109980000Y-81789000D02*
X112055000Y-81789000D01*
X105958000Y-81749000D02*
X108020000Y-81749000D01*
X109980000Y-81749000D02*
X112042000Y-81749000D01*
X105971000Y-81709000D02*
X108020000Y-81709000D01*
X109980000Y-81709000D02*
X112029000Y-81709000D01*
X105985000Y-81669000D02*
X108020000Y-81669000D01*
X109980000Y-81669000D02*
X112015000Y-81669000D01*
X105999000Y-81629000D02*
X108020000Y-81629000D01*
X109980000Y-81629000D02*
X112001000Y-81629000D01*
X106014000Y-81589000D02*
X108020000Y-81589000D01*
X109980000Y-81589000D02*
X111986000Y-81589000D01*
X106030000Y-81549000D02*
X108020000Y-81549000D01*
X109980000Y-81549000D02*
X111970000Y-81549000D01*
X106046000Y-81509000D02*
X108020000Y-81509000D01*
X109980000Y-81509000D02*
X111954000Y-81509000D01*
X106063000Y-81469000D02*
X108020000Y-81469000D01*
X109980000Y-81469000D02*
X111937000Y-81469000D01*
X106081000Y-81429000D02*
X108020000Y-81429000D01*
X109980000Y-81429000D02*
X111919000Y-81429000D01*
X106099000Y-81389000D02*
X108020000Y-81389000D01*
X109980000Y-81389000D02*
X111901000Y-81389000D01*
X106118000Y-81349000D02*
X108020000Y-81349000D01*
X109980000Y-81349000D02*
X111882000Y-81349000D01*
X106137000Y-81309000D02*
X108020000Y-81309000D01*
X109980000Y-81309000D02*
X111863000Y-81309000D01*
X106157000Y-81269000D02*
X108020000Y-81269000D01*
X109980000Y-81269000D02*
X111843000Y-81269000D01*
X106178000Y-81229000D02*
X108020000Y-81229000D01*
X109980000Y-81229000D02*
X111822000Y-81229000D01*
X106200000Y-81189000D02*
X108020000Y-81189000D01*
X109980000Y-81189000D02*
X111800000Y-81189000D01*
X106222000Y-81149000D02*
X108020000Y-81149000D01*
X109980000Y-81149000D02*
X111778000Y-81149000D01*
X106245000Y-81109000D02*
X108020000Y-81109000D01*
X109980000Y-81109000D02*
X111755000Y-81109000D01*
X106269000Y-81069000D02*
X108020000Y-81069000D01*
X109980000Y-81069000D02*
X111731000Y-81069000D01*
X106294000Y-81029000D02*
X108020000Y-81029000D01*
X109980000Y-81029000D02*
X111706000Y-81029000D01*
X106319000Y-80989000D02*
X108020000Y-80989000D01*
X109980000Y-80989000D02*
X111681000Y-80989000D01*
X106346000Y-80949000D02*
X108020000Y-80949000D01*
X109980000Y-80949000D02*
X111654000Y-80949000D01*
X106373000Y-80909000D02*
X108020000Y-80909000D01*
X109980000Y-80909000D02*
X111627000Y-80909000D01*
X106401000Y-80869000D02*
X108020000Y-80869000D01*
X109980000Y-80869000D02*
X111599000Y-80869000D01*
X106430000Y-80829000D02*
X108020000Y-80829000D01*
X109980000Y-80829000D02*
X111570000Y-80829000D01*
X106460000Y-80789000D02*
X108020000Y-80789000D01*
X109980000Y-80789000D02*
X111540000Y-80789000D01*
X106490000Y-80749000D02*
X108020000Y-80749000D01*
X109980000Y-80749000D02*
X111510000Y-80749000D01*
X106522000Y-80709000D02*
X108020000Y-80709000D01*
X109980000Y-80709000D02*
X111478000Y-80709000D01*
X106555000Y-80669000D02*
X108020000Y-80669000D01*
X109980000Y-80669000D02*
X111445000Y-80669000D01*
X106589000Y-80629000D02*
X108020000Y-80629000D01*
X109980000Y-80629000D02*
X111411000Y-80629000D01*
X106625000Y-80589000D02*
X108020000Y-80589000D01*
X109980000Y-80589000D02*
X111375000Y-80589000D01*
X106661000Y-80549000D02*
X108020000Y-80549000D01*
X109980000Y-80549000D02*
X111339000Y-80549000D01*
X106699000Y-80509000D02*
X111301000Y-80509000D01*
X106738000Y-80469000D02*
X111262000Y-80469000D01*
X106778000Y-80429000D02*
X111222000Y-80429000D01*
X106820000Y-80389000D02*
X111180000Y-80389000D01*
X106863000Y-80349000D02*
X111137000Y-80349000D01*
X106908000Y-80309000D02*
X111092000Y-80309000D01*
X106955000Y-80269000D02*
X111045000Y-80269000D01*
X107003000Y-80229000D02*
X110997000Y-80229000D01*
X107054000Y-80189000D02*
X110946000Y-80189000D01*
X107106000Y-80149000D02*
X110894000Y-80149000D01*
X107161000Y-80109000D02*
X110839000Y-80109000D01*
X107219000Y-80069000D02*
X110781000Y-80069000D01*
X107279000Y-80029000D02*
X110721000Y-80029000D01*
X107342000Y-79989000D02*
X110658000Y-79989000D01*
X107409000Y-79949000D02*
X110591000Y-79949000D01*
X107480000Y-79909000D02*
X110520000Y-79909000D01*
X107555000Y-79869000D02*
X110445000Y-79869000D01*
X107636000Y-79829000D02*
X110364000Y-79829000D01*
X107722000Y-79789000D02*
X110278000Y-79789000D01*
X107816000Y-79749000D02*
X110184000Y-79749000D01*
X107919000Y-79709000D02*
X110081000Y-79709000D01*
X108034000Y-79669000D02*
X109966000Y-79669000D01*
X108166000Y-79629000D02*
X109834000Y-79629000D01*
X108324000Y-79589000D02*
X109676000Y-79589000D01*
X108532000Y-79549000D02*
X109468000Y-79549000D01*
X109000000Y-86200000D02*
X109000000Y-85000000D01*
X108350000Y-85600000D02*
X109650000Y-85600000D01*
X102179136Y-118267820D02*
G75*
G03X102180000Y-112232518I-1179136J3017820D01*
G01*
X99820864Y-118267820D02*
G75*
G02X99820000Y-112232518I1179136J3017820D01*
G01*
X99820864Y-118267820D02*
G75*
G03X102180000Y-118267482I1179136J3017820D01*
G01*
X104200000Y-115250000D02*
X97800000Y-115250000D01*
X104200000Y-115290000D02*
X97800000Y-115290000D01*
X104200000Y-115330000D02*
X97800000Y-115330000D01*
X104198000Y-115370000D02*
X97802000Y-115370000D01*
X104197000Y-115410000D02*
X97803000Y-115410000D01*
X104194000Y-115450000D02*
X97806000Y-115450000D01*
X104192000Y-115490000D02*
X97808000Y-115490000D01*
X104188000Y-115530000D02*
X101980000Y-115530000D01*
X100020000Y-115530000D02*
X97812000Y-115530000D01*
X104185000Y-115570000D02*
X101980000Y-115570000D01*
X100020000Y-115570000D02*
X97815000Y-115570000D01*
X104180000Y-115610000D02*
X101980000Y-115610000D01*
X100020000Y-115610000D02*
X97820000Y-115610000D01*
X104176000Y-115650000D02*
X101980000Y-115650000D01*
X100020000Y-115650000D02*
X97824000Y-115650000D01*
X104170000Y-115690000D02*
X101980000Y-115690000D01*
X100020000Y-115690000D02*
X97830000Y-115690000D01*
X104165000Y-115730000D02*
X101980000Y-115730000D01*
X100020000Y-115730000D02*
X97835000Y-115730000D01*
X104158000Y-115770000D02*
X101980000Y-115770000D01*
X100020000Y-115770000D02*
X97842000Y-115770000D01*
X104152000Y-115810000D02*
X101980000Y-115810000D01*
X100020000Y-115810000D02*
X97848000Y-115810000D01*
X104144000Y-115850000D02*
X101980000Y-115850000D01*
X100020000Y-115850000D02*
X97856000Y-115850000D01*
X104137000Y-115890000D02*
X101980000Y-115890000D01*
X100020000Y-115890000D02*
X97863000Y-115890000D01*
X104128000Y-115930000D02*
X101980000Y-115930000D01*
X100020000Y-115930000D02*
X97872000Y-115930000D01*
X104119000Y-115971000D02*
X101980000Y-115971000D01*
X100020000Y-115971000D02*
X97881000Y-115971000D01*
X104110000Y-116011000D02*
X101980000Y-116011000D01*
X100020000Y-116011000D02*
X97890000Y-116011000D01*
X104100000Y-116051000D02*
X101980000Y-116051000D01*
X100020000Y-116051000D02*
X97900000Y-116051000D01*
X104090000Y-116091000D02*
X101980000Y-116091000D01*
X100020000Y-116091000D02*
X97910000Y-116091000D01*
X104079000Y-116131000D02*
X101980000Y-116131000D01*
X100020000Y-116131000D02*
X97921000Y-116131000D01*
X104067000Y-116171000D02*
X101980000Y-116171000D01*
X100020000Y-116171000D02*
X97933000Y-116171000D01*
X104055000Y-116211000D02*
X101980000Y-116211000D01*
X100020000Y-116211000D02*
X97945000Y-116211000D01*
X104042000Y-116251000D02*
X101980000Y-116251000D01*
X100020000Y-116251000D02*
X97958000Y-116251000D01*
X104029000Y-116291000D02*
X101980000Y-116291000D01*
X100020000Y-116291000D02*
X97971000Y-116291000D01*
X104015000Y-116331000D02*
X101980000Y-116331000D01*
X100020000Y-116331000D02*
X97985000Y-116331000D01*
X104001000Y-116371000D02*
X101980000Y-116371000D01*
X100020000Y-116371000D02*
X97999000Y-116371000D01*
X103986000Y-116411000D02*
X101980000Y-116411000D01*
X100020000Y-116411000D02*
X98014000Y-116411000D01*
X103970000Y-116451000D02*
X101980000Y-116451000D01*
X100020000Y-116451000D02*
X98030000Y-116451000D01*
X103954000Y-116491000D02*
X101980000Y-116491000D01*
X100020000Y-116491000D02*
X98046000Y-116491000D01*
X103937000Y-116531000D02*
X101980000Y-116531000D01*
X100020000Y-116531000D02*
X98063000Y-116531000D01*
X103919000Y-116571000D02*
X101980000Y-116571000D01*
X100020000Y-116571000D02*
X98081000Y-116571000D01*
X103901000Y-116611000D02*
X101980000Y-116611000D01*
X100020000Y-116611000D02*
X98099000Y-116611000D01*
X103882000Y-116651000D02*
X101980000Y-116651000D01*
X100020000Y-116651000D02*
X98118000Y-116651000D01*
X103863000Y-116691000D02*
X101980000Y-116691000D01*
X100020000Y-116691000D02*
X98137000Y-116691000D01*
X103843000Y-116731000D02*
X101980000Y-116731000D01*
X100020000Y-116731000D02*
X98157000Y-116731000D01*
X103822000Y-116771000D02*
X101980000Y-116771000D01*
X100020000Y-116771000D02*
X98178000Y-116771000D01*
X103800000Y-116811000D02*
X101980000Y-116811000D01*
X100020000Y-116811000D02*
X98200000Y-116811000D01*
X103778000Y-116851000D02*
X101980000Y-116851000D01*
X100020000Y-116851000D02*
X98222000Y-116851000D01*
X103755000Y-116891000D02*
X101980000Y-116891000D01*
X100020000Y-116891000D02*
X98245000Y-116891000D01*
X103731000Y-116931000D02*
X101980000Y-116931000D01*
X100020000Y-116931000D02*
X98269000Y-116931000D01*
X103706000Y-116971000D02*
X101980000Y-116971000D01*
X100020000Y-116971000D02*
X98294000Y-116971000D01*
X103681000Y-117011000D02*
X101980000Y-117011000D01*
X100020000Y-117011000D02*
X98319000Y-117011000D01*
X103654000Y-117051000D02*
X101980000Y-117051000D01*
X100020000Y-117051000D02*
X98346000Y-117051000D01*
X103627000Y-117091000D02*
X101980000Y-117091000D01*
X100020000Y-117091000D02*
X98373000Y-117091000D01*
X103599000Y-117131000D02*
X101980000Y-117131000D01*
X100020000Y-117131000D02*
X98401000Y-117131000D01*
X103570000Y-117171000D02*
X101980000Y-117171000D01*
X100020000Y-117171000D02*
X98430000Y-117171000D01*
X103540000Y-117211000D02*
X101980000Y-117211000D01*
X100020000Y-117211000D02*
X98460000Y-117211000D01*
X103510000Y-117251000D02*
X101980000Y-117251000D01*
X100020000Y-117251000D02*
X98490000Y-117251000D01*
X103478000Y-117291000D02*
X101980000Y-117291000D01*
X100020000Y-117291000D02*
X98522000Y-117291000D01*
X103445000Y-117331000D02*
X101980000Y-117331000D01*
X100020000Y-117331000D02*
X98555000Y-117331000D01*
X103411000Y-117371000D02*
X101980000Y-117371000D01*
X100020000Y-117371000D02*
X98589000Y-117371000D01*
X103375000Y-117411000D02*
X101980000Y-117411000D01*
X100020000Y-117411000D02*
X98625000Y-117411000D01*
X103339000Y-117451000D02*
X101980000Y-117451000D01*
X100020000Y-117451000D02*
X98661000Y-117451000D01*
X103301000Y-117491000D02*
X98699000Y-117491000D01*
X103262000Y-117531000D02*
X98738000Y-117531000D01*
X103222000Y-117571000D02*
X98778000Y-117571000D01*
X103180000Y-117611000D02*
X98820000Y-117611000D01*
X103137000Y-117651000D02*
X98863000Y-117651000D01*
X103092000Y-117691000D02*
X98908000Y-117691000D01*
X103045000Y-117731000D02*
X98955000Y-117731000D01*
X102997000Y-117771000D02*
X99003000Y-117771000D01*
X102946000Y-117811000D02*
X99054000Y-117811000D01*
X102894000Y-117851000D02*
X99106000Y-117851000D01*
X102839000Y-117891000D02*
X99161000Y-117891000D01*
X102781000Y-117931000D02*
X99219000Y-117931000D01*
X102721000Y-117971000D02*
X99279000Y-117971000D01*
X102658000Y-118011000D02*
X99342000Y-118011000D01*
X102591000Y-118051000D02*
X99409000Y-118051000D01*
X102520000Y-118091000D02*
X99480000Y-118091000D01*
X102445000Y-118131000D02*
X99555000Y-118131000D01*
X102364000Y-118171000D02*
X99636000Y-118171000D01*
X102278000Y-118211000D02*
X99722000Y-118211000D01*
X102184000Y-118251000D02*
X99816000Y-118251000D01*
X102081000Y-118291000D02*
X99919000Y-118291000D01*
X101966000Y-118331000D02*
X100034000Y-118331000D01*
X101834000Y-118371000D02*
X100166000Y-118371000D01*
X101676000Y-118411000D02*
X100324000Y-118411000D01*
X101468000Y-118451000D02*
X100532000Y-118451000D01*
X101000000Y-111800000D02*
X101000000Y-113000000D01*
X101650000Y-112400000D02*
X100350000Y-112400000D01*
X99820864Y-81732180D02*
G75*
G03X99820000Y-87767482I1179136J-3017820D01*
G01*
X102179136Y-81732180D02*
G75*
G02X102180000Y-87767482I-1179136J-3017820D01*
G01*
X102179136Y-81732180D02*
G75*
G03X99820000Y-81732518I-1179136J-3017820D01*
G01*
X97800000Y-84750000D02*
X104200000Y-84750000D01*
X97800000Y-84710000D02*
X104200000Y-84710000D01*
X97800000Y-84670000D02*
X104200000Y-84670000D01*
X97802000Y-84630000D02*
X104198000Y-84630000D01*
X97803000Y-84590000D02*
X104197000Y-84590000D01*
X97806000Y-84550000D02*
X104194000Y-84550000D01*
X97808000Y-84510000D02*
X104192000Y-84510000D01*
X97812000Y-84470000D02*
X100020000Y-84470000D01*
X101980000Y-84470000D02*
X104188000Y-84470000D01*
X97815000Y-84430000D02*
X100020000Y-84430000D01*
X101980000Y-84430000D02*
X104185000Y-84430000D01*
X97820000Y-84390000D02*
X100020000Y-84390000D01*
X101980000Y-84390000D02*
X104180000Y-84390000D01*
X97824000Y-84350000D02*
X100020000Y-84350000D01*
X101980000Y-84350000D02*
X104176000Y-84350000D01*
X97830000Y-84310000D02*
X100020000Y-84310000D01*
X101980000Y-84310000D02*
X104170000Y-84310000D01*
X97835000Y-84270000D02*
X100020000Y-84270000D01*
X101980000Y-84270000D02*
X104165000Y-84270000D01*
X97842000Y-84230000D02*
X100020000Y-84230000D01*
X101980000Y-84230000D02*
X104158000Y-84230000D01*
X97848000Y-84190000D02*
X100020000Y-84190000D01*
X101980000Y-84190000D02*
X104152000Y-84190000D01*
X97856000Y-84150000D02*
X100020000Y-84150000D01*
X101980000Y-84150000D02*
X104144000Y-84150000D01*
X97863000Y-84110000D02*
X100020000Y-84110000D01*
X101980000Y-84110000D02*
X104137000Y-84110000D01*
X97872000Y-84070000D02*
X100020000Y-84070000D01*
X101980000Y-84070000D02*
X104128000Y-84070000D01*
X97881000Y-84029000D02*
X100020000Y-84029000D01*
X101980000Y-84029000D02*
X104119000Y-84029000D01*
X97890000Y-83989000D02*
X100020000Y-83989000D01*
X101980000Y-83989000D02*
X104110000Y-83989000D01*
X97900000Y-83949000D02*
X100020000Y-83949000D01*
X101980000Y-83949000D02*
X104100000Y-83949000D01*
X97910000Y-83909000D02*
X100020000Y-83909000D01*
X101980000Y-83909000D02*
X104090000Y-83909000D01*
X97921000Y-83869000D02*
X100020000Y-83869000D01*
X101980000Y-83869000D02*
X104079000Y-83869000D01*
X97933000Y-83829000D02*
X100020000Y-83829000D01*
X101980000Y-83829000D02*
X104067000Y-83829000D01*
X97945000Y-83789000D02*
X100020000Y-83789000D01*
X101980000Y-83789000D02*
X104055000Y-83789000D01*
X97958000Y-83749000D02*
X100020000Y-83749000D01*
X101980000Y-83749000D02*
X104042000Y-83749000D01*
X97971000Y-83709000D02*
X100020000Y-83709000D01*
X101980000Y-83709000D02*
X104029000Y-83709000D01*
X97985000Y-83669000D02*
X100020000Y-83669000D01*
X101980000Y-83669000D02*
X104015000Y-83669000D01*
X97999000Y-83629000D02*
X100020000Y-83629000D01*
X101980000Y-83629000D02*
X104001000Y-83629000D01*
X98014000Y-83589000D02*
X100020000Y-83589000D01*
X101980000Y-83589000D02*
X103986000Y-83589000D01*
X98030000Y-83549000D02*
X100020000Y-83549000D01*
X101980000Y-83549000D02*
X103970000Y-83549000D01*
X98046000Y-83509000D02*
X100020000Y-83509000D01*
X101980000Y-83509000D02*
X103954000Y-83509000D01*
X98063000Y-83469000D02*
X100020000Y-83469000D01*
X101980000Y-83469000D02*
X103937000Y-83469000D01*
X98081000Y-83429000D02*
X100020000Y-83429000D01*
X101980000Y-83429000D02*
X103919000Y-83429000D01*
X98099000Y-83389000D02*
X100020000Y-83389000D01*
X101980000Y-83389000D02*
X103901000Y-83389000D01*
X98118000Y-83349000D02*
X100020000Y-83349000D01*
X101980000Y-83349000D02*
X103882000Y-83349000D01*
X98137000Y-83309000D02*
X100020000Y-83309000D01*
X101980000Y-83309000D02*
X103863000Y-83309000D01*
X98157000Y-83269000D02*
X100020000Y-83269000D01*
X101980000Y-83269000D02*
X103843000Y-83269000D01*
X98178000Y-83229000D02*
X100020000Y-83229000D01*
X101980000Y-83229000D02*
X103822000Y-83229000D01*
X98200000Y-83189000D02*
X100020000Y-83189000D01*
X101980000Y-83189000D02*
X103800000Y-83189000D01*
X98222000Y-83149000D02*
X100020000Y-83149000D01*
X101980000Y-83149000D02*
X103778000Y-83149000D01*
X98245000Y-83109000D02*
X100020000Y-83109000D01*
X101980000Y-83109000D02*
X103755000Y-83109000D01*
X98269000Y-83069000D02*
X100020000Y-83069000D01*
X101980000Y-83069000D02*
X103731000Y-83069000D01*
X98294000Y-83029000D02*
X100020000Y-83029000D01*
X101980000Y-83029000D02*
X103706000Y-83029000D01*
X98319000Y-82989000D02*
X100020000Y-82989000D01*
X101980000Y-82989000D02*
X103681000Y-82989000D01*
X98346000Y-82949000D02*
X100020000Y-82949000D01*
X101980000Y-82949000D02*
X103654000Y-82949000D01*
X98373000Y-82909000D02*
X100020000Y-82909000D01*
X101980000Y-82909000D02*
X103627000Y-82909000D01*
X98401000Y-82869000D02*
X100020000Y-82869000D01*
X101980000Y-82869000D02*
X103599000Y-82869000D01*
X98430000Y-82829000D02*
X100020000Y-82829000D01*
X101980000Y-82829000D02*
X103570000Y-82829000D01*
X98460000Y-82789000D02*
X100020000Y-82789000D01*
X101980000Y-82789000D02*
X103540000Y-82789000D01*
X98490000Y-82749000D02*
X100020000Y-82749000D01*
X101980000Y-82749000D02*
X103510000Y-82749000D01*
X98522000Y-82709000D02*
X100020000Y-82709000D01*
X101980000Y-82709000D02*
X103478000Y-82709000D01*
X98555000Y-82669000D02*
X100020000Y-82669000D01*
X101980000Y-82669000D02*
X103445000Y-82669000D01*
X98589000Y-82629000D02*
X100020000Y-82629000D01*
X101980000Y-82629000D02*
X103411000Y-82629000D01*
X98625000Y-82589000D02*
X100020000Y-82589000D01*
X101980000Y-82589000D02*
X103375000Y-82589000D01*
X98661000Y-82549000D02*
X100020000Y-82549000D01*
X101980000Y-82549000D02*
X103339000Y-82549000D01*
X98699000Y-82509000D02*
X103301000Y-82509000D01*
X98738000Y-82469000D02*
X103262000Y-82469000D01*
X98778000Y-82429000D02*
X103222000Y-82429000D01*
X98820000Y-82389000D02*
X103180000Y-82389000D01*
X98863000Y-82349000D02*
X103137000Y-82349000D01*
X98908000Y-82309000D02*
X103092000Y-82309000D01*
X98955000Y-82269000D02*
X103045000Y-82269000D01*
X99003000Y-82229000D02*
X102997000Y-82229000D01*
X99054000Y-82189000D02*
X102946000Y-82189000D01*
X99106000Y-82149000D02*
X102894000Y-82149000D01*
X99161000Y-82109000D02*
X102839000Y-82109000D01*
X99219000Y-82069000D02*
X102781000Y-82069000D01*
X99279000Y-82029000D02*
X102721000Y-82029000D01*
X99342000Y-81989000D02*
X102658000Y-81989000D01*
X99409000Y-81949000D02*
X102591000Y-81949000D01*
X99480000Y-81909000D02*
X102520000Y-81909000D01*
X99555000Y-81869000D02*
X102445000Y-81869000D01*
X99636000Y-81829000D02*
X102364000Y-81829000D01*
X99722000Y-81789000D02*
X102278000Y-81789000D01*
X99816000Y-81749000D02*
X102184000Y-81749000D01*
X99919000Y-81709000D02*
X102081000Y-81709000D01*
X100034000Y-81669000D02*
X101966000Y-81669000D01*
X100166000Y-81629000D02*
X101834000Y-81629000D01*
X100324000Y-81589000D02*
X101676000Y-81589000D01*
X100532000Y-81549000D02*
X101468000Y-81549000D01*
X101000000Y-88200000D02*
X101000000Y-87000000D01*
X100350000Y-87600000D02*
X101650000Y-87600000D01*
X110179136Y-120267820D02*
G75*
G03X110180000Y-114232518I-1179136J3017820D01*
G01*
X107820864Y-120267820D02*
G75*
G02X107820000Y-114232518I1179136J3017820D01*
G01*
X107820864Y-120267820D02*
G75*
G03X110180000Y-120267482I1179136J3017820D01*
G01*
X112200000Y-117250000D02*
X105800000Y-117250000D01*
X112200000Y-117290000D02*
X105800000Y-117290000D01*
X112200000Y-117330000D02*
X105800000Y-117330000D01*
X112198000Y-117370000D02*
X105802000Y-117370000D01*
X112197000Y-117410000D02*
X105803000Y-117410000D01*
X112194000Y-117450000D02*
X105806000Y-117450000D01*
X112192000Y-117490000D02*
X105808000Y-117490000D01*
X112188000Y-117530000D02*
X109980000Y-117530000D01*
X108020000Y-117530000D02*
X105812000Y-117530000D01*
X112185000Y-117570000D02*
X109980000Y-117570000D01*
X108020000Y-117570000D02*
X105815000Y-117570000D01*
X112180000Y-117610000D02*
X109980000Y-117610000D01*
X108020000Y-117610000D02*
X105820000Y-117610000D01*
X112176000Y-117650000D02*
X109980000Y-117650000D01*
X108020000Y-117650000D02*
X105824000Y-117650000D01*
X112170000Y-117690000D02*
X109980000Y-117690000D01*
X108020000Y-117690000D02*
X105830000Y-117690000D01*
X112165000Y-117730000D02*
X109980000Y-117730000D01*
X108020000Y-117730000D02*
X105835000Y-117730000D01*
X112158000Y-117770000D02*
X109980000Y-117770000D01*
X108020000Y-117770000D02*
X105842000Y-117770000D01*
X112152000Y-117810000D02*
X109980000Y-117810000D01*
X108020000Y-117810000D02*
X105848000Y-117810000D01*
X112144000Y-117850000D02*
X109980000Y-117850000D01*
X108020000Y-117850000D02*
X105856000Y-117850000D01*
X112137000Y-117890000D02*
X109980000Y-117890000D01*
X108020000Y-117890000D02*
X105863000Y-117890000D01*
X112128000Y-117930000D02*
X109980000Y-117930000D01*
X108020000Y-117930000D02*
X105872000Y-117930000D01*
X112119000Y-117971000D02*
X109980000Y-117971000D01*
X108020000Y-117971000D02*
X105881000Y-117971000D01*
X112110000Y-118011000D02*
X109980000Y-118011000D01*
X108020000Y-118011000D02*
X105890000Y-118011000D01*
X112100000Y-118051000D02*
X109980000Y-118051000D01*
X108020000Y-118051000D02*
X105900000Y-118051000D01*
X112090000Y-118091000D02*
X109980000Y-118091000D01*
X108020000Y-118091000D02*
X105910000Y-118091000D01*
X112079000Y-118131000D02*
X109980000Y-118131000D01*
X108020000Y-118131000D02*
X105921000Y-118131000D01*
X112067000Y-118171000D02*
X109980000Y-118171000D01*
X108020000Y-118171000D02*
X105933000Y-118171000D01*
X112055000Y-118211000D02*
X109980000Y-118211000D01*
X108020000Y-118211000D02*
X105945000Y-118211000D01*
X112042000Y-118251000D02*
X109980000Y-118251000D01*
X108020000Y-118251000D02*
X105958000Y-118251000D01*
X112029000Y-118291000D02*
X109980000Y-118291000D01*
X108020000Y-118291000D02*
X105971000Y-118291000D01*
X112015000Y-118331000D02*
X109980000Y-118331000D01*
X108020000Y-118331000D02*
X105985000Y-118331000D01*
X112001000Y-118371000D02*
X109980000Y-118371000D01*
X108020000Y-118371000D02*
X105999000Y-118371000D01*
X111986000Y-118411000D02*
X109980000Y-118411000D01*
X108020000Y-118411000D02*
X106014000Y-118411000D01*
X111970000Y-118451000D02*
X109980000Y-118451000D01*
X108020000Y-118451000D02*
X106030000Y-118451000D01*
X111954000Y-118491000D02*
X109980000Y-118491000D01*
X108020000Y-118491000D02*
X106046000Y-118491000D01*
X111937000Y-118531000D02*
X109980000Y-118531000D01*
X108020000Y-118531000D02*
X106063000Y-118531000D01*
X111919000Y-118571000D02*
X109980000Y-118571000D01*
X108020000Y-118571000D02*
X106081000Y-118571000D01*
X111901000Y-118611000D02*
X109980000Y-118611000D01*
X108020000Y-118611000D02*
X106099000Y-118611000D01*
X111882000Y-118651000D02*
X109980000Y-118651000D01*
X108020000Y-118651000D02*
X106118000Y-118651000D01*
X111863000Y-118691000D02*
X109980000Y-118691000D01*
X108020000Y-118691000D02*
X106137000Y-118691000D01*
X111843000Y-118731000D02*
X109980000Y-118731000D01*
X108020000Y-118731000D02*
X106157000Y-118731000D01*
X111822000Y-118771000D02*
X109980000Y-118771000D01*
X108020000Y-118771000D02*
X106178000Y-118771000D01*
X111800000Y-118811000D02*
X109980000Y-118811000D01*
X108020000Y-118811000D02*
X106200000Y-118811000D01*
X111778000Y-118851000D02*
X109980000Y-118851000D01*
X108020000Y-118851000D02*
X106222000Y-118851000D01*
X111755000Y-118891000D02*
X109980000Y-118891000D01*
X108020000Y-118891000D02*
X106245000Y-118891000D01*
X111731000Y-118931000D02*
X109980000Y-118931000D01*
X108020000Y-118931000D02*
X106269000Y-118931000D01*
X111706000Y-118971000D02*
X109980000Y-118971000D01*
X108020000Y-118971000D02*
X106294000Y-118971000D01*
X111681000Y-119011000D02*
X109980000Y-119011000D01*
X108020000Y-119011000D02*
X106319000Y-119011000D01*
X111654000Y-119051000D02*
X109980000Y-119051000D01*
X108020000Y-119051000D02*
X106346000Y-119051000D01*
X111627000Y-119091000D02*
X109980000Y-119091000D01*
X108020000Y-119091000D02*
X106373000Y-119091000D01*
X111599000Y-119131000D02*
X109980000Y-119131000D01*
X108020000Y-119131000D02*
X106401000Y-119131000D01*
X111570000Y-119171000D02*
X109980000Y-119171000D01*
X108020000Y-119171000D02*
X106430000Y-119171000D01*
X111540000Y-119211000D02*
X109980000Y-119211000D01*
X108020000Y-119211000D02*
X106460000Y-119211000D01*
X111510000Y-119251000D02*
X109980000Y-119251000D01*
X108020000Y-119251000D02*
X106490000Y-119251000D01*
X111478000Y-119291000D02*
X109980000Y-119291000D01*
X108020000Y-119291000D02*
X106522000Y-119291000D01*
X111445000Y-119331000D02*
X109980000Y-119331000D01*
X108020000Y-119331000D02*
X106555000Y-119331000D01*
X111411000Y-119371000D02*
X109980000Y-119371000D01*
X108020000Y-119371000D02*
X106589000Y-119371000D01*
X111375000Y-119411000D02*
X109980000Y-119411000D01*
X108020000Y-119411000D02*
X106625000Y-119411000D01*
X111339000Y-119451000D02*
X109980000Y-119451000D01*
X108020000Y-119451000D02*
X106661000Y-119451000D01*
X111301000Y-119491000D02*
X106699000Y-119491000D01*
X111262000Y-119531000D02*
X106738000Y-119531000D01*
X111222000Y-119571000D02*
X106778000Y-119571000D01*
X111180000Y-119611000D02*
X106820000Y-119611000D01*
X111137000Y-119651000D02*
X106863000Y-119651000D01*
X111092000Y-119691000D02*
X106908000Y-119691000D01*
X111045000Y-119731000D02*
X106955000Y-119731000D01*
X110997000Y-119771000D02*
X107003000Y-119771000D01*
X110946000Y-119811000D02*
X107054000Y-119811000D01*
X110894000Y-119851000D02*
X107106000Y-119851000D01*
X110839000Y-119891000D02*
X107161000Y-119891000D01*
X110781000Y-119931000D02*
X107219000Y-119931000D01*
X110721000Y-119971000D02*
X107279000Y-119971000D01*
X110658000Y-120011000D02*
X107342000Y-120011000D01*
X110591000Y-120051000D02*
X107409000Y-120051000D01*
X110520000Y-120091000D02*
X107480000Y-120091000D01*
X110445000Y-120131000D02*
X107555000Y-120131000D01*
X110364000Y-120171000D02*
X107636000Y-120171000D01*
X110278000Y-120211000D02*
X107722000Y-120211000D01*
X110184000Y-120251000D02*
X107816000Y-120251000D01*
X110081000Y-120291000D02*
X107919000Y-120291000D01*
X109966000Y-120331000D02*
X108034000Y-120331000D01*
X109834000Y-120371000D02*
X108166000Y-120371000D01*
X109676000Y-120411000D02*
X108324000Y-120411000D01*
X109468000Y-120451000D02*
X108532000Y-120451000D01*
X109000000Y-113800000D02*
X109000000Y-115000000D01*
X109650000Y-114400000D02*
X108350000Y-114400000D01*
X115398437Y-105616736D02*
G75*
G03X105600643Y-105620000I-4898437J-1383264D01*
G01*
X115398437Y-108383264D02*
G75*
G02X105600643Y-108380000I-4898437J1383264D01*
G01*
X115398437Y-108383264D02*
G75*
G03X115399357Y-105620000I-4898437J1383264D01*
G01*
X110500000Y-101950000D02*
X110500000Y-112050000D01*
X110540000Y-101950000D02*
X110540000Y-112050000D01*
X110580000Y-101950000D02*
X110580000Y-112050000D01*
X110620000Y-101951000D02*
X110620000Y-112049000D01*
X110660000Y-101952000D02*
X110660000Y-112048000D01*
X110700000Y-101953000D02*
X110700000Y-112047000D01*
X110740000Y-101955000D02*
X110740000Y-112045000D01*
X110780000Y-101957000D02*
X110780000Y-112043000D01*
X110820000Y-101960000D02*
X110820000Y-112040000D01*
X110860000Y-101962000D02*
X110860000Y-112038000D01*
X110900000Y-101965000D02*
X110900000Y-112035000D01*
X110940000Y-101969000D02*
X110940000Y-112031000D01*
X110980000Y-101972000D02*
X110980000Y-112028000D01*
X111020000Y-101976000D02*
X111020000Y-112024000D01*
X111060000Y-101980000D02*
X111060000Y-112020000D01*
X111100000Y-101985000D02*
X111100000Y-112015000D01*
X111140000Y-101990000D02*
X111140000Y-112010000D01*
X111180000Y-101995000D02*
X111180000Y-112005000D01*
X111221000Y-102001000D02*
X111221000Y-111999000D01*
X111261000Y-102007000D02*
X111261000Y-111993000D01*
X111301000Y-102013000D02*
X111301000Y-111987000D01*
X111341000Y-102019000D02*
X111341000Y-111981000D01*
X111381000Y-102026000D02*
X111381000Y-111974000D01*
X111421000Y-102033000D02*
X111421000Y-111967000D01*
X111461000Y-102041000D02*
X111461000Y-111959000D01*
X111501000Y-102049000D02*
X111501000Y-111951000D01*
X111541000Y-102057000D02*
X111541000Y-111943000D01*
X111581000Y-102065000D02*
X111581000Y-111935000D01*
X111621000Y-102074000D02*
X111621000Y-111926000D01*
X111661000Y-102083000D02*
X111661000Y-111917000D01*
X111701000Y-102093000D02*
X111701000Y-111907000D01*
X111741000Y-102103000D02*
X111741000Y-111897000D01*
X111781000Y-102113000D02*
X111781000Y-111887000D01*
X111821000Y-102124000D02*
X111821000Y-105819000D01*
X111821000Y-108181000D02*
X111821000Y-111876000D01*
X111861000Y-102135000D02*
X111861000Y-105819000D01*
X111861000Y-108181000D02*
X111861000Y-111865000D01*
X111901000Y-102146000D02*
X111901000Y-105819000D01*
X111901000Y-108181000D02*
X111901000Y-111854000D01*
X111941000Y-102157000D02*
X111941000Y-105819000D01*
X111941000Y-108181000D02*
X111941000Y-111843000D01*
X111981000Y-102169000D02*
X111981000Y-105819000D01*
X111981000Y-108181000D02*
X111981000Y-111831000D01*
X112021000Y-102182000D02*
X112021000Y-105819000D01*
X112021000Y-108181000D02*
X112021000Y-111818000D01*
X112061000Y-102194000D02*
X112061000Y-105819000D01*
X112061000Y-108181000D02*
X112061000Y-111806000D01*
X112101000Y-102208000D02*
X112101000Y-105819000D01*
X112101000Y-108181000D02*
X112101000Y-111792000D01*
X112141000Y-102221000D02*
X112141000Y-105819000D01*
X112141000Y-108181000D02*
X112141000Y-111779000D01*
X112181000Y-102235000D02*
X112181000Y-105819000D01*
X112181000Y-108181000D02*
X112181000Y-111765000D01*
X112221000Y-102249000D02*
X112221000Y-105819000D01*
X112221000Y-108181000D02*
X112221000Y-111751000D01*
X112261000Y-102263000D02*
X112261000Y-105819000D01*
X112261000Y-108181000D02*
X112261000Y-111737000D01*
X112301000Y-102278000D02*
X112301000Y-105819000D01*
X112301000Y-108181000D02*
X112301000Y-111722000D01*
X112341000Y-102294000D02*
X112341000Y-105819000D01*
X112341000Y-108181000D02*
X112341000Y-111706000D01*
X112381000Y-102309000D02*
X112381000Y-105819000D01*
X112381000Y-108181000D02*
X112381000Y-111691000D01*
X112421000Y-102326000D02*
X112421000Y-105819000D01*
X112421000Y-108181000D02*
X112421000Y-111674000D01*
X112461000Y-102342000D02*
X112461000Y-105819000D01*
X112461000Y-108181000D02*
X112461000Y-111658000D01*
X112501000Y-102359000D02*
X112501000Y-105819000D01*
X112501000Y-108181000D02*
X112501000Y-111641000D01*
X112541000Y-102376000D02*
X112541000Y-105819000D01*
X112541000Y-108181000D02*
X112541000Y-111624000D01*
X112581000Y-102394000D02*
X112581000Y-105819000D01*
X112581000Y-108181000D02*
X112581000Y-111606000D01*
X112621000Y-102412000D02*
X112621000Y-105819000D01*
X112621000Y-108181000D02*
X112621000Y-111588000D01*
X112661000Y-102431000D02*
X112661000Y-105819000D01*
X112661000Y-108181000D02*
X112661000Y-111569000D01*
X112701000Y-102450000D02*
X112701000Y-105819000D01*
X112701000Y-108181000D02*
X112701000Y-111550000D01*
X112741000Y-102469000D02*
X112741000Y-105819000D01*
X112741000Y-108181000D02*
X112741000Y-111531000D01*
X112781000Y-102489000D02*
X112781000Y-105819000D01*
X112781000Y-108181000D02*
X112781000Y-111511000D01*
X112821000Y-102509000D02*
X112821000Y-105819000D01*
X112821000Y-108181000D02*
X112821000Y-111491000D01*
X112861000Y-102530000D02*
X112861000Y-105819000D01*
X112861000Y-108181000D02*
X112861000Y-111470000D01*
X112901000Y-102551000D02*
X112901000Y-105819000D01*
X112901000Y-108181000D02*
X112901000Y-111449000D01*
X112941000Y-102572000D02*
X112941000Y-105819000D01*
X112941000Y-108181000D02*
X112941000Y-111428000D01*
X112981000Y-102595000D02*
X112981000Y-105819000D01*
X112981000Y-108181000D02*
X112981000Y-111405000D01*
X113021000Y-102617000D02*
X113021000Y-105819000D01*
X113021000Y-108181000D02*
X113021000Y-111383000D01*
X113061000Y-102640000D02*
X113061000Y-105819000D01*
X113061000Y-108181000D02*
X113061000Y-111360000D01*
X113101000Y-102664000D02*
X113101000Y-105819000D01*
X113101000Y-108181000D02*
X113101000Y-111336000D01*
X113141000Y-102688000D02*
X113141000Y-105819000D01*
X113141000Y-108181000D02*
X113141000Y-111312000D01*
X113181000Y-102712000D02*
X113181000Y-105819000D01*
X113181000Y-108181000D02*
X113181000Y-111288000D01*
X113221000Y-102737000D02*
X113221000Y-105819000D01*
X113221000Y-108181000D02*
X113221000Y-111263000D01*
X113261000Y-102763000D02*
X113261000Y-105819000D01*
X113261000Y-108181000D02*
X113261000Y-111237000D01*
X113301000Y-102789000D02*
X113301000Y-105819000D01*
X113301000Y-108181000D02*
X113301000Y-111211000D01*
X113341000Y-102815000D02*
X113341000Y-105819000D01*
X113341000Y-108181000D02*
X113341000Y-111185000D01*
X113381000Y-102843000D02*
X113381000Y-105819000D01*
X113381000Y-108181000D02*
X113381000Y-111157000D01*
X113421000Y-102870000D02*
X113421000Y-105819000D01*
X113421000Y-108181000D02*
X113421000Y-111130000D01*
X113461000Y-102899000D02*
X113461000Y-105819000D01*
X113461000Y-108181000D02*
X113461000Y-111101000D01*
X113501000Y-102928000D02*
X113501000Y-105819000D01*
X113501000Y-108181000D02*
X113501000Y-111072000D01*
X113541000Y-102957000D02*
X113541000Y-105819000D01*
X113541000Y-108181000D02*
X113541000Y-111043000D01*
X113581000Y-102987000D02*
X113581000Y-105819000D01*
X113581000Y-108181000D02*
X113581000Y-111013000D01*
X113621000Y-103018000D02*
X113621000Y-105819000D01*
X113621000Y-108181000D02*
X113621000Y-110982000D01*
X113661000Y-103049000D02*
X113661000Y-105819000D01*
X113661000Y-108181000D02*
X113661000Y-110951000D01*
X113701000Y-103081000D02*
X113701000Y-105819000D01*
X113701000Y-108181000D02*
X113701000Y-110919000D01*
X113741000Y-103114000D02*
X113741000Y-105819000D01*
X113741000Y-108181000D02*
X113741000Y-110886000D01*
X113781000Y-103147000D02*
X113781000Y-105819000D01*
X113781000Y-108181000D02*
X113781000Y-110853000D01*
X113821000Y-103181000D02*
X113821000Y-105819000D01*
X113821000Y-108181000D02*
X113821000Y-110819000D01*
X113861000Y-103216000D02*
X113861000Y-105819000D01*
X113861000Y-108181000D02*
X113861000Y-110784000D01*
X113901000Y-103252000D02*
X113901000Y-105819000D01*
X113901000Y-108181000D02*
X113901000Y-110748000D01*
X113941000Y-103288000D02*
X113941000Y-105819000D01*
X113941000Y-108181000D02*
X113941000Y-110712000D01*
X113981000Y-103325000D02*
X113981000Y-105819000D01*
X113981000Y-108181000D02*
X113981000Y-110675000D01*
X114021000Y-103363000D02*
X114021000Y-105819000D01*
X114021000Y-108181000D02*
X114021000Y-110637000D01*
X114061000Y-103402000D02*
X114061000Y-105819000D01*
X114061000Y-108181000D02*
X114061000Y-110598000D01*
X114101000Y-103441000D02*
X114101000Y-105819000D01*
X114101000Y-108181000D02*
X114101000Y-110559000D01*
X114141000Y-103482000D02*
X114141000Y-105819000D01*
X114141000Y-108181000D02*
X114141000Y-110518000D01*
X114181000Y-103523000D02*
X114181000Y-110477000D01*
X114221000Y-103565000D02*
X114221000Y-110435000D01*
X114261000Y-103609000D02*
X114261000Y-110391000D01*
X114301000Y-103653000D02*
X114301000Y-110347000D01*
X114341000Y-103698000D02*
X114341000Y-110302000D01*
X114381000Y-103745000D02*
X114381000Y-110255000D01*
X114421000Y-103793000D02*
X114421000Y-110207000D01*
X114461000Y-103842000D02*
X114461000Y-110158000D01*
X114501000Y-103892000D02*
X114501000Y-110108000D01*
X114541000Y-103943000D02*
X114541000Y-110057000D01*
X114581000Y-103996000D02*
X114581000Y-110004000D01*
X114621000Y-104051000D02*
X114621000Y-109949000D01*
X114661000Y-104106000D02*
X114661000Y-109894000D01*
X114701000Y-104164000D02*
X114701000Y-109836000D01*
X114741000Y-104223000D02*
X114741000Y-109777000D01*
X114781000Y-104285000D02*
X114781000Y-109715000D01*
X114821000Y-104348000D02*
X114821000Y-109652000D01*
X114861000Y-104413000D02*
X114861000Y-109587000D01*
X114901000Y-104481000D02*
X114901000Y-109519000D01*
X114941000Y-104551000D02*
X114941000Y-109449000D01*
X114981000Y-104623000D02*
X114981000Y-109377000D01*
X115021000Y-104699000D02*
X115021000Y-109301000D01*
X115061000Y-104778000D02*
X115061000Y-109222000D01*
X115101000Y-104860000D02*
X115101000Y-109140000D01*
X115141000Y-104947000D02*
X115141000Y-109053000D01*
X115181000Y-105038000D02*
X115181000Y-108962000D01*
X115221000Y-105134000D02*
X115221000Y-108866000D01*
X115261000Y-105237000D02*
X115261000Y-108763000D01*
X115301000Y-105346000D02*
X115301000Y-108654000D01*
X115341000Y-105464000D02*
X115341000Y-108536000D01*
X115381000Y-105593000D02*
X115381000Y-108407000D01*
X115421000Y-105735000D02*
X115421000Y-108265000D01*
X115461000Y-105896000D02*
X115461000Y-108104000D01*
X115501000Y-106087000D02*
X115501000Y-107913000D01*
X115541000Y-106328000D02*
X115541000Y-107672000D01*
X115581000Y-106721000D02*
X115581000Y-107279000D01*
X105300000Y-107000000D02*
X106800000Y-107000000D01*
X106050000Y-106250000D02*
X106050000Y-107750000D01*
X115398437Y-91616736D02*
G75*
G03X105600643Y-91620000I-4898437J-1383264D01*
G01*
X115398437Y-94383264D02*
G75*
G02X105600643Y-94380000I-4898437J1383264D01*
G01*
X115398437Y-94383264D02*
G75*
G03X115399357Y-91620000I-4898437J1383264D01*
G01*
X110500000Y-87950000D02*
X110500000Y-98050000D01*
X110540000Y-87950000D02*
X110540000Y-98050000D01*
X110580000Y-87950000D02*
X110580000Y-98050000D01*
X110620000Y-87951000D02*
X110620000Y-98049000D01*
X110660000Y-87952000D02*
X110660000Y-98048000D01*
X110700000Y-87953000D02*
X110700000Y-98047000D01*
X110740000Y-87955000D02*
X110740000Y-98045000D01*
X110780000Y-87957000D02*
X110780000Y-98043000D01*
X110820000Y-87960000D02*
X110820000Y-98040000D01*
X110860000Y-87962000D02*
X110860000Y-98038000D01*
X110900000Y-87965000D02*
X110900000Y-98035000D01*
X110940000Y-87969000D02*
X110940000Y-98031000D01*
X110980000Y-87972000D02*
X110980000Y-98028000D01*
X111020000Y-87976000D02*
X111020000Y-98024000D01*
X111060000Y-87980000D02*
X111060000Y-98020000D01*
X111100000Y-87985000D02*
X111100000Y-98015000D01*
X111140000Y-87990000D02*
X111140000Y-98010000D01*
X111180000Y-87995000D02*
X111180000Y-98005000D01*
X111221000Y-88001000D02*
X111221000Y-97999000D01*
X111261000Y-88007000D02*
X111261000Y-97993000D01*
X111301000Y-88013000D02*
X111301000Y-97987000D01*
X111341000Y-88019000D02*
X111341000Y-97981000D01*
X111381000Y-88026000D02*
X111381000Y-97974000D01*
X111421000Y-88033000D02*
X111421000Y-97967000D01*
X111461000Y-88041000D02*
X111461000Y-97959000D01*
X111501000Y-88049000D02*
X111501000Y-97951000D01*
X111541000Y-88057000D02*
X111541000Y-97943000D01*
X111581000Y-88065000D02*
X111581000Y-97935000D01*
X111621000Y-88074000D02*
X111621000Y-97926000D01*
X111661000Y-88083000D02*
X111661000Y-97917000D01*
X111701000Y-88093000D02*
X111701000Y-97907000D01*
X111741000Y-88103000D02*
X111741000Y-97897000D01*
X111781000Y-88113000D02*
X111781000Y-97887000D01*
X111821000Y-88124000D02*
X111821000Y-91819000D01*
X111821000Y-94181000D02*
X111821000Y-97876000D01*
X111861000Y-88135000D02*
X111861000Y-91819000D01*
X111861000Y-94181000D02*
X111861000Y-97865000D01*
X111901000Y-88146000D02*
X111901000Y-91819000D01*
X111901000Y-94181000D02*
X111901000Y-97854000D01*
X111941000Y-88157000D02*
X111941000Y-91819000D01*
X111941000Y-94181000D02*
X111941000Y-97843000D01*
X111981000Y-88169000D02*
X111981000Y-91819000D01*
X111981000Y-94181000D02*
X111981000Y-97831000D01*
X112021000Y-88182000D02*
X112021000Y-91819000D01*
X112021000Y-94181000D02*
X112021000Y-97818000D01*
X112061000Y-88194000D02*
X112061000Y-91819000D01*
X112061000Y-94181000D02*
X112061000Y-97806000D01*
X112101000Y-88208000D02*
X112101000Y-91819000D01*
X112101000Y-94181000D02*
X112101000Y-97792000D01*
X112141000Y-88221000D02*
X112141000Y-91819000D01*
X112141000Y-94181000D02*
X112141000Y-97779000D01*
X112181000Y-88235000D02*
X112181000Y-91819000D01*
X112181000Y-94181000D02*
X112181000Y-97765000D01*
X112221000Y-88249000D02*
X112221000Y-91819000D01*
X112221000Y-94181000D02*
X112221000Y-97751000D01*
X112261000Y-88263000D02*
X112261000Y-91819000D01*
X112261000Y-94181000D02*
X112261000Y-97737000D01*
X112301000Y-88278000D02*
X112301000Y-91819000D01*
X112301000Y-94181000D02*
X112301000Y-97722000D01*
X112341000Y-88294000D02*
X112341000Y-91819000D01*
X112341000Y-94181000D02*
X112341000Y-97706000D01*
X112381000Y-88309000D02*
X112381000Y-91819000D01*
X112381000Y-94181000D02*
X112381000Y-97691000D01*
X112421000Y-88326000D02*
X112421000Y-91819000D01*
X112421000Y-94181000D02*
X112421000Y-97674000D01*
X112461000Y-88342000D02*
X112461000Y-91819000D01*
X112461000Y-94181000D02*
X112461000Y-97658000D01*
X112501000Y-88359000D02*
X112501000Y-91819000D01*
X112501000Y-94181000D02*
X112501000Y-97641000D01*
X112541000Y-88376000D02*
X112541000Y-91819000D01*
X112541000Y-94181000D02*
X112541000Y-97624000D01*
X112581000Y-88394000D02*
X112581000Y-91819000D01*
X112581000Y-94181000D02*
X112581000Y-97606000D01*
X112621000Y-88412000D02*
X112621000Y-91819000D01*
X112621000Y-94181000D02*
X112621000Y-97588000D01*
X112661000Y-88431000D02*
X112661000Y-91819000D01*
X112661000Y-94181000D02*
X112661000Y-97569000D01*
X112701000Y-88450000D02*
X112701000Y-91819000D01*
X112701000Y-94181000D02*
X112701000Y-97550000D01*
X112741000Y-88469000D02*
X112741000Y-91819000D01*
X112741000Y-94181000D02*
X112741000Y-97531000D01*
X112781000Y-88489000D02*
X112781000Y-91819000D01*
X112781000Y-94181000D02*
X112781000Y-97511000D01*
X112821000Y-88509000D02*
X112821000Y-91819000D01*
X112821000Y-94181000D02*
X112821000Y-97491000D01*
X112861000Y-88530000D02*
X112861000Y-91819000D01*
X112861000Y-94181000D02*
X112861000Y-97470000D01*
X112901000Y-88551000D02*
X112901000Y-91819000D01*
X112901000Y-94181000D02*
X112901000Y-97449000D01*
X112941000Y-88572000D02*
X112941000Y-91819000D01*
X112941000Y-94181000D02*
X112941000Y-97428000D01*
X112981000Y-88595000D02*
X112981000Y-91819000D01*
X112981000Y-94181000D02*
X112981000Y-97405000D01*
X113021000Y-88617000D02*
X113021000Y-91819000D01*
X113021000Y-94181000D02*
X113021000Y-97383000D01*
X113061000Y-88640000D02*
X113061000Y-91819000D01*
X113061000Y-94181000D02*
X113061000Y-97360000D01*
X113101000Y-88664000D02*
X113101000Y-91819000D01*
X113101000Y-94181000D02*
X113101000Y-97336000D01*
X113141000Y-88688000D02*
X113141000Y-91819000D01*
X113141000Y-94181000D02*
X113141000Y-97312000D01*
X113181000Y-88712000D02*
X113181000Y-91819000D01*
X113181000Y-94181000D02*
X113181000Y-97288000D01*
X113221000Y-88737000D02*
X113221000Y-91819000D01*
X113221000Y-94181000D02*
X113221000Y-97263000D01*
X113261000Y-88763000D02*
X113261000Y-91819000D01*
X113261000Y-94181000D02*
X113261000Y-97237000D01*
X113301000Y-88789000D02*
X113301000Y-91819000D01*
X113301000Y-94181000D02*
X113301000Y-97211000D01*
X113341000Y-88815000D02*
X113341000Y-91819000D01*
X113341000Y-94181000D02*
X113341000Y-97185000D01*
X113381000Y-88843000D02*
X113381000Y-91819000D01*
X113381000Y-94181000D02*
X113381000Y-97157000D01*
X113421000Y-88870000D02*
X113421000Y-91819000D01*
X113421000Y-94181000D02*
X113421000Y-97130000D01*
X113461000Y-88899000D02*
X113461000Y-91819000D01*
X113461000Y-94181000D02*
X113461000Y-97101000D01*
X113501000Y-88928000D02*
X113501000Y-91819000D01*
X113501000Y-94181000D02*
X113501000Y-97072000D01*
X113541000Y-88957000D02*
X113541000Y-91819000D01*
X113541000Y-94181000D02*
X113541000Y-97043000D01*
X113581000Y-88987000D02*
X113581000Y-91819000D01*
X113581000Y-94181000D02*
X113581000Y-97013000D01*
X113621000Y-89018000D02*
X113621000Y-91819000D01*
X113621000Y-94181000D02*
X113621000Y-96982000D01*
X113661000Y-89049000D02*
X113661000Y-91819000D01*
X113661000Y-94181000D02*
X113661000Y-96951000D01*
X113701000Y-89081000D02*
X113701000Y-91819000D01*
X113701000Y-94181000D02*
X113701000Y-96919000D01*
X113741000Y-89114000D02*
X113741000Y-91819000D01*
X113741000Y-94181000D02*
X113741000Y-96886000D01*
X113781000Y-89147000D02*
X113781000Y-91819000D01*
X113781000Y-94181000D02*
X113781000Y-96853000D01*
X113821000Y-89181000D02*
X113821000Y-91819000D01*
X113821000Y-94181000D02*
X113821000Y-96819000D01*
X113861000Y-89216000D02*
X113861000Y-91819000D01*
X113861000Y-94181000D02*
X113861000Y-96784000D01*
X113901000Y-89252000D02*
X113901000Y-91819000D01*
X113901000Y-94181000D02*
X113901000Y-96748000D01*
X113941000Y-89288000D02*
X113941000Y-91819000D01*
X113941000Y-94181000D02*
X113941000Y-96712000D01*
X113981000Y-89325000D02*
X113981000Y-91819000D01*
X113981000Y-94181000D02*
X113981000Y-96675000D01*
X114021000Y-89363000D02*
X114021000Y-91819000D01*
X114021000Y-94181000D02*
X114021000Y-96637000D01*
X114061000Y-89402000D02*
X114061000Y-91819000D01*
X114061000Y-94181000D02*
X114061000Y-96598000D01*
X114101000Y-89441000D02*
X114101000Y-91819000D01*
X114101000Y-94181000D02*
X114101000Y-96559000D01*
X114141000Y-89482000D02*
X114141000Y-91819000D01*
X114141000Y-94181000D02*
X114141000Y-96518000D01*
X114181000Y-89523000D02*
X114181000Y-96477000D01*
X114221000Y-89565000D02*
X114221000Y-96435000D01*
X114261000Y-89609000D02*
X114261000Y-96391000D01*
X114301000Y-89653000D02*
X114301000Y-96347000D01*
X114341000Y-89698000D02*
X114341000Y-96302000D01*
X114381000Y-89745000D02*
X114381000Y-96255000D01*
X114421000Y-89793000D02*
X114421000Y-96207000D01*
X114461000Y-89842000D02*
X114461000Y-96158000D01*
X114501000Y-89892000D02*
X114501000Y-96108000D01*
X114541000Y-89943000D02*
X114541000Y-96057000D01*
X114581000Y-89996000D02*
X114581000Y-96004000D01*
X114621000Y-90051000D02*
X114621000Y-95949000D01*
X114661000Y-90106000D02*
X114661000Y-95894000D01*
X114701000Y-90164000D02*
X114701000Y-95836000D01*
X114741000Y-90223000D02*
X114741000Y-95777000D01*
X114781000Y-90285000D02*
X114781000Y-95715000D01*
X114821000Y-90348000D02*
X114821000Y-95652000D01*
X114861000Y-90413000D02*
X114861000Y-95587000D01*
X114901000Y-90481000D02*
X114901000Y-95519000D01*
X114941000Y-90551000D02*
X114941000Y-95449000D01*
X114981000Y-90623000D02*
X114981000Y-95377000D01*
X115021000Y-90699000D02*
X115021000Y-95301000D01*
X115061000Y-90778000D02*
X115061000Y-95222000D01*
X115101000Y-90860000D02*
X115101000Y-95140000D01*
X115141000Y-90947000D02*
X115141000Y-95053000D01*
X115181000Y-91038000D02*
X115181000Y-94962000D01*
X115221000Y-91134000D02*
X115221000Y-94866000D01*
X115261000Y-91237000D02*
X115261000Y-94763000D01*
X115301000Y-91346000D02*
X115301000Y-94654000D01*
X115341000Y-91464000D02*
X115341000Y-94536000D01*
X115381000Y-91593000D02*
X115381000Y-94407000D01*
X115421000Y-91735000D02*
X115421000Y-94265000D01*
X115461000Y-91896000D02*
X115461000Y-94104000D01*
X115501000Y-92087000D02*
X115501000Y-93913000D01*
X115541000Y-92328000D02*
X115541000Y-93672000D01*
X115581000Y-92721000D02*
X115581000Y-93279000D01*
X105300000Y-93000000D02*
X106800000Y-93000000D01*
X106050000Y-92250000D02*
X106050000Y-93750000D01*
X128017820Y-85070864D02*
G75*
G03X121982518Y-85070000I-3017820J-1179136D01*
G01*
X128017820Y-87429136D02*
G75*
G02X121982518Y-87430000I-3017820J1179136D01*
G01*
X128017820Y-87429136D02*
G75*
G03X128017482Y-85070000I-3017820J1179136D01*
G01*
X125000000Y-83050000D02*
X125000000Y-89450000D01*
X125040000Y-83050000D02*
X125040000Y-89450000D01*
X125080000Y-83050000D02*
X125080000Y-89450000D01*
X125120000Y-83052000D02*
X125120000Y-89448000D01*
X125160000Y-83053000D02*
X125160000Y-89447000D01*
X125200000Y-83056000D02*
X125200000Y-89444000D01*
X125240000Y-83058000D02*
X125240000Y-89442000D01*
X125280000Y-83062000D02*
X125280000Y-85270000D01*
X125280000Y-87230000D02*
X125280000Y-89438000D01*
X125320000Y-83065000D02*
X125320000Y-85270000D01*
X125320000Y-87230000D02*
X125320000Y-89435000D01*
X125360000Y-83070000D02*
X125360000Y-85270000D01*
X125360000Y-87230000D02*
X125360000Y-89430000D01*
X125400000Y-83074000D02*
X125400000Y-85270000D01*
X125400000Y-87230000D02*
X125400000Y-89426000D01*
X125440000Y-83080000D02*
X125440000Y-85270000D01*
X125440000Y-87230000D02*
X125440000Y-89420000D01*
X125480000Y-83085000D02*
X125480000Y-85270000D01*
X125480000Y-87230000D02*
X125480000Y-89415000D01*
X125520000Y-83092000D02*
X125520000Y-85270000D01*
X125520000Y-87230000D02*
X125520000Y-89408000D01*
X125560000Y-83098000D02*
X125560000Y-85270000D01*
X125560000Y-87230000D02*
X125560000Y-89402000D01*
X125600000Y-83106000D02*
X125600000Y-85270000D01*
X125600000Y-87230000D02*
X125600000Y-89394000D01*
X125640000Y-83113000D02*
X125640000Y-85270000D01*
X125640000Y-87230000D02*
X125640000Y-89387000D01*
X125680000Y-83122000D02*
X125680000Y-85270000D01*
X125680000Y-87230000D02*
X125680000Y-89378000D01*
X125721000Y-83131000D02*
X125721000Y-85270000D01*
X125721000Y-87230000D02*
X125721000Y-89369000D01*
X125761000Y-83140000D02*
X125761000Y-85270000D01*
X125761000Y-87230000D02*
X125761000Y-89360000D01*
X125801000Y-83150000D02*
X125801000Y-85270000D01*
X125801000Y-87230000D02*
X125801000Y-89350000D01*
X125841000Y-83160000D02*
X125841000Y-85270000D01*
X125841000Y-87230000D02*
X125841000Y-89340000D01*
X125881000Y-83171000D02*
X125881000Y-85270000D01*
X125881000Y-87230000D02*
X125881000Y-89329000D01*
X125921000Y-83183000D02*
X125921000Y-85270000D01*
X125921000Y-87230000D02*
X125921000Y-89317000D01*
X125961000Y-83195000D02*
X125961000Y-85270000D01*
X125961000Y-87230000D02*
X125961000Y-89305000D01*
X126001000Y-83208000D02*
X126001000Y-85270000D01*
X126001000Y-87230000D02*
X126001000Y-89292000D01*
X126041000Y-83221000D02*
X126041000Y-85270000D01*
X126041000Y-87230000D02*
X126041000Y-89279000D01*
X126081000Y-83235000D02*
X126081000Y-85270000D01*
X126081000Y-87230000D02*
X126081000Y-89265000D01*
X126121000Y-83249000D02*
X126121000Y-85270000D01*
X126121000Y-87230000D02*
X126121000Y-89251000D01*
X126161000Y-83264000D02*
X126161000Y-85270000D01*
X126161000Y-87230000D02*
X126161000Y-89236000D01*
X126201000Y-83280000D02*
X126201000Y-85270000D01*
X126201000Y-87230000D02*
X126201000Y-89220000D01*
X126241000Y-83296000D02*
X126241000Y-85270000D01*
X126241000Y-87230000D02*
X126241000Y-89204000D01*
X126281000Y-83313000D02*
X126281000Y-85270000D01*
X126281000Y-87230000D02*
X126281000Y-89187000D01*
X126321000Y-83331000D02*
X126321000Y-85270000D01*
X126321000Y-87230000D02*
X126321000Y-89169000D01*
X126361000Y-83349000D02*
X126361000Y-85270000D01*
X126361000Y-87230000D02*
X126361000Y-89151000D01*
X126401000Y-83368000D02*
X126401000Y-85270000D01*
X126401000Y-87230000D02*
X126401000Y-89132000D01*
X126441000Y-83387000D02*
X126441000Y-85270000D01*
X126441000Y-87230000D02*
X126441000Y-89113000D01*
X126481000Y-83407000D02*
X126481000Y-85270000D01*
X126481000Y-87230000D02*
X126481000Y-89093000D01*
X126521000Y-83428000D02*
X126521000Y-85270000D01*
X126521000Y-87230000D02*
X126521000Y-89072000D01*
X126561000Y-83450000D02*
X126561000Y-85270000D01*
X126561000Y-87230000D02*
X126561000Y-89050000D01*
X126601000Y-83472000D02*
X126601000Y-85270000D01*
X126601000Y-87230000D02*
X126601000Y-89028000D01*
X126641000Y-83495000D02*
X126641000Y-85270000D01*
X126641000Y-87230000D02*
X126641000Y-89005000D01*
X126681000Y-83519000D02*
X126681000Y-85270000D01*
X126681000Y-87230000D02*
X126681000Y-88981000D01*
X126721000Y-83544000D02*
X126721000Y-85270000D01*
X126721000Y-87230000D02*
X126721000Y-88956000D01*
X126761000Y-83569000D02*
X126761000Y-85270000D01*
X126761000Y-87230000D02*
X126761000Y-88931000D01*
X126801000Y-83596000D02*
X126801000Y-85270000D01*
X126801000Y-87230000D02*
X126801000Y-88904000D01*
X126841000Y-83623000D02*
X126841000Y-85270000D01*
X126841000Y-87230000D02*
X126841000Y-88877000D01*
X126881000Y-83651000D02*
X126881000Y-85270000D01*
X126881000Y-87230000D02*
X126881000Y-88849000D01*
X126921000Y-83680000D02*
X126921000Y-85270000D01*
X126921000Y-87230000D02*
X126921000Y-88820000D01*
X126961000Y-83710000D02*
X126961000Y-85270000D01*
X126961000Y-87230000D02*
X126961000Y-88790000D01*
X127001000Y-83740000D02*
X127001000Y-85270000D01*
X127001000Y-87230000D02*
X127001000Y-88760000D01*
X127041000Y-83772000D02*
X127041000Y-85270000D01*
X127041000Y-87230000D02*
X127041000Y-88728000D01*
X127081000Y-83805000D02*
X127081000Y-85270000D01*
X127081000Y-87230000D02*
X127081000Y-88695000D01*
X127121000Y-83839000D02*
X127121000Y-85270000D01*
X127121000Y-87230000D02*
X127121000Y-88661000D01*
X127161000Y-83875000D02*
X127161000Y-85270000D01*
X127161000Y-87230000D02*
X127161000Y-88625000D01*
X127201000Y-83911000D02*
X127201000Y-85270000D01*
X127201000Y-87230000D02*
X127201000Y-88589000D01*
X127241000Y-83949000D02*
X127241000Y-88551000D01*
X127281000Y-83988000D02*
X127281000Y-88512000D01*
X127321000Y-84028000D02*
X127321000Y-88472000D01*
X127361000Y-84070000D02*
X127361000Y-88430000D01*
X127401000Y-84113000D02*
X127401000Y-88387000D01*
X127441000Y-84158000D02*
X127441000Y-88342000D01*
X127481000Y-84205000D02*
X127481000Y-88295000D01*
X127521000Y-84253000D02*
X127521000Y-88247000D01*
X127561000Y-84304000D02*
X127561000Y-88196000D01*
X127601000Y-84356000D02*
X127601000Y-88144000D01*
X127641000Y-84411000D02*
X127641000Y-88089000D01*
X127681000Y-84469000D02*
X127681000Y-88031000D01*
X127721000Y-84529000D02*
X127721000Y-87971000D01*
X127761000Y-84592000D02*
X127761000Y-87908000D01*
X127801000Y-84659000D02*
X127801000Y-87841000D01*
X127841000Y-84730000D02*
X127841000Y-87770000D01*
X127881000Y-84805000D02*
X127881000Y-87695000D01*
X127921000Y-84886000D02*
X127921000Y-87614000D01*
X127961000Y-84972000D02*
X127961000Y-87528000D01*
X128001000Y-85066000D02*
X128001000Y-87434000D01*
X128041000Y-85169000D02*
X128041000Y-87331000D01*
X128081000Y-85284000D02*
X128081000Y-87216000D01*
X128121000Y-85416000D02*
X128121000Y-87084000D01*
X128161000Y-85574000D02*
X128161000Y-86926000D01*
X128201000Y-85782000D02*
X128201000Y-86718000D01*
X121550000Y-86250000D02*
X122750000Y-86250000D01*
X122150000Y-85600000D02*
X122150000Y-86900000D01*
X130482180Y-114179136D02*
G75*
G03X136517482Y-114180000I3017820J1179136D01*
G01*
X130482180Y-111820864D02*
G75*
G02X136517482Y-111820000I3017820J-1179136D01*
G01*
X130482180Y-111820864D02*
G75*
G03X130482518Y-114180000I3017820J-1179136D01*
G01*
X133500000Y-116200000D02*
X133500000Y-109800000D01*
X133460000Y-116200000D02*
X133460000Y-109800000D01*
X133420000Y-116200000D02*
X133420000Y-109800000D01*
X133380000Y-116198000D02*
X133380000Y-109802000D01*
X133340000Y-116197000D02*
X133340000Y-109803000D01*
X133300000Y-116194000D02*
X133300000Y-109806000D01*
X133260000Y-116192000D02*
X133260000Y-109808000D01*
X133220000Y-116188000D02*
X133220000Y-113980000D01*
X133220000Y-112020000D02*
X133220000Y-109812000D01*
X133180000Y-116185000D02*
X133180000Y-113980000D01*
X133180000Y-112020000D02*
X133180000Y-109815000D01*
X133140000Y-116180000D02*
X133140000Y-113980000D01*
X133140000Y-112020000D02*
X133140000Y-109820000D01*
X133100000Y-116176000D02*
X133100000Y-113980000D01*
X133100000Y-112020000D02*
X133100000Y-109824000D01*
X133060000Y-116170000D02*
X133060000Y-113980000D01*
X133060000Y-112020000D02*
X133060000Y-109830000D01*
X133020000Y-116165000D02*
X133020000Y-113980000D01*
X133020000Y-112020000D02*
X133020000Y-109835000D01*
X132980000Y-116158000D02*
X132980000Y-113980000D01*
X132980000Y-112020000D02*
X132980000Y-109842000D01*
X132940000Y-116152000D02*
X132940000Y-113980000D01*
X132940000Y-112020000D02*
X132940000Y-109848000D01*
X132900000Y-116144000D02*
X132900000Y-113980000D01*
X132900000Y-112020000D02*
X132900000Y-109856000D01*
X132860000Y-116137000D02*
X132860000Y-113980000D01*
X132860000Y-112020000D02*
X132860000Y-109863000D01*
X132820000Y-116128000D02*
X132820000Y-113980000D01*
X132820000Y-112020000D02*
X132820000Y-109872000D01*
X132779000Y-116119000D02*
X132779000Y-113980000D01*
X132779000Y-112020000D02*
X132779000Y-109881000D01*
X132739000Y-116110000D02*
X132739000Y-113980000D01*
X132739000Y-112020000D02*
X132739000Y-109890000D01*
X132699000Y-116100000D02*
X132699000Y-113980000D01*
X132699000Y-112020000D02*
X132699000Y-109900000D01*
X132659000Y-116090000D02*
X132659000Y-113980000D01*
X132659000Y-112020000D02*
X132659000Y-109910000D01*
X132619000Y-116079000D02*
X132619000Y-113980000D01*
X132619000Y-112020000D02*
X132619000Y-109921000D01*
X132579000Y-116067000D02*
X132579000Y-113980000D01*
X132579000Y-112020000D02*
X132579000Y-109933000D01*
X132539000Y-116055000D02*
X132539000Y-113980000D01*
X132539000Y-112020000D02*
X132539000Y-109945000D01*
X132499000Y-116042000D02*
X132499000Y-113980000D01*
X132499000Y-112020000D02*
X132499000Y-109958000D01*
X132459000Y-116029000D02*
X132459000Y-113980000D01*
X132459000Y-112020000D02*
X132459000Y-109971000D01*
X132419000Y-116015000D02*
X132419000Y-113980000D01*
X132419000Y-112020000D02*
X132419000Y-109985000D01*
X132379000Y-116001000D02*
X132379000Y-113980000D01*
X132379000Y-112020000D02*
X132379000Y-109999000D01*
X132339000Y-115986000D02*
X132339000Y-113980000D01*
X132339000Y-112020000D02*
X132339000Y-110014000D01*
X132299000Y-115970000D02*
X132299000Y-113980000D01*
X132299000Y-112020000D02*
X132299000Y-110030000D01*
X132259000Y-115954000D02*
X132259000Y-113980000D01*
X132259000Y-112020000D02*
X132259000Y-110046000D01*
X132219000Y-115937000D02*
X132219000Y-113980000D01*
X132219000Y-112020000D02*
X132219000Y-110063000D01*
X132179000Y-115919000D02*
X132179000Y-113980000D01*
X132179000Y-112020000D02*
X132179000Y-110081000D01*
X132139000Y-115901000D02*
X132139000Y-113980000D01*
X132139000Y-112020000D02*
X132139000Y-110099000D01*
X132099000Y-115882000D02*
X132099000Y-113980000D01*
X132099000Y-112020000D02*
X132099000Y-110118000D01*
X132059000Y-115863000D02*
X132059000Y-113980000D01*
X132059000Y-112020000D02*
X132059000Y-110137000D01*
X132019000Y-115843000D02*
X132019000Y-113980000D01*
X132019000Y-112020000D02*
X132019000Y-110157000D01*
X131979000Y-115822000D02*
X131979000Y-113980000D01*
X131979000Y-112020000D02*
X131979000Y-110178000D01*
X131939000Y-115800000D02*
X131939000Y-113980000D01*
X131939000Y-112020000D02*
X131939000Y-110200000D01*
X131899000Y-115778000D02*
X131899000Y-113980000D01*
X131899000Y-112020000D02*
X131899000Y-110222000D01*
X131859000Y-115755000D02*
X131859000Y-113980000D01*
X131859000Y-112020000D02*
X131859000Y-110245000D01*
X131819000Y-115731000D02*
X131819000Y-113980000D01*
X131819000Y-112020000D02*
X131819000Y-110269000D01*
X131779000Y-115706000D02*
X131779000Y-113980000D01*
X131779000Y-112020000D02*
X131779000Y-110294000D01*
X131739000Y-115681000D02*
X131739000Y-113980000D01*
X131739000Y-112020000D02*
X131739000Y-110319000D01*
X131699000Y-115654000D02*
X131699000Y-113980000D01*
X131699000Y-112020000D02*
X131699000Y-110346000D01*
X131659000Y-115627000D02*
X131659000Y-113980000D01*
X131659000Y-112020000D02*
X131659000Y-110373000D01*
X131619000Y-115599000D02*
X131619000Y-113980000D01*
X131619000Y-112020000D02*
X131619000Y-110401000D01*
X131579000Y-115570000D02*
X131579000Y-113980000D01*
X131579000Y-112020000D02*
X131579000Y-110430000D01*
X131539000Y-115540000D02*
X131539000Y-113980000D01*
X131539000Y-112020000D02*
X131539000Y-110460000D01*
X131499000Y-115510000D02*
X131499000Y-113980000D01*
X131499000Y-112020000D02*
X131499000Y-110490000D01*
X131459000Y-115478000D02*
X131459000Y-113980000D01*
X131459000Y-112020000D02*
X131459000Y-110522000D01*
X131419000Y-115445000D02*
X131419000Y-113980000D01*
X131419000Y-112020000D02*
X131419000Y-110555000D01*
X131379000Y-115411000D02*
X131379000Y-113980000D01*
X131379000Y-112020000D02*
X131379000Y-110589000D01*
X131339000Y-115375000D02*
X131339000Y-113980000D01*
X131339000Y-112020000D02*
X131339000Y-110625000D01*
X131299000Y-115339000D02*
X131299000Y-113980000D01*
X131299000Y-112020000D02*
X131299000Y-110661000D01*
X131259000Y-115301000D02*
X131259000Y-110699000D01*
X131219000Y-115262000D02*
X131219000Y-110738000D01*
X131179000Y-115222000D02*
X131179000Y-110778000D01*
X131139000Y-115180000D02*
X131139000Y-110820000D01*
X131099000Y-115137000D02*
X131099000Y-110863000D01*
X131059000Y-115092000D02*
X131059000Y-110908000D01*
X131019000Y-115045000D02*
X131019000Y-110955000D01*
X130979000Y-114997000D02*
X130979000Y-111003000D01*
X130939000Y-114946000D02*
X130939000Y-111054000D01*
X130899000Y-114894000D02*
X130899000Y-111106000D01*
X130859000Y-114839000D02*
X130859000Y-111161000D01*
X130819000Y-114781000D02*
X130819000Y-111219000D01*
X130779000Y-114721000D02*
X130779000Y-111279000D01*
X130739000Y-114658000D02*
X130739000Y-111342000D01*
X130699000Y-114591000D02*
X130699000Y-111409000D01*
X130659000Y-114520000D02*
X130659000Y-111480000D01*
X130619000Y-114445000D02*
X130619000Y-111555000D01*
X130579000Y-114364000D02*
X130579000Y-111636000D01*
X130539000Y-114278000D02*
X130539000Y-111722000D01*
X130499000Y-114184000D02*
X130499000Y-111816000D01*
X130459000Y-114081000D02*
X130459000Y-111919000D01*
X130419000Y-113966000D02*
X130419000Y-112034000D01*
X130379000Y-113834000D02*
X130379000Y-112166000D01*
X130339000Y-113676000D02*
X130339000Y-112324000D01*
X130299000Y-113468000D02*
X130299000Y-112532000D01*
X136950000Y-113000000D02*
X135750000Y-113000000D01*
X136350000Y-113650000D02*
X136350000Y-112350000D01*
X98720000Y-46850000D02*
X98590000Y-46850000D01*
X98590000Y-46850000D02*
X98590000Y-41530000D01*
X98590000Y-41530000D02*
X98720000Y-41530000D01*
X101280000Y-46850000D02*
X101410000Y-46850000D01*
X101410000Y-46850000D02*
X101410000Y-41530000D01*
X101410000Y-41530000D02*
X101280000Y-41530000D01*
X98590000Y-46010000D02*
X101410000Y-46010000D01*
D12*
X113600000Y-57500000D02*
X116400000Y-57500000D01*
X113600000Y-62500000D02*
X116400000Y-62500000D01*
X117500000Y-57500000D02*
X117500000Y-62500000D01*
X112500000Y-62500000D02*
X112500000Y-57500000D01*
X127750000Y-39750000D02*
X128250000Y-39750000D01*
X128250000Y-42250000D02*
X127750000Y-42250000D01*
X127000000Y-42250000D02*
X127000000Y-39750000D01*
X129000000Y-39750000D02*
X129000000Y-42250000D01*
X135750000Y-39750000D02*
X136250000Y-39750000D01*
X136250000Y-42250000D02*
X135750000Y-42250000D01*
X135000000Y-42250000D02*
X135000000Y-39750000D01*
X137000000Y-39750000D02*
X137000000Y-42250000D01*
X96000000Y-62000000D02*
X42000000Y-62000000D01*
X96000000Y-32000000D02*
X96000000Y-62000000D01*
X42000000Y-32000000D02*
X96000000Y-32000000D01*
X42000000Y-32000000D02*
X42000000Y-62000000D01*
X54000000Y-97000000D02*
X54000000Y-101500000D01*
X54000000Y-103000000D02*
X42000000Y-103000000D01*
X42000000Y-103000000D02*
X42000000Y-97000000D01*
X42000000Y-97000000D02*
X54000000Y-97000000D01*
X130000000Y-103000000D02*
X130000000Y-98500000D01*
X130000000Y-97000000D02*
X142000000Y-97000000D01*
X142000000Y-97000000D02*
X142000000Y-103000000D01*
X142000000Y-103000000D02*
X130000000Y-103000000D01*
D13*
X62680000Y-94500000D02*
X62680000Y-95500000D01*
X61320000Y-95500000D02*
X61320000Y-94500000D01*
X91500000Y-84680000D02*
X90500000Y-84680000D01*
X90500000Y-83320000D02*
X91500000Y-83320000D01*
X61320000Y-105500000D02*
X61320000Y-104500000D01*
X62680000Y-104500000D02*
X62680000Y-105500000D01*
X91500000Y-117680000D02*
X90500000Y-117680000D01*
X90500000Y-116320000D02*
X91500000Y-116320000D01*
X99680000Y-104500000D02*
X99680000Y-105500000D01*
X98320000Y-105500000D02*
X98320000Y-104500000D01*
X98320000Y-95500000D02*
X98320000Y-94500000D01*
X99680000Y-94500000D02*
X99680000Y-95500000D01*
X125000000Y-107430000D02*
X124000000Y-107430000D01*
X124000000Y-106070000D02*
X125000000Y-106070000D01*
X120000000Y-106070000D02*
X121000000Y-106070000D01*
X121000000Y-107430000D02*
X120000000Y-107430000D01*
X134500000Y-107430000D02*
X133500000Y-107430000D01*
X133500000Y-106070000D02*
X134500000Y-106070000D01*
X129250000Y-94180000D02*
X128250000Y-94180000D01*
X128250000Y-92820000D02*
X129250000Y-92820000D01*
X124250000Y-92820000D02*
X125250000Y-92820000D01*
X125250000Y-94180000D02*
X124250000Y-94180000D01*
X134500000Y-94180000D02*
X133500000Y-94180000D01*
X133500000Y-92820000D02*
X134500000Y-92820000D01*
D12*
X44000000Y-94000000D02*
G75*
G03X44000000Y-94000000I-500000J0D01*
G01*
X42600000Y-85250000D02*
X47400000Y-85250000D01*
X47400000Y-85250000D02*
X47400000Y-94750000D01*
X47400000Y-94750000D02*
X42600000Y-94750000D01*
X42600000Y-94750000D02*
X42600000Y-85250000D01*
X70000000Y-88000000D02*
G75*
G03X70000000Y-88000000I-500000J0D01*
G01*
X70400000Y-96750000D02*
X65600000Y-96750000D01*
X65600000Y-96750000D02*
X65600000Y-87250000D01*
X65600000Y-87250000D02*
X70400000Y-87250000D01*
X70400000Y-87250000D02*
X70400000Y-96750000D01*
X47000000Y-106000000D02*
G75*
G03X47000000Y-106000000I-500000J0D01*
G01*
X47400000Y-114750000D02*
X42600000Y-114750000D01*
X42600000Y-114750000D02*
X42600000Y-105250000D01*
X42600000Y-105250000D02*
X47400000Y-105250000D01*
X47400000Y-105250000D02*
X47400000Y-114750000D01*
X67000000Y-112000000D02*
G75*
G03X67000000Y-112000000I-500000J0D01*
G01*
X65600000Y-103250000D02*
X70400000Y-103250000D01*
X70400000Y-103250000D02*
X70400000Y-112750000D01*
X70400000Y-112750000D02*
X65600000Y-112750000D01*
X65600000Y-112750000D02*
X65600000Y-103250000D01*
X98935000Y-57460000D02*
X107065000Y-57460000D01*
X107065000Y-57460000D02*
X107065000Y-62540000D01*
X107065000Y-62540000D02*
X98935000Y-62540000D01*
X98935000Y-62540000D02*
X98935000Y-57460000D01*
X121100000Y-53700000D02*
X121100000Y-32300000D01*
X121100000Y-32300000D02*
X120100000Y-32300000D01*
X121100000Y-53700000D02*
X120100000Y-53700000D01*
X108900000Y-53700000D02*
X108900000Y-32300000D01*
X108900000Y-32300000D02*
X109900000Y-32300000D01*
X108900000Y-53700000D02*
X109900000Y-53700000D01*
D13*
X77200000Y-80220000D02*
X78400000Y-80220000D01*
X78400000Y-80220000D02*
X78400000Y-82920000D01*
X73600000Y-84220000D02*
X73600000Y-80220000D01*
X73600000Y-80220000D02*
X74800000Y-80220000D01*
X77200000Y-113220000D02*
X78400000Y-113220000D01*
X78400000Y-113220000D02*
X78400000Y-115920000D01*
X73600000Y-117220000D02*
X73600000Y-113220000D01*
X73600000Y-113220000D02*
X74800000Y-113220000D01*
X118670000Y-99190000D02*
G75*
G02X118670000Y-101190000I0J-1000000D01*
G01*
X118670000Y-101190000D02*
X118670000Y-102440000D01*
X118670000Y-102440000D02*
X128950000Y-102440000D01*
X128950000Y-102440000D02*
X128950000Y-97940000D01*
X128950000Y-97940000D02*
X118670000Y-97940000D01*
X118670000Y-97940000D02*
X118670000Y-99190000D01*
X118610000Y-105440000D02*
X129010000Y-105440000D01*
X129010000Y-105440000D02*
X129010000Y-94940000D01*
X129010000Y-94940000D02*
X118610000Y-94940000D01*
X118610000Y-94940000D02*
X118610000Y-105440000D01*
X71400000Y-83350000D02*
X71400000Y-82650000D01*
X72600000Y-82650000D02*
X72600000Y-83350000D01*
X71400000Y-116350000D02*
X71400000Y-115650000D01*
X72600000Y-115650000D02*
X72600000Y-116350000D01*
D12*
X71000000Y-126500000D02*
X97000000Y-126500000D01*
X71000000Y-71500000D02*
X97000000Y-71500000D01*
X71000000Y-126500000D02*
X71000000Y-71500000D01*
X97000000Y-71500000D02*
X97000000Y-126500000D01*
X126157143Y-53166666D02*
X126204762Y-53214285D01*
X126252381Y-53357142D01*
X126252381Y-53452380D01*
X126204762Y-53595238D01*
X126109524Y-53690476D01*
X126014286Y-53738095D01*
X125823810Y-53785714D01*
X125680952Y-53785714D01*
X125490476Y-53738095D01*
X125395238Y-53690476D01*
X125300000Y-53595238D01*
X125252381Y-53452380D01*
X125252381Y-53357142D01*
X125300000Y-53214285D01*
X125347619Y-53166666D01*
X126252381Y-52214285D02*
X126252381Y-52785714D01*
X126252381Y-52500000D02*
X125252381Y-52500000D01*
X125395238Y-52595238D01*
X125490476Y-52690476D01*
X125538095Y-52785714D01*
X138557143Y-53166666D02*
X138604762Y-53214285D01*
X138652381Y-53357142D01*
X138652381Y-53452380D01*
X138604762Y-53595238D01*
X138509524Y-53690476D01*
X138414286Y-53738095D01*
X138223810Y-53785714D01*
X138080952Y-53785714D01*
X137890476Y-53738095D01*
X137795238Y-53690476D01*
X137700000Y-53595238D01*
X137652381Y-53452380D01*
X137652381Y-53357142D01*
X137700000Y-53214285D01*
X137747619Y-53166666D01*
X137747619Y-52785714D02*
X137700000Y-52738095D01*
X137652381Y-52642857D01*
X137652381Y-52404761D01*
X137700000Y-52309523D01*
X137747619Y-52261904D01*
X137842857Y-52214285D01*
X137938095Y-52214285D01*
X138080952Y-52261904D01*
X138652381Y-52833333D01*
X138652381Y-52214285D01*
X79897143Y-82916666D02*
X79944762Y-82964285D01*
X79992381Y-83107142D01*
X79992381Y-83202380D01*
X79944762Y-83345238D01*
X79849524Y-83440476D01*
X79754286Y-83488095D01*
X79563810Y-83535714D01*
X79420952Y-83535714D01*
X79230476Y-83488095D01*
X79135238Y-83440476D01*
X79040000Y-83345238D01*
X78992381Y-83202380D01*
X78992381Y-83107142D01*
X79040000Y-82964285D01*
X79087619Y-82916666D01*
X78992381Y-82011904D02*
X78992381Y-82488095D01*
X79468571Y-82535714D01*
X79420952Y-82488095D01*
X79373333Y-82392857D01*
X79373333Y-82154761D01*
X79420952Y-82059523D01*
X79468571Y-82011904D01*
X79563810Y-81964285D01*
X79801905Y-81964285D01*
X79897143Y-82011904D01*
X79944762Y-82059523D01*
X79992381Y-82154761D01*
X79992381Y-82392857D01*
X79944762Y-82488095D01*
X79897143Y-82535714D01*
X79897143Y-115916666D02*
X79944762Y-115964285D01*
X79992381Y-116107142D01*
X79992381Y-116202380D01*
X79944762Y-116345238D01*
X79849524Y-116440476D01*
X79754286Y-116488095D01*
X79563810Y-116535714D01*
X79420952Y-116535714D01*
X79230476Y-116488095D01*
X79135238Y-116440476D01*
X79040000Y-116345238D01*
X78992381Y-116202380D01*
X78992381Y-116107142D01*
X79040000Y-115964285D01*
X79087619Y-115916666D01*
X78992381Y-115059523D02*
X78992381Y-115250000D01*
X79040000Y-115345238D01*
X79087619Y-115392857D01*
X79230476Y-115488095D01*
X79420952Y-115535714D01*
X79801905Y-115535714D01*
X79897143Y-115488095D01*
X79944762Y-115440476D01*
X79992381Y-115345238D01*
X79992381Y-115154761D01*
X79944762Y-115059523D01*
X79897143Y-115011904D01*
X79801905Y-114964285D01*
X79563810Y-114964285D01*
X79468571Y-115011904D01*
X79420952Y-115059523D01*
X79373333Y-115154761D01*
X79373333Y-115345238D01*
X79420952Y-115440476D01*
X79468571Y-115488095D01*
X79563810Y-115535714D01*
X53357143Y-83166666D02*
X53404762Y-83214285D01*
X53452381Y-83357142D01*
X53452381Y-83452380D01*
X53404762Y-83595238D01*
X53309524Y-83690476D01*
X53214286Y-83738095D01*
X53023810Y-83785714D01*
X52880952Y-83785714D01*
X52690476Y-83738095D01*
X52595238Y-83690476D01*
X52500000Y-83595238D01*
X52452381Y-83452380D01*
X52452381Y-83357142D01*
X52500000Y-83214285D01*
X52547619Y-83166666D01*
X52452381Y-82833333D02*
X52452381Y-82166666D01*
X53452381Y-82595238D01*
X62357143Y-84166666D02*
X62404762Y-84214285D01*
X62452381Y-84357142D01*
X62452381Y-84452380D01*
X62404762Y-84595238D01*
X62309524Y-84690476D01*
X62214286Y-84738095D01*
X62023810Y-84785714D01*
X61880952Y-84785714D01*
X61690476Y-84738095D01*
X61595238Y-84690476D01*
X61500000Y-84595238D01*
X61452381Y-84452380D01*
X61452381Y-84357142D01*
X61500000Y-84214285D01*
X61547619Y-84166666D01*
X61880952Y-83595238D02*
X61833333Y-83690476D01*
X61785714Y-83738095D01*
X61690476Y-83785714D01*
X61642857Y-83785714D01*
X61547619Y-83738095D01*
X61500000Y-83690476D01*
X61452381Y-83595238D01*
X61452381Y-83404761D01*
X61500000Y-83309523D01*
X61547619Y-83261904D01*
X61642857Y-83214285D01*
X61690476Y-83214285D01*
X61785714Y-83261904D01*
X61833333Y-83309523D01*
X61880952Y-83404761D01*
X61880952Y-83595238D01*
X61928571Y-83690476D01*
X61976190Y-83738095D01*
X62071429Y-83785714D01*
X62261905Y-83785714D01*
X62357143Y-83738095D01*
X62404762Y-83690476D01*
X62452381Y-83595238D01*
X62452381Y-83404761D01*
X62404762Y-83309523D01*
X62357143Y-83261904D01*
X62261905Y-83214285D01*
X62071429Y-83214285D01*
X61976190Y-83261904D01*
X61928571Y-83309523D01*
X61880952Y-83404761D01*
X53357143Y-117166666D02*
X53404762Y-117214285D01*
X53452381Y-117357142D01*
X53452381Y-117452380D01*
X53404762Y-117595238D01*
X53309524Y-117690476D01*
X53214286Y-117738095D01*
X53023810Y-117785714D01*
X52880952Y-117785714D01*
X52690476Y-117738095D01*
X52595238Y-117690476D01*
X52500000Y-117595238D01*
X52452381Y-117452380D01*
X52452381Y-117357142D01*
X52500000Y-117214285D01*
X52547619Y-117166666D01*
X53452381Y-116690476D02*
X53452381Y-116500000D01*
X53404762Y-116404761D01*
X53357143Y-116357142D01*
X53214286Y-116261904D01*
X53023810Y-116214285D01*
X52642857Y-116214285D01*
X52547619Y-116261904D01*
X52500000Y-116309523D01*
X52452381Y-116404761D01*
X52452381Y-116595238D01*
X52500000Y-116690476D01*
X52547619Y-116738095D01*
X52642857Y-116785714D01*
X52880952Y-116785714D01*
X52976190Y-116738095D01*
X53023810Y-116690476D01*
X53071429Y-116595238D01*
X53071429Y-116404761D01*
X53023810Y-116309523D01*
X52976190Y-116261904D01*
X52880952Y-116214285D01*
X62357143Y-117642857D02*
X62404762Y-117690476D01*
X62452381Y-117833333D01*
X62452381Y-117928571D01*
X62404762Y-118071429D01*
X62309524Y-118166667D01*
X62214286Y-118214286D01*
X62023810Y-118261905D01*
X61880952Y-118261905D01*
X61690476Y-118214286D01*
X61595238Y-118166667D01*
X61500000Y-118071429D01*
X61452381Y-117928571D01*
X61452381Y-117833333D01*
X61500000Y-117690476D01*
X61547619Y-117642857D01*
X62452381Y-116690476D02*
X62452381Y-117261905D01*
X62452381Y-116976191D02*
X61452381Y-116976191D01*
X61595238Y-117071429D01*
X61690476Y-117166667D01*
X61738095Y-117261905D01*
X61452381Y-116071429D02*
X61452381Y-115976190D01*
X61500000Y-115880952D01*
X61547619Y-115833333D01*
X61642857Y-115785714D01*
X61833333Y-115738095D01*
X62071429Y-115738095D01*
X62261905Y-115785714D01*
X62357143Y-115833333D01*
X62404762Y-115880952D01*
X62452381Y-115976190D01*
X62452381Y-116071429D01*
X62404762Y-116166667D01*
X62357143Y-116214286D01*
X62261905Y-116261905D01*
X62071429Y-116309524D01*
X61833333Y-116309524D01*
X61642857Y-116261905D01*
X61547619Y-116214286D01*
X61500000Y-116166667D01*
X61452381Y-116071429D01*
X104897143Y-83392857D02*
X104944762Y-83440476D01*
X104992381Y-83583333D01*
X104992381Y-83678571D01*
X104944762Y-83821429D01*
X104849524Y-83916667D01*
X104754286Y-83964286D01*
X104563810Y-84011905D01*
X104420952Y-84011905D01*
X104230476Y-83964286D01*
X104135238Y-83916667D01*
X104040000Y-83821429D01*
X103992381Y-83678571D01*
X103992381Y-83583333D01*
X104040000Y-83440476D01*
X104087619Y-83392857D01*
X104992381Y-82440476D02*
X104992381Y-83011905D01*
X104992381Y-82726191D02*
X103992381Y-82726191D01*
X104135238Y-82821429D01*
X104230476Y-82916667D01*
X104278095Y-83011905D01*
X104992381Y-81488095D02*
X104992381Y-82059524D01*
X104992381Y-81773810D02*
X103992381Y-81773810D01*
X104135238Y-81869048D01*
X104230476Y-81964286D01*
X104278095Y-82059524D01*
X99618643Y-93550643D02*
X99571024Y-93598262D01*
X99428167Y-93645881D01*
X99332929Y-93645881D01*
X99190071Y-93598262D01*
X99094833Y-93503024D01*
X99047214Y-93407786D01*
X98999595Y-93217310D01*
X98999595Y-93074452D01*
X99047214Y-92883976D01*
X99094833Y-92788738D01*
X99190071Y-92693500D01*
X99332929Y-92645881D01*
X99428167Y-92645881D01*
X99571024Y-92693500D01*
X99618643Y-92741119D01*
X100571024Y-93645881D02*
X99999595Y-93645881D01*
X100285309Y-93645881D02*
X100285309Y-92645881D01*
X100190071Y-92788738D01*
X100094833Y-92883976D01*
X99999595Y-92931595D01*
X100951976Y-92741119D02*
X100999595Y-92693500D01*
X101094833Y-92645881D01*
X101332929Y-92645881D01*
X101428167Y-92693500D01*
X101475786Y-92741119D01*
X101523405Y-92836357D01*
X101523405Y-92931595D01*
X101475786Y-93074452D01*
X100904357Y-93645881D01*
X101523405Y-93645881D01*
X105817143Y-115892857D02*
X105864762Y-115940476D01*
X105912381Y-116083333D01*
X105912381Y-116178571D01*
X105864762Y-116321429D01*
X105769524Y-116416667D01*
X105674286Y-116464286D01*
X105483810Y-116511905D01*
X105340952Y-116511905D01*
X105150476Y-116464286D01*
X105055238Y-116416667D01*
X104960000Y-116321429D01*
X104912381Y-116178571D01*
X104912381Y-116083333D01*
X104960000Y-115940476D01*
X105007619Y-115892857D01*
X105912381Y-114940476D02*
X105912381Y-115511905D01*
X105912381Y-115226191D02*
X104912381Y-115226191D01*
X105055238Y-115321429D01*
X105150476Y-115416667D01*
X105198095Y-115511905D01*
X104912381Y-114607143D02*
X104912381Y-113988095D01*
X105293333Y-114321429D01*
X105293333Y-114178571D01*
X105340952Y-114083333D01*
X105388571Y-114035714D01*
X105483810Y-113988095D01*
X105721905Y-113988095D01*
X105817143Y-114035714D01*
X105864762Y-114083333D01*
X105912381Y-114178571D01*
X105912381Y-114464286D01*
X105864762Y-114559524D01*
X105817143Y-114607143D01*
X96897143Y-85392857D02*
X96944762Y-85440476D01*
X96992381Y-85583333D01*
X96992381Y-85678571D01*
X96944762Y-85821429D01*
X96849524Y-85916667D01*
X96754286Y-85964286D01*
X96563810Y-86011905D01*
X96420952Y-86011905D01*
X96230476Y-85964286D01*
X96135238Y-85916667D01*
X96040000Y-85821429D01*
X95992381Y-85678571D01*
X95992381Y-85583333D01*
X96040000Y-85440476D01*
X96087619Y-85392857D01*
X96992381Y-84440476D02*
X96992381Y-85011905D01*
X96992381Y-84726191D02*
X95992381Y-84726191D01*
X96135238Y-84821429D01*
X96230476Y-84916667D01*
X96278095Y-85011905D01*
X96325714Y-83583333D02*
X96992381Y-83583333D01*
X95944762Y-83821429D02*
X96659048Y-84059524D01*
X96659048Y-83440476D01*
X99607143Y-106957143D02*
X99559524Y-107004762D01*
X99416667Y-107052381D01*
X99321429Y-107052381D01*
X99178571Y-107004762D01*
X99083333Y-106909524D01*
X99035714Y-106814286D01*
X98988095Y-106623810D01*
X98988095Y-106480952D01*
X99035714Y-106290476D01*
X99083333Y-106195238D01*
X99178571Y-106100000D01*
X99321429Y-106052381D01*
X99416667Y-106052381D01*
X99559524Y-106100000D01*
X99607143Y-106147619D01*
X100559524Y-107052381D02*
X99988095Y-107052381D01*
X100273809Y-107052381D02*
X100273809Y-106052381D01*
X100178571Y-106195238D01*
X100083333Y-106290476D01*
X99988095Y-106338095D01*
X101464286Y-106052381D02*
X100988095Y-106052381D01*
X100940476Y-106528571D01*
X100988095Y-106480952D01*
X101083333Y-106433333D01*
X101321429Y-106433333D01*
X101416667Y-106480952D01*
X101464286Y-106528571D01*
X101511905Y-106623810D01*
X101511905Y-106861905D01*
X101464286Y-106957143D01*
X101416667Y-107004762D01*
X101321429Y-107052381D01*
X101083333Y-107052381D01*
X100988095Y-107004762D01*
X100940476Y-106957143D01*
X113817143Y-117892857D02*
X113864762Y-117940476D01*
X113912381Y-118083333D01*
X113912381Y-118178571D01*
X113864762Y-118321429D01*
X113769524Y-118416667D01*
X113674286Y-118464286D01*
X113483810Y-118511905D01*
X113340952Y-118511905D01*
X113150476Y-118464286D01*
X113055238Y-118416667D01*
X112960000Y-118321429D01*
X112912381Y-118178571D01*
X112912381Y-118083333D01*
X112960000Y-117940476D01*
X113007619Y-117892857D01*
X113912381Y-116940476D02*
X113912381Y-117511905D01*
X113912381Y-117226191D02*
X112912381Y-117226191D01*
X113055238Y-117321429D01*
X113150476Y-117416667D01*
X113198095Y-117511905D01*
X112912381Y-116083333D02*
X112912381Y-116273810D01*
X112960000Y-116369048D01*
X113007619Y-116416667D01*
X113150476Y-116511905D01*
X113340952Y-116559524D01*
X113721905Y-116559524D01*
X113817143Y-116511905D01*
X113864762Y-116464286D01*
X113912381Y-116369048D01*
X113912381Y-116178571D01*
X113864762Y-116083333D01*
X113817143Y-116035714D01*
X113721905Y-115988095D01*
X113483810Y-115988095D01*
X113388571Y-116035714D01*
X113340952Y-116083333D01*
X113293333Y-116178571D01*
X113293333Y-116369048D01*
X113340952Y-116464286D01*
X113388571Y-116511905D01*
X113483810Y-116559524D01*
X109857143Y-101047143D02*
X109809524Y-101094762D01*
X109666667Y-101142381D01*
X109571429Y-101142381D01*
X109428571Y-101094762D01*
X109333333Y-100999524D01*
X109285714Y-100904286D01*
X109238095Y-100713810D01*
X109238095Y-100570952D01*
X109285714Y-100380476D01*
X109333333Y-100285238D01*
X109428571Y-100190000D01*
X109571429Y-100142381D01*
X109666667Y-100142381D01*
X109809524Y-100190000D01*
X109857143Y-100237619D01*
X110809524Y-101142381D02*
X110238095Y-101142381D01*
X110523809Y-101142381D02*
X110523809Y-100142381D01*
X110428571Y-100285238D01*
X110333333Y-100380476D01*
X110238095Y-100428095D01*
X111142857Y-100142381D02*
X111809524Y-100142381D01*
X111380952Y-101142381D01*
X109857143Y-87047143D02*
X109809524Y-87094762D01*
X109666667Y-87142381D01*
X109571429Y-87142381D01*
X109428571Y-87094762D01*
X109333333Y-86999524D01*
X109285714Y-86904286D01*
X109238095Y-86713810D01*
X109238095Y-86570952D01*
X109285714Y-86380476D01*
X109333333Y-86285238D01*
X109428571Y-86190000D01*
X109571429Y-86142381D01*
X109666667Y-86142381D01*
X109809524Y-86190000D01*
X109857143Y-86237619D01*
X110809524Y-87142381D02*
X110238095Y-87142381D01*
X110523809Y-87142381D02*
X110523809Y-86142381D01*
X110428571Y-86285238D01*
X110333333Y-86380476D01*
X110238095Y-86428095D01*
X111380952Y-86570952D02*
X111285714Y-86523333D01*
X111238095Y-86475714D01*
X111190476Y-86380476D01*
X111190476Y-86332857D01*
X111238095Y-86237619D01*
X111285714Y-86190000D01*
X111380952Y-86142381D01*
X111571429Y-86142381D01*
X111666667Y-86190000D01*
X111714286Y-86237619D01*
X111761905Y-86332857D01*
X111761905Y-86380476D01*
X111714286Y-86475714D01*
X111666667Y-86523333D01*
X111571429Y-86570952D01*
X111380952Y-86570952D01*
X111285714Y-86618571D01*
X111238095Y-86666190D01*
X111190476Y-86761429D01*
X111190476Y-86951905D01*
X111238095Y-87047143D01*
X111285714Y-87094762D01*
X111380952Y-87142381D01*
X111571429Y-87142381D01*
X111666667Y-87094762D01*
X111714286Y-87047143D01*
X111761905Y-86951905D01*
X111761905Y-86761429D01*
X111714286Y-86666190D01*
X111666667Y-86618571D01*
X111571429Y-86570952D01*
X124357143Y-82147143D02*
X124309524Y-82194762D01*
X124166667Y-82242381D01*
X124071429Y-82242381D01*
X123928571Y-82194762D01*
X123833333Y-82099524D01*
X123785714Y-82004286D01*
X123738095Y-81813810D01*
X123738095Y-81670952D01*
X123785714Y-81480476D01*
X123833333Y-81385238D01*
X123928571Y-81290000D01*
X124071429Y-81242381D01*
X124166667Y-81242381D01*
X124309524Y-81290000D01*
X124357143Y-81337619D01*
X125309524Y-82242381D02*
X124738095Y-82242381D01*
X125023809Y-82242381D02*
X125023809Y-81242381D01*
X124928571Y-81385238D01*
X124833333Y-81480476D01*
X124738095Y-81528095D01*
X125785714Y-82242381D02*
X125976190Y-82242381D01*
X126071429Y-82194762D01*
X126119048Y-82147143D01*
X126214286Y-82004286D01*
X126261905Y-81813810D01*
X126261905Y-81432857D01*
X126214286Y-81337619D01*
X126166667Y-81290000D01*
X126071429Y-81242381D01*
X125880952Y-81242381D01*
X125785714Y-81290000D01*
X125738095Y-81337619D01*
X125690476Y-81432857D01*
X125690476Y-81670952D01*
X125738095Y-81766190D01*
X125785714Y-81813810D01*
X125880952Y-81861429D01*
X126071429Y-81861429D01*
X126166667Y-81813810D01*
X126214286Y-81766190D01*
X126261905Y-81670952D01*
X132857143Y-117817143D02*
X132809524Y-117864762D01*
X132666667Y-117912381D01*
X132571429Y-117912381D01*
X132428571Y-117864762D01*
X132333333Y-117769524D01*
X132285714Y-117674286D01*
X132238095Y-117483810D01*
X132238095Y-117340952D01*
X132285714Y-117150476D01*
X132333333Y-117055238D01*
X132428571Y-116960000D01*
X132571429Y-116912381D01*
X132666667Y-116912381D01*
X132809524Y-116960000D01*
X132857143Y-117007619D01*
X133238095Y-117007619D02*
X133285714Y-116960000D01*
X133380952Y-116912381D01*
X133619048Y-116912381D01*
X133714286Y-116960000D01*
X133761905Y-117007619D01*
X133809524Y-117102857D01*
X133809524Y-117198095D01*
X133761905Y-117340952D01*
X133190476Y-117912381D01*
X133809524Y-117912381D01*
X134428571Y-116912381D02*
X134523810Y-116912381D01*
X134619048Y-116960000D01*
X134666667Y-117007619D01*
X134714286Y-117102857D01*
X134761905Y-117293333D01*
X134761905Y-117531429D01*
X134714286Y-117721905D01*
X134666667Y-117817143D01*
X134619048Y-117864762D01*
X134523810Y-117912381D01*
X134428571Y-117912381D01*
X134333333Y-117864762D01*
X134285714Y-117817143D01*
X134238095Y-117721905D01*
X134190476Y-117531429D01*
X134190476Y-117293333D01*
X134238095Y-117102857D01*
X134285714Y-117007619D01*
X134333333Y-116960000D01*
X134428571Y-116912381D01*
X122357143Y-91642857D02*
X122404762Y-91690476D01*
X122452381Y-91833333D01*
X122452381Y-91928571D01*
X122404762Y-92071429D01*
X122309524Y-92166667D01*
X122214286Y-92214286D01*
X122023810Y-92261905D01*
X121880952Y-92261905D01*
X121690476Y-92214286D01*
X121595238Y-92166667D01*
X121500000Y-92071429D01*
X121452381Y-91928571D01*
X121452381Y-91833333D01*
X121500000Y-91690476D01*
X121547619Y-91642857D01*
X121547619Y-91261905D02*
X121500000Y-91214286D01*
X121452381Y-91119048D01*
X121452381Y-90880952D01*
X121500000Y-90785714D01*
X121547619Y-90738095D01*
X121642857Y-90690476D01*
X121738095Y-90690476D01*
X121880952Y-90738095D01*
X122452381Y-91309524D01*
X122452381Y-90690476D01*
X122452381Y-89738095D02*
X122452381Y-90309524D01*
X122452381Y-90023810D02*
X121452381Y-90023810D01*
X121595238Y-90119048D01*
X121690476Y-90214286D01*
X121738095Y-90309524D01*
X98042381Y-44928095D02*
X97042381Y-44928095D01*
X97042381Y-44690000D01*
X97090000Y-44547142D01*
X97185238Y-44451904D01*
X97280476Y-44404285D01*
X97470952Y-44356666D01*
X97613810Y-44356666D01*
X97804286Y-44404285D01*
X97899524Y-44451904D01*
X97994762Y-44547142D01*
X98042381Y-44690000D01*
X98042381Y-44928095D01*
X98042381Y-43404285D02*
X98042381Y-43975714D01*
X98042381Y-43690000D02*
X97042381Y-43690000D01*
X97185238Y-43785238D01*
X97280476Y-43880476D01*
X97328095Y-43975714D01*
X118428571Y-60738095D02*
X118428571Y-61071429D01*
X118952381Y-61071429D02*
X117952381Y-61071429D01*
X117952381Y-60595238D01*
X118952381Y-59738095D02*
X118952381Y-60214286D01*
X117952381Y-60214286D01*
X118952381Y-58880952D02*
X118952381Y-59452381D01*
X118952381Y-59166667D02*
X117952381Y-59166667D01*
X118095238Y-59261905D01*
X118190476Y-59357143D01*
X118238095Y-59452381D01*
X125428571Y-41738095D02*
X125428571Y-42071429D01*
X125952381Y-42071429D02*
X124952381Y-42071429D01*
X124952381Y-41595238D01*
X125952381Y-40738095D02*
X125952381Y-41214286D01*
X124952381Y-41214286D01*
X125047619Y-40452381D02*
X125000000Y-40404762D01*
X124952381Y-40309524D01*
X124952381Y-40071428D01*
X125000000Y-39976190D01*
X125047619Y-39928571D01*
X125142857Y-39880952D01*
X125238095Y-39880952D01*
X125380952Y-39928571D01*
X125952381Y-40500000D01*
X125952381Y-39880952D01*
X133428571Y-41738095D02*
X133428571Y-42071429D01*
X133952381Y-42071429D02*
X132952381Y-42071429D01*
X132952381Y-41595238D01*
X133952381Y-40738095D02*
X133952381Y-41214286D01*
X132952381Y-41214286D01*
X132952381Y-40500000D02*
X132952381Y-39880952D01*
X133333333Y-40214286D01*
X133333333Y-40071428D01*
X133380952Y-39976190D01*
X133428571Y-39928571D01*
X133523810Y-39880952D01*
X133761905Y-39880952D01*
X133857143Y-39928571D01*
X133904762Y-39976190D01*
X133952381Y-40071428D01*
X133952381Y-40357143D01*
X133904762Y-40452381D01*
X133857143Y-40500000D01*
X68666667Y-46952381D02*
X68666667Y-47666667D01*
X68619047Y-47809524D01*
X68523809Y-47904762D01*
X68380952Y-47952381D01*
X68285714Y-47952381D01*
X69666667Y-47952381D02*
X69095238Y-47952381D01*
X69380952Y-47952381D02*
X69380952Y-46952381D01*
X69285714Y-47095238D01*
X69190476Y-47190476D01*
X69095238Y-47238095D01*
X43666667Y-73452381D02*
X43666667Y-74166667D01*
X43619047Y-74309524D01*
X43523809Y-74404762D01*
X43380952Y-74452381D01*
X43285714Y-74452381D01*
X44095238Y-73547619D02*
X44142857Y-73500000D01*
X44238095Y-73452381D01*
X44476191Y-73452381D01*
X44571429Y-73500000D01*
X44619048Y-73547619D01*
X44666667Y-73642857D01*
X44666667Y-73738095D01*
X44619048Y-73880952D01*
X44047619Y-74452381D01*
X44666667Y-74452381D01*
X45866667Y-101552381D02*
X45866667Y-102266667D01*
X45819047Y-102409524D01*
X45723809Y-102504762D01*
X45580952Y-102552381D01*
X45485714Y-102552381D01*
X46247619Y-101552381D02*
X46866667Y-101552381D01*
X46533333Y-101933333D01*
X46676191Y-101933333D01*
X46771429Y-101980952D01*
X46819048Y-102028571D01*
X46866667Y-102123810D01*
X46866667Y-102361905D01*
X46819048Y-102457143D01*
X46771429Y-102504762D01*
X46676191Y-102552381D01*
X46390476Y-102552381D01*
X46295238Y-102504762D01*
X46247619Y-102457143D01*
X137466667Y-97352381D02*
X137466667Y-98066667D01*
X137419047Y-98209524D01*
X137323809Y-98304762D01*
X137180952Y-98352381D01*
X137085714Y-98352381D01*
X138371429Y-97685714D02*
X138371429Y-98352381D01*
X138133333Y-97304762D02*
X137895238Y-98019048D01*
X138514286Y-98019048D01*
X61002381Y-95166666D02*
X60526190Y-95500000D01*
X61002381Y-95738095D02*
X60002381Y-95738095D01*
X60002381Y-95357142D01*
X60050000Y-95261904D01*
X60097619Y-95214285D01*
X60192857Y-95166666D01*
X60335714Y-95166666D01*
X60430952Y-95214285D01*
X60478571Y-95261904D01*
X60526190Y-95357142D01*
X60526190Y-95738095D01*
X61002381Y-94214285D02*
X61002381Y-94785714D01*
X61002381Y-94500000D02*
X60002381Y-94500000D01*
X60145238Y-94595238D01*
X60240476Y-94690476D01*
X60288095Y-94785714D01*
X90833334Y-83002381D02*
X90500000Y-82526190D01*
X90261905Y-83002381D02*
X90261905Y-82002381D01*
X90642858Y-82002381D01*
X90738096Y-82050000D01*
X90785715Y-82097619D01*
X90833334Y-82192857D01*
X90833334Y-82335714D01*
X90785715Y-82430952D01*
X90738096Y-82478571D01*
X90642858Y-82526190D01*
X90261905Y-82526190D01*
X91214286Y-82097619D02*
X91261905Y-82050000D01*
X91357143Y-82002381D01*
X91595239Y-82002381D01*
X91690477Y-82050000D01*
X91738096Y-82097619D01*
X91785715Y-82192857D01*
X91785715Y-82288095D01*
X91738096Y-82430952D01*
X91166667Y-83002381D01*
X91785715Y-83002381D01*
X63902381Y-105166666D02*
X63426190Y-105500000D01*
X63902381Y-105738095D02*
X62902381Y-105738095D01*
X62902381Y-105357142D01*
X62950000Y-105261904D01*
X62997619Y-105214285D01*
X63092857Y-105166666D01*
X63235714Y-105166666D01*
X63330952Y-105214285D01*
X63378571Y-105261904D01*
X63426190Y-105357142D01*
X63426190Y-105738095D01*
X62902381Y-104833333D02*
X62902381Y-104214285D01*
X63283333Y-104547619D01*
X63283333Y-104404761D01*
X63330952Y-104309523D01*
X63378571Y-104261904D01*
X63473810Y-104214285D01*
X63711905Y-104214285D01*
X63807143Y-104261904D01*
X63854762Y-104309523D01*
X63902381Y-104404761D01*
X63902381Y-104690476D01*
X63854762Y-104785714D01*
X63807143Y-104833333D01*
X90833334Y-116002381D02*
X90500000Y-115526190D01*
X90261905Y-116002381D02*
X90261905Y-115002381D01*
X90642858Y-115002381D01*
X90738096Y-115050000D01*
X90785715Y-115097619D01*
X90833334Y-115192857D01*
X90833334Y-115335714D01*
X90785715Y-115430952D01*
X90738096Y-115478571D01*
X90642858Y-115526190D01*
X90261905Y-115526190D01*
X91690477Y-115335714D02*
X91690477Y-116002381D01*
X91452381Y-114954762D02*
X91214286Y-115669048D01*
X91833334Y-115669048D01*
X98002381Y-105166666D02*
X97526190Y-105500000D01*
X98002381Y-105738095D02*
X97002381Y-105738095D01*
X97002381Y-105357142D01*
X97050000Y-105261904D01*
X97097619Y-105214285D01*
X97192857Y-105166666D01*
X97335714Y-105166666D01*
X97430952Y-105214285D01*
X97478571Y-105261904D01*
X97526190Y-105357142D01*
X97526190Y-105738095D01*
X97002381Y-104261904D02*
X97002381Y-104738095D01*
X97478571Y-104785714D01*
X97430952Y-104738095D01*
X97383333Y-104642857D01*
X97383333Y-104404761D01*
X97430952Y-104309523D01*
X97478571Y-104261904D01*
X97573810Y-104214285D01*
X97811905Y-104214285D01*
X97907143Y-104261904D01*
X97954762Y-104309523D01*
X98002381Y-104404761D01*
X98002381Y-104642857D01*
X97954762Y-104738095D01*
X97907143Y-104785714D01*
X100902381Y-95166666D02*
X100426190Y-95500000D01*
X100902381Y-95738095D02*
X99902381Y-95738095D01*
X99902381Y-95357142D01*
X99950000Y-95261904D01*
X99997619Y-95214285D01*
X100092857Y-95166666D01*
X100235714Y-95166666D01*
X100330952Y-95214285D01*
X100378571Y-95261904D01*
X100426190Y-95357142D01*
X100426190Y-95738095D01*
X99902381Y-94309523D02*
X99902381Y-94500000D01*
X99950000Y-94595238D01*
X99997619Y-94642857D01*
X100140476Y-94738095D01*
X100330952Y-94785714D01*
X100711905Y-94785714D01*
X100807143Y-94738095D01*
X100854762Y-94690476D01*
X100902381Y-94595238D01*
X100902381Y-94404761D01*
X100854762Y-94309523D01*
X100807143Y-94261904D01*
X100711905Y-94214285D01*
X100473810Y-94214285D01*
X100378571Y-94261904D01*
X100330952Y-94309523D01*
X100283333Y-94404761D01*
X100283333Y-94595238D01*
X100330952Y-94690476D01*
X100378571Y-94738095D01*
X100473810Y-94785714D01*
X124333334Y-108702381D02*
X124000000Y-108226190D01*
X123761905Y-108702381D02*
X123761905Y-107702381D01*
X124142858Y-107702381D01*
X124238096Y-107750000D01*
X124285715Y-107797619D01*
X124333334Y-107892857D01*
X124333334Y-108035714D01*
X124285715Y-108130952D01*
X124238096Y-108178571D01*
X124142858Y-108226190D01*
X123761905Y-108226190D01*
X124904762Y-108130952D02*
X124809524Y-108083333D01*
X124761905Y-108035714D01*
X124714286Y-107940476D01*
X124714286Y-107892857D01*
X124761905Y-107797619D01*
X124809524Y-107750000D01*
X124904762Y-107702381D01*
X125095239Y-107702381D01*
X125190477Y-107750000D01*
X125238096Y-107797619D01*
X125285715Y-107892857D01*
X125285715Y-107940476D01*
X125238096Y-108035714D01*
X125190477Y-108083333D01*
X125095239Y-108130952D01*
X124904762Y-108130952D01*
X124809524Y-108178571D01*
X124761905Y-108226190D01*
X124714286Y-108321429D01*
X124714286Y-108511905D01*
X124761905Y-108607143D01*
X124809524Y-108654762D01*
X124904762Y-108702381D01*
X125095239Y-108702381D01*
X125190477Y-108654762D01*
X125238096Y-108607143D01*
X125285715Y-108511905D01*
X125285715Y-108321429D01*
X125238096Y-108226190D01*
X125190477Y-108178571D01*
X125095239Y-108130952D01*
X120333334Y-108652381D02*
X120000000Y-108176190D01*
X119761905Y-108652381D02*
X119761905Y-107652381D01*
X120142858Y-107652381D01*
X120238096Y-107700000D01*
X120285715Y-107747619D01*
X120333334Y-107842857D01*
X120333334Y-107985714D01*
X120285715Y-108080952D01*
X120238096Y-108128571D01*
X120142858Y-108176190D01*
X119761905Y-108176190D01*
X120809524Y-108652381D02*
X121000000Y-108652381D01*
X121095239Y-108604762D01*
X121142858Y-108557143D01*
X121238096Y-108414286D01*
X121285715Y-108223810D01*
X121285715Y-107842857D01*
X121238096Y-107747619D01*
X121190477Y-107700000D01*
X121095239Y-107652381D01*
X120904762Y-107652381D01*
X120809524Y-107700000D01*
X120761905Y-107747619D01*
X120714286Y-107842857D01*
X120714286Y-108080952D01*
X120761905Y-108176190D01*
X120809524Y-108223810D01*
X120904762Y-108271429D01*
X121095239Y-108271429D01*
X121190477Y-108223810D01*
X121238096Y-108176190D01*
X121285715Y-108080952D01*
X133357143Y-105752381D02*
X133023809Y-105276190D01*
X132785714Y-105752381D02*
X132785714Y-104752381D01*
X133166667Y-104752381D01*
X133261905Y-104800000D01*
X133309524Y-104847619D01*
X133357143Y-104942857D01*
X133357143Y-105085714D01*
X133309524Y-105180952D01*
X133261905Y-105228571D01*
X133166667Y-105276190D01*
X132785714Y-105276190D01*
X134309524Y-105752381D02*
X133738095Y-105752381D01*
X134023809Y-105752381D02*
X134023809Y-104752381D01*
X133928571Y-104895238D01*
X133833333Y-104990476D01*
X133738095Y-105038095D01*
X134928571Y-104752381D02*
X135023810Y-104752381D01*
X135119048Y-104800000D01*
X135166667Y-104847619D01*
X135214286Y-104942857D01*
X135261905Y-105133333D01*
X135261905Y-105371429D01*
X135214286Y-105561905D01*
X135166667Y-105657143D01*
X135119048Y-105704762D01*
X135023810Y-105752381D01*
X134928571Y-105752381D01*
X134833333Y-105704762D01*
X134785714Y-105657143D01*
X134738095Y-105561905D01*
X134690476Y-105371429D01*
X134690476Y-105133333D01*
X134738095Y-104942857D01*
X134785714Y-104847619D01*
X134833333Y-104800000D01*
X134928571Y-104752381D01*
X128107143Y-92452381D02*
X127773809Y-91976190D01*
X127535714Y-92452381D02*
X127535714Y-91452381D01*
X127916667Y-91452381D01*
X128011905Y-91500000D01*
X128059524Y-91547619D01*
X128107143Y-91642857D01*
X128107143Y-91785714D01*
X128059524Y-91880952D01*
X128011905Y-91928571D01*
X127916667Y-91976190D01*
X127535714Y-91976190D01*
X129059524Y-92452381D02*
X128488095Y-92452381D01*
X128773809Y-92452381D02*
X128773809Y-91452381D01*
X128678571Y-91595238D01*
X128583333Y-91690476D01*
X128488095Y-91738095D01*
X129440476Y-91547619D02*
X129488095Y-91500000D01*
X129583333Y-91452381D01*
X129821429Y-91452381D01*
X129916667Y-91500000D01*
X129964286Y-91547619D01*
X130011905Y-91642857D01*
X130011905Y-91738095D01*
X129964286Y-91880952D01*
X129392857Y-92452381D01*
X130011905Y-92452381D01*
X124107143Y-92452381D02*
X123773809Y-91976190D01*
X123535714Y-92452381D02*
X123535714Y-91452381D01*
X123916667Y-91452381D01*
X124011905Y-91500000D01*
X124059524Y-91547619D01*
X124107143Y-91642857D01*
X124107143Y-91785714D01*
X124059524Y-91880952D01*
X124011905Y-91928571D01*
X123916667Y-91976190D01*
X123535714Y-91976190D01*
X125059524Y-92452381D02*
X124488095Y-92452381D01*
X124773809Y-92452381D02*
X124773809Y-91452381D01*
X124678571Y-91595238D01*
X124583333Y-91690476D01*
X124488095Y-91738095D01*
X125392857Y-91452381D02*
X126011905Y-91452381D01*
X125678571Y-91833333D01*
X125821429Y-91833333D01*
X125916667Y-91880952D01*
X125964286Y-91928571D01*
X126011905Y-92023810D01*
X126011905Y-92261905D01*
X125964286Y-92357143D01*
X125916667Y-92404762D01*
X125821429Y-92452381D01*
X125535714Y-92452381D01*
X125440476Y-92404762D01*
X125392857Y-92357143D01*
X133357143Y-92502381D02*
X133023809Y-92026190D01*
X132785714Y-92502381D02*
X132785714Y-91502381D01*
X133166667Y-91502381D01*
X133261905Y-91550000D01*
X133309524Y-91597619D01*
X133357143Y-91692857D01*
X133357143Y-91835714D01*
X133309524Y-91930952D01*
X133261905Y-91978571D01*
X133166667Y-92026190D01*
X132785714Y-92026190D01*
X134309524Y-92502381D02*
X133738095Y-92502381D01*
X134023809Y-92502381D02*
X134023809Y-91502381D01*
X133928571Y-91645238D01*
X133833333Y-91740476D01*
X133738095Y-91788095D01*
X135166667Y-91835714D02*
X135166667Y-92502381D01*
X134928571Y-91454762D02*
X134690476Y-92169048D01*
X135309524Y-92169048D01*
X45452381Y-83595238D02*
X44976190Y-83928572D01*
X45452381Y-84166667D02*
X44452381Y-84166667D01*
X44452381Y-83785714D01*
X44500000Y-83690476D01*
X44547619Y-83642857D01*
X44642857Y-83595238D01*
X44785714Y-83595238D01*
X44880952Y-83642857D01*
X44928571Y-83690476D01*
X44976190Y-83785714D01*
X44976190Y-84166667D01*
X44452381Y-83309524D02*
X45452381Y-82976191D01*
X44452381Y-82642857D01*
X45452381Y-81785714D02*
X45452381Y-82357143D01*
X45452381Y-82071429D02*
X44452381Y-82071429D01*
X44595238Y-82166667D01*
X44690476Y-82261905D01*
X44738095Y-82357143D01*
X68452381Y-85595238D02*
X67976190Y-85928572D01*
X68452381Y-86166667D02*
X67452381Y-86166667D01*
X67452381Y-85785714D01*
X67500000Y-85690476D01*
X67547619Y-85642857D01*
X67642857Y-85595238D01*
X67785714Y-85595238D01*
X67880952Y-85642857D01*
X67928571Y-85690476D01*
X67976190Y-85785714D01*
X67976190Y-86166667D01*
X67452381Y-85309524D02*
X68452381Y-84976191D01*
X67452381Y-84642857D01*
X67547619Y-84357143D02*
X67500000Y-84309524D01*
X67452381Y-84214286D01*
X67452381Y-83976190D01*
X67500000Y-83880952D01*
X67547619Y-83833333D01*
X67642857Y-83785714D01*
X67738095Y-83785714D01*
X67880952Y-83833333D01*
X68452381Y-84404762D01*
X68452381Y-83785714D01*
X45452381Y-117595238D02*
X44976190Y-117928572D01*
X45452381Y-118166667D02*
X44452381Y-118166667D01*
X44452381Y-117785714D01*
X44500000Y-117690476D01*
X44547619Y-117642857D01*
X44642857Y-117595238D01*
X44785714Y-117595238D01*
X44880952Y-117642857D01*
X44928571Y-117690476D01*
X44976190Y-117785714D01*
X44976190Y-118166667D01*
X44452381Y-117309524D02*
X45452381Y-116976191D01*
X44452381Y-116642857D01*
X44452381Y-116404762D02*
X44452381Y-115785714D01*
X44833333Y-116119048D01*
X44833333Y-115976190D01*
X44880952Y-115880952D01*
X44928571Y-115833333D01*
X45023810Y-115785714D01*
X45261905Y-115785714D01*
X45357143Y-115833333D01*
X45404762Y-115880952D01*
X45452381Y-115976190D01*
X45452381Y-116261905D01*
X45404762Y-116357143D01*
X45357143Y-116404762D01*
X68452381Y-115595238D02*
X67976190Y-115928572D01*
X68452381Y-116166667D02*
X67452381Y-116166667D01*
X67452381Y-115785714D01*
X67500000Y-115690476D01*
X67547619Y-115642857D01*
X67642857Y-115595238D01*
X67785714Y-115595238D01*
X67880952Y-115642857D01*
X67928571Y-115690476D01*
X67976190Y-115785714D01*
X67976190Y-116166667D01*
X67452381Y-115309524D02*
X68452381Y-114976191D01*
X67452381Y-114642857D01*
X67785714Y-113880952D02*
X68452381Y-113880952D01*
X67404762Y-114119048D02*
X68119048Y-114357143D01*
X68119048Y-113738095D01*
X101666667Y-64404762D02*
X101809524Y-64452381D01*
X102047620Y-64452381D01*
X102142858Y-64404762D01*
X102190477Y-64357143D01*
X102238096Y-64261905D01*
X102238096Y-64166667D01*
X102190477Y-64071429D01*
X102142858Y-64023810D01*
X102047620Y-63976190D01*
X101857143Y-63928571D01*
X101761905Y-63880952D01*
X101714286Y-63833333D01*
X101666667Y-63738095D01*
X101666667Y-63642857D01*
X101714286Y-63547619D01*
X101761905Y-63500000D01*
X101857143Y-63452381D01*
X102095239Y-63452381D01*
X102238096Y-63500000D01*
X102571429Y-63452381D02*
X102809524Y-64452381D01*
X103000001Y-63738095D01*
X103190477Y-64452381D01*
X103428572Y-63452381D01*
X104333334Y-64452381D02*
X103761905Y-64452381D01*
X104047619Y-64452381D02*
X104047619Y-63452381D01*
X103952381Y-63595238D01*
X103857143Y-63690476D01*
X103761905Y-63738095D01*
X114452381Y-43761905D02*
X115261905Y-43761905D01*
X115357143Y-43714286D01*
X115404762Y-43666667D01*
X115452381Y-43571429D01*
X115452381Y-43380952D01*
X115404762Y-43285714D01*
X115357143Y-43238095D01*
X115261905Y-43190476D01*
X114452381Y-43190476D01*
X115452381Y-42190476D02*
X115452381Y-42761905D01*
X115452381Y-42476191D02*
X114452381Y-42476191D01*
X114595238Y-42571429D01*
X114690476Y-42666667D01*
X114738095Y-42761905D01*
X114476191Y-51552381D02*
X114476191Y-50552381D01*
X114952381Y-51552381D02*
X114952381Y-50552381D01*
X115523810Y-51552381D01*
X115523810Y-50552381D01*
X73452381Y-76761905D02*
X74261905Y-76761905D01*
X74357143Y-76714286D01*
X74404762Y-76666667D01*
X74452381Y-76571429D01*
X74452381Y-76380952D01*
X74404762Y-76285714D01*
X74357143Y-76238095D01*
X74261905Y-76190476D01*
X73452381Y-76190476D01*
X73547619Y-75761905D02*
X73500000Y-75714286D01*
X73452381Y-75619048D01*
X73452381Y-75380952D01*
X73500000Y-75285714D01*
X73547619Y-75238095D01*
X73642857Y-75190476D01*
X73738095Y-75190476D01*
X73880952Y-75238095D01*
X74452381Y-75809524D01*
X74452381Y-75190476D01*
X73452381Y-109761905D02*
X74261905Y-109761905D01*
X74357143Y-109714286D01*
X74404762Y-109666667D01*
X74452381Y-109571429D01*
X74452381Y-109380952D01*
X74404762Y-109285714D01*
X74357143Y-109238095D01*
X74261905Y-109190476D01*
X73452381Y-109190476D01*
X73452381Y-108809524D02*
X73452381Y-108190476D01*
X73833333Y-108523810D01*
X73833333Y-108380952D01*
X73880952Y-108285714D01*
X73928571Y-108238095D01*
X74023810Y-108190476D01*
X74261905Y-108190476D01*
X74357143Y-108238095D01*
X74404762Y-108285714D01*
X74452381Y-108380952D01*
X74452381Y-108666667D01*
X74404762Y-108761905D01*
X74357143Y-108809524D01*
X117122381Y-100951905D02*
X117931905Y-100951905D01*
X118027143Y-100904286D01*
X118074762Y-100856667D01*
X118122381Y-100761429D01*
X118122381Y-100570952D01*
X118074762Y-100475714D01*
X118027143Y-100428095D01*
X117931905Y-100380476D01*
X117122381Y-100380476D01*
X117122381Y-99428095D02*
X117122381Y-99904286D01*
X117598571Y-99951905D01*
X117550952Y-99904286D01*
X117503333Y-99809048D01*
X117503333Y-99570952D01*
X117550952Y-99475714D01*
X117598571Y-99428095D01*
X117693810Y-99380476D01*
X117931905Y-99380476D01*
X118027143Y-99428095D01*
X118074762Y-99475714D01*
X118122381Y-99570952D01*
X118122381Y-99809048D01*
X118074762Y-99904286D01*
X118027143Y-99951905D01*
X72357143Y-86166666D02*
X72404762Y-86214285D01*
X72452381Y-86357142D01*
X72452381Y-86452380D01*
X72404762Y-86595238D01*
X72309524Y-86690476D01*
X72214286Y-86738095D01*
X72023810Y-86785714D01*
X71880952Y-86785714D01*
X71690476Y-86738095D01*
X71595238Y-86690476D01*
X71500000Y-86595238D01*
X71452381Y-86452380D01*
X71452381Y-86357142D01*
X71500000Y-86214285D01*
X71547619Y-86166666D01*
X71452381Y-85833333D02*
X71452381Y-85214285D01*
X71833333Y-85547619D01*
X71833333Y-85404761D01*
X71880952Y-85309523D01*
X71928571Y-85261904D01*
X72023810Y-85214285D01*
X72261905Y-85214285D01*
X72357143Y-85261904D01*
X72404762Y-85309523D01*
X72452381Y-85404761D01*
X72452381Y-85690476D01*
X72404762Y-85785714D01*
X72357143Y-85833333D01*
X72357143Y-119166666D02*
X72404762Y-119214285D01*
X72452381Y-119357142D01*
X72452381Y-119452380D01*
X72404762Y-119595238D01*
X72309524Y-119690476D01*
X72214286Y-119738095D01*
X72023810Y-119785714D01*
X71880952Y-119785714D01*
X71690476Y-119738095D01*
X71595238Y-119690476D01*
X71500000Y-119595238D01*
X71452381Y-119452380D01*
X71452381Y-119357142D01*
X71500000Y-119214285D01*
X71547619Y-119166666D01*
X71785714Y-118309523D02*
X72452381Y-118309523D01*
X71404762Y-118547619D02*
X72119048Y-118785714D01*
X72119048Y-118166666D01*
X83452381Y-100761905D02*
X84261905Y-100761905D01*
X84357143Y-100714286D01*
X84404762Y-100666667D01*
X84452381Y-100571429D01*
X84452381Y-100380952D01*
X84404762Y-100285714D01*
X84357143Y-100238095D01*
X84261905Y-100190476D01*
X83452381Y-100190476D01*
X83785714Y-99285714D02*
X84452381Y-99285714D01*
X83404762Y-99523810D02*
X84119048Y-99761905D01*
X84119048Y-99142857D01*
M02*
