M48
;DRILL file {KiCad 4.0.7} date 06/18/21 00:58:46
;FORMAT={-:-/ absolute / inch / decimal}
FMAT,2
INCH,TZ
T1C0.016
T2C0.020
T3C0.024
T4C0.030
T5C0.031
T6C0.039
T7C0.043
T8C0.126
T9C0.118
T10C0.126
%
G90
G05
M72
T1
X2.9331Y-3.4252
X2.9823Y-4.2618
T4
X1.7028Y-3.189
X1.7126Y-1.2402
X1.7717Y-3.4449
X1.7717Y-3.5433
X1.7717Y-3.6417
X1.7717Y-4.2323
X1.7717Y-4.3307
X1.7717Y-4.4291
X2.2146Y-3.1988
X2.2539Y-2.7165
X2.3819Y-3.7205
X2.3819Y-4.1535
X2.5197Y-3.7106
X2.5197Y-4.1535
X2.6772Y-3.5236
X2.6772Y-3.622
X2.6772Y-3.7205
X2.6772Y-4.1535
X2.6772Y-4.252
X2.6772Y-4.3504
X2.7461Y-3.7402
X2.7461Y-4.124
X2.8248Y-4.4783
X2.8642Y-4.6654
X2.9035Y-4.252
X2.9134Y-3.622
X2.9134Y-3.937
X3.0512Y-3.622
X3.0512Y-3.937
X3.0512Y-4.252
X3.1496Y-4.6654
X3.1988Y-3.376
X3.8386Y-3.6417
X3.8386Y-4.2323
X3.8878Y-3.3858
X3.8878Y-4.4882
X3.9862Y-3.7106
X3.9862Y-4.1634
X3.9961Y-1.2402
X4.2323Y-2.2638
X4.2815Y-3.4154
X4.2815Y-3.5728
X4.2815Y-3.9469
X4.2815Y-4.3012
X4.2815Y-4.4587
X4.311Y-2.0571
X4.3307Y-1.2303
X4.3543Y-2.5472
X4.3776Y-1.2929
X4.3776Y-2.0929
X4.4193Y-3.376
X4.4193Y-3.9469
X4.4587Y-1.9882
X4.4776Y-1.2929
X4.4776Y-2.0929
X4.5776Y-1.2929
X4.5776Y-2.0929
X4.5866Y-2.874
X4.6063Y-3.5236
X4.6063Y-4.3602
X4.626Y-2.5689
X4.626Y-2.6772
X4.6776Y-1.2929
X4.6776Y-2.0929
X4.7047Y-1.9882
X4.7343Y-3.9469
X4.7835Y-1.8602
X4.813Y-3.9469
X4.8622Y-4.2618
X4.8917Y-3.9469
X4.9803Y-1.4469
X4.9803Y-2.0866
X5.Y-1.8012
X5.0197Y-4.4587
X5.0295Y-3.622
X5.128Y-1.7815
X5.1378Y-4.1929
X5.1969Y-2.0866
X5.2461Y-4.2913
X5.2559Y-3.7402
X5.2657Y-1.7815
X5.2756Y-1.2402
X5.2756Y-4.0846
X5.315Y-3.6122
X5.3543Y-3.9665
X5.3839Y-4.2323
X5.3937Y-1.7815
X5.3937Y-3.6909
X5.4035Y-1.437
X5.4134Y-2.0866
X5.4232Y-4.1043
X5.5413Y-1.2303
X5.5413Y-1.4173
X5.5413Y-1.811
X5.5413Y-3.878
X5.5413Y-4.1732
T5
X2.4409Y-3.4449
X2.4409Y-3.5433
X2.4409Y-4.3307
X2.4409Y-4.4291
X3.3071Y-3.2087
X3.3071Y-3.3071
X3.3071Y-4.5079
X3.3071Y-4.6063
X3.9764Y-3.2874
X3.9764Y-3.3858
X3.9764Y-4.4882
X3.9764Y-4.5866
X4.2913Y-3.2087
X4.2913Y-3.3071
X4.2913Y-4.5669
X4.2913Y-4.6654
X4.7244Y-3.7945
X4.7244Y-4.0945
X4.8244Y-3.7945
X4.8244Y-4.0945
X4.872Y-3.3957
X4.9244Y-3.7945
X4.9244Y-4.0945
X4.9705Y-3.3957
X5.0244Y-3.7945
X5.0244Y-4.0945
X5.2067Y-4.4488
X5.3051Y-4.4488
T6
X1.7913Y-1.5945
X1.7913Y-2.1063
X2.0866Y-3.4252
X2.0866Y-3.622
X2.0866Y-4.252
X2.0866Y-4.4488
X2.874Y-2.8909
X2.874Y-4.8988
X2.974Y-2.8909
X2.974Y-4.8988
X3.074Y-2.8909
X3.074Y-4.8988
X3.174Y-2.8909
X3.174Y-4.8988
X3.7402Y-3.487
X3.7402Y-3.587
X3.7402Y-3.687
X3.7402Y-3.787
X3.7402Y-3.887
X3.7402Y-3.987
X3.7402Y-4.087
X3.7402Y-4.187
X3.7402Y-4.287
X3.7402Y-4.387
X4.252Y-3.6614
X4.252Y-4.2126
X4.4488Y-3.6614
X4.4488Y-4.2126
T7
X3.937Y-1.5898
X3.937Y-1.8898
T8
X1.811Y-4.9606
X5.4331Y-4.9606
T9
X3.2874Y-2.3031
T10
X1.811Y-1.3386
X5.4331Y-1.3386
T2
X1.752Y-3.8386G85X1.7913Y-3.8386
G05
X1.8701Y-3.8386G85X1.9094Y-3.8386
G05
X2.0276Y-3.8386G85X2.0669Y-3.8386
G05
X2.0866Y-4.0276G85X2.126Y-4.0276
G05
X5.1575Y-3.8465G85X5.1181Y-3.8465
G05
X5.2165Y-4.0354G85X5.1772Y-4.0354
G05
X5.374Y-4.0354G85X5.3346Y-4.0354
G05
X5.4921Y-4.0354G85X5.4528Y-4.0354
G05
T3
X1.7421Y-2.5768G85X1.7224Y-2.5768
G05
X1.7421Y-2.8563G85X1.7224Y-2.8563
G05
T4
X3.9551Y-2.3418G85X3.9551Y-2.3826
G05
X4.1551Y-2.3418G85X4.1551Y-2.3826
G05
T0
M30
